<svg xmlns="http://www.w3.org/2000/svg" width="29.929" height="18.589" viewBox="0 0 29.929 18.589"><path d="M2.487,0H27.442a2.5,2.5,0,0,1,2.487,2.487V16.1a2.5,2.5,0,0,1-2.487,2.487H2.487A2.494,2.494,0,0,1,0,16.1V2.487A2.494,2.494,0,0,1,2.487,0ZM1.461,2.572H28.468V6.664H1.461ZM3.23,10.741H9.179v1.4H3.23Zm16.806-.731a2.617,2.617,0,0,1,1.22.3,3.653,3.653,0,0,0,0,4.661,2.63,2.63,0,1,1-1.22-4.961Zm4.034,0a2.63,2.63,0,1,1-2.631,2.631A2.63,2.63,0,0,1,24.069,10.01ZM3.23,13.532h9.4v1.4H3.23Z" fill="#f55fb9" fill-rule="evenodd"/></svg>