<svg xmlns="http://www.w3.org/2000/svg" width="364" height="207.291"><defs><linearGradient id="a" x1=".977" y1=".956" x2="0" y2=".066" gradientUnits="objectBoundingBox"><stop offset="0" stop-color="#748ef3"/><stop offset=".494" stop-color="#4c68d7"/><stop offset="1" stop-color="#2441bb"/></linearGradient><linearGradient id="c" x1=".977" y1=".956" x2="0" y2=".066" gradientUnits="objectBoundingBox"><stop offset="0" stop-color="#2692d9"/><stop offset="1" stop-color="#234891"/></linearGradient><linearGradient id="e" x1=".981" y1=".152" x2=".115" y2=".906" gradientUnits="objectBoundingBox"><stop offset="0" stop-color="#fff" stop-opacity=".431"/><stop offset="1" stop-color="#fff"/></linearGradient><clipPath id="d"><rect width="325" height="168.291" rx="19" fill="url(#a)"/></clipPath><filter id="b" x="0" y="0" width="364" height="207.291" filterUnits="userSpaceOnUse"><feOffset dy="9"/><feGaussianBlur stdDeviation="6.5" result="d"/><feFlood flood-color="#11257a" flood-opacity=".278"/><feComposite operator="in" in2="d"/><feComposite in="SourceGraphic"/></filter></defs><g filter="url(#b)"><rect width="325" height="168.291" rx="19" transform="translate(19.5 10.5)" fill="url(#c)"/></g><g transform="translate(19.5 10.5)" clip-path="url(#d)"><g transform="rotate(3 2948.5844566 1709.62897981)" fill="url(#e)"><path d="M367.4207585 69.9542295c137.08451198 44.35640064 231.0261071 132.99629525 209.82148359 197.98235014s-149.52106263 81.71065473-286.60652565 37.35394508S59.61182048 172.29389645 80.81454187 107.30722352 230.33529547 25.59751985 367.4207585 69.9542295z" opacity=".07"/><path d="M326.04254364 76.0550258c137.37341163 43.19553812 233.4899212 131.51230872 214.68078538 197.26513543s-145.42323726 84.03321191-282.79635652 40.83671749S24.44079733 182.6425782 43.24847129 116.89453302s145.4209531-84.03600165 282.79407235-40.83950722z" opacity=".07"/></g></g></svg>