<svg xmlns="http://www.w3.org/2000/svg" width="19.604" height="20" viewBox="0 0 19.604 20">
  <g id="Google__G__Logo" transform="translate(0.05 0.018)">
    <path id="Tracciato_3949" data-name="Tracciato 3949" d="M281.7,225.132a11.76,11.76,0,0,0-.173-2.032H272.1v3.851h5.4a4.629,4.629,0,0,1-2,3.039v2.5h3.222A9.766,9.766,0,0,0,281.7,225.132Z" transform="translate(-262.15 -214.92)" fill="#4285f4"/>
    <path id="Tracciato_3950" data-name="Tracciato 3950" d="M37.836,332.383a9.572,9.572,0,0,0,6.628-2.414l-3.222-2.5a6.065,6.065,0,0,1-9.017-3.171H28.9v2.576A10,10,0,0,0,37.836,332.383Z" transform="translate(-27.886 -312.402)" fill="#34a853"/>
    <path id="Tracciato_3951" data-name="Tracciato 3951" d="M4.335,156.4a5.99,5.99,0,0,1,0-3.829V150H1.014a10.008,10.008,0,0,0,0,8.98Z" transform="translate(0 -144.506)" fill="#fbbc04"/>
    <path id="Tracciato_3952" data-name="Tracciato 3952" d="M37.836,3.94a5.434,5.434,0,0,1,3.836,1.5h0l2.855-2.855a9.611,9.611,0,0,0-6.691-2.6A10,10,0,0,0,28.9,5.494L32.222,8.07A5.981,5.981,0,0,1,37.836,3.94Z" transform="translate(-27.886 0)" fill="#ea4335"/>
  </g>
</svg>
