<svg xmlns="http://www.w3.org/2000/svg" xmlns:xlink="http://www.w3.org/1999/xlink" width="112.115" height="246.235" viewBox="0 0 112.115 246.235"><defs><filter id="a" x="0" y="0" width="112.115" height="246.235" filterUnits="userSpaceOnUse"><feOffset dx="-5" input="SourceAlpha"/><feGaussianBlur stdDeviation="7" result="b"/><feFlood flood-opacity="0.38"/><feComposite operator="in" in2="b"/><feComposite in="SourceGraphic"/></filter></defs><g transform="translate(-250.229 -444.057)"><g transform="matrix(1, 0, 0, 1, 250.23, 444.06)" filter="url(#a)"><path d="M6.433,182.241a3.033,3.033,0,0,0,.5-1.084,2.063,2.063,0,0,0,.061-.22l.011-.055c.008-.052.033-.1.039-.151.426-3.2-2.806-8.573-6.268-14.924-.468-.861-.93-1.692-1.389-2.506.259-.157.481-.289.663-.4l.017-.011c.366-.226.608-.382.608-.382l-.237-.388c-1.067-1.73-5.443-8.733-7.25-9.927l0,0,0,0h0a32.434,32.434,0,0,0-8.073-4.137.259.259,0,0,0-.1-.3.272.272,0,0,0-.374.094l-.03.05c-.281-.091-.558-.184-.836-.267a27.761,27.761,0,0,1,.514-8.978,19.476,19.476,0,0,0,6.456-4.173,4.841,4.841,0,0,0,.536.165c3.27.583,7.173-2.242,7.905-6.346a7.708,7.708,0,0,0-2.929-7.5,18.685,18.685,0,0,0-.369-2.445c-2.577-11.805-19.578-12.886-23.679-6.893a9.152,9.152,0,0,0-1.422.457c-2.586,1.106-4.373,5.064-1.045,6.549l-.022.044-.025,0a4.633,4.633,0,0,0-.512,1.108l.03.005A16.2,16.2,0,0,0-31.7,123.2c-.47.316-.627.619-.6.767.03.2.154.143.514,0a22.346,22.346,0,0,0-.05,4.12c-1.62,3.633-1.411,6.109-.558,8.095-.787.055-1.461.061-1.8.052a1.244,1.244,0,0,0-1.152-.657c-.688-.039-1.265.286-1.29.723s.517.82,1.2.855c.655.036,1.194-.259,1.268-.663.1,0,.2,0,.341,0,.388,0,.938-.022,1.535-.066a13.627,13.627,0,0,0,1.395,2.3c.809,1.106,1.975,3.119,2.979,3.526h0c.041.017.083.047.121.058a9.383,9.383,0,0,0,2.6.05c-.03.16-.063.311-.094.465-.063.3-.127.608-.2.891s-.135.539-.2.795c-.193.723-.385,1.362-.567,1.9-.476.025-.93.058-1.34.1a.261.261,0,0,0-.179-.237.273.273,0,0,0-.338.2l-.03.11a18.672,18.672,0,0,0-2.437.459,20.352,20.352,0,0,0-2.962.847h0a4.394,4.394,0,0,0-.556.256c-.074.033-.151.063-.226.1a4.324,4.324,0,0,0-.369.231c-.113.074-.226.151-.336.239-3.983,3.037-5.875,11.737-5.875,11.737.1.083.242.179.4.283-.382,1.587-.721,3.229-1.012,4.877-.215,1.227-.44,2.39-.663,3.51-2.525-4.541-5.8-10.317-8.65-16.107l-.017.016a6.179,6.179,0,0,0-1.334-1.791c-.743-.7-1.851-1.419-2.822-2.258a6.823,6.823,0,0,0-1.059-.853c-.275-.041-.336.723.473,1.527a10.7,10.7,0,0,1,.787.894c-.919-.264-2.591-1.084-3.614-1.51-1-.418-1.576-.641-1.719-.443-.369.506,3.27,1.755,3.149,2.14a10.052,10.052,0,0,1-1.947-.707c-1.626-.748-1.892-.886-2.071-.616-.22.327,1.246,1.056,1.857,1.386,1.095.6,1.934.811,1.906.954a8.41,8.41,0,0,1-1.8-.6c-1.2-.5-1.785-.985-1.923-.679-.173.385.586.954,1.672,1.417.789.336,1.887.756,1.846.891s-1.078-.234-1.65-.484c-.888-.385-1.287-.773-1.425-.5s1.073,1.329,3.314,2.151a21.467,21.467,0,0,0,4.86,1.119c.179,1.056.358,2.176.539,3.35.272,1.749.556,3.6.869,5.476l.039.228c.118.7.239,1.408.366,2.112.03.16.058.316.088.476.146.792.294,1.582.454,2.363l.019.1c.149.715.3,1.417.465,2.112.044.2.088.385.135.578q.227.945.473,1.854c.028.1.055.215.085.319.187.679.388,1.334.6,1.972.058.171.116.333.176.5q.252.73.523,1.408c.066.162.129.325.2.481.234.553.481,1.081.74,1.568.061.113.124.209.184.316q.322.569.666,1.064c.094.132.184.261.281.382a7.855,7.855,0,0,0,.85.957,4.583,4.583,0,0,0,2.775,1.32,3.172,3.172,0,0,0,1.147-.038c.036-.008.066,0,.1-.005s.041-.033.063-.041c2.533-.723,3.65-5,5.3-11.492a16.973,16.973,0,0,1,1.139,3.482,6.646,6.646,0,0,1,.113,1.606,26.3,26.3,0,0,1-1.626,6.136c-.6,1.692-1.307,3.589-2.049,5.655-1.111,3.1-2.3,6.579-3.273,10.331.16.052.33.088.49.138-.044.237-.08.481-.124.715h0c-3.356,17.364,4.214,41.9,7.039,57.445.019.1.036.215.055.322h0c.209,1.15.407,2.335.6,3.545.049.327.1.666.149,1-.16-.058-.322-.11-.476-.176l.633,5.35s.424.138,1.139.305c2.255,17.073,3.292,36.3,3.391,38.153l-.006.005c-1.009.825-3.246,1.13-4.456,1.488-1.524.358-2.817.5-2.907,1.254-.107.886,1.859,1.155,6.233.745s3.708-1.969,3.4-3.287a1.369,1.369,0,0,0-.019-.256c.374-2.011,3.518-19.009,4.593-28.377,2.676,9.8,5.661,21.02,7.1,28.617-.839.679-2.5.96-3.419,1.279-1.262.341-2.36.476-2.321,1.218.047.877,1.791,1.161,5.512.789,3.7-.366,2.916-1.9,2.442-3.2a3.6,3.6,0,0,1-.074-.448c-.415-2.833.25-15.032.38-24.282l0-.176c.011-.762.017-1.491.017-2.2,0-.135,0-.278,0-.41,0-.638-.005-1.232-.014-1.815,0-.173,0-.363-.008-.531-.008-.545-.028-1.037-.05-1.521-.006-.16-.011-.344-.017-.5-.025-.476-.061-.891-.1-1.287-.008-.113-.014-.253-.028-.358a10.453,10.453,0,0,0-.187-1.216l-.005-.019c-.129-.567-.308-1.194-.509-1.848-.019-.063-.036-.121-.055-.184-.2-.644-.432-1.318-.677-2.005l-.091-.248c-.253-.7-.523-1.406-.8-2.11l-.022-.058c.129-.1.275-.182.4-.292l-1.832-4.074-.305.19c-1.111-2.547-2.008-4.417-2.008-4.417s14.792-35.675,10.851-55.679l10.037-1.67L.923,186.763A10.113,10.113,0,0,0,6.433,182.241Z" transform="translate(88.05 -85.88)" fill="#ed9558" stroke="#fff" stroke-width="2"/></g><g transform="translate(277.263 466.069)"><path d="M91.6,162.445c3.507,19.3,4.986,48.656,4.986,48.656h2.2s5.407-28.843,4.97-33.953-4.475-14.057-4.475-14.057Z" transform="translate(-63.574 -12.393)" fill="#ed9558"/><g transform="translate(25.638 197.968)"><path d="M100.292,180.022c.215,1.378,1.449,3.2-3.325,3.641-4.37.41-6.337.14-6.23-.745s1.867-.91,3.735-1.458C96.45,182.148,100.292,180.022,100.292,180.022Z" transform="translate(-90.733 -179.594)" fill="#322f28"/><path d="M96.777,180.445c-1.474,1.21-5.63,1.3-5.264,2.079.2.421,2.621.517,4.648.094,1.724-.36,3.146-1.1,2.858-2.324C99.018,180.294,98.248,179.238,96.777,180.445Z" transform="translate(-89.41 -179.867)" fill="#ed9558"/></g><path d="M102.743,172.823a35.619,35.619,0,0,0-2.024-7.907c-3.273.316-7.206,1.194-8.537,3.548,0,0,7.143,1.21,7.687,8.76.63,8.732-3.413,25.784-2.1,29.552C97.773,206.776,103.181,177.933,102.743,172.823Z" transform="translate(-62.56 -8.068)" fill="#d87239"/><path d="M111.352,120.78c-.732,4.1-4.634,6.928-7.9,6.345s-5.333-4.381-4.6-8.485,3.974-6.961,7.244-6.378S112.081,116.674,111.352,120.78Z" transform="translate(-51.155 -100.362)" fill="#75250c"/><g transform="translate(24.381 22.651)"><path d="M91.7,122.086c1.3,0,4.249-.121,5.613-1.207a10.039,10.039,0,0,0,2.907-4.689l-.245-.066a9.971,9.971,0,0,1-2.822,4.555c-1.661,1.326-6.02,1.144-6.07,1.141l-.011.256C91.113,122.077,91.342,122.086,91.7,122.086Z" transform="translate(-88.885 -116.123)" fill="#2b2923"/><path d="M90.277,118.682c-.022.437.517.82,1.2.858s1.265-.289,1.287-.723-.514-.822-1.2-.858S90.3,118.245,90.277,118.682Z" transform="translate(-90.277 -112.915)" fill="#2b2923"/></g><g transform="translate(41.205 198.01)"><path d="M104.217,180.038c.4,1.364,1.755,3.179-2.31,3.581-3.721.371-5.465.088-5.512-.789s1.474-.886,3.006-1.411C101.221,182.115,104.217,180.038,104.217,180.038Z" transform="translate(-96.394 -179.609)" fill="#322f28"/><path d="M101.273,180.446c-1.086,1.183-4.67,1.24-4.233,2.016.239.418,2.352.534,4.04.129,1.438-.344,2.552-1.067,2.112-2.28C103.193,180.311,102.362,179.261,101.273,180.446Z" transform="translate(-95.326 -179.882)" fill="#ffb476"/></g><path d="M97.662,207.121c3.163,1.136,7.206.96,9.428.732-1.306-3.985-2.965-7.662-2.965-7.662l2.2-57.188L89.554,141.25c-3.773,17.4,4.024,42.5,6.892,58.294C96.884,201.939,97.288,204.491,97.662,207.121Z" transform="translate(-68.929 -49.491)" fill="#3e5289"/><path d="M94.949,147.326c1.13,9.909,4.346,45.518-3.512,41.9.415,2.3.8,4.742,1.161,7.258,3.163,1.136,7.206.96,9.428.732-1.306-3.985-2.965-7.663-2.965-7.663l.011-41.613Z" transform="translate(-63.864 -38.856)" fill="#38487f"/><path d="M94.008,163.34c.652,4.5,9.48,33.535,12.308,48.469l2.211.08c-.85-2.6,1.13-29.492-.077-34.759s-5.9-15.064-5.9-15.064Z" transform="translate(-59.364 -13.054)" fill="#ffb476"/><path d="M106.743,207.43c-.619-4.216,1.161-29.228,0-34.3a61.37,61.37,0,0,0-3.1-8.782l-8.661,5.613h0c.005,0,7.027-.36,9.167,7.434,2.783,10.141.556,24.181,2.536,30.1Z" transform="translate(-57.658 -9.056)" fill="#ed9558"/><path d="M91.537,164.149l.633,5.352a24.164,24.164,0,0,0,12.564.179l-1.048-4.585S96.724,166.311,91.537,164.149Z" transform="translate(-63.689 -9.41)" fill="#536aaa"/><path d="M106.76,204.732c-1.441-3.424-2.792-6.249-2.792-6.249s15.586-37.575,10.509-57.221L93.2,142.948l.162,15.124,2.638.484c-.308,16.931-1.172,37.71-.666,41.2.171,1.177,1.086,4.453,2.12,8.188C97.45,207.944,103.8,207.738,106.76,204.732Z" transform="translate(-60.787 -49.47)" fill="#536aaa"/><path d="M122.068,141.283l-18.625,1.477L89,141.25c-.061.278-.094.572-.146.853,0,0,11.972,4.9,33.436.206C122.22,141.965,122.156,141.616,122.068,141.283Z" transform="translate(-68.379 -49.491)" fill="#3e5289"/><path d="M113.131,141.262l-5.154.407c1.8,6.5,2.874,16.8-.325,31.725-5.69,26.541-11.791,26.821-13.688,26.161.006.058.011.149.019.2.171,1.177,1.086,4.453,2.12,8.188,0,0,6.351-.206,9.31-3.212-1.441-3.424-2.792-6.249-2.792-6.249S118.208,160.908,113.131,141.262Z" transform="translate(-59.441 -49.47)" fill="#3e5289"/><path d="M98.16,122.453c-3.8.927-6.485,9.252-7.973,17.674-1.84,10.424-4.244,17.159-1.166,18.191,5.264,1.766,5.822-6.043,9.277-18.193S98.16,122.453,98.16,122.453Z" transform="translate(-70.678 -82.392)" fill="#ed9558"/><path d="M100.381,124.27c2.607-2.338,7.082,4.5,12.085,13.675,3.463,6.351,6.694,11.728,6.268,14.923a3.133,3.133,0,0,1-1.939,2.53c-2.525,2.286-6.287-3.845-11.307-12.118C100.406,134.9,96.88,127.411,100.381,124.27Z" transform="translate(-50.674 -80.021)" fill="#ed9558"/><path d="M122.816,127.677c-13.785-9.651-26.72-4.3-26.72-4.3s-6,12.093-5.382,15.76,5.22,9.832,4.959,13.87-4.346,12.118-6.947,22.121c13.537,4.461,34.316.033,34.316.033-2.233-8.306-9.018-16.912-8.6-20.086s2.594-6.458,5.754-13.807A36.33,36.33,0,0,0,122.816,127.677Z" transform="translate(-68.611 -83.367)" fill="#f7e8f0"/><path d="M114.441,144.1c.407-3.078,2.473-6.293,5.479-13.182-22.413,3.743-29.206-2.756-29.206-2.756.616,3.669,5.22,9.832,4.959,13.87s-4.346,12.118-6.947,22.121c13.537,4.461,34.316.033,34.316.033C120.808,155.882,114.023,147.276,114.441,144.1Z" transform="translate(-68.611 -72.396)" fill="#e5c7dd"/><path d="M112.426,124.829s-4.313,9.533-15.141,7.8c-9.263-1.48-3.919-10-3.919-10S101.7,119.914,112.426,124.829Z" transform="translate(-63.172 -83.393)" fill="#ed9558"/><path d="M93.2,114.064a8.782,8.782,0,0,1,.91-3.116,16.526,16.526,0,0,0-.264,3.179Z" transform="translate(-60.775 -102.53)" fill="#ed9558"/><path d="M92.166,125.079s3.2-8.2,2.833-11.843c1.689-7.891,21.678-7.742,24.489,5.127,2.99,13.691-10.592,20.713-12.918,20.57S92.166,125.079,92.166,125.079Z" transform="translate(-62.588 -107.887)" fill="#822d0f"/><path d="M106.983,116.57s-3.8,9.775-2.283,16.9l-7.206.605-3.7-.968a29.287,29.287,0,0,0,2.3-10.077C96.3,118.746,106.983,116.57,106.983,116.57Z" transform="translate(-59.746 -92.69)" fill="#ed9558"/><path d="M103.771,131.23c-.652-4.588.6-9.965,1.54-13.141l-.418-.817-9.522,4.3c-.011.08-.044.154-.049.237a30.488,30.488,0,0,1-1.095,6.65c1.106,2.2,4.219,7.387,9.786,9.574a15.5,15.5,0,0,0,4.222-5.132A33.4,33.4,0,0,0,103.771,131.23Z" transform="translate(-58.981 -91.461)" fill="#d87239"/><path d="M96.842,138.605c-1.029-.289-2.261-2.434-3.1-3.584-1.785-2.44-3.322-5.305-.941-10.647,0,0-1.672-14.992,10.4-14.343s11.84,12.61,7.6,20.955A13.9,13.9,0,0,1,96.842,138.605Z" transform="translate(-63.617 -104.169)" fill="#ffb476"/><path d="M109,118.226l.828-1.779s-6.246-4.084-9.486-4.53a39.978,39.978,0,0,0-7.437-.069,4.613,4.613,0,0,0-.514,1.108C96.568,113.872,103.331,112.219,109,118.226Z" transform="translate(-62.196 -101.213)" fill="#ed9558"/><path d="M102.926,110.2c8.05,2.786,4.6,28.1-9.478,28.032a.97.97,0,0,0,.121.058,13.9,13.9,0,0,0,13.966-7.618C111.38,123.089,111.9,112.56,102.926,110.2Z" transform="translate(-60.345 -103.848)" fill="#ed9558"/><path d="M95.339,113.6a6.118,6.118,0,0,1,1.081,5.223,4.545,4.545,0,0,1-3.43,3.166s.286,2.118,2.17,2.357-1.194-2.093-1.194-2.093,2.781-1.235,3.339-3.267C98.1,116.094,95.339,113.6,95.339,113.6Z" transform="translate(-61.146 -97.89)" fill="#ed9558"/><path d="M95.866,113.96c-.1.308.99.355,2.921,1.02,1.76.605,2.992,1.441,3.105,1.139s-.688-1.438-2.745-2.178C97.161,113.226,96.05,113.363,95.866,113.96Z" transform="translate(-56.123 -98.139)" fill="#822d0f"/><path d="M91.854,114.74c.061.374.333-.121,2.041-.443,1.375-.258,2.86-.19,2.866-.448.019-.778-1.625-.822-2.885-.484C92.154,113.827,91.815,114.5,91.854,114.74Z" transform="translate(-63.14 -98.651)" fill="#822d0f"/><g transform="translate(30.593 27.292)"><path d="M95.365,118.51c.025.094.316.1.413.072a.18.18,0,0,0,.129-.217.173.173,0,0,0-.215-.124C95.6,118.266,95.34,118.414,95.365,118.51Z" transform="translate(-87.585 -117.068)" fill="#93271c"/><path d="M92.98,118.246c-.069.069-.325-.066-.393-.132a.178.178,0,0,1,0-.25.184.184,0,0,1,.253-.005C92.909,117.927,93.049,118.175,92.98,118.246Z" transform="translate(-92.535 -117.811)" fill="#93271c"/><path d="M100.368,118.981l-7.731-1.053A4.659,4.659,0,0,0,96,120.783C98.465,121.168,100.368,118.981,100.368,118.981Z" transform="translate(-92.357 -117.605)" fill="#9a6335"/><path d="M100.368,118.981l-7.731-1.053A4.659,4.659,0,0,0,96,120.783C98.465,121.168,100.368,118.981,100.368,118.981Z" transform="translate(-92.357 -117.605)" fill="#93271c"/><path d="M99.213,118.91l-6.26-.864a3.809,3.809,0,0,0,2.992,2.275A4.012,4.012,0,0,0,99.213,118.91Z" transform="translate(-91.804 -117.399)" fill="#f4e6e1"/><path d="M99.213,118.91l-6.26-.864.281.514a6.154,6.154,0,0,1,2.781.036,11.787,11.787,0,0,1,2.833.69S99.111,119.022,99.213,118.91Z" transform="translate(-91.804 -117.399)" fill="#d5b698"/></g><path d="M107.156,112.792c7.673,5.366,2.808,15.528,2.808,15.528s-1.419.82-1.936.649c-.778-.259-.2-.908.2-4.214.234-6.342-5.022-7.214-11.851-9.885-3.9-1.526-3.135-4.923-3.135-4.923S98.088,106.67,107.156,112.792Z" transform="translate(-60.806 -105.815)" fill="#822d0f"/><path d="M110.346,122.963c4.794-11.254-8.991-15.894-15.526-13.1-2.794,1.2-4.739,5.773-.182,6.9C98.575,117.723,106.427,117.371,110.346,122.963Z" transform="translate(-63.024 -105.821)" fill="#822d0f"/><g transform="translate(45.842 22.663)"><path d="M103.177,118.962a2.628,2.628,0,0,1-2.9,2.211,2.472,2.472,0,0,1-2.173-2.816,2.623,2.623,0,0,1,2.9-2.211A2.472,2.472,0,0,1,103.177,118.962Z" transform="translate(-98.079 -116.127)" fill="#ed9558"/><path d="M99.923,116.461a1.664,1.664,0,0,0-1.012.228,1.417,1.417,0,0,1,.446-.033,1.37,1.37,0,0,1,1.207,1.562,1.353,1.353,0,0,1-1.939,1.119,1.583,1.583,0,0,0,.825.382,1.7,1.7,0,0,0,1.881-1.433A1.6,1.6,0,0,0,99.923,116.461Z" transform="translate(-97.125 -115.56)" fill="#d87239"/></g><path d="M94.028,110.189c3.842-2.959,12.778-2.687,15.861.371,2.946,2.926.756,8.05-1.5,8.229C108.393,118.789,105.607,108.583,94.028,110.189Z" transform="translate(-59.329 -107.495)" fill="#933914"/><path d="M103.408,124c2.066,1.367,7.486,10.314,7.486,10.314A58.954,58.954,0,0,1,99.813,139.8Z" transform="translate(-49.204 -79.688)" fill="#f7e8f0"/><path d="M100.411,137.334l1.095,1.364a59.222,59.222,0,0,0,8.342-4.387s-5.421-8.947-7.486-10.314C104.2,125.937,107.163,135.255,100.411,137.334Z" transform="translate(-48.157 -79.688)" fill="#e5c7dd"/><path d="M91.886,136.884A32.6,32.6,0,0,1,88.729,135s2.357-10.889,7.36-12.566Z" transform="translate(-68.604 -82.426)" fill="#f7e8f0"/><path d="M96.4,155.243c-8.108,1.581-9.951-18.375-11.868-29.514l1.62-1.43c3.947,8,8.708,16.012,11.161,20.716C98.9,149.918,98.064,154.707,96.4,155.243Z" transform="translate(-75.954 -79.161)" fill="#ed9558"/><path d="M94.381,166.627l1.194,4.678s6.386-.039,10.462-3.628l-1.832-4.073S99.411,166.792,94.381,166.627Z" transform="translate(-58.711 -10.364)" fill="#6f8bc9"/><g transform="translate(0 40.251)"><path d="M88.569,127.466a6.235,6.235,0,0,0-1.353-1.832c-.743-.7-1.851-1.419-2.822-2.258a6.818,6.818,0,0,0-1.059-.853c-.275-.041-.336.723.473,1.526a14.486,14.486,0,0,1,1.546,1.906Z" transform="translate(-78.37 -122.522)" fill="#ed9558"/><path d="M90.51,129.252a21.41,21.41,0,0,1-5.283-1.161c-2.239-.822-3.446-1.878-3.311-2.151s.536.113,1.425.5c.569.25,1.609.619,1.65.484s-1.056-.556-1.845-.891c-1.086-.462-1.845-1.031-1.672-1.416.138-.305.723.184,1.923.679a8.437,8.437,0,0,0,1.8.6c.03-.143-.809-.358-1.906-.954-.608-.33-2.074-1.059-1.854-1.386.179-.27.446-.132,2.071.619a9.976,9.976,0,0,0,1.947.7c.121-.385-3.518-1.634-3.149-2.14.143-.2.715.025,1.719.443,1.026.426,2.7,1.249,3.622,1.513a6.744,6.744,0,0,1,3.963,2.517A1.791,1.791,0,0,1,90.51,129.252Z" transform="translate(-81.412 -122.27)" fill="#ed9558"/></g><path d="M94.794,152.04h-.011L93.931,152a.273.273,0,0,1-.261-.25c-.036-.424-.146-1.045-.283-1.834a60.909,60.909,0,0,1-1.062-10.262c-.1-6.353,2.874-17.492,2.9-17.6a.273.273,0,0,1,.338-.2.277.277,0,0,1,.193.338c-.03.11-2.984,11.175-2.888,17.451a61.052,61.052,0,0,0,1.053,10.174c.118.668.215,1.218.27,1.642l.415.019c.512-1.3,3.573-9.159,4.654-11.617a167.8,167.8,0,0,1,8.7-16.439.272.272,0,0,1,.374-.094.269.269,0,0,1,.091.377,169.452,169.452,0,0,0-8.664,16.378c-1.172,2.66-4.681,11.689-4.72,11.78A.275.275,0,0,1,94.794,152.04Z" transform="translate(-62.315 -83.458)" fill="#3a3947"/><g transform="translate(27.316 70.145)"><rect width="9.056" height="6.269" transform="matrix(0.999, 0.041, -0.041, 0.999, 0.259, 0)" fill="#fff"/><path d="M97.68,135.013l.029-.782-5.006-.21-.03.782Z" transform="translate(-89.017 -132.29)" fill="#dbb9d1"/><path d="M93.927,137.062l.111-2.963-2.351-.093-.111,2.964Z" transform="translate(-90.939 -132.316)" fill="#dbb9d1"/><path d="M97.666,135.519l.029-.782-5.006-.21-.029.782Z" transform="translate(-89.039 -131.404)" fill="#dbb9d1"/><path d="M97.65,135.739l.029-.5-5.006-.21-.029.5Z" transform="translate(-89.069 -130.524)" fill="#dbb9d1"/></g><rect width="2.236" height="2.289" transform="translate(30.904 68.389) rotate(2.362)" fill="#3a3947"/><g transform="translate(29.115 17.518)"><path d="M96.4,116.353l-3.6-.938-.8-.239C92.944,113.9,96.341,113.666,96.4,116.353Z" transform="translate(-91.998 -114.257)" fill="#562824"/><g transform="translate(0.557 0.346)"><path d="M95.5,115.558s-.028,1.265,2.192,1.485c1.914.187,2.693-.784,2.107-.712A36.9,36.9,0,0,1,95.5,115.558Z" transform="translate(-86.424 -112.325)" fill="#562824"/><path d="M95.54,116.347l4.491.245,1.073.074C100.584,115.123,96.241,113.355,95.54,116.347Z" transform="translate(-86.356 -113.788)" fill="#562824"/><path d="M95.6,116.077c.242-.693.787-1.458,2.448-1.1,2.316.506,2.313,2.044,1.785,2.632C98.9,118.654,94.852,118.217,95.6,116.077Z" transform="translate(-86.415 -113.499)" fill="#f7eee2"/><path d="M95.868,115.545s-.1,1.262-2.275.754c-1.317-.308-1.634-1.383-1.095-1.152A22.778,22.778,0,0,0,95.868,115.545Z" transform="translate(-92.118 -113.102)" fill="#562824"/><path d="M96.019,116.125c-.052-.707-.52-1.543-2.211-1.686a1.458,1.458,0,0,0-1.513,1.969C92.848,117.789,96.173,118.193,96.019,116.125Z" transform="translate(-92.178 -114.314)" fill="#f7eee2"/><path d="M92.21,115.792a1.575,1.575,0,1,0,1.733-1.4A1.573,1.573,0,0,0,92.21,115.792Z" transform="translate(-92.201 -114.383)" fill="#562824"/><path d="M95.511,116.363a1.713,1.713,0,1,0,1.887-1.524A1.714,1.714,0,0,0,95.511,116.363Z" transform="translate(-86.423 -113.6)" fill="#562824"/></g></g><g transform="translate(32.616 56.651)"><rect width="25.972" height="35.499" transform="translate(0.001 4.265) rotate(-9.451)" fill="#3a3947"/><path d="M99.1,167.767,93.271,132.75l25.62-4.265Z" transform="translate(-93.27 -128.485)" fill="#2f2e3a"/><rect width="0.697" height="35.499" transform="matrix(0.986, -0.164, 0.164, 0.986, 0, 4.265)" fill="#464656"/><rect width="15.664" height="13.421" transform="matrix(0.986, -0.164, 0.164, 0.986, 7.242, 14.308)" fill="#3a3947" opacity="0.4" style="mix-blend-mode:screen;isolation:isolate"/></g><path d="M124.895,135.64c-1.207-3.427-6.733-2.2-13-.457-7.041,1.961-14.855,4.89-15.966,5.168-1.353.352.5,1.966.932,2.11,4.489-.176,12.082,1.691,21.131-.2C122.585,141.3,125.222,136.569,124.895,135.64Z" transform="translate(-56.859 -63.125)" fill="#ffb476"/><path d="M95.376,114.882c3.674,1.488,12.278.693,14.368,3.289a11.238,11.238,0,0,0-7.577-8.141C93.962,107.165,89.077,112.33,95.376,114.882Z" transform="translate(-61.992 -105.609)" fill="#933914"/><path d="M84.758,126.231c1.392,8.95,3.089,20.647,7.316,24.459,1.279.413,2.236-.074,2.385-2.225C95.308,136.008,86.469,126.347,84.758,126.231Z" transform="translate(-75.555 -75.78)" fill="#ffb476"/><path d="M103.335,136.84s-4.852-1.788-5.836-1.727a12.958,12.958,0,0,0-3.168.66c-.616.261-2.132.9-2.1,1.3.036.451,1.117.091,2.371-.237,0,0,2.53-.611,2.594-.4s-2.954.825-2.665,1.667c.237.679,2.77-.539,2.844-.292s-2.495.575-2.261,1.359c.171.567,2.47-.146,2.47-.146s-1.117.275-.941.861c.127.426,1.449.069,1.449.069a17.226,17.226,0,0,0,5.237-.66Z" transform="translate(-62.473 -60.236)" fill="#ed9558"/><path d="M94.377,135.131a5.94,5.94,0,0,0,.6,3.817c.69.9,4.747.316,4.747.316a3,3,0,0,0,.005-2.459A50.077,50.077,0,0,0,94.377,135.131Z" transform="translate(-58.87 -60.202)" fill="#ffb476"/><path d="M124.051,135.818c-.437-2.319-3.826-2.948-7.481-1.923,2.632-.366,3.922.311,4.42,1.4.6,1.3-.8,3.548-4.126,4.915-6.9,2.836-20.014,2.049-20.014,2.049l-.916.242c.017.008.044.025.058.03,4.489-.176,12.082,1.691,21.131-.2C121.718,141.368,124.235,136.8,124.051,135.818Z" transform="translate(-55.993 -63.196)" fill="#ed9558"/></g></g></svg>