<svg xmlns="http://www.w3.org/2000/svg" xmlns:xlink="http://www.w3.org/1999/xlink" width="277" height="277" viewBox="0 0 277 277"><defs><clipPath id="a"><rect width="277" height="277" rx="44" fill="#fff" stroke="#707070" stroke-width="1"/></clipPath><linearGradient id="b" x1="0.5" y1="1" x2="0.5" gradientUnits="objectBoundingBox"><stop offset="0.204" stop-color="#ffff91"/><stop offset="0.33" stop-color="#fffa8d"/><stop offset="0.467" stop-color="#ffed84"/><stop offset="0.61" stop-color="#ffd775"/><stop offset="0.756" stop-color="#ffb960"/><stop offset="0.904" stop-color="#ff9246"/><stop offset="1" stop-color="#ff7532"/></linearGradient><linearGradient id="c" x1="0.5" y1="1" x2="0.5" gradientUnits="objectBoundingBox"><stop offset="0" stop-color="#f4ffaf" stop-opacity="0.302"/><stop offset="0.128" stop-color="#f4fdae" stop-opacity="0.396"/><stop offset="0.731" stop-color="#f4f7ad" stop-opacity="0.827"/><stop offset="1" stop-color="#f4f5ad"/></linearGradient><linearGradient id="d" x1="0.5" y1="1" x2="0.5" gradientUnits="objectBoundingBox"><stop offset="0" stop-color="#f9f1a2" stop-opacity="0.4"/><stop offset="0.124" stop-color="#f9f0a2" stop-opacity="0.424"/><stop offset="0.3" stop-color="#f9f0a5" stop-opacity="0.498"/><stop offset="0.506" stop-color="#fbf0a9" stop-opacity="0.612"/><stop offset="0.735" stop-color="#fcf0ae" stop-opacity="0.776"/><stop offset="0.98" stop-color="#fef0b5" stop-opacity="0.98"/><stop offset="1" stop-color="#fff0b6"/></linearGradient><linearGradient id="f" x1="-18.477" y1="1" x2="-18.477" y2="0" xlink:href="#d"/><linearGradient id="g" x1="0.762" y1="1.644" x2="0.216" y2="-0.343" gradientUnits="objectBoundingBox"><stop offset="0" stop-color="#d98236" stop-opacity="0.2"/><stop offset="0.38" stop-color="#df7b2a" stop-opacity="0.337"/><stop offset="0.772" stop-color="#e47621" stop-opacity="0.455"/><stop offset="1" stop-color="#e6741e" stop-opacity="0.502"/></linearGradient><linearGradient id="h" x1="1" y1="0.5" x2="0" y2="0.5" xlink:href="#g"/><linearGradient id="i" x1="1" y1="0.5" x2="0" y2="0.5" gradientUnits="objectBoundingBox"><stop offset="0" stop-color="#d98236" stop-opacity="0.4"/><stop offset="0.197" stop-color="#dc7e30" stop-opacity="0.451"/><stop offset="0.705" stop-color="#e37622" stop-opacity="0.561"/><stop offset="1" stop-color="#e6741e" stop-opacity="0.6"/></linearGradient><linearGradient id="j" x1="0.5" y1="1" x2="0.5" gradientUnits="objectBoundingBox"><stop offset="0" stop-color="#df7630"/><stop offset="0.425" stop-color="#e18638"/><stop offset="1" stop-color="#e49a42"/></linearGradient><linearGradient id="k" x1="0.5" y1="1" x2="0.5" gradientUnits="objectBoundingBox"><stop offset="0.005" stop-color="#6b2923"/><stop offset="1" stop-color="#8d432d"/></linearGradient><clipPath id="l"><path d="M-168.67,831.591l-59.01-74.335-35.274,74.335Z" transform="translate(262.954 -757.255)" fill="none"/></clipPath><linearGradient id="m" x1="0.5" y1="1" x2="0.5" gradientUnits="objectBoundingBox"><stop offset="0" stop-color="#dd6327"/><stop offset="1" stop-color="#d7792b" stop-opacity="0.4"/></linearGradient><linearGradient id="n" x1="1" y1="0.5" x2="0" y2="0.5" gradientUnits="objectBoundingBox"><stop offset="0" stop-color="#d9a05b" stop-opacity="0.2"/><stop offset="0.228" stop-color="#dc9349" stop-opacity="0.341"/><stop offset="0.576" stop-color="#e18232" stop-opacity="0.537"/><stop offset="0.845" stop-color="#e47723" stop-opacity="0.655"/><stop offset="1" stop-color="#e6741e" stop-opacity="0.702"/></linearGradient><linearGradient id="p" x1="0.5" y1="1" x2="0.5" gradientUnits="objectBoundingBox"><stop offset="0" stop-color="#dd6327"/><stop offset="1" stop-color="#d7792b"/></linearGradient><clipPath id="r"><path d="M-85.6,845.318,19.411,715.938l-55.54,129.38Z" transform="translate(85.598 -715.938)" fill="none"/></clipPath><linearGradient id="t" x1="1" y1="0.5" x2="0" y2="0.5" xlink:href="#k"/><clipPath id="u"><path d="M-60.981,845.318l-90.436-129.38-55.54,129.38Z" transform="translate(206.957 -715.938)" fill="none"/></clipPath><linearGradient id="w" x1="1" y1="0.5" x2="0" y2="0.5" gradientUnits="objectBoundingBox"><stop offset="0" stop-color="#f9d677"/><stop offset="0.247" stop-color="#fac764"/><stop offset="0.581" stop-color="#fbb850"/><stop offset="0.812" stop-color="#fcb34a"/></linearGradient><linearGradient id="x" x1="0.731" y1="1.487" x2="0.281" y2="-0.109" gradientUnits="objectBoundingBox"><stop offset="0" stop-color="#d9a05b" stop-opacity="0.2"/><stop offset="0.38" stop-color="#df8b3e" stop-opacity="0.337"/><stop offset="0.772" stop-color="#e47a26" stop-opacity="0.455"/><stop offset="1" stop-color="#e6741e" stop-opacity="0.502"/></linearGradient><linearGradient id="z" x1="0.749" y1="1.861" x2="0.228" y2="-0.804" xlink:href="#g"/></defs><g clip-path="url(#a)"><g transform="translate(-138.053 -31.432)"><rect width="526.355" height="290.905" transform="translate(26.992 5.25)" fill="url(#b)"/><path d="M-59.389,773.872q-128.139,2.726-256.366-1.335c74.569-3.812,149.578-4.416,224.488-5.017l59.724-.48" transform="translate(388.406 -609.1)" fill="#ffb850" opacity="0.25" style="mix-blend-mode:multiply;isolation:isolate"/><path d="M-131.179,723.292q-98.934,1.816-197.934-.889c57.574-2.539,115.486-2.941,173.322-3.342l46.111-.32" transform="translate(476.496 -596.794)" fill="#ffb850" opacity="0.07" style="mix-blend-mode:multiply;isolation:isolate"/><path d="M-190.416,748.958q128.138-2.726,256.365,1.335c-74.569,3.812-149.578,4.416-224.487,5.017l-59.724.48" transform="translate(218.262 -604.214)" fill="#ffb850" opacity="0.15" style="mix-blend-mode:multiply;isolation:isolate"/><g transform="translate(78.76 0)"><circle cx="58.676" cy="58.676" r="58.676" transform="translate(82.98 165.96) rotate(-135)" fill="#fff297" opacity="0.11" style="mix-blend-mode:screen;isolation:isolate"/><circle cx="42.365" cy="42.365" r="42.365" transform="translate(40.614 40.614)" fill="#fff297" opacity="0.11" style="mix-blend-mode:screen;isolation:isolate"/><circle cx="31.071" cy="31.071" r="31.071" transform="translate(82.98 126.92) rotate(-135)" fill="#fff297" opacity="0.15" style="mix-blend-mode:screen;isolation:isolate"/><circle cx="23.464" cy="23.464" r="23.464" transform="translate(59.516 59.516)" fill="url(#c)"/></g><path d="M-234.675,680.425a24.534,24.534,0,0,0,14.693-4.325c4.562-3.166,9.4-8.193,14.616-6.3,1.8.655,3.224,2.078,4.988,2.821,5.842,2.461,11.861-3.205,18.158-3.92,1.576-.178,3.464.136,4.192,1.546,1.089,2.108-.537,6.96,3.28,7.136a8.786,8.786,0,0,0,2.736-.638,2.817,2.817,0,0,1,2.68.322,5.317,5.317,0,0,1,.938,1.7,6.073,6.073,0,0,0,3.41,2.853,28.6,28.6,0,0,0,5.433,1.775c-24.3-.376-60.159.376-84.462,0A14.752,14.752,0,0,1-234.675,680.425Z" transform="translate(462.949 -584.033)" fill="url(#d)"/><path d="M-156.569,697.822a31.126,31.126,0,0,1,1.973-9.173c4.076-10.338,16.111-18.168,27.293-15.369a25.444,25.444,0,0,1,16.224,12.869c1.889,3.675,3.286,8.244,7.137,9.743,6.99,2.721,13.165-7.36,20.652-6.907,4.873.3,8.184,4.844,11.215,8.67s7.386,6.936,11.953,5.212a33.936,33.936,0,0,0,3.923-2.274c4.375-2.365,11.767-1.864,15.844.982,4.13,2.884,6.678,10.7,10.966,12.218,4.67,1.655,11.3-.718,15.405-.67,8.947.107,15.454,1.03,23.18,4.829h-141.8c-15.4,0-20.593-5.336-23.2-11.891C-156.832,703.481-156.769,700.591-156.569,697.822Z" transform="translate(229.13 -585.064)" fill="url(#d)"/><path d="M-112.04,646.256a6.3,6.3,0,0,1-3.4-2.978c-.9-1.906-.589-4.235-1.6-6.084a6.806,6.806,0,0,0-3.075-2.7,9.818,9.818,0,0,0-5.553-1,7.362,7.362,0,0,0-4.872,2.717c-2.3,3.018-1.8,7.8-4.753,10.179a2.935,2.935,0,0,1-1.651.716c-1.11.055-2.037-.764-2.993-1.329a7.4,7.4,0,0,0-8.936,1.33c-1.412,1.543-2.148,3.695-3.842,4.921-2.136,1.545-3.961.344-6.212.442a14.007,14.007,0,0,0-6.526,1.786h45.357c2.628,0,5.656.411,8.27.081,2.331-.293,4.517-.837,4.276-3.76a3.956,3.956,0,0,0-1.807-2.975A25,25,0,0,0-112.04,646.256Z" transform="translate(352.376 -575.054)" opacity="0.55" fill="url(#f)"/><path d="M-103.643,794.327c-39.34-11.4-80.385-21.7-120.873-15.516-12.83,1.961-25.322,5.551-37.9,8.67-11.429,2.833-22.017,6.4-33.818,7.731-25.191,2.844-50.712.653-75.526-4.141-13.005-2.513-25.863-5.75-38.582-9.436-4.209-1.22-8.486-2.5-12.867-2.42-6.465.115-12.458,3.144-18.392,5.71-18.708,8.091-39.1,12.135-57.131,21.636-6.091,3.209-12,7.144-16.037,12.72-4.906,6.772-6.63,15.565-5.538,23.855,1.692,12.841,9.045,22.954,19.023,30.727,14.133,11.01,31.783,16.349,49.155,20.734,136.006,34.33,283.188,22.69,412.108-32.59" transform="translate(549.548 -611.626)" fill="#fcb34a" opacity="0.55"/><path d="M-73.461,805.01a339.752,339.752,0,0,0-55.241-.924c-8.255.534-16.469,2.113-24.6,2.681-8.962.626-18.318-.194-27.258-.868-13.077-.984-26.078-2.786-39.138-3.97a416.347,416.347,0,0,0-94.073,2.161c26.448,7.038,53.688,10.65,80.971,12.317,59.935,3.661,120.333.7,179.854-6.646C-59.287,806.657-66.437,805.7-73.461,805.01Z" transform="translate(408.336 -617.558)" fill="#e6741e" opacity="0.15" style="mix-blend-mode:multiply;isolation:isolate"/><path d="M-107.81,853.391a171.328,171.328,0,0,0-93.159-42.4c-18.842-2.3-37.911-1.432-56.873-.559l-63.775,2.934c-45.878,2.111-92.684,4.123-136.906-8.273-10.59-2.968-21.087-6.772-32.064-7.474-20.425-1.306-34.7,11.132-38.376,31.037-3.256,17.618,6.526,35.672,20.5,46.888s31.541,16.811,48.847,21.448c135.491,36.31,282.828,26.818,412.539-26.577" transform="translate(563.289 -616.867)" fill="#fcb34a"/><path d="M16.855,840.236Q4.443,839.4-8,839.273c-8.351-.087-16.935.107-24.661,3.273-3.49,1.429-7.207,4.365-6.635,8.094.585,3.815,5.12,5.441,8.928,6.07,19.7,3.254,39.838.235,59.578-2.783" transform="translate(121.684 -627.502)" fill="url(#g)"/><path d="M-247.373,852.089a47.367,47.367,0,0,0,18.321-1.269,2.38,2.38,0,0,0,1.459-.762c.911-1.291-1.093-2.639-2.642-2.953a252.013,252.013,0,0,0-51.7-5.019" transform="translate(559.025 -628.221)" fill="url(#h)"/><g transform="translate(294.159 170.52)"><g transform="translate(4.991 24.059)"><path d="M-276.1,834.654a113.605,113.605,0,0,0,10.027-7.45,56.12,56.12,0,0,0,5.9-5.65c-.336.248-.658.5-.931.735a12.1,12.1,0,0,0-1.49,1.588,1.272,1.272,0,0,1,.272-.849l-1.888,1.651a1.045,1.045,0,0,1,.345-.82l-1.708,1.733.455-1.247c-.572.589-1.143,1.18-1.81,1.771a1.841,1.841,0,0,1,.382-.813q-.949.865-1.787,1.73A2.548,2.548,0,0,1-268,825.8c-.855.639-1.607,1.285-2.359,1.929a5.387,5.387,0,0,1,1.478-1.858l-2.056,1.262c.411-.744,2.057-1.511,2.914-2.282a10.413,10.413,0,0,1-1.96.914,2.992,2.992,0,0,1,.884-.6c.707-.374,1.437-.742,2.184-1.1l-2.521.914c1.164-.631,2.809-1.117,3.847-1.772q-1.277.446-2.6.848c1.312-.765,3.488-1.25,4.705-2.031-.744.146-1.49.327-2.218.538a12,12,0,0,1,2.917-1.213c.253-.072.512-.125.768-.189q-1.283.207-2.578.44a18.749,18.749,0,0,1,1.873-.651c-1.086.228-2.173.493-3.261.753l1.812-.706a16.084,16.084,0,0,0-3.321,1.255,11.831,11.831,0,0,1,1.307-.816c-.594.2-1.149.446-1.7.692l-.653.291a1.571,1.571,0,0,1,.615-.5,9.764,9.764,0,0,1,.929-.423,15.713,15.713,0,0,0-2.972,1.1,7.8,7.8,0,0,1,1.847-.962,30.163,30.163,0,0,0-3.372,1.214,17.006,17.006,0,0,1,1.783-.869q-.355.137-.7.278c-.5.2-.992.417-1.463.642a6.216,6.216,0,0,1,2.776-1.523l-1.919.459a9.517,9.517,0,0,1,2.979-.823l-1.839.1a23.656,23.656,0,0,1,3.067-.439,4.654,4.654,0,0,0-.775-.051,5.564,5.564,0,0,0-.759-.019,27.4,27.4,0,0,1,2.759-.3,8.4,8.4,0,0,0-1.115-.127,14.664,14.664,0,0,1,2.9-.069c.083-.013.165-.023.248-.037a8.934,8.934,0,0,0-1.627-.2,14.3,14.3,0,0,1,3.425-.027,6.852,6.852,0,0,0-1.287-.221,11.536,11.536,0,0,1,2.674.082c.117.011.234.024.35.036a3.942,3.942,0,0,0-1.869-.362q.86-.076,1.734-.169a13.5,13.5,0,0,0-3.429.169c.867-.175,1.733-.328,2.59-.457a34.083,34.083,0,0,0-5.106.733,18.888,18.888,0,0,1,2.142-.552,34.434,34.434,0,0,0-4.451.978,16.965,16.965,0,0,1,2.209-.806c-.4.1-.794.214-1.179.335.381-.165.59-.359.925-.534a6.025,6.025,0,0,1,.98-.382,13.525,13.525,0,0,1,3.143-.586l-.87-.127a12.368,12.368,0,0,1,3.286-.01,2.322,2.322,0,0,0-1.379-.377,5.244,5.244,0,0,1,2.577.139c.682.244,1.113.642,1.133,1.115a10.956,10.956,0,0,1,.958-.8,9.914,9.914,0,0,1,2.511-1.331l-.706.674a7.783,7.783,0,0,1,2.007-.906,8.111,8.111,0,0,0-1.384.72,8.244,8.244,0,0,1,2.093-.733,12.81,12.81,0,0,1,2.1-.262c-.516.111-1.036.242-1.55.392a6.641,6.641,0,0,1,1.5-.078c.245.013.481.035.7.069a2.407,2.407,0,0,0,.512.113,9.8,9.8,0,0,1-1.408.054c1,.015,1.728.273,1.976.7a2.262,2.262,0,0,1-1.017-.164c.73.271.758.9.07,1.531a3.416,3.416,0,0,1,1.1.4c-.317-.049-.654-.087-1.006-.113a1.772,1.772,0,0,1,1.173.881l-1.023-.294c.283.276.254.654-.08,1.051l-.256-.314a5.514,5.514,0,0,1-1.967,1.7c.522-.521.877-1.157.492-1.525a5.023,5.023,0,0,1-.613.835,2.084,2.084,0,0,0,.5-1.465,7.353,7.353,0,0,0-.719.864.847.847,0,0,0-.186-1.121l-.583.818c.214-.449-.019-.838-.629-1.048.168.174.147.41-.057.656a1.687,1.687,0,0,0-1-.545.38.38,0,0,1,.118.518,1.549,1.549,0,0,0-.908-.23c-.1,0-.209,0-.314.007a3.04,3.04,0,0,1-.811.083,15.255,15.255,0,0,1,2.093.228,6.816,6.816,0,0,1-1.306,0,9.842,9.842,0,0,1,2.306.376c-.309.005-.8-.031-1.359-.007a5.559,5.559,0,0,1,2.857.933,4.993,4.993,0,0,0-1.747-.4,10.138,10.138,0,0,1,1.81.793l-1.275-.382c.633.3,1.277.61,1.455,1.162a3.438,3.438,0,0,1-.843-.312,1.9,1.9,0,0,1-.095.978c-.037.116,0,.21-.063.333a1.883,1.883,0,0,1-.224.306c-.054.066-.244.228-.256.28a2.709,2.709,0,0,0-.123-1.85,2.469,2.469,0,0,1-.608,1.428,2.716,2.716,0,0,0-.088-1.671,2.981,2.981,0,0,1-.5,1.372,5.489,5.489,0,0,0-.289-1.692,1.7,1.7,0,0,1-.15,1.04.64.64,0,0,1-.279.317,4.385,4.385,0,0,0-.23-1.5,2.689,2.689,0,0,1-.247,1.112c-.194-.028-.213-.174-.225-.309a1.145,1.145,0,0,0-.41-.941,2.135,2.135,0,0,1,.062.753.331.331,0,0,1-.192.267l-.594-1.313-.156.832a1.516,1.516,0,0,1,0,1.371.573.573,0,0,0-.443-.636c.265.578.006,1.3-.731,2.025-.025-.187-.049-.375-.073-.562a2.5,2.5,0,0,1-.963,1.124,16.9,16.9,0,0,1-1.744,1.108,2.449,2.449,0,0,1-.443.214.046.046,0,0,1-.027-.051c-.141.082-.281.165-.426.246a5.905,5.905,0,0,1-1.069.493,14.948,14.948,0,0,0,2.821-2.275,2.453,2.453,0,0,0,.643-.8,11.614,11.614,0,0,1-2.875,2.175c.981-1.155,2.531-2.326,3.587-3.484q-1.529,1.172-3.189,2.336c.525-1.043,2.723-2.175,3.424-3.237q-.734.585-1.58,1.162a2.735,2.735,0,0,1-.808.408l1.681-1.582a8.832,8.832,0,0,1-1.171.653c.071-.123.123-.244.189-.367a33.56,33.56,0,0,1-4.242,4.487,92.665,92.665,0,0,1-9.98,7.792m15.779-14.6h0Zm1.022,1.171c.031.03.058.061.088.092l-.086-.176Zm3.088-2.621a20.156,20.156,0,0,1,2.547-.364,9.413,9.413,0,0,0-1.848.358,17.028,17.028,0,0,1,3.639-.148,9.537,9.537,0,0,0-1.585.17,9.028,9.028,0,0,1,2.2.135,4.98,4.98,0,0,0-1.785-1.056,1.273,1.273,0,0,1,.553.426.325.325,0,0,1-.282.009,5.39,5.39,0,0,0-2.568-.281,2.265,2.265,0,0,1,1.144.434c-.351.036-.654.013-.985.023a7.874,7.874,0,0,0-2.8.685C-255.366,818.9-254.769,818.779-254.176,818.667Z" transform="translate(276.1 -816.207)" fill="url(#i)"/></g><g transform="translate(0)"><path d="M-243.409,828.206a34.677,34.677,0,0,1,1.112-13.977,59.8,59.8,0,0,0,1.781-11.828,30.187,30.187,0,0,0-.627-8.591c-.136-.542-.446-1.188-1.081-1.2.506.007.707,6.16.241,10.217a68.176,68.176,0,0,1-2.12,11.309c-1.554,5.526-2.2,9.7-.845,14.952" transform="translate(250.951 -786.137)" fill="#82482b"/><path d="M-253.717,794.139l-1.088-.848a3.688,3.688,0,0,1-.915-.859.267.267,0,0,1-.051-.121.3.3,0,0,1,.039-.16,1.231,1.231,0,0,1,.8-.615,4.4,4.4,0,0,1,2.12-.152,1.16,1.16,0,0,1-.689.149,10.591,10.591,0,0,1,2.005.346,3.346,3.346,0,0,1-1.124,0,8.067,8.067,0,0,1,2.319.571c-.262.007-.714-.047-1.179-.011a7.2,7.2,0,0,1,3.282,1.417,5,5,0,0,0-1.858-.61,16.755,16.755,0,0,1,2.256,1.2l-1.435-.579a6.845,6.845,0,0,1,2.274,1.763,4.942,4.942,0,0,1-1-.474,7.079,7.079,0,0,1,.776,1.484c.07.177.183.319.238.506a2.627,2.627,0,0,1,.075.464,2.425,2.425,0,0,0,.025.426,11.4,11.4,0,0,0-1.728-2.809,6,6,0,0,1,.727,2.168,11.332,11.332,0,0,0-1.54-2.536,7.923,7.923,0,0,1,.768,2.082,24.587,24.587,0,0,0-1.733-2.569,6,6,0,0,1,.782,1.578.738.738,0,0,1,.036.48,19.48,19.48,0,0,0-1.515-2.279,8.805,8.805,0,0,1,.762,1.687c-.192-.042-.335-.262-.465-.468a4.908,4.908,0,0,0-1.178-1.429,9.215,9.215,0,0,1,.714,1.145.5.5,0,0,1,.068.4q-.831-1-1.663-1.993.388.822.774,1.643l-1.5-1.756q.281.492.56.984l-1.118-1.042A2.943,2.943,0,0,1-253.717,794.139Z" transform="translate(264.854 -785.807)" fill="#82482b"/><path d="M-239.6,793.238a16.669,16.669,0,0,0-.38,2.178,12.581,12.581,0,0,0,.106,2.41,3.59,3.59,0,0,1-.51-1.289q-.091,1.252-.182,2.505a2.532,2.532,0,0,1-.421-1.244q.023,1.316.045,2.63l-.7-1.894c.025.9.049,1.792-.009,2.689a4.185,4.185,0,0,1-.383-1.234q-.06,1.313-.025,2.626a7.764,7.764,0,0,1-.79-1.868c-.177.971-.261,1.95-.344,2.928a7.124,7.124,0,0,1-.352-2.819q-.334.958-.668,1.916c-.3-1.13.449-2.294.514-3.464a3.576,3.576,0,0,1-.891,1.387,1.6,1.6,0,0,1,.239-.908c.282-.568.59-1.126.917-1.676l-1.374,1.387c.451-.958,1.443-1.7,1.766-2.689a19.576,19.576,0,0,1-1.5,1.286c.463-1.16,1.913-1.9,2.28-3.082a7.58,7.58,0,0,0-1.442.817,3.834,3.834,0,0,1,1.454-1.841,8.233,8.233,0,0,1,2.262-1.082,2.135,2.135,0,0,1,.463-.112c.124-.011.329.055.432,0" transform="translate(248.93 -786.183)" fill="#82482b"/><path d="M-235.623,790.558c.42-1.525-.82-2.979-2.286-3.654a3.17,3.17,0,0,0-2.345-.212,2.689,2.689,0,0,1,1.519.572,6.116,6.116,0,0,0-2.825.016l.863.194a4.277,4.277,0,0,0-2.2.888,1.858,1.858,0,0,0-.51.579,4.973,4.973,0,0,1-.329.811,4.186,4.186,0,0,1,1.091-.709,4.226,4.226,0,0,0-1.567,1.423,10.348,10.348,0,0,1,2.983-1.484,5.468,5.468,0,0,0-1.364.837,11.523,11.523,0,0,1,3.762-1.114,17.115,17.115,0,0,0-1.833.7,5.809,5.809,0,0,1,2.81-.257q-.672.142-1.347.257a3.188,3.188,0,0,1,2.726,1.348c.033.055.125.113.173.057" transform="translate(244.93 -784.592)" fill="#82482b"/><g transform="translate(8.96 6.006)"><path d="M-243.9,791.982c.065.159.124.321.186.481a2.056,2.056,0,0,0-.236-.025Z" transform="translate(243.953 -791.982)" fill="#82482b"/><path d="M-250.454,792.628a2.929,2.929,0,0,1,1.388.709l-.1-.21q.45.342.876.708a7.624,7.624,0,0,1,2.475,3.348,2.073,2.073,0,0,0-.94-.966,4.82,4.82,0,0,1,1.144,3.072l-.555-.852a3.017,3.017,0,0,1,.154,1.706,8.1,8.1,0,0,1-.534,1.681.848.848,0,0,1-.2.325.184.184,0,0,1-.068-.077c-.05.124-.1.25-.153.373a2,2,0,0,1-.49.749,10.218,10.218,0,0,0,.44-3.454,3.188,3.188,0,0,0-.141-1.206,7.238,7.238,0,0,1-.575,3.3c-.165-1.753.145-3.531.04-5.289q-.291,1.78-.7,3.546c-.461-1.583.443-3.3.117-4.914a15.648,15.648,0,0,1-.345,1.764,1.023,1.023,0,0,1-.338.619q.031-1.2.063-2.4a3.629,3.629,0,0,1-.437.991A29.732,29.732,0,0,0-250.454,792.628Z" transform="translate(250.69 -792.147)" fill="#82482b"/></g><path d="M-253.266,789.9a5.685,5.685,0,0,1-.055-.908,11.4,11.4,0,0,1,.136-2.278,3.841,3.841,0,0,1,1-2.02q-.009.511-.019,1.023c.262-.491.335-1.021.937-1.376a3.052,3.052,0,0,0-.563,1.093,2.47,2.47,0,0,1,1.163-1.113,4.512,4.512,0,0,1,1.584-.4,6.615,6.615,0,0,0-.994.6,2.843,2.843,0,0,1,1.23-.118,4.87,4.87,0,0,1,.663.105c.123.029.43.195.541.171a4.328,4.328,0,0,1-1.168.083,3.286,3.286,0,0,1,2.317,1.06,1.871,1.871,0,0,1-1.022-.249,2.517,2.517,0,0,1,1.4,2.338A10.834,10.834,0,0,0-249,786.094a3.469,3.469,0,0,1,1.252.837c-.025.087-.156.058-.235.014a3.829,3.829,0,0,0-2.461-.427,3.341,3.341,0,0,1,1.367.659,5.8,5.8,0,0,1-.829.036,2.407,2.407,0,0,0-1.913,1.162,4.717,4.717,0,0,0-.469,1.434" transform="translate(262.288 -783.922)" fill="#82482b"/><path d="M-244.368,794.426c-.124.138-.247.278-.364.422a8.833,8.833,0,0,0-.7.975,2.612,2.612,0,0,1,1.06-2.312l-1.253.7a2.826,2.826,0,0,1,1.85-1.248l-1.5.15a7.914,7.914,0,0,1,2.262-.666,2.74,2.74,0,0,0-.712-.077,2.9,2.9,0,0,0-.672-.029,9.943,9.943,0,0,1,2.115-.459,5.862,5.862,0,0,0-1.073-.192,6.751,6.751,0,0,1,2.445-.105c.06-.019.121-.035.181-.057a6.366,6.366,0,0,0-1.578-.3,6.909,6.909,0,0,1,2.932-.041,5.754,5.754,0,0,0-1.3-.335,6.235,6.235,0,0,1,2.379.124,7.189,7.189,0,0,1,1.706.425l.037.013c.044.019.089.038.132.06a9.433,9.433,0,0,1,1.245.678l-1.236.592a2.361,2.361,0,0,0-.963.109,29.282,29.282,0,0,0-2.906,1.006,5.5,5.5,0,0,1,1.046-.989c-.738.346-1.443.749-2.154,1.144l.944-1.072a4.889,4.889,0,0,0-1.765,1.9,5.519,5.519,0,0,1,.413-1.238,5.715,5.715,0,0,0-.859,1.049l-.308.443a1.131,1.131,0,0,1,.089-.763,3.225,3.225,0,0,1,.432-.641,4.721,4.721,0,0,0-1.6,1.671,2.961,2.961,0,0,1,.75-1.46,8.932,8.932,0,0,0-1.846,1.841A5.964,5.964,0,0,1-244.368,794.426Z" transform="translate(245.624 -785.666)" fill="#82482b"/><path d="M-256.155,790.622a2.189,2.189,0,0,1,.888-1.161,6.831,6.831,0,0,1,1.4-.716,6.812,6.812,0,0,1,1.879-.552,2.931,2.931,0,0,0-1.28.545,7.482,7.482,0,0,1,3.009-.226,3.467,3.467,0,0,0-1.218.259,5.22,5.22,0,0,1,3.332.814,8.882,8.882,0,0,0-.966-.171,4.7,4.7,0,0,1,1.783,1.337l-1.14-.446a2.444,2.444,0,0,1,.852,1.6l-.5-.478a4.271,4.271,0,0,1-.206,2.582,3.121,3.121,0,0,0-.913-2.315,7.287,7.287,0,0,1,.2,1.266,5.7,5.7,0,0,0-.852-2.223,9.1,9.1,0,0,0,.136,1.311,3.4,3.4,0,0,0-1.142-1.7l.214,1.242a2.644,2.644,0,0,0-1.461-1.591,1.573,1.573,0,0,1,.526,1,3.432,3.432,0,0,0-1.336-.827,1.516,1.516,0,0,1,.556.787,1.684,1.684,0,0,0-.984-.349,3.744,3.744,0,0,0-1.085.124,2.874,2.874,0,0,0-1.668.91" transform="translate(265.622 -785.01)" fill="#82482b"/></g></g><g transform="translate(199.072 150.648)"><path d="M-168.67,831.591l-59.01-74.335-35.274,74.335Z" transform="translate(287.112 -757.255)" fill="url(#j)"/><path d="M-183.766,815.966l59.433-58.711-35.274,74.335Z" transform="translate(183.766 -757.255)" fill="url(#k)"/><g transform="translate(24.159)"><g clip-path="url(#l)"><path d="M-269.358,822.634h53.929v-1.223h-53.929Zm-2.92-7.986h64.406v1.522h-64.406Zm4.834-4.74h45.034v.761h-45.034Zm46.531,0H-204.2v.761h-16.708Zm-41.272-6.646h45.034v.761h-45.034Zm15.47-8.743h45.034v.762h-45.034ZM-279,788.463h45.034v.761H-279Zm7.656-5.481H-226.3v.761h-45.034Zm-6.332-7.126h45.034v.761h-45.034Zm38,52.618h45.034v.761h-45.034Zm-50.292,0h45.034v.761H-289.96Zm79.1-7.064h53.929v1.223h-53.929Z" transform="translate(271.339 -761.995)" opacity="0.15" fill="url(#m)" style="mix-blend-mode:multiply;isolation:isolate"/></g></g></g><path d="M-180.958,862.92c-10.871-4.106-22.11-8.227-33.724-7.832a245.236,245.236,0,0,1-27.69-.423c-8.886-.7-17.788-1.762-26.586.237-8.649,1.965-17.691,2.648-26.419,4.783a4.707,4.707,0,0,0-2.737,1.376,3.194,3.194,0,0,0,.5,3.981,8.382,8.382,0,0,0,3.835,1.982c10.064,2.993,20.74,3.04,31.239,2.867q22.461-.371,44.88-1.937" transform="translate(525.043 -631.194)" fill="#fcb34a"/><path d="M-281.081,903.254c6.705-2.971,17.976-9.837,19.955-17.63,1.8-7.105-6.693-19.219-11.638-24.084a52.938,52.938,0,0,0-10.645-7.586c-32.152-18.8-69.17-31.616-106.26-28.193-7.7.71-15.432,2.145-22.418,5.458a6.581,6.581,0,0,0-3.417,2.83c-2.021,4.4,8.1,7.12,11.01,8.562a3.773,3.773,0,0,1,2.138,1.878c.616,1.836-1.651,3.254-3.51,3.8-9.012,2.63-18.481,3.179-27.854,3.713-16.692.949-33.386,1.9-50.1,2.338-5.962.156-12.064.274-17.636,2.4a5.127,5.127,0,0,0-3.075,2.341c-.773,1.728.346,3.707,1.635,5.093,3.349,3.6,7.985,5.676,12.536,7.535a269.958,269.958,0,0,0,36.239,11.887c11.234,2.824,21.691,6.9,32.932,9.9,25.433,6.793,51.243,12.668,77.517,14.955a253.571,253.571,0,0,0,29.9.9C-302.623,909-291.281,907.773-281.081,903.254Z" transform="translate(758.604 -623.922)" fill="url(#n)"/><path d="M-346.009,897.033l-64.624-20.673a66.7,66.7,0,0,0-13.607-3.317c-5.6-.56-11.248.275-16.806,1.108-13.607,2.038-27.25,4.084-40.5,7.5a32.375,32.375,0,0,0-9.484,3.624c-2.8,1.8-5,4.576-5.086,7.637-.091,3.225,2.1,6.132,4.411,8.627a78.166,78.166,0,0,0,10.275,9.186,67.3,67.3,0,0,0,14.384,8.5c8.581,3.607,18.129,4.975,27.576,5.865,37.509,3.538,75.417.174,112.724-4.756" transform="translate(818.014 -636.064)" fill="url(#n)"/><g transform="translate(80.341 119.858)"><path d="M-60.981,845.318l-90.436-129.38-55.54,129.38Z" transform="translate(256.426 -715.938)" fill="url(#p)"/><path d="M-85.6,845.318,19.411,715.938l-55.54,129.38Z" transform="translate(85.598 -715.938)" fill="url(#k)"/><g transform="translate(0)"><g clip-path="url(#r)"><path d="M-18.978,824.759l-57.778-29.994.511-2.388,57.778,29.994Zm4.274-14.89-69-35.821-.534,3.015,69,35.821Zm5.651-7.041L-57.3,777.781v1.37L-9.054,804.2ZM-5.6,790.493l-48.248-25.047v1.37L-5.6,791.864ZM5.657,765.285l-48.248-25.047v1.37L5.657,766.655Zm16.049-19.047-48.248-25.047v1.37l48.248,25.047ZM8.614,754.575l-48.248-25.047v1.37L8.614,755.945Zm-31.846,80.377L-71.48,809.906v1.67l48.248,25.047Z" transform="translate(82.292 -717.276)" opacity="0.05" fill="url(#k)" style="mix-blend-mode:multiply;isolation:isolate"/><g transform="translate(31.845 -8.586)" opacity="0.25" style="mix-blend-mode:multiply;isolation:isolate"><path d="M-76.3,829.177A100.072,100.072,0,0,1-72.8,818a188.932,188.932,0,0,1,10.966-23.146c7.472-13.808,11.87-25.98,16.412-37.558a163.879,163.879,0,0,0,7.909-28.344,49.253,49.253,0,0,0-1.937,4.54,54.78,54.78,0,0,0-2.066,8.079,13.01,13.01,0,0,1-.129-4.508l-2.945,8.282a9.472,9.472,0,0,1,.071-4.318q-1.223,4.394-2.446,8.789-.03-3.3-.06-6.6c-.809,3-1.619,6-2.651,8.964a15.834,15.834,0,0,1,.162-4.271q-1.45,4.356-2.635,8.748a27.589,27.589,0,0,1-.326-6.55c-1.431,3.166-2.616,6.4-3.8,9.624a29.9,29.9,0,0,1,1.8-9.544l-3.691,6.119c.292-3.891,3.467-7.469,4.786-11.342a15.516,15.516,0,0,1-3.779,4.263,7.331,7.331,0,0,1,1.537-2.931c1.322-1.779,2.706-3.514,4.132-5.216l-5.1,4.066c2.164-3.012,5.587-5.068,7.436-8.251q-2.6,1.966-5.334,3.682c2.394-3.681,7.063-5.553,9.217-9.353A24.521,24.521,0,0,0-50,733.359a15.9,15.9,0,0,1,5.757-5.549c.447-.26.9-.495,1.363-.717-1.8.431-3.593.933-5.388,1.443a21.062,21.062,0,0,1,3.812-2.873c-2.347.852-4.66,1.911-6.98,2.938l3.618-3.189a19.507,19.507,0,0,0-6.668,5.634,25.44,25.44,0,0,1,2.334-3.959,23.608,23.608,0,0,0-3.365,3.148l-1.269,1.352a5.066,5.066,0,0,1,.989-2.508,13.937,13.937,0,0,1,1.8-1.961,18.638,18.638,0,0,0-5.988,4.921,13.225,13.225,0,0,1,3.47-4.564,34.95,34.95,0,0,0-6.825,5.394,26.421,26.421,0,0,1,3.4-4.081q-.711.611-1.4,1.258a37.41,37.41,0,0,0-2.855,2.967,11.564,11.564,0,0,1,5.144-7.28l-4.093,1.814a9.634,9.634,0,0,1,6.254-3.411l-4.23-.111a21.344,21.344,0,0,1,6.807-1.3,5.816,5.816,0,0,0-1.865-.545c-.5-.063-1.3-.489-1.8-.37a25.356,25.356,0,0,1,6.205-.672,12.165,12.165,0,0,0-2.733-1.077,15.276,15.276,0,0,1,6.758.642c.183-.04.366-.066.548-.115a13.212,13.212,0,0,0-4-1.648,15.43,15.43,0,0,1,8.021,1.054,11.85,11.85,0,0,0-3.223-1.645c2.212-.326,4.418.68,6.355,1.38.288.1.576.214.864.325A7.522,7.522,0,0,0-43.9,717.43q1.952-.11,3.92-.311a13.555,13.555,0,0,0-7.9-.282,48.413,48.413,0,0,1,5.67-1.575c-3.609-.282-7.542.963-11.33,2.188a18.075,18.075,0,0,1,4.533-2.237,31.932,31.932,0,0,0-9.571,3.738c1.319-1.4,3.748-3.556,5.658-4.111a14.245,14.245,0,0,0-3.663,1.92,22.391,22.391,0,0,0,1.689-2.573,7.576,7.576,0,0,1,1.957-1.724,12.447,12.447,0,0,1,6.854-2.07l-2.16-1a13.586,13.586,0,0,1,7.708,1.095,5.662,5.662,0,0,0-3.578-2.526,6.863,6.863,0,0,1,6.178,1.66,11.281,11.281,0,0,1,3.686,6.384,35.127,35.127,0,0,1,1.512-3.936,17.2,17.2,0,0,1,4.7-6.331l-1.05,3.4c1.19-1.53,1.907-3.267,3.9-4.207a13.7,13.7,0,0,0-2.6,3.416,9.478,9.478,0,0,1,4.254-3.24,11.749,11.749,0,0,1,4.7-.686,21.617,21.617,0,0,0-3.287,1.581,6.642,6.642,0,0,1,3.464.107,9.911,9.911,0,0,1,1.7.619c.306.146.98.823,1.306.791a9.909,9.909,0,0,1-3.26-.2,7.11,7.11,0,0,1,5.272,4.477,3.892,3.892,0,0,1-2.537-1.247c1.961,1.725,2.593,5.146,1.549,8.321a10.26,10.26,0,0,1,2.937,2.537,18.212,18.212,0,0,0-2.463-.961c1.794,1.133,2.67,3.254,3.55,5.183l-2.669-1.953a8.118,8.118,0,0,1,.761,5.672l-.886-1.794a19.152,19.152,0,0,1-3.084,8.526c.758-2.638,1.016-5.961-.221-8.091a30.283,30.283,0,0,1-.688,4.3,20.779,20.779,0,0,0-.15-7.758,38.533,38.533,0,0,0-.908,4.425,10.428,10.428,0,0,0-1.448-6.138q-.316,2.115-.631,4.229a7.234,7.234,0,0,0-2.423-5.9,5.24,5.24,0,0,1,.46,3.537,7.742,7.742,0,0,0-2.83-3.3,4.581,4.581,0,0,1,.746,2.85,3.544,3.544,0,0,0-2.338-1.563,5.671,5.671,0,0,0-.62-.1,2.912,2.912,0,0,1-1.945.187,21.911,21.911,0,0,1,5.122,1.969,7.423,7.423,0,0,1-3.064-.446,16.606,16.606,0,0,1,5.757,2.845c-.72-.081-1.9-.446-3.2-.515,3.066,1.362,5.465,2.786,7.552,6.056a10.347,10.347,0,0,0-4.464-2.788,36.227,36.227,0,0,1,4.966,4.931l-3.339-2.513a16.382,16.382,0,0,1,4.468,6.8,10.438,10.438,0,0,1-2.262-1.988,23.76,23.76,0,0,1,.66,5.265c.019.618.187,1.138.154,1.784a11.147,11.147,0,0,1-.25,1.581,10.461,10.461,0,0,0-.349,1.426,36.059,36.059,0,0,0-1.959-10.068,22.555,22.555,0,0,1-.139,7.524,36.136,36.136,0,0,0-1.715-9.082,29.247,29.247,0,0,1,.054,7.254,75.274,75.274,0,0,0-2.207-9.27,20.53,20.53,0,0,1,.587,5.582,3.155,3.155,0,0,1-.37,1.616,59.915,59.915,0,0,0-1.9-8.218,30.764,30.764,0,0,1,.426,5.937c-.482-.221-.657-1.013-.807-1.751a13.89,13.89,0,0,0-1.813-5.243,28.981,28.981,0,0,1,.826,4.105,2.026,2.026,0,0,1-.209,1.376l-2.579-7.319q.192,2.228.385,4.456a19.38,19.38,0,0,1,1.242,7.429,5.516,5.516,0,0,0-1.616-3.6,17.615,17.615,0,0,1,.112,10.711l-.68-3.067a12.826,12.826,0,0,1-1.246,5.751,37.3,37.3,0,0,1-3.1,5.391,3.753,3.753,0,0,1-.849,1,.493.493,0,0,1-.108-.287c-.258.4-.513.794-.78,1.183a8.684,8.684,0,0,1-2.066,2.3,46.5,46.5,0,0,0,4.573-11.34,13.437,13.437,0,0,0,.794-4.078,33.039,33.039,0,0,1-4.79,10.771c1.262-5.912,3.846-11.714,5.277-17.619q-2.533,5.819-5.38,11.542c.292-5.466,4.43-10.83,5.119-16.338q-1.2,2.91-2.661,5.74a4.528,4.528,0,0,1-1.528,1.93l2.52-7.982a16.388,16.388,0,0,1-2.16,3.127c.06-.695.1-1.387.15-2.08a150.136,150.136,0,0,1-5.949,22.981,274.117,274.117,0,0,1-16.4,38.721c-7.332,14.32-13.536,29.228-16.483,44.379-1.714-.23-1.655-1.143-3.09-1.958C-79.158,838.168-76.531,830.115-76.3,829.177Zm59.9-112.2a8.794,8.794,0,0,0-3.568.367,11.411,11.411,0,0,1,5.28,1.5,24.34,24.34,0,0,0-6.055-7.146,7.973,7.973,0,0,1,2.59,3.3c-.155.279-.481.13-.654-.049a8.076,8.076,0,0,0-6.284-2.423,7.157,7.157,0,0,1,3.066,2.739,10.169,10.169,0,0,1,1.23-.055,8.662,8.662,0,0,0-4.017,1.3A17.252,17.252,0,0,1-16.4,716.978Zm-10.049-.687a24.013,24.013,0,0,1,4.227-1.007,18.691,18.691,0,0,1-2.086-.22,7.734,7.734,0,0,0-5.975,2.7A24.22,24.22,0,0,1-26.453,716.291Zm-4.96,12.66.073.457c.1.174.192.353.289.529Z" transform="translate(78.442 -704.416)" fill="url(#t)"/></g></g></g><g transform="translate(49.469)"><g clip-path="url(#u)"><path d="M-216.872,829.727h83.5V827.6h-83.5Zm-4.52-13.9h99.717v2.649h-99.717Zm7.485-8.25h69.724V808.9h-69.724Zm72.041,0H-116V808.9h-25.869Zm-63.9-11.566h69.725v1.324h-69.725Zm23.952-15.218h69.725v1.324h-69.725Zm-49.98-10.539h69.725v1.324h-69.725Zm11.855-9.539h69.724v1.324H-219.94Zm-9.8-12.4h69.725v1.324h-69.725Zm58.84,91.579h69.724v1.324H-170.9Zm-77.866,0h69.724v1.324H-248.77ZM-126.3,827.6h83.5v2.127h-83.5Z" transform="translate(219.94 -724.187)" opacity="0.25" fill="url(#m)" style="mix-blend-mode:multiply;isolation:isolate"/></g></g></g><g transform="translate(107.912 111.431)"><path d="M-11.053,800.039a151.513,151.513,0,0,0-6.55,22.718,85.73,85.73,0,0,0-1.365,10.97c-.053.92-1.143,8.825-.139,9.33,1.59.8,1.705,1.7,3.463,1.921.057-14.87,3.416-29.5,8.015-43.558a223.853,223.853,0,0,0,9.018-38.006c1.32-9.269,2.177-19.035,1.172-28.368-.2-1.826-.844-4.065-2.618-4.346,1.413.224.939,19.383-1.749,32.475C-4.139,774.538-6.216,786.485-11.053,800.039Z" transform="translate(25.205 -711.272)" fill="#4f1e1c"/><path d="M-43.2,736.962l-2.756-3.208a11.964,11.964,0,0,1-2.271-3.174,1,1,0,0,1-.1-.417,1.1,1.1,0,0,1,.162-.51,3.417,3.417,0,0,1,2.451-1.694,10.677,10.677,0,0,1,5.988.349,2.829,2.829,0,0,1-1.981.212,26.739,26.739,0,0,1,5.5,1.932,8.169,8.169,0,0,1-3.148-.437,20.867,20.867,0,0,1,6.3,2.792c-.736-.079-1.983-.437-3.3-.5a19.882,19.882,0,0,1,8.708,5.944,13.293,13.293,0,0,0-5-2.736,48.069,48.069,0,0,1,5.907,4.839l-3.819-2.467a21.164,21.164,0,0,1,5.766,6.678,13.8,13.8,0,0,1-2.642-1.952,25.885,25.885,0,0,1,1.666,5.167c.136.607.4,1.116.494,1.751a10.381,10.381,0,0,1,.052,1.552,9.215,9.215,0,0,0-.077,1.4,40.76,40.76,0,0,0-3.88-9.882,22.727,22.727,0,0,1,1.3,7.385,40.685,40.685,0,0,0-3.448-8.915,29.893,29.893,0,0,1,1.438,7.12,86.748,86.748,0,0,0-3.976-9.1,22.184,22.184,0,0,1,1.652,5.479,2.82,2.82,0,0,1-.062,1.586,68.766,68.766,0,0,0-3.466-8.066,32.626,32.626,0,0,1,1.558,5.827c-.525-.218-.85-.995-1.142-1.719a16.7,16.7,0,0,0-2.813-5.146,32.825,32.825,0,0,1,1.609,4.029,1.892,1.892,0,0,1,.053,1.351l-3.975-7.184,1.607,5.688q-1.805-3.173-3.61-6.348.616,1.724,1.233,3.446L-44,734.175A10.87,10.87,0,0,1-43.2,736.962Z" transform="translate(74.464 -710.504)" fill="#4f1e1c"/><path d="M-2.809,733.075a62.072,62.072,0,0,0-1.806,6.978,48.252,48.252,0,0,0-.525,7.93,13.484,13.484,0,0,1-.99-4.425l-1.364,8.129a9.556,9.556,0,0,1-.753-4.239q-.385,4.314-.77,8.626-.659-3.241-1.32-6.481c-.237,2.941-.475,5.886-.941,8.8a15.807,15.807,0,0,1-.653-4.192q-.618,4.276-.965,8.587a28.917,28.917,0,0,1-1.576-6.43c-.826,3.107-1.4,6.28-1.962,9.447a27.368,27.368,0,0,1-.026-9.368l-2.523,6.006c-.45-3.82,2.042-7.331,2.622-11.133a11.592,11.592,0,0,1-2.965,4.185,5.814,5.814,0,0,1,.978-2.877c.983-1.746,2.036-3.449,3.137-5.119l-4.32,3.991c1.59-2.956,4.62-4.973,5.862-8.1A55.444,55.444,0,0,1-18.3,747c1.691-3.613,6-5.451,7.433-9.18a19.818,19.818,0,0,0-4.316,2.1,11.89,11.89,0,0,1,4.7-5.447,21.067,21.067,0,0,1,6.7-2.64,5.15,5.15,0,0,1,1.333-.182c.352.013.9.313,1.21.171" transform="translate(29.444 -711.515)" fill="#4f1e1c"/><path d="M5.525,723.739c1.694-4.822-1.278-10.076-5.155-12.873a7.938,7.938,0,0,0-6.494-1.629,7.305,7.305,0,0,1,4.061,2.479,14.936,14.936,0,0,0-7.916-1.074l2.35.978a10.775,10.775,0,0,0-6.459,2.032,5.648,5.648,0,0,0-1.628,1.691,17.2,17.2,0,0,1-1.2,2.526,11.282,11.282,0,0,1,3.3-1.885c-1.8.545-3.821,2.66-4.873,4.035a26.5,26.5,0,0,1,8.857-3.669,14.445,14.445,0,0,0-4.105,2.2c3.554-1.2,7.249-2.424,10.912-2.147a42.239,42.239,0,0,0-5.37,1.546,14.091,14.091,0,0,1,7.956.276q-1.929.2-3.861.305a9.084,9.084,0,0,1,7.174,5.5c.074.192.312.419.464.254" transform="translate(21.419 -705.755)" fill="#4f1e1c"/><g transform="translate(25.805 17.998)"><path d="M-16.891,728.781c.127.549.238,1.1.358,1.651a5.139,5.139,0,0,0-.654-.179Z" transform="translate(17.187 -728.781)" fill="#4f1e1c"/><path d="M-32.54,731A8.321,8.321,0,0,1-28.9,733.87l-.2-.725q1.146,1.3,2.211,2.665c2.736,3.516,5.107,7.5,5.788,11.943a6.8,6.8,0,0,0-2.3-3.537,18.041,18.041,0,0,1,2.155,10.512q-.633-1.5-1.265-3.01a11.579,11.579,0,0,1-.148,5.645,29.032,29.032,0,0,1-2.067,5.292,2.807,2.807,0,0,1-.657.984.6.6,0,0,1-.163-.281c-.183.388-.361.779-.554,1.16a6.483,6.483,0,0,1-1.627,2.256c1.525-3.482,1.976-7.34,2.408-11.13a12.255,12.255,0,0,0,.016-4,26.845,26.845,0,0,1-2.735,10.573c.134-5.8,1.61-11.5,1.916-17.294q-1.423,5.711-3.179,11.328c-.75-5.365,2.365-10.629,2-16.036a58.119,58.119,0,0,1-1.566,5.634,3.416,3.416,0,0,1-1.16,1.894l1-7.834a12.432,12.432,0,0,1-1.563,3.069A113.245,113.245,0,0,0-32.54,731Z" transform="translate(33.194 -729.346)" fill="#4f1e1c"/></g><path d="M-44.672,722.542a22.016,22.016,0,0,1,.156-3,43.45,43.45,0,0,1,1.157-7.4,13.007,13.007,0,0,1,3.49-6.213q-.2,1.67-.4,3.341c.9-1.5,1.283-3.207,3.093-4.129a10.3,10.3,0,0,0-1.947,3.353,7.183,7.183,0,0,1,3.635-3.18,11.037,11.037,0,0,1,4.57-.674,17.361,17.361,0,0,0-2.985,1.552,6.892,6.892,0,0,1,3.485.106,12,12,0,0,1,1.821.607c.334.144,1.137.809,1.456.777a10.444,10.444,0,0,1-3.3-.2,9.191,9.191,0,0,1,6.126,4.394,4.836,4.836,0,0,1-2.775-1.224,8.917,8.917,0,0,1,3.132,8.212,32.027,32.027,0,0,0-7.48-7.09,10.42,10.42,0,0,1,3.22,3.239c-.1.274-.456.127-.663-.048a9.757,9.757,0,0,0-6.747-2.379,9.406,9.406,0,0,1,3.6,2.705,14.066,14.066,0,0,1-2.335-.215,6.43,6.43,0,0,0-5.751,3.04,16.832,16.832,0,0,0-1.8,4.507" transform="translate(70.813 -704.629)" fill="#4f1e1c"/><path d="M-18.416,733.2q-.594.6-1.163,1.235a27.741,27.741,0,0,0-2.289,2.912,8.886,8.886,0,0,1,3.757-7.144l-3.748,1.78a7.664,7.664,0,0,1,5.6-3.348l-4.252-.109a19.491,19.491,0,0,1,6.559-1.28,6.831,6.831,0,0,0-1.97-.534c-.507-.062-1.394-.48-1.871-.364a24.283,24.283,0,0,1,6.078-.659,14.886,14.886,0,0,0-2.938-1.057,16.386,16.386,0,0,1,6.881.63c.175-.039.352-.066.526-.112a16.215,16.215,0,0,0-4.314-1.617c2.715-.519,5.526.167,8.222,1.034a14.965,14.965,0,0,0-3.537-1.614c2.149-.321,4.547.667,6.618,1.354a18.678,18.678,0,0,1,4.631,2.07l.1.059c.117.081.235.16.349.247A27.343,27.343,0,0,1,8.079,729.4l-3.662,1.447a5.713,5.713,0,0,0-2.732-.027,71.894,71.894,0,0,0-8.48,2.134,15.869,15.869,0,0,1,3.264-2.819c-2.183.837-4.3,1.875-6.419,2.884l3.009-3.13a14.621,14.621,0,0,0-5.593,5.529,19.716,19.716,0,0,1,1.579-3.886,17.517,17.517,0,0,0-2.764,3.091l-1.012,1.326a4.2,4.2,0,0,1,.511-2.461,10.293,10.293,0,0,1,1.427-1.925,14,14,0,0,0-5.049,4.83,9.985,9.985,0,0,1,2.6-4.479,26.206,26.206,0,0,0-5.8,5.294A19.733,19.733,0,0,1-18.416,733.2Z" transform="translate(21.868 -709.283)" fill="#4f1e1c"/><path d="M-51.419,725.141a6.853,6.853,0,0,1,2.879-3.447,17.556,17.556,0,0,1,4.154-1.787,16.715,16.715,0,0,1,5.447-1.061,7.42,7.42,0,0,0-3.769,1.274,18.126,18.126,0,0,1,8.5.461,8.457,8.457,0,0,0-3.5.36,13.564,13.564,0,0,1,9.052,3.994,22.319,22.319,0,0,0-2.647-.943c2.01,1.111,3.291,3.192,4.539,5.087l-3.041-1.917a8.874,8.874,0,0,1,1.843,5.567l-1.228-1.76a16.107,16.107,0,0,1-1.458,8.369c.255-2.589-.121-5.85-1.765-7.942a28.163,28.163,0,0,1,.134,4.225A21.41,21.41,0,0,0-33.906,728a34.914,34.914,0,0,0-.064,4.344,11.964,11.964,0,0,0-2.619-6.025q.088,2.076.176,4.151a8.79,8.79,0,0,0-3.548-5.789,5.724,5.724,0,0,1,1.135,3.472,10.158,10.158,0,0,0-3.461-3.242,5.317,5.317,0,0,1,1.29,2.8,4.555,4.555,0,0,0-2.636-1.535,9.068,9.068,0,0,0-3.079-.027,7.524,7.524,0,0,0-4.98,2.314" transform="translate(78.933 -708.251)" fill="#4f1e1c"/></g><g transform="translate(67.172 235.918)"><path d="M-146.995,943.856a176.045,176.045,0,0,0,80.386-22.43c4.616-2.626,9.611-6.286,9.9-11.589.272-4.941-3.8-9.091-8.167-11.428-5.931-3.178-12.717-4.254-19.307-5.61-35.035-7.209-69.057-23.64-104.711-20.789-13.03,1.042-25.708,4.657-38.633,6.608-6.679,1.009-36.189,2.973-44.18,3.777-27.119,2.73-54.438,1.409-81.547-.755-23.331-1.863-48.117-9.038-70.147,2.716a24.717,24.717,0,0,0-8.3,6.57c-4.41,5.836-4.4,13.78-4.2,21.093.083,2.982.192,6.073,1.519,8.743,1.183,2.381,3.222,4.2,5.023,6.155,4.762,5.17,8.318,11.81,14.56,15.039,5.532,2.86,11.9,2.374,17.9,1.987,6.335-.41,12.337.6,18.581.521,14.4-.187,28.9-1.263,43.25.466,31.39,3.783,62.406,6.622,93.708,2.653C-210.106,943.622-178.469,944.912-146.995,943.856Z" transform="translate(435.958 -871.682)" fill="url(#w)"/><path d="M-435.478,940.262c28.157-11.333,79.406-17.495,114.258-20,2.442-.176,4.882-.379,7.317-.633q16.514-1.716,33.015-3.721c5.2-.634,16.96-4.06,19.263-8.766,5.8-11.842-17.781-23.631-23.474-27.765-2.517-1.829-3.989-6.326.72-7.674,32.8-.136,64.368,14.432,96.8,21.105,6.59,1.356,13.377,2.432,19.308,5.61,4.362,2.336,8.439,6.487,8.167,11.427-.291,5.3-5.287,8.962-9.9,11.589a176.05,176.05,0,0,1-80.386,22.43c-31.474,1.056-63.111-.235-94.353,3.727-28.539,3.619-56.843,1.574-85.407-1.682C-431.986,942.643-437.625,943.211-435.478,940.262Z" transform="translate(539.354 -871.686)" fill="url(#x)"/></g><path d="M-140.342,926.16c-.1-.708-1.011-1.218-1.055-1.975a3.441,3.441,0,0,1,1.163-2.069,9.157,9.157,0,0,1,2.047-1.711,18.727,18.727,0,0,1,1.926-.961l4.084-1.848a20.164,20.164,0,0,1,1.872-1.093,12.685,12.685,0,0,1,5.168-1.491c2.061-.019,2.92,1,4.616,1.335,3.4.677,8.618-2.406,12.371-4.043a7.008,7.008,0,0,1,2.374-.715c1.5-.034.934,1.23.578,2.152-1.025,2.648,3.242,5.436,8.337,4.36a14.255,14.255,0,0,0,6.854-3.806,7.129,7.129,0,0,1,3.751-2.5,4.182,4.182,0,0,1,2.113.26c1.175.346,3.711-.053,4.643.356.253.111.382.187.422.256.109.186-.42.32-.917.923a8.16,8.16,0,0,1-3.09,1.589c-1.5.456-3.543.4-4.827,1.145a78.447,78.447,0,0,1-7.328,4.21,24.326,24.326,0,0,0,3.145,2.2,12.039,12.039,0,0,0,4.129,1.208,35.236,35.236,0,0,1,6.168-6.032c.768-.559,1.3-.932,1.882-1.275a2.741,2.741,0,0,1,.375-.485,21.126,21.126,0,0,1,4.819-3.208,33.21,33.21,0,0,1,4.747-2.323,1.871,1.871,0,0,0,.46-.212c.128-.1.153-.2.24-.3a1.963,1.963,0,0,1,1.08-.466,3.907,3.907,0,0,1,1.076.022,16.677,16.677,0,0,1,1.709.221,4.111,4.111,0,0,1,1.215.356.755.755,0,0,1,.118.1.529.529,0,0,1,.127.508.626.626,0,0,1-.2.323,1.7,1.7,0,0,1-1.1.361,3.411,3.411,0,0,1-.771.714l-.37,0a4.657,4.657,0,0,1-.629.892c-.151.128-.443.119-.671.166a2.034,2.034,0,0,0-.688.356,2.946,2.946,0,0,1-1.254.532c-.3.025-.8-.1-1.164-.077-.145.1-.282.211-.419.318a.319.319,0,0,0-.016.061c0,.064.16.126.2.182a1.251,1.251,0,0,1,.185.743c-.044,1.382-1.173,3.046-2.254,4.557,0,0,.593.823,1,1.3a4.814,4.814,0,0,1,.447.621.7.7,0,0,0,.282.306,9.25,9.25,0,0,0,1.212.218c.1.03.193.075.206.147a.261.261,0,0,1-.031.143,2.92,2.92,0,0,1-.147.3.208.208,0,0,1-.086.092.293.293,0,0,1-.257.014.194.194,0,0,1-.031-.028.9.9,0,0,1-.107.041c-3.12.875-6.331,1.7-9.474,2.33-.875,1.236-1.582,2.287-1.956,2.76-1.312,1.656-2.587,3.312-3.783,4.964a2.45,2.45,0,0,1-1.038,1.04,3.269,3.269,0,0,1-1.286.142h-.007a5.669,5.669,0,0,0-.979,1.189,2.263,2.263,0,0,0,1.248.319c.472-.011.92.215.468.475a24.036,24.036,0,0,1-3.931-.073,20.974,20.974,0,0,1,1.529-1.885l-1.026.016q-1.917.026-3.821.033c-.309.209-.616.422-.922.644a1.123,1.123,0,0,0-.252.22c-.213.3.3.42.777.409s.92.215.467.475c-1.437.062-4.409.36-3.769-.154.515-.414,1.324-1.019,2.128-1.6-.112,0-.226,0-.337,0-.159,0-.333-.009-.385-.081s.012-.153.066-.237a27.781,27.781,0,0,1,4.215-5.042c.858-.832,1.622-1.634,2.328-2.408a26.486,26.486,0,0,1-3.6-.206c-4.183-.554-6.617-2.108-6.007-4.623-1.3.163-2.541.216-3.858.419-.282.043-.575.1-.869.164-4.623,3.613-6.93,7.632-9.4,11.273a4.539,4.539,0,0,0-.745,1.385.77.77,0,0,0,.663.975,7.525,7.525,0,0,1,.931.171c.249.1.291.371-.066.58a2.058,2.058,0,0,1-1.051.2l-3.156-.042a.834.834,0,0,1-.471-.085c-.1-.089-.01-.247.079-.389l1.8-2.894a5.194,5.194,0,0,0,.782-2.823,6,6,0,0,1-.744.495c-1.649.98-5.9,2.918-5.616,4.056.12.385.894.61.405,1.086a6.662,6.662,0,0,1-3.236-.165c-.106-.04-.208-.087-.237-.166-.064-.178.259-.435.55-.649,1.818-1.341,3.6-2.692,5.4-4.041a7.2,7.2,0,0,0,1.622-1.479c.519-.788.132-1.41,0-2.069a1.534,1.534,0,0,1,.008-.593,22.816,22.816,0,0,1-5.555-.4c-1.426-.414-3.766-1.636-6.219-.419l-8.059,4a7.3,7.3,0,0,0-1.54.922c-1.172,1.045-.872,3.23-.7,4.077a.346.346,0,0,0,.144.251,1.768,1.768,0,0,0,.6.126c.9.127,1.259.694.866,1.352a39.434,39.434,0,0,1-4.923-.019,3.449,3.449,0,0,0,1.116-2.084c.026-.925-.724-1.636-.377-2.631a6.686,6.686,0,0,1,1.254-1.785,15.941,15.941,0,0,0,1.464-1.992c-2.48,1.165-5.883,2.792-6.383,3.165-.8.6-2.6,4.175-2.359,4.2s1.915.462.662,1.66l-2.771-.268-.115-.87,1.857-4.635Zm65.564-4.374a2.251,2.251,0,0,1-.8-.964c-.09-.279.186-.7.144-.993a26.917,26.917,0,0,0-3.293,3.766c2.025-.261,4.134-.583,6.283-.882A11.369,11.369,0,0,1-74.779,921.785Zm2.8,1.339a.259.259,0,0,1-.171-.1c-.026-.046-.019-.1-.042-.151h0c-2.244.456-4.605.9-6.913,1.225-.225.3-.445.607-.656.9C-77.193,924.466-74.583,923.813-71.98,923.125Zm-18.135,3.156c.038,0,.078,0,.117,0,.578-.645,1.123-1.273,1.647-1.882a12.744,12.744,0,0,1-5.282-1.956,18.811,18.811,0,0,1-1.706-1.449c-.113-.094-.223-.182-.333-.267a16.213,16.213,0,0,1-3.453,1.01c-.07.012-.136.017-.206.028C-99.846,924.844-95.743,926.307-90.115,926.28Zm-47.286-3.047a6.8,6.8,0,0,1,2.116-3.154l-.307.135c-1.7.737-3.61,1.558-4.457,2.579a1.537,1.537,0,0,0-.13,2c.182.275.414.53.624.794l2.011-1.467C-137.494,923.83-137.449,923.537-137.4,923.233Zm-132.781,10.13,10.676-7.787c.048-.288.095-.58.142-.885.3-1.9,3.772-5.036,7.1-6.731a12.69,12.69,0,0,1,5.169-1.491c2.06-.019,2.92,1,4.615,1.335,3.4.677,8.618-2.406,12.371-4.043a7,7,0,0,1,2.374-.715c1.5-.034.934,1.23.578,2.152-1.025,2.649,3.242,5.437,8.337,4.36a14.253,14.253,0,0,0,6.854-3.806,7.137,7.137,0,0,1,3.751-2.5,4.189,4.189,0,0,1,2.113.26c1.175.347,3.711-.053,4.643.356a1.011,1.011,0,0,1,.422.256c.108.186-.42.32-.917.923a8.17,8.17,0,0,1-3.09,1.589c-1.5.455-3.543.4-4.827,1.145-1.687.976-3.186,1.974-4.707,2.861a77.788,77.788,0,0,0,18.01-1.1,20.051,20.051,0,0,1,3.139-1.827,12.273,12.273,0,0,1,5.164-1.282,4.448,4.448,0,0,1,1.42.292c.519-.528,1.1-1.054,1.689-1.574a31.217,31.217,0,0,1,6.946-4.918,24.512,24.512,0,0,1,4.5-2.9,33.21,33.21,0,0,1,4.747-2.323,1.875,1.875,0,0,0,.46-.212c.128-.1.153-.2.24-.3a1.962,1.962,0,0,1,1.08-.466,3.907,3.907,0,0,1,1.076.022,16.679,16.679,0,0,1,1.71.221,4.1,4.1,0,0,1,1.215.356.725.725,0,0,1,.118.1.529.529,0,0,1,.127.508.63.63,0,0,1-.2.324,1.7,1.7,0,0,1-1.1.36,3.411,3.411,0,0,1-.771.714h-.088a5.162,5.162,0,0,1-.955.916,1.933,1.933,0,0,1-.405.253.87.87,0,0,1-.482.085.241.241,0,0,0-.1-.014.365.365,0,0,0-.142.058c-.326.2-.56.426-.872.63a2.226,2.226,0,0,1-1.122.389c-.274-.007-.435-.134-.743-.09a1.66,1.66,0,0,0-.762.379,7.206,7.206,0,0,0-1.911,2.707,4.937,4.937,0,0,0-.668,2.5,2.928,2.928,0,0,0,.136.662c.516-.22,1.014-.428,1.487-.613a6.808,6.808,0,0,1,2.378-.621c1.437.042.7,1.329.209,2.269-.595,1.148-.472,2.247.683,2.783,3.095,1.438,11.356-2.671,13.88-5.166.6-.6,1.042-1.2,1.712-1.79a6.305,6.305,0,0,1,2.706-1.4,3.468,3.468,0,0,1,2.628.425,7.21,7.21,0,0,0,3.841.753c.727.018,2.636-.2,1.9.589-.981,1.048-2.093,1.067-4.242,1.308a16.309,16.309,0,0,0-6.864,2.379c-.43.251-.906.509-1.4.771-4.075,3.518-9.388,7.116-15.882,8.568a34.167,34.167,0,0,0-6.415,5.978,13.381,13.381,0,0,1-5.555,4.123c-.806.355-1.645.683-2.483,1.013-.216.256-.427.512-.651.768-.475.543-.981,1.171-.619,1.513.32.3,1.284.367.977.844a9.681,9.681,0,0,1-3.648.379.7.7,0,0,1-.342-.1c-.159-.139.073-.4.288-.63.563-.589,1.072-1.179,1.537-1.769a19.22,19.22,0,0,0-2.531,1.308l.668.506c.077.059.156.129.1.229-.131.215-.668.3-.99.285a9.562,9.562,0,0,1-2.46-.409c-.132-.042-.267-.1-.252-.2.023-.159.35-.335.633-.468,1.729-.816,4.013-2.148,5.806-2.885.086-.036.171-.066.256-.1a12.572,12.572,0,0,0,1.707-3.993c.121-.573-.268-1.54.487-2.22-3.223-.151-6.814.007-8.883-1.017-.282-.139-.545-.3-.815-.458-3.5,2.362-9.29,4.641-10.008,5.23-.744.61-2.1,4.123-1.851,4.134s2.049.354.92,1.561l-2.908-.129-.241-.829,1.27-4.53,5.878-4.7c-1.417.613-2.827,1.242-4.157,1.94-1.643.861-2.853,1.812-4.327,2.738a4.293,4.293,0,0,0-.488.337,2.217,2.217,0,0,0-.4.471q-1.239,1.807-2.267,3.6c-.06.105-.121.215-.086.3s.144.118.252.157l.534.193a.654.654,0,0,1,.311.175c.123.179-.121.472-.06.676a3.607,3.607,0,0,1-1.236.069l-1.539-.109a1.391,1.391,0,0,1-.4-.065c-.478-.2.1-.741.335-1.119.288-.47.568-.939.834-1.407a11.274,11.274,0,0,0,1.27-2.72c.342-1.475,5.236-3.1,9.313-8.7.031-.042.068-.088.1-.13a32.035,32.035,0,0,1-7.258.83c-4.735-.077-9.341-1.028-12.035-2.773-1.441.209-2.8.251-4.253.474-.282.043-.575.1-.869.164-4.623,3.613-6.93,7.632-9.4,11.273a4.538,4.538,0,0,0-.745,1.385.771.771,0,0,0,.663.975,7.393,7.393,0,0,1,.931.171c.249.1.291.371-.066.58a2.058,2.058,0,0,1-1.051.2l-3.156-.042a.843.843,0,0,1-.471-.086c-.1-.089-.01-.247.079-.389l1.8-2.894a5.194,5.194,0,0,0,.782-2.824,5.915,5.915,0,0,1-.744.495c-1.649.98-5.9,2.918-5.616,4.056.12.385.894.61.405,1.087a6.66,6.66,0,0,1-3.235-.165c-.107-.04-.209-.087-.237-.166-.065-.178.259-.435.549-.649,1.818-1.341,3.6-2.692,5.4-4.041a7.223,7.223,0,0,0,1.623-1.479c.519-.788.131-1.41,0-2.069a1.534,1.534,0,0,1,.008-.593,22.817,22.817,0,0,1-5.555-.4c-1.426-.414-3.766-1.636-6.219-.419l-8.059,4a7.311,7.311,0,0,0-1.54.922c-1.172,1.045-.872,3.23-.7,4.078a.344.344,0,0,0,.144.25,1.767,1.767,0,0,0,.6.126c.9.127,1.259.694.866,1.352a39.318,39.318,0,0,1-4.923-.019,3.455,3.455,0,0,0,1.116-2.084c.025-.925-.724-1.636-.378-2.631a6.656,6.656,0,0,1,1.255-1.786,15.982,15.982,0,0,0,1.464-1.992c-2.48,1.166-5.883,2.792-6.383,3.165-.8.6-2.6,4.175-2.359,4.2s1.915.462.662,1.66l-2.771-.268-.114-.87Zm94.9-19.231a4.217,4.217,0,0,0-.9,2.283c.53-.22,1.057-.444,1.575-.667A2.651,2.651,0,0,1-175.277,914.131Zm19.1,3.711a21.215,21.215,0,0,0-1.938,1.168c-2.591,1.815-5.6,2.539-8.463,4.1-.83.452-1.661.968-2.477,1.521A35.244,35.244,0,0,0-156.18,917.843Zm-26.291,16.519a2.615,2.615,0,0,0,1.018-1.49l.69-1.49c-.133.192-.262.381-.382.563-.619.941-1.3,1.886-2.031,2.833A3.775,3.775,0,0,0-182.471,934.362Zm-25.141-8.822a33.255,33.255,0,0,0,5.756-.852c.466-.606,1-1.238,1.587-1.88-.169.09-.332.185-.5.272a10.478,10.478,0,0,0-1.145.621,4.862,4.862,0,0,0-1.017.968c-.209-.442-.008-1.04.545-1.622A11.19,11.19,0,0,1-199.4,921.1c.593-.3,1.2-.581,1.794-.878a61.406,61.406,0,0,1-17.642.807,18.45,18.45,0,0,1-5.3,2.038C-217.532,924.728-212.708,925.787-207.613,925.54Z" transform="translate(388.218 -643.999)" fill="url(#i)"/><path d="M-1.019,899.075c7.525,1.38,15.982,1.133,23.484,2.356,6.458,1.054,12.8,1.835,19.514,2.687,1.892.24,4.166.715,4.068,1.548-.114.969-3.167,1.246-5.465,1.242L6,906.858c-15.395-.023-36.289-3.134-50.352,4.214-2.885,1.508-5.5,3.5-8.414,4.953-5.836,2.911-12.533,3.508-19.052,3.657-14.282.327-28.817-1.316-41.975-6.876-2.379-1-4.8-2.212-6.326-4.3a9.835,9.835,0,0,1-.6-9.743c5.162-11.208,26.214-11.138,36.643-11.635,18.426-.879,37.009.932,54.556,3.46a79.08,79.08,0,0,1,12,2.389C-11.673,894.826-7.9,897.813-1.019,899.075Z" transform="translate(166.222 -639.643)" fill="url(#z)"/><g transform="translate(115.493 237.364)"><g transform="translate(58.939)"><g transform="translate(0 10.556)"><path d="M-81.544,924.183c-1.409,3.991-5.595,7.936-5.833,8.929s1.32,6.715,1.579,6.733,2.342.577,2.215,2.541l-3.016-.211-.929-1.35-2.489-7.377,3.5-13.494,4.361,2.14S-80.135,920.191-81.544,924.183Z" transform="translate(95.256 -895.984)" fill="#4f1e1c"/><path d="M-109.536,927.774a2.715,2.715,0,0,1,.129.37,28.883,28.883,0,0,1,.576,4.4,65.355,65.355,0,0,1,.34,8.634,3.085,3.085,0,0,0,.636,2.464c.571.493,1.589.6,1.677,1.373a4.824,4.824,0,0,1-3.333.619.913.913,0,0,1-.426-.165,1.192,1.192,0,0,1-.234-1.027,28.4,28.4,0,0,0-1.754-12.215c-.39-1.029-1.817-2.843-1.265-3.945.388-.774,1.687-1.458,2.338-1.995A4.462,4.462,0,0,1-109.536,927.774Z" transform="translate(137.752 -897.598)" fill="#4f1e1c"/><path d="M-91.916,892.94c1.949-.391,3.045-.423,3.157-2.129.083-1.287-1.643-.931-2.385-.96a7.467,7.467,0,0,1-4.466-1.225,3.347,3.347,0,0,0-2.981-.692,2.989,2.989,0,0,0-1.542,2.283c-.183.957-.118,1.946-.227,2.915-.454,4.063-5.307,10.753-9.594,8.412a6.5,6.5,0,0,1-2.992-4.533c-.294-1.531-.619-3.625-2.091-3.695a2.769,2.769,0,0,0-1.862,1.012c-2.587,2.454-5.617,7.236-9.48,5.8-1.928-.716-3.5-2.51-5.54-2.651a5.1,5.1,0,0,0-4.1,2.088c-2.6,3.182-2.846,8.369-2.593,12.389.575,9.128-2.973,11.771-2.091,14.174a23.843,23.843,0,0,1,.987,4.429q.183,1.142.334,2.291c.081.615-.051,1.494.592,1.821a1.313,1.313,0,0,0,.453.106l1.63.177a1.971,1.971,0,0,0,1.177-.113c-.229-.331-.229-.808-.5-1.1a1.368,1.368,0,0,0-.457-.285l-.695-.314a.945.945,0,0,1-.382-.256,1.043,1.043,0,0,1-.162-.486q-.458-2.915-.719-5.86a2.591,2.591,0,0,1,.009-.767,2.632,2.632,0,0,1,.208-.549,32.925,32.925,0,0,1,2.056-4.458,30.558,30.558,0,0,1,3.11-3.774,5.073,5.073,0,0,1,2.236-1.669c1.675-.443,3.208.96,4.725,1.826,3.491,1.993,7.757,1.234,11.679,1.875a2.673,2.673,0,0,1,1.759.817,3.237,3.237,0,0,1,.5,1.313l.7,3.092a4.046,4.046,0,0,1,.218,2.426c-.3,1.034-1.385,1.44-2.342,2.414-1.181,1.2-2.359,3.37-3.412,4.7-.173.218-.353.5-.244.762a.71.71,0,0,0,.421.331,9.073,9.073,0,0,0,2.8.667c.334.025.8-.113.753-.464a.618.618,0,0,0-.285-.372l-1.087-.824c1.043-2.256,3.135-3.627,4.713-5.412a8.975,8.975,0,0,0,2.134-6.714c-.128-4.137.943-9.9,3.105-13.4,1.571-2.545,3.976-3.724,5.061-6.68.6-1.647,1.992-3.324,2.823-4.856A6.65,6.65,0,0,1-91.916,892.94Z" transform="translate(140.846 -887.788)" fill="#4f1e1c"/><path d="M-72.881,907.139a16.847,16.847,0,0,1-1.923,2.869,6.333,6.333,0,0,0-1.378,3.166,3.846,3.846,0,0,0,.8,2.642,4.4,4.4,0,0,1,.214-1.577,5.035,5.035,0,0,1,.63-1.011,11.719,11.719,0,0,0,1.973-4.754" transform="translate(76.474 -892.718)" fill="#4f1e1c"/></g><path d="M-97.274,879.444c-1.022,1.715-2.845,2.68-4.192,4.122-2.154,2.3-2.944,5.64-3.533,8.821a17.441,17.441,0,0,0-.406,4.845,6.161,6.161,0,0,0,2.021,4.228,6.7,6.7,0,0,0,3.438,1.235c2.133.264,4.7-.113,5.725-2.117.776-1.514.358-3.392-.268-4.978s-1.458-3.156-1.473-4.877a10.569,10.569,0,0,0,5.7,4.939l-.9-1.037a20.4,20.4,0,0,1-2.534-3.379,13.849,13.849,0,0,1-1.408-4.076,10.553,10.553,0,0,1-.335-4.408c.063-.259.19-.546.448-.616s.538.136.818.147a.927.927,0,0,0,.8-.633c.142-.332.189-.7.349-1.027.02-.041.048-.086.093-.1a.222.222,0,0,1,.112.025.4.4,0,0,0,.411-.139,1.041,1.041,0,0,0,.2-.413,3.8,3.8,0,0,0-.1-2.73A2.072,2.072,0,0,0-95.2,876.3C-96.277,877.075-96.622,878.351-97.274,879.444Z" transform="translate(115.971 -874.229)" fill="#4f1e1c"/><g transform="translate(17.914 16.769)"><path d="M-104.214,896.245c-1.492,6.195-2.8,13.636-8.779,16.791-7.232,3.813-12.556-3.629-16.516-8.851-.146-.193-.466.026-.344.245,3.254,5.894,8.961,12.8,16.18,9.9,6.819-2.745,8.893-11.148,9.8-18.01.027-.2-.288-.274-.336-.073Z" transform="translate(129.88 -896.125)" fill="#4f1e1c"/></g><path d="M-93.9,874.81a2.235,2.235,0,0,0-.2-.164,5.291,5.291,0,0,0-1.511-.58,14.373,14.373,0,0,0-1.894-.361,2.568,2.568,0,0,0-1.1-.036.875.875,0,0,0-.693.759,1.831,1.831,0,0,1,.012.493.806.806,0,0,1-.283.347,14.576,14.576,0,0,0-2.819,3.783,12.236,12.236,0,0,0-2.158,5.225,2.857,2.857,0,0,0,.16,1.293,1.6,1.6,0,0,0,.425.6,2.692,2.692,0,0,1,.466.383,1.89,1.89,0,0,0,1.206.788,2.414,2.414,0,0,0,2.058-.858,9.626,9.626,0,0,0,1.242-1.955A14.214,14.214,0,0,0-98,882.612c.218-.585.328-1.206.542-1.792a7.948,7.948,0,0,1,1.135-2.1,2.258,2.258,0,0,1,.836-.8c.1-.039,1.142-.009,1.218-.009a2.86,2.86,0,0,0,.179-1.162.739.739,0,0,0,.806-.587,1.075,1.075,0,0,0-.071-.527A2.1,2.1,0,0,0-93.9,874.81Z" transform="translate(118.315 -873.622)" fill="#4f1e1c"/></g><g transform="translate(119.52 9.14)"><path d="M-155.954,922.783s-5.073,6.186-5.377,7.159.868,6.8,1.124,6.836,2.3.751,2.039,2.7l-2.993-.437-.836-1.417-1.989-7.547,4.389-13.2,4.206,2.464Z" transform="translate(164.143 -893.784)" fill="#4f1e1c"/><path d="M-192.838,922.477a12.384,12.384,0,0,1,1.256,2.531q.544,1.392,1.088,2.783a2.84,2.84,0,0,1,.282,1.3,2.814,2.814,0,0,1-.367.988c-.837,1.595-3.476,4.751-2.251,6.6.439.626,1.4.993,1.306,1.769a4.8,4.8,0,0,1-3.371-.268.93.93,0,0,1-.375-.271,1.208,1.208,0,0,1,.01-1.057c.7-2.183,1.372-4.383,2.044-6.58a6.139,6.139,0,0,0,.395-2.409c-.135-1.284-1.037-2.3-1.714-3.368s-1.13-2.575-.385-3.6A3.568,3.568,0,0,1-192.838,922.477Z" transform="translate(222.359 -894.809)" fill="#4f1e1c"/><path d="M-154.138,901.395l-3.772,4.449a8.371,8.371,0,0,0-1.129,1.563,6.953,6.953,0,0,0-.627,2.787,6.333,6.333,0,0,0,.554,3.369c.874,1.6,2.873,2.523,3.1,4.36.063.5.03,1.126.442,1.382s.989-.161,1.076-.67a2.023,2.023,0,0,0-.444-1.431,25.6,25.6,0,0,0-2.455-2.655,5.014,5.014,0,0,1-1.527-3.252c0-1.663,1.227-3,2.318-4.2s2.2-2.727,1.885-4.357" transform="translate(159.686 -889.839)" fill="#4f1e1c"/><path d="M-173.773,891.958a2.309,2.309,0,0,0-.634-.417c-1.271-.666-3.476-.017-4.939-.581a3.6,3.6,0,0,0-2.328-.424c-1.427.46-1.546,2.495-1.677,4.07-.215,2.562-1.437,5.254-3.7,6.2-4.2,1.754-10.782-2.786-11.954-7.1-.408-1.5-.89-3.56-2.363-3.5a2.8,2.8,0,0,0-1.781,1.165c-2.4,2.665-5.056,7.686-9.016,6.583-1.976-.55-3.678-2.2-5.723-2.173a5.156,5.156,0,0,0-3.931,2.428c-1.917,2.759-2.79,7.859-1.511,10.96,1.733,4.2,3.035,7.275,2.977,12.073a9.814,9.814,0,0,0,.227,2.906c.479,1.622,1.819,2.78,2.56,4.286a6.6,6.6,0,0,1,.613,3.394,24.421,24.421,0,0,0,4.938.031,2.649,2.649,0,0,0-1.987-2.2,1.894,1.894,0,0,1-.7-.2,1.352,1.352,0,0,1-.352-.408c-.875-1.38-2.987-4.938-2.683-6.639a3.779,3.779,0,0,1,.776-1.5l4.741-6.513c1.442-1.981,4.8.007,6.565.682,2.288.873,4.434.511,6.835.7a2.655,2.655,0,0,1,1.815.665c.975,1.06,1.144,3.167,1.766,4.511a16.256,16.256,0,0,1,1.8,5.112q.3,2.356.6,4.713a.968.968,0,0,0,.244.633.84.84,0,0,0,.542.139l3.19.069c.329.007.722-.023.886-.325a.753.753,0,0,0-.415-.945,7.4,7.4,0,0,0-1.072-.279,2.542,2.542,0,0,1-1.472-1.587,8.611,8.611,0,0,1-.4-2.256c-.547-5.927-1.575-12.472.051-18.355a6.1,6.1,0,0,1,.733-.268c1.4-.4,2.871-.424,4.254-.873,3.818-1.24,4.707-5.147,6.725-8.8.668-1.21,2.756-1.123,3.877-1.865a3.8,3.8,0,0,0,1.772-2.587C-173.927,892.479-173.51,892.261-173.773,891.958Z" transform="translate(227.109 -886.985)" fill="#4f1e1c"/><path d="M-231.548,887.075a2.211,2.211,0,0,0-.2-.164,5.25,5.25,0,0,0-1.51-.58,14.383,14.383,0,0,0-1.894-.361,2.578,2.578,0,0,0-1.095-.037.874.874,0,0,0-.693.759,1.86,1.86,0,0,1,.011.493.8.8,0,0,1-.283.346,14.576,14.576,0,0,0-2.819,3.783,12.233,12.233,0,0,0-2.158,5.224,2.866,2.866,0,0,0,.16,1.293,1.61,1.61,0,0,0,.426.6,2.659,2.659,0,0,1,.466.383,1.892,1.892,0,0,0,1.206.788,2.416,2.416,0,0,0,2.058-.858,9.623,9.623,0,0,0,1.242-1.955,14.253,14.253,0,0,0,.987-1.911c.218-.585.328-1.206.542-1.792a7.936,7.936,0,0,1,1.135-2.1,2.262,2.262,0,0,1,.836-.8c.1-.039,1.142-.008,1.218-.008a2.864,2.864,0,0,0,.179-1.162.737.737,0,0,0,.806-.586A1.067,1.067,0,0,0-231,887.9,2.092,2.092,0,0,0-231.548,887.075Z" transform="translate(297.956 -885.887)" fill="#4f1e1c"/><path d="M-237.51,903.086c.285.474.358,1.162.68,1.616a7.767,7.767,0,0,0,1.6,1.569,18.68,18.68,0,0,0,3.125,1.522,1.094,1.094,0,0,1,.364.252c.062.077.1.17.167.244a.652.652,0,0,0,.543.2,2.051,2.051,0,0,0,.573-.159.544.544,0,0,1,.417-.039,2.138,2.138,0,0,1,.22.168c.077.05.2.058.245-.022a.228.228,0,0,0,.01-.151c-.028-.167-.064-.332-.106-.5a.819.819,0,0,0-.088-.233.65.65,0,0,0-.329-.241,9.092,9.092,0,0,1-1.394-.355,2.347,2.347,0,0,1-.536-.5q-.462-.524-.962-1.011c-.806-.782-2.081-2.122-2.081-2.122a20.244,20.244,0,0,0-1.527-7.421,5.132,5.132,0,0,0-.8-1.209c-.083-.091-.294-.191-.347-.3-.543-1.084.873-.424,1.348-.492.411-.059.645-.487.812-.867.105-.241.171-.49.392-.58.189-.078.489-.063.534-.271a7.7,7.7,0,0,0-.116-1.493c0-.417.06-.832.086-1.247a.738.738,0,0,0-.06-.422.726.726,0,0,0-.212-.206,2.413,2.413,0,0,0-2.493-.548c-1.263.517-1.563,2.213-2.194,3.485-.844,1.7-2.406,2.827-3.619,4.232a9.117,9.117,0,0,0-2.2,3.981c-1.747,5.237-.734,11.007-1.62,18.189a33.339,33.339,0,0,0-.031,8.211.647.647,0,0,0,.129.385.623.623,0,0,0,.453.133c1.9.042,3.8-.005,5.7-.048q1.332-.03,2.664-.069c.367-.01.891.073,1.168-.23.378-.414.208-1.191.175-1.694-.177-2.692-.275-5.387-.337-8.083C-237.2,914.812-238.192,906.824-237.51,903.086Z" transform="translate(300.429 -886.455)" fill="#4f1e1c"/><path d="M-227.637,937.017a38.282,38.282,0,0,0-1.6,4.682c-.212.837,2.512.352,3.9.252.236-.424-.4-.792-.862-.774s-1.08-.176-1.116-.666a.915.915,0,0,1,.069-.358,23.815,23.815,0,0,1,1.881-4.131" transform="translate(282.669 -898.662)" fill="#4f1e1c"/><path d="M-238.971,935.664s-.167,6.128-.034,6.265a15.662,15.662,0,0,0,3.991.119c.237-.423-.4-.792-.862-.774a2.754,2.754,0,0,1-1.513-.519c-.227-.235.266-5.374.266-5.374" transform="translate(299.657 -898.499)" fill="#4f1e1c"/><g transform="translate(39.373 14.716)"><path d="M-247.012,905.815c-.436,7.1,4.193,11.326,10.507,12.555,7.245,1.409,14.361-1.729,20.574-5.427a.343.343,0,0,0-.338-.6c-5.179,2.908-10.57,5.663-16.552,5.71-7.187.056-13.9-3.875-13.846-12.247a.173.173,0,1,0-.346.005Z" transform="translate(247.041 -905.635)" fill="#4f1e1c"/></g><g transform="translate(36.048 16.048)"><path d="M-244.9,908.009c3.479-.82,5.07-.334,7.819,1.886.978.789,1.881,1.639,2.909,2.36a19.177,19.177,0,0,0,7.123,3.236c4.962,1.013,10.41-.806,15.022-2.663.171-.069.1-.337-.08-.292-7.124,1.759-13.317,4.356-20.277.212-5.04-3-6.452-6.538-12.565-4.922-.113.029-.063.209.049.182Z" transform="translate(245.011 -907.422)" fill="#4f1e1c"/></g></g><g transform="translate(0 14.726)"><path d="M4.644,925.97s-5.073,6.186-5.377,7.158.868,6.8,1.124,6.836,2.3.751,2.039,2.7l-2.993-.437-.837-1.417-1.988-7.547L1,920.064l4.206,2.464Z" transform="translate(3.387 -900.182)" fill="#4f1e1c"/><path d="M-32.239,925.664a12.4,12.4,0,0,1,1.256,2.531l1.088,2.782a2.847,2.847,0,0,1,.282,1.3,2.819,2.819,0,0,1-.367.988c-.837,1.595-3.476,4.751-2.251,6.6.439.627,1.4.994,1.306,1.769a4.789,4.789,0,0,1-3.371-.268.935.935,0,0,1-.375-.271,1.208,1.208,0,0,1,.01-1.057c.7-2.183,1.372-4.383,2.044-6.581a6.149,6.149,0,0,0,.4-2.409c-.136-1.284-1.038-2.3-1.715-3.368s-1.13-2.575-.385-3.6A3.568,3.568,0,0,1-32.239,925.664Z" transform="translate(61.602 -901.208)" fill="#4f1e1c"/><path d="M-13.174,895.145a2.273,2.273,0,0,0-.634-.417c-1.271-.666-3.476-.017-4.939-.581a3.605,3.605,0,0,0-2.328-.423c-1.427.46-1.546,2.495-1.677,4.069-.215,2.562-1.437,5.253-3.7,6.2-4.2,1.753-10.782-2.786-11.954-7.1-.408-1.5-.89-3.561-2.363-3.5a2.8,2.8,0,0,0-1.781,1.166c-2.4,2.665-5.056,7.686-9.016,6.583-1.976-.55-3.678-2.2-5.723-2.173a5.155,5.155,0,0,0-3.931,2.428c-1.917,2.759-2.79,7.859-1.511,10.96,1.733,4.2,3.035,7.275,2.977,12.072a9.816,9.816,0,0,0,.227,2.907c.479,1.622,1.819,2.78,2.56,4.285a6.594,6.594,0,0,1,.613,3.394,24.474,24.474,0,0,0,4.938.031,2.649,2.649,0,0,0-1.987-2.2,1.893,1.893,0,0,1-.7-.2,1.352,1.352,0,0,1-.352-.408c-.875-1.38-2.987-4.938-2.683-6.639a3.774,3.774,0,0,1,.776-1.5l4.741-6.513c1.442-1.981,4.8.007,6.565.682,2.288.873,4.434.511,6.835.7a2.648,2.648,0,0,1,1.815.665c.975,1.06,1.144,3.166,1.766,4.511a16.257,16.257,0,0,1,1.8,5.112q.3,2.356.6,4.713a.964.964,0,0,0,.243.633.84.84,0,0,0,.543.139l3.19.069c.329.007.722-.023.887-.326a.753.753,0,0,0-.416-.944,7.407,7.407,0,0,0-1.072-.279,2.542,2.542,0,0,1-1.472-1.587,8.612,8.612,0,0,1-.4-2.256c-.547-5.927-1.575-12.472.051-18.356a6.1,6.1,0,0,1,.733-.267c1.4-.4,2.871-.424,4.254-.873,3.818-1.239,4.707-5.146,6.725-8.8.668-1.21,2.756-1.123,3.877-1.865a3.8,3.8,0,0,0,1.772-2.587C-13.328,895.666-12.911,895.448-13.174,895.145Z" transform="translate(66.352 -893.383)" fill="#4f1e1c"/><g transform="translate(38.338 13.253)"><path d="M-85.6,913.137c4.283,3.734,10.615,5.77,16.151,5.914,5.944.154,10.974-3.45,15.265-7.477.194-.183-.01-.531-.235-.362-4.127,3.116-8.3,6.615-13.546,7.047-5.783.476-12.709-2.017-17.256-5.587a.3.3,0,0,0-.379.465Z" transform="translate(85.703 -911.168)" fill="#4f1e1c"/></g><g transform="translate(40.286 8.436)"><path d="M-82.926,908.121c8.93,3.132,19.062,1.742,27.387-2.765.347-.188.164-.8-.211-.62-8.961,4.2-17.539,5-27.139,3.266-.063-.012-.1.1-.037.119Z" transform="translate(82.96 -904.705)" fill="#4f1e1c"/></g></g></g><path d="M4.4,903.18a9.48,9.48,0,0,0-2.031,1.791,15.685,15.685,0,0,0-2.949,9.335c.005.32.135.748.453.717a9.027,9.027,0,0,0,.192-1.246c.248-1.625,1.338-2.971,2.169-4.39A15.047,15.047,0,0,0,4,904.766" transform="translate(117.588 -643.79)" fill="#4f1e1c"/><path d="M-579.459,865.947h204.122c8.537-6.026,28.792-10.2,43.412-12.7a302.358,302.358,0,0,0,44.845-11.036c33.864-11.293,39.054-24.617,37.01-33.046-2.693-11.1-18.813-14.529-29.247-17.812-22.819-7.181-41.092-13.755-58.138-26.561-34.216-25.706-44.306-55.877-74.685-120.066-10.807-22.833-33.337-55.747-62.649-63.216H-579.459Zm444.328-284.433V644.73a32.333,32.333,0,0,1-13.885-3.853c-7.976-4.442-13.285-12.371-19.97-18.588-9.456-8.8-22.708-10.889-35.423-12.937-20.249-3.263-43.744-9.914-48.807-27.838Z" transform="translate(688.503 -561.827)" fill="none"/></g></g></svg>