<svg xmlns="http://www.w3.org/2000/svg" width="20" height="19.522" viewBox="0 0 20 19.522">
  <g id="Union_9" data-name="Union 9" transform="translate(-0.5 -0.5)">
    <path id="Tracciato_7235" data-name="Tracciato 7235" d="M353.945,377.7c-.071.024-.128.037-.115.062s.088.055.121.079.055.046.077.046a.02.02,0,0,0,.018-.009c.02-.026.062-.112.141-.137a.759.759,0,0,0,.256-.088.834.834,0,0,0,.229-.214c.015-.02.071.013.1.046a.711.711,0,0,0,.139.174c.075.055.1.154.154.172s.035-.227.033-.348a.4.4,0,0,0-.053-.238c-.04-.06-.086-.073-.119-.048a.784.784,0,0,1-.209.1.106.106,0,0,0-.1-.042.419.419,0,0,1-.121.029.239.239,0,0,1-.205-.161c-.042-.13.015-.335-.093-.379a1.87,1.87,0,0,0-.756-.071c-.344.033-.375.026-.265.106a.7.7,0,0,0,.344.1.458.458,0,0,1,.238.057,1.32,1.32,0,0,1,.157.282,1.37,1.37,0,0,1,.168.344A.2.2,0,0,1,353.945,377.7Z" transform="translate(-344.845 -367.87)" fill="#b9d4dc"/>
    <path id="Tracciato_7236" data-name="Tracciato 7236" d="M195.6,5.283h0a.008.008,0,0,1,0,0s0,0,0,.007l0,0a5.658,5.658,0,0,1,1.266-1.947v0a5.058,5.058,0,0,1-.168-1.905,9.175,9.175,0,0,0,.344,1.738,4.654,4.654,0,0,1,1.017-.7,3.084,3.084,0,0,1,.029-1.7,3.985,3.985,0,0,0,.128,1.623,4.191,4.191,0,0,1,.454-.174,3.081,3.081,0,0,1,.706-.141,1.812,1.812,0,0,1,.183-1.054,1.967,1.967,0,0,0-.024,1.047h.068a3.41,3.41,0,0,1,2.32,1.021L201.9,3.1h0l-.02-.007,0,0-.018-.007-.007,0-.015-.007-.009,0s-.009,0-.011,0a4.039,4.039,0,0,0-1.008-.223.028.028,0,0,1-.013,0h0a3.617,3.617,0,0,0-.9.035l-.009,0a2.486,2.486,0,0,0-1.03.4c-.029.02-.057.042-.086.064a.008.008,0,0,1,0,0l-.007,0-.007.007h0a2.655,2.655,0,0,0-1.028,2.412v0a.048.048,0,0,0,0,.018V5.8a.038.038,0,0,0,0,.015.028.028,0,0,0,0,.013v.009c0,.007,0,.011,0,.018v0c.007.06.013.119.022.181s.022.132.033.2v.007a5.255,5.255,0,0,0,.578,1.535h0v0a.03.03,0,0,0,.007.009,0,0,0,0,0,0,0c.066-.342.146-.679.238-1a5.627,5.627,0,0,1-.331-1.316,7.757,7.757,0,0,0,.412,1.058,6.911,6.911,0,0,1,.426-1.032,5.468,5.468,0,0,1-.487-1.442l0,0a7.376,7.376,0,0,0,.582,1.257,3,3,0,0,1,2.617-1.773,1.49,1.49,0,0,1,.313.026c.126.355.238.71.333,1.054l0,0a2.514,2.514,0,0,0,.75-.313,1.59,1.59,0,0,1-.719.428,13.686,13.686,0,0,1,.3,1.358h0a2.531,2.531,0,0,0,1.083-.45c-.007.018-.192.408-1.052.646a11.92,11.92,0,0,1,.132,1.583l0,0a3.235,3.235,0,0,0,1.35-.313l-.011.011a2.12,2.12,0,0,1-1.341.531,9.618,9.618,0,0,1-.236,2.071h0a2.13,2.13,0,0,0,.41.033,3.092,3.092,0,0,0,1.413-.346,1.349,1.349,0,0,1-.4.282,4.06,4.06,0,0,1-1.51.375,7.989,7.989,0,0,1-.935,2.159,5.181,5.181,0,0,1-.745.955c.079.082.163.168.234.238h0a22.369,22.369,0,0,1,2.562-2.137,9.477,9.477,0,0,1,1-.633,11.544,11.544,0,0,0-.756-5.641,9.478,9.478,0,0,0-1.158-2.13h0a1.237,1.237,0,0,1,.518-.093,2.789,2.789,0,0,1,1.1.256,1.842,1.842,0,0,1,.443.276c.095-.342.181-.783.214-.955a.039.039,0,0,0,0-.013,5.144,5.144,0,0,1-.057,1.1,3.776,3.776,0,0,1,.82,1.261,8.766,8.766,0,0,0,.639-1.1,9.047,9.047,0,0,1-.542,1.354,7.553,7.553,0,0,1,.393,1.616v0h0c.06-.095,1.493-2.481-.187-3.982h0s-.007,0-.009-.009a0,0,0,0,1,0,0l-.007-.007,0,0-.007,0-.009-.009a2.621,2.621,0,0,0-1.949-.609h-.04c-.084.007-.165.018-.245.031h0l-.011,0a.017.017,0,0,0-.009,0h-.007a3.073,3.073,0,0,0-1.237.487.03.03,0,0,1-.009.007l0,0c0-.011.009-.022.013-.035a1.679,1.679,0,0,1,.924-1.043,2.882,2.882,0,0,0-.426-.549,4.041,4.041,0,0,1,.523.5l.007,0a2.159,2.159,0,0,1,.84-.179,4.312,4.312,0,0,0-.388-.8,2.317,2.317,0,0,1,.54.8,4.23,4.23,0,0,1,1.786.542l-.007-.013s0-.007,0-.009,0,0,0,0,0-.007,0-.011a0,0,0,0,0,0,0s0-.007,0-.011a.007.007,0,0,0,0,0s0-.007,0-.011a0,0,0,0,0,0,0s0-.007,0-.011a0,0,0,0,0,0,0s0-.007,0-.011a0,0,0,0,0,0,0s0-.007,0-.011v0l0-.011v0s0-.007,0-.011h0L206.385,2h0s0,0,0-.007,0,0,0-.007a.008.008,0,0,0,0,0s0,0,0-.009,0,0,0,0,0-.007,0-.009a0,0,0,0,0,0,0s0-.007,0-.011v0l-.007-.011h0a2.473,2.473,0,0,0-.8-.944s0,0,0,0,0,0,0,0A2.433,2.433,0,0,0,203.6.661h0a1.488,1.488,0,0,0-.168.055,1.794,1.794,0,0,0-.915.8,2.633,2.633,0,0,0-.322,1.045s0,0,0,0c0,.031,0,.062-.007.09v0a0,0,0,0,0,0,0s0,0,0,0l0,0,0,0-.013-.02s-.007-.009-.009-.013,0,0,0-.007l-.011-.013s0,0,0,0a.067.067,0,0,1-.011-.015l0,0A5.252,5.252,0,0,0,200,.835a0,0,0,0,1,0,0s-.007,0-.009,0A4.247,4.247,0,0,0,198.409.5h-.1a3.624,3.624,0,0,0-.673.068,2.135,2.135,0,0,0-.234.06.205.205,0,0,0-.031.011,3.049,3.049,0,0,0-.289.119s-.007,0-.011,0h0a2.917,2.917,0,0,0-1.034.772l0,0,0,.007a2.572,2.572,0,0,0-.174.234,2.789,2.789,0,0,0-.243.452h0s0,.007,0,.011a0,0,0,0,1,0,0s0,0,0,.007,0,0,0,0a.008.008,0,0,1,0,0s0,0,0,.007a0,0,0,0,1,0,0s0,.007,0,.009h0a3.62,3.62,0,0,0-.24,1.155v.009a5.427,5.427,0,0,0,.205,1.707C195.576,5.219,195.589,5.263,195.6,5.283Z" transform="translate(-190.551)" fill="#b9d4dc"/>
    <path id="Tracciato_7237" data-name="Tracciato 7237" d="M85.4,326.094a2.3,2.3,0,0,0-2.4,2.194,8.076,8.076,0,0,1,4.441.942,2.3,2.3,0,0,0-2.037-3.136Z" transform="translate(-80.681 -318.412)" fill="#b9d4dc"/>
    <path id="Tracciato_7238" data-name="Tracciato 7238" d="M477.412,454.961c-2.179.58-3.559,2.022-5.012,3.31.068.071.181.181.329.313h0a6.277,6.277,0,0,0,3.054,1.566,11.186,11.186,0,0,0,1.738.137,7.644,7.644,0,0,0,2.723-.421,9.9,9.9,0,0,0,.862-1.5h0a9.971,9.971,0,0,0,.886-3.237A7,7,0,0,0,477.412,454.961Z" transform="translate(-461.494 -444.15)" fill="#b9d4dc"/>
    <path id="Tracciato_7239" data-name="Tracciato 7239" d="M81,208.3a.821.821,0,0,0,.474.4c.271.068.4.11.4.146a.111.111,0,0,1-.11.084c-.06,0-.221-.035-.229,0s.121.313.315.344h0a.456.456,0,0,0,.077.007.566.566,0,0,0,.329-.1c.022-.029-.139-.033-.123-.093s.1-.044.143-.09.174-.044.207-.046-.02-.026-.02-.026.273-.018.388-.02.377-.086.459-.073a2.428,2.428,0,0,0,.752-.19c.013-.035-.1.007-.205.031a1.9,1.9,0,0,1-.578.031,2.1,2.1,0,0,0-.415-.062,3.373,3.373,0,0,0-.417.112,1.127,1.127,0,0,1-.15.029.485.485,0,0,0-.128-.084.781.781,0,0,0-.209-.007s-.035-.128-.278-.216a2.629,2.629,0,0,1-.732-.437c-.051-.079-.19-.2-.212-.236s-.055.077.033.192A1.818,1.818,0,0,1,81,208.3Z" transform="translate(-78.444 -202.73)" fill="#b9d4dc"/>
    <path id="Tracciato_7240" data-name="Tracciato 7240" d="M5.08,454.961a7,7,0,0,0-4.58.17,9.972,9.972,0,0,0,.886,3.237h0A10.027,10.027,0,0,0,3.466,461.3l.022.022a.1.1,0,0,1,.015.015l.007.007.015.015.007.007a.1.1,0,0,0,.015.013l.011.011.009.009c.128.121.256.238.39.353a0,0,0,0,1,0,0,.059.059,0,0,0,.013.011s.007.007.011.009.007,0,.009.009l.02.015,0,0a10,10,0,0,0,5.974,2.359h0l.031,0h0l.062,0h.033l.06,0H10.5c.055,0,.11,0,.163,0,.022,0,.044,0,.066,0H10.8l.062,0h.015l.073,0h0l.031,0h.024a.074.074,0,0,0,.022,0h0l.037,0h.007c.15-.009.3-.02.448-.035a.02.02,0,0,0,.011,0l.026,0a.028.028,0,0,0,.013,0l.024,0h.007l.031,0h0l.075-.009h.009l.029,0h0l.037,0h0l.071-.009h.007l.031,0,.013,0,.024,0,.011,0c.009,0,.018,0,.024,0l.013,0,.022,0,.02,0,.018,0,.024,0,.013,0a.149.149,0,0,1,.031,0h.007l.029,0a.008.008,0,0,0,.007,0l.031,0H12.2a.147.147,0,0,1,.031,0,.008.008,0,0,0,.007,0l.033-.007h0a.129.129,0,0,1,.029,0,.017.017,0,0,0,.009,0l.024,0,.011,0,.029,0a.008.008,0,0,0,.007,0l.031-.007h0a10.042,10.042,0,0,0,6.13-3.848v0C10.915,462.458,10.2,456.324,5.08,454.961Z" transform="translate(0 -444.15)" fill="#b9d4dc"/>
  </g>
</svg>
