<svg xmlns="http://www.w3.org/2000/svg" xmlns:xlink="http://www.w3.org/1999/xlink" width="60.068" height="45.371" viewBox="0 0 60.068 45.371">
  <defs>
    <linearGradient id="linear-gradient" x1="0.5" y1="1.002" x2="0.5" y2="-0.05" gradientUnits="objectBoundingBox">
      <stop offset="0" stop-color="#ff402a"/>
      <stop offset="1" stop-color="#ffb000"/>
    </linearGradient>
    <linearGradient id="linear-gradient-2" y1="0.5" x2="1" y2="0.5" gradientUnits="objectBoundingBox">
      <stop offset="0" stop-color="#f55fb9"/>
      <stop offset="1" stop-color="#e51b94"/>
    </linearGradient>
    <linearGradient id="linear-gradient-3" y1="0.039" x2="0.978" y2="0.67" gradientUnits="objectBoundingBox">
      <stop offset="0" stop-color="#07f"/>
      <stop offset="1" stop-color="#0a67d2"/>
    </linearGradient>
    <linearGradient id="linear-gradient-6" y1="0.5" x2="1" y2="0.5" gradientUnits="objectBoundingBox">
      <stop offset="0" stop-color="#748ef3"/>
      <stop offset="1" stop-color="#00f3f0" stop-opacity="0"/>
    </linearGradient>
    <linearGradient id="linear-gradient-8" x1="0.505" y1="0.983" x2="0.494" y2="-0.006" gradientUnits="objectBoundingBox">
      <stop offset="0" stop-color="#36c241"/>
      <stop offset="1" stop-color="#a3c241"/>
    </linearGradient>
    <linearGradient id="linear-gradient-9" x1="0.513" y1="0.989" x2="0.494" y2="-0.003" xlink:href="#linear-gradient-8"/>
    <linearGradient id="linear-gradient-10" x1="0.501" y1="0.977" x2="0.493" y2="-0.006" xlink:href="#linear-gradient-8"/>
    <linearGradient id="linear-gradient-11" x1="0.511" y1="0.999" x2="0.494" y2="-0.006" xlink:href="#linear-gradient-8"/>
    <linearGradient id="linear-gradient-12" x1="0.505" y1="0.981" x2="0.497" y2="0.009" xlink:href="#linear-gradient-8"/>
    <linearGradient id="linear-gradient-13" x1="0.506" y1="0.981" x2="0.497" y2="0.008" xlink:href="#linear-gradient-8"/>
    <linearGradient id="linear-gradient-14" x1="0.503" y1="0.974" x2="0.497" y2="0.015" xlink:href="#linear-gradient-8"/>
    <linearGradient id="linear-gradient-15" x1="0.503" y1="0.971" x2="0.497" y2="0.018" xlink:href="#linear-gradient-8"/>
    <linearGradient id="linear-gradient-16" x1="0.5" x2="0.5" y2="1" gradientUnits="objectBoundingBox">
      <stop offset="0" stop-color="#8d8b87"/>
      <stop offset="1" stop-color="#5e4e2d"/>
    </linearGradient>
    <radialGradient id="radial-gradient" cx="0.5" cy="0.5" r="0.5" gradientUnits="objectBoundingBox">
      <stop offset="0" stop-color="#fff"/>
      <stop offset="1" stop-color="#744343"/>
    </radialGradient>
  </defs>
  <g id="Raggruppa_2848" data-name="Raggruppa 2848" transform="translate(-200.466 -303.663)">
    <g id="Raggruppa_5" data-name="Raggruppa 5" transform="translate(227 317)">
      <g id="Raggruppa_4" data-name="Raggruppa 4" transform="translate(0 0)">
        <path id="Tracciato_1" data-name="Tracciato 1" d="M167.06,177.963a2.281,2.281,0,0,1-.158.838,8.076,8.076,0,0,0-4.442-.941,2.3,2.3,0,0,1,4.6.1Z" transform="translate(-160.64 -168.481)" fill="url(#linear-gradient)"/>
        <g id="Raggruppa_1" data-name="Raggruppa 1" transform="translate(10.406 10.017)">
          <path id="Tracciato_2" data-name="Tracciato 2" d="M263.932,206.471a9.991,9.991,0,0,1-.886,3.238h0a9.952,9.952,0,0,1-.862,1.5,8.892,8.892,0,0,1-4.462.285,6.542,6.542,0,0,1-3.383-1.879c1.455-1.289,2.836-2.731,5.014-3.311A7,7,0,0,1,263.932,206.471Z" transform="translate(-254.338 -206.005)" fill="#f55fb9"/>
          <path id="Tracciato_3" data-name="Tracciato 3" d="M263.932,206.471a7.684,7.684,0,0,0-4.171,0c-2.164.618-3.642,2.163-5.1,3.451-.148-.133-.259-.243-.328-.314,1.455-1.289,2.836-2.731,5.014-3.311A7,7,0,0,1,263.932,206.471Z" transform="translate(-254.338 -206.005)" opacity="0.7" fill="url(#linear-gradient-2)" style="mix-blend-mode: screen;isolation: isolate"/>
        </g>
        <g id="Raggruppa_2" data-name="Raggruppa 2" transform="translate(0 10.017)">
          <path id="Tracciato_4" data-name="Tracciato 4" d="M161.041,211.487h0a10.052,10.052,0,0,1-17.164-1.78h0a9.991,9.991,0,0,1-.886-3.238,7,7,0,0,1,4.58-.17C152.691,207.664,153.406,213.8,161.041,211.487Z" transform="translate(-142.99 -206.005)" fill="url(#linear-gradient-3)"/>
          <path id="Tracciato_5" data-name="Tracciato 5" d="M169.643,241.86a10.053,10.053,0,0,1-17.162-1.783,4.679,4.679,0,0,1,3.529-.409c2.094.533,4.508,3.082,7.1,3.531a9.549,9.549,0,0,0,6.518-1.332l0,0Z" transform="translate(-151.594 -236.374)" fill="url(#linear-gradient-3)"/>
          <path id="Tracciato_6" data-name="Tracciato 6" d="M189.791,264.707a10.05,10.05,0,0,1-15.085,1.154c.323-.317,1.264-.966,3.228-.317,2.545.841,3.511,2.032,6.16,1.755a9.2,9.2,0,0,0,5.686-2.585l0,0Z" transform="translate(-171.742 -259.221)" fill="url(#linear-gradient-3)"/>
          <path id="Tracciato_7" data-name="Tracciato 7" d="M169.64,241.862a9.028,9.028,0,0,1-8.578.957c-1.941-.807-3.7-2.456-5.412-2.8a4.492,4.492,0,0,0-2.886.612c-.1-.184-.195-.37-.283-.559a4.679,4.679,0,0,1,3.529-.409c2.094.533,4.508,3.082,7.1,3.531a9.549,9.549,0,0,0,6.518-1.332l0,0Z" transform="translate(-151.594 -236.374)" fill="url(#linear-gradient-6)" style="mix-blend-mode: multiply;isolation: isolate"/>
          <path id="Tracciato_8" data-name="Tracciato 8" d="M189.791,264.707l-.01.012a9.4,9.4,0,0,1-6.259,2.849,8.061,8.061,0,0,1-4.027-1.009,9.063,9.063,0,0,0-2.874-.862,2.023,2.023,0,0,0-1.505.542c-.14-.122-.276-.248-.409-.378.323-.317,1.264-.966,3.228-.317,2.545.841,3.511,2.031,6.16,1.754a9.209,9.209,0,0,0,5.686-2.585l0,0Z" transform="translate(-171.742 -259.221)" fill="url(#linear-gradient-6)" style="mix-blend-mode: multiply;isolation: isolate"/>
        </g>
        <g id="Raggruppa_3" data-name="Raggruppa 3" transform="translate(4.297)">
          <path id="Tracciato_9" data-name="Tracciato 9" d="M200,105.341s0,0,0,0a7.426,7.426,0,0,0-.392-1.616,9.159,9.159,0,0,0,.542-1.355,9.314,9.314,0,0,1-.641,1.1,3.789,3.789,0,0,0-.82-1.261,5.185,5.185,0,0,0,.058-1.1s-.1.551-.216.968a1.892,1.892,0,0,0-.444-.275,1.992,1.992,0,0,0-1.615-.163,11.205,11.205,0,0,1,1.916,7.772,17.12,17.12,0,0,0-3.564,2.769l-.233-.239a7.048,7.048,0,0,0,1.68-3.114c.031-.112.059-.227.085-.345a9.557,9.557,0,0,0,.236-2.072c0-.075,0-.151,0-.228a11.7,11.7,0,0,0-.132-1.584c-.01-.064-.02-.129-.031-.195h0a13.66,13.66,0,0,0-.3-1.359c-.01-.037-.02-.075-.032-.113q-.142-.512-.334-1.053a2.858,2.858,0,0,0-2.932,1.748,7.6,7.6,0,0,1-.584-1.262,5.568,5.568,0,0,0,.488,1.441,6.856,6.856,0,0,0-.426,1.032,7.726,7.726,0,0,1-.411-1.058,5.648,5.648,0,0,0,.331,1.317c-.089.3-.17.637-.239,1l-.007-.012c-.122-.206-1.677-2.928.485-4.492a3.367,3.367,0,0,1,3.071-.177,3.388,3.388,0,0,0-2.389-1.02,2,2,0,0,1,.025-1.047,1.837,1.837,0,0,0-.182,1.054,3.044,3.044,0,0,0-.7.14,4.4,4.4,0,0,0-.453.175,3.967,3.967,0,0,1-.127-1.622,3.246,3.246,0,0,0-.028,1.7,4.578,4.578,0,0,0-1.018.7,9.037,9.037,0,0,1-.345-1.737,5.128,5.128,0,0,0,.168,1.9h0a5.614,5.614,0,0,0-1.266,1.949,0,0,0,0,0,0,0,.014.014,0,0,0,0-.006,0,0,0,0,0,0,0c-.075-.224-1.136-3.589,1.779-4.644.4-.145,2.835-.671,4.8,2.018l.006.009a0,0,0,0,1,0,0c0-.031,0-.062.007-.094a.01.01,0,0,1,0,0,2.125,2.125,0,0,1,1.237-1.852,2.386,2.386,0,0,1,3.033,1.455,4.2,4.2,0,0,0-1.787-.543,2.329,2.329,0,0,0-.54-.8,4.269,4.269,0,0,1,.389.8,2.152,2.152,0,0,0-.841.179l-.007,0a4.168,4.168,0,0,0-.521-.5,2.849,2.849,0,0,1,.426.549,1.7,1.7,0,0,0-.938,1.078h0a2.969,2.969,0,0,1,3.509.078C201.512,102.825,200.057,105.245,200,105.341Z" transform="translate(-188.965 -98.813)" fill="#37c775"/>
          <path id="Tracciato_10" data-name="Tracciato 10" d="M195.8,100.979a5.012,5.012,0,0,0-3.73-2.029,2.914,2.914,0,0,0-2,.714c-1.546,1.364-.91,3.74-.863,3.933-.075-.224-1.136-3.589,1.779-4.644.4-.145,2.835-.671,4.8,2.018Z" transform="translate(-188.965 -98.813)" fill="url(#linear-gradient-8)" style="mix-blend-mode: screen;isolation: isolate"/>
          <path id="Tracciato_11" data-name="Tracciato 11" d="M218.458,123.989a3.232,3.232,0,0,0-3.04.354c-1.972,1.617-.615,4.123-.516,4.315-.122-.206-1.677-2.928.485-4.492A3.367,3.367,0,0,1,218.458,123.989Z" transform="translate(-211.884 -121.385)" fill="url(#linear-gradient-9)" style="mix-blend-mode: screen;isolation: isolate"/>
          <path id="Tracciato_12" data-name="Tracciato 12" d="M266.5,101.331a2.558,2.558,0,0,0-2.241-1.471,2.162,2.162,0,0,0-2.029,1.868,2.125,2.125,0,0,1,1.237-1.852A2.386,2.386,0,0,1,266.5,101.331Z" transform="translate(-255.387 -99.658)" fill="url(#linear-gradient-10)" style="mix-blend-mode: screen;isolation: isolate"/>
          <path id="Tracciato_13" data-name="Tracciato 13" d="M270.818,123.709c1.051-2.409-.094-3.677-.094-3.677-1.239-1.473-3.556-.457-3.639-.416a2.969,2.969,0,0,1,3.509.078C272.332,121.193,270.877,123.612,270.818,123.709Z" transform="translate(-259.784 -117.181)" fill="url(#linear-gradient-11)" style="mix-blend-mode: screen;isolation: isolate"/>
          <path id="Tracciato_14" data-name="Tracciato 14" d="M266.031,139.531a1.573,1.573,0,0,1-.719.427c-.01-.037-.02-.075-.032-.113h0A2.546,2.546,0,0,0,266.031,139.531Z" transform="translate(-258.147 -135.726)" opacity="0.5" fill="url(#linear-gradient-12)" style="mix-blend-mode: multiply;isolation: isolate"/>
          <path id="Tracciato_15" data-name="Tracciato 15" d="M269.908,153.82c-.011.025-.206.413-1.052.645-.01-.064-.02-.129-.031-.195A2.536,2.536,0,0,0,269.908,153.82Z" transform="translate(-261.362 -148.679)" opacity="0.5" fill="url(#linear-gradient-13)" style="mix-blend-mode: multiply;isolation: isolate"/>
          <path id="Tracciato_16" data-name="Tracciato 16" d="M271.916,174.292a1.85,1.85,0,0,1-1.351.544c0-.075,0-.151,0-.228v0A3.214,3.214,0,0,0,271.916,174.292Z" transform="translate(-262.939 -167.238)" opacity="0.5" fill="url(#linear-gradient-14)" style="mix-blend-mode: multiply;isolation: isolate"/>
          <path id="Tracciato_17" data-name="Tracciato 17" d="M269.036,198.955s-.431.534-1.911.657c.031-.112.059-.227.085-.345h0A2.961,2.961,0,0,0,269.036,198.955Z" transform="translate(-259.821 -189.596)" opacity="0.5" fill="url(#linear-gradient-15)" style="mix-blend-mode: multiply;isolation: isolate"/>
        </g>
        <path id="Tracciato_18" data-name="Tracciato 18" d="M163.19,148.543s-.035-.128-.277-.217a2.655,2.655,0,0,1-.733-.436c-.051-.08-.191-.2-.212-.237s-.055.078.033.192a2.6,2.6,0,0,1,.228.311.825.825,0,0,0,.475.4c.27.069.4.11.4.145a.113.113,0,0,1-.11.084c-.06,0-.22-.036-.229,0s.122.314.316.344a.58.58,0,0,0,.406-.094c.023-.028-.139-.032-.124-.093s.1-.045.143-.091.174-.044.207-.047-.02-.028-.02-.028.274-.016.388-.02.377-.086.459-.074a2.453,2.453,0,0,0,.752-.189c.013-.036-.1.007-.2.03a1.95,1.95,0,0,1-.578.031,2.313,2.313,0,0,0-.414-.062,3.3,3.3,0,0,0-.417.112,1.311,1.311,0,0,1-.15.029.472.472,0,0,0-.128-.084A.806.806,0,0,0,163.19,148.543Z" transform="translate(-160.172 -143.083)" fill="url(#linear-gradient-16)"/>
        <path id="Tracciato_19" data-name="Tracciato 19" d="M227.749,188.249a.106.106,0,0,0-.1-.041.484.484,0,0,1-.122.029.245.245,0,0,1-.206-.16c-.043-.131.016-.334-.094-.38a1.825,1.825,0,0,0-.757-.07c-.345.035-.374.027-.265.107a.693.693,0,0,0,.345.1.467.467,0,0,1,.238.056,1.361,1.361,0,0,1,.157.283,1.391,1.391,0,0,1,.169.345.2.2,0,0,1-.136.131c-.07.024-.128.037-.115.061s.088.056.12.08.075.064.094.037.061-.112.142-.136a.76.76,0,0,0,.257-.088.811.811,0,0,0,.23-.214c.016-.019.07.014.1.046a.718.718,0,0,0,.139.174c.075.056.1.155.155.171s.035-.227.032-.348a.4.4,0,0,0-.054-.238c-.04-.059-.086-.072-.12-.048A.788.788,0,0,1,227.749,188.249Z" transform="translate(-218.382 -179.318)" fill="url(#linear-gradient-16)"/>
      </g>
    </g>
    <g transform="matrix(1, 0, 0, 1, 200.47, 303.66)" filter="url(#Unione_9)" style="mix-blend-mode: soft-light;isolation: isolate">
      <path id="Unione_9-2" data-name="Unione 9" d="M9.972,19.533H9.678l-.06,0H9.584l-.062,0H9.49a10,10,0,0,1-5.974-2.36l0,0-.019-.016-.009-.008-.011-.009-.014-.012,0,0q-.2-.171-.39-.353l-.009-.009-.012-.011-.014-.014-.007-.007L3.008,16.7,3,16.694l-.015-.015-.022-.022A10.056,10.056,0,0,1,.887,13.721h0A9.994,9.994,0,0,1,0,10.483a7,7,0,0,1,4.58-.17c5.121,1.363,5.836,7.5,13.471,5.186h0a10.052,10.052,0,0,1-6.132,3.849h0l-.032.006h-.007l-.03.005-.012,0-.025,0H11.8l-.029.005h0l-.034.006h-.007l-.03.005h-.007l-.03.005h-.007l-.03,0H11.62l-.031,0-.014,0-.023,0-.018,0-.019,0-.023,0-.014,0-.025,0-.012,0-.024,0-.013,0-.03,0h-.007l-.07.009h0l-.037,0h0l-.028,0h-.009l-.074.009h0l-.032,0H11.1l-.025,0h-.012l-.027,0h-.01c-.148.015-.3.027-.447.035h-.007l-.037,0h-.081l-.072,0h-.016l-.061,0H9.972Zm3.817-4.03a6.274,6.274,0,0,1-3.055-1.565h0c-.148-.133-.259-.243-.328-.314,1.455-1.288,2.836-2.731,5.014-3.311a7,7,0,0,1,4.58.17,9.99,9.99,0,0,1-.886,3.238h0a9.953,9.953,0,0,1-.862,1.5,7.642,7.642,0,0,1-2.725.422A11.329,11.329,0,0,1,13.789,15.5Zm-3.636-2.135h0l-.233-.239a5.241,5.241,0,0,0,.745-.955,7.943,7.943,0,0,0,.935-2.159,4.073,4.073,0,0,0,1.51-.374,1.317,1.317,0,0,0,.4-.283A3.11,3.11,0,0,1,12.1,9.7a2.153,2.153,0,0,1-.411-.034h0A9.6,9.6,0,0,0,11.922,7.6a2.118,2.118,0,0,0,1.341-.532l.011-.012a3.23,3.23,0,0,1-1.35.314v0a11.743,11.743,0,0,0-.132-1.584c.859-.237,1.045-.629,1.052-.646a2.557,2.557,0,0,1-1.083.451h0a13.757,13.757,0,0,0-.3-1.359,1.591,1.591,0,0,0,.72-.427,2.566,2.566,0,0,1-.75.313h0c-.1-.344-.208-.7-.334-1.053a1.676,1.676,0,0,0-.313-.025A3,3,0,0,0,8.163,4.814,7.311,7.311,0,0,1,7.58,3.556v0a5.52,5.52,0,0,0,.488,1.441A6.874,6.874,0,0,0,7.64,6.026a7.767,7.767,0,0,1-.411-1.058A5.643,5.643,0,0,0,7.56,6.285c-.093.321-.174.657-.239,1l0,0-.006-.01h0a5.254,5.254,0,0,1-.578-1.534v0h0q-.019-.1-.034-.2t-.023-.181h0l0-.018V5.3s0,0,0-.007V5.275s0,0,0,0A2.648,2.648,0,0,1,7.7,2.858h0l.008-.006.006,0,0,0L7.8,2.781a2.5,2.5,0,0,1,1.03-.4h.008a3.56,3.56,0,0,1,.9-.036h.018a4.075,4.075,0,0,1,1.008.223l.012,0,.009,0,.016.006.006,0,.018.006h0l.02.007h0l.021.008A3.416,3.416,0,0,0,8.549,1.584H8.482A1.968,1.968,0,0,1,8.506.537a1.824,1.824,0,0,0-.182,1.054,3.07,3.07,0,0,0-.7.141,4.38,4.38,0,0,0-.453.175A4,4,0,0,1,7.039.284a3.094,3.094,0,0,0-.028,1.7,4.6,4.6,0,0,0-1.018.7A9.14,9.14,0,0,1,5.648.941a5.06,5.06,0,0,0,.168,1.9h0A5.627,5.627,0,0,0,4.55,4.8v0a.015.015,0,0,0,0-.006,0,0,0,0,0,0,0v0c-.007-.02-.021-.064-.04-.129a5.478,5.478,0,0,1-.2-1.706s0,0,0,0,0,0,0-.007a3.593,3.593,0,0,1,.241-1.155h0l0-.009v0l0-.007,0-.005,0,0,0-.008v0l0-.01h0a2.772,2.772,0,0,1,.242-.453,2.643,2.643,0,0,1,.174-.234l.005-.006,0,0A2.931,2.931,0,0,1,6.023.263h0l.011,0q.139-.064.29-.118l.031-.01a2.111,2.111,0,0,1,.233-.06A3.574,3.574,0,0,1,7.261,0h.1A4.141,4.141,0,0,1,8.937.335l.009,0h0a5.257,5.257,0,0,1,2.123,1.741l0,0,.012.016,0,0,.01.014.005.007.009.012.014.019,0,0,0,0,0,0a0,0,0,0,1,0,0v0c0-.03,0-.06.007-.091a.01.01,0,0,1,0,0,2.63,2.63,0,0,1,.321-1.046,1.8,1.8,0,0,1,.915-.805,1.568,1.568,0,0,1,.168-.055h0a2.436,2.436,0,0,1,1.938.325l0,0,0,0a2.48,2.48,0,0,1,.805.944h0l.006.012v0l.005.011v0l0,.01,0,0,0,.008,0,.005,0,.006,0,.007h0l.018.038h0l.005.011v0l0,.011v0l0,.011v0l0,.01v0l0,.01v0l0,.01v0l0,.01v0l0,.01,0,0,0,.009.006.014a4.237,4.237,0,0,0-1.787-.543,2.311,2.311,0,0,0-.54-.8,4.259,4.259,0,0,1,.389.8,2.153,2.153,0,0,0-.841.179l-.007,0a4.151,4.151,0,0,0-.521-.5,2.862,2.862,0,0,1,.426.549A1.682,1.682,0,0,0,11.607,2.4l-.013.035h0l.008-.006a3.075,3.075,0,0,1,1.237-.488h.014l.011,0h0q.12-.019.245-.031h.04a2.625,2.625,0,0,1,1.95.61l.009.008.006,0,0,0,.007.006h0l.009.008h0c1.68,1.5.246,3.888.187,3.984h0a7.42,7.42,0,0,0-.392-1.616,9.178,9.178,0,0,0,.542-1.355,9.192,9.192,0,0,1-.641,1.1,3.762,3.762,0,0,0-.82-1.262,5.037,5.037,0,0,0,.058-1.1s0,.005,0,.012c-.032.174-.118.614-.214.956a1.878,1.878,0,0,0-.444-.275,2.8,2.8,0,0,0-1.1-.255,1.226,1.226,0,0,0-.519.092h0a9.409,9.409,0,0,1,1.159,2.13,11.564,11.564,0,0,1,.684,2.452,11.6,11.6,0,0,1,.072,3.189,9.535,9.535,0,0,0-1,.633,22.158,22.158,0,0,0-2.563,2.136ZM1.82,9.378a2.3,2.3,0,1,1,4.442.941A8.075,8.075,0,0,0,1.82,9.378Zm6.787.1c-.032-.024-.107-.056-.12-.08s.045-.038.115-.062a.2.2,0,0,0,.136-.131,1.4,1.4,0,0,0-.169-.345,1.368,1.368,0,0,0-.158-.283.468.468,0,0,0-.238-.056.692.692,0,0,1-.345-.1c-.11-.08-.08-.072.265-.107a1.825,1.825,0,0,1,.757.07c.11.045.051.249.094.38a.244.244,0,0,0,.206.161.49.49,0,0,0,.122-.029.106.106,0,0,1,.1.041.792.792,0,0,0,.21-.1c.035-.024.08-.011.12.048a.4.4,0,0,1,.054.238c0,.12.024.364-.032.348s-.08-.115-.155-.171a.718.718,0,0,1-.139-.174c-.027-.032-.081-.065-.1-.046a.81.81,0,0,1-.23.214.761.761,0,0,1-.257.088c-.08.024-.123.11-.142.136a.019.019,0,0,1-.017.009C8.662,9.524,8.631,9.5,8.607,9.478ZM7.314,7.273h0ZM2.906,6.048c-.194-.03-.325-.309-.316-.344s.169,0,.229,0a.113.113,0,0,0,.11-.084c0-.034-.127-.076-.4-.145a.825.825,0,0,1-.475-.4,2.614,2.614,0,0,0-.228-.311c-.088-.114-.054-.228-.033-.192s.161.157.211.237a2.653,2.653,0,0,0,.733.436c.243.089.277.217.277.217a.806.806,0,0,1,.209.008.47.47,0,0,1,.128.084,1.309,1.309,0,0,0,.15-.029,3.328,3.328,0,0,1,.417-.112,2.331,2.331,0,0,1,.414.062,1.954,1.954,0,0,0,.578-.031c.1-.023.218-.066.2-.03a2.457,2.457,0,0,1-.752.189c-.082-.013-.345.07-.459.074s-.388.02-.388.02.053.024.02.028-.165,0-.207.047-.128.03-.143.091.147.065.124.093a.567.567,0,0,1-.328.1A.5.5,0,0,1,2.906,6.048Z" transform="translate(26.53 13.34)" stroke="rgba(0,0,0,0)" stroke-miterlimit="10" stroke-width="1" fill="url(#radial-gradient)"/>
    </g>
  </g>
</svg>
