<?xml version="1.0" encoding="utf-8"?>
<svg width="375" height="511" viewBox="0 0 375 511" xmlns="http://www.w3.org/2000/svg" xmlns:xlink="http://www.w3.org/1999/xlink">
  <defs>
    <linearGradient id="b" x1="0.495" y1="0.914" x2="0.505" y2="0.241" gradientUnits="objectBoundingBox">
      <stop offset="0" stop-color="#9cb3d3"/>
      <stop offset="0.367" stop-color="#90aace"/>
      <stop offset="1" stop-color="#7495c3"/>
    </linearGradient>
    <linearGradient id="c" x1="0.412" y1="0.732" x2="0.648" y2="0.387" gradientUnits="objectBoundingBox">
      <stop offset="0" stop-color="#9cb3d3"/>
      <stop offset="0.1" stop-color="#99b1d2" stop-opacity="0.949"/>
      <stop offset="0.277" stop-color="#94adcf" stop-opacity="0.808"/>
      <stop offset="0.51" stop-color="#8ba6cc" stop-opacity="0.576"/>
      <stop offset="0.787" stop-color="#7e9cc7" stop-opacity="0.263"/>
      <stop offset="1" stop-color="#7495c3" stop-opacity="0"/>
    </linearGradient>
    <linearGradient id="d" x1="0.5" y1="1.569" x2="0.5" y2="0.346" gradientUnits="objectBoundingBox">
      <stop offset="0" stop-color="#7495c3"/>
      <stop offset="0.278" stop-color="#6889bc"/>
      <stop offset="0.768" stop-color="#4b6cac"/>
      <stop offset="1" stop-color="#3b5ca3"/>
    </linearGradient>
    <linearGradient id="e" x1="0.47" y1="1.347" x2="0.512" y2="0.424" gradientUnits="objectBoundingBox">
      <stop offset="0" stop-color="#7495c3"/>
      <stop offset="0.24" stop-color="#6989bb"/>
      <stop offset="0.661" stop-color="#4e6ca9"/>
      <stop offset="1" stop-color="#355097"/>
    </linearGradient>
    <linearGradient id="f" x1="0.497" y1="1.062" x2="0.501" y2="0.282" gradientUnits="objectBoundingBox">
      <stop offset="0" stop-color="#7495c3"/>
      <stop offset="0.22" stop-color="#6a89bc"/>
      <stop offset="0.608" stop-color="#4f6ca9"/>
      <stop offset="1" stop-color="#304893"/>
    </linearGradient>
    <linearGradient id="g" x1="0.482" y1="1.695" x2="0.499" y2="0.311" gradientUnits="objectBoundingBox">
      <stop offset="0" stop-color="#7495c3"/>
      <stop offset="0.184" stop-color="#6989ba"/>
      <stop offset="0.508" stop-color="#4e6ca3"/>
      <stop offset="0.932" stop-color="#223c7d"/>
      <stop offset="1" stop-color="#1b3477"/>
    </linearGradient>
    <linearGradient id="h" x1="0.776" y1="0.368" x2="0.199" y2="0.644" xlink:href="#c"/>
    <linearGradient id="i" x1="0.519" y1="0.329" x2="0.49" y2="0.594" gradientUnits="objectBoundingBox">
      <stop offset="0" stop-color="#7495c3"/>
      <stop offset="0.105" stop-color="#7091c1" stop-opacity="0.941"/>
      <stop offset="0.292" stop-color="#6889bc" stop-opacity="0.792"/>
      <stop offset="0.537" stop-color="#597ab4" stop-opacity="0.541"/>
      <stop offset="0.828" stop-color="#4667a9" stop-opacity="0.204"/>
      <stop offset="0.99" stop-color="#3b5ca3" stop-opacity="0"/>
    </linearGradient>
    <linearGradient id="j" x1="0.488" y1="1.265" x2="0.502" y2="0.368" xlink:href="#g"/>
  </defs>
  <g transform="translate(0 -301)" clip-path="url(#a)">
    <g transform="translate(-902 -1167.871)" opacity="0.38">
      <g transform="translate(853.802 1600.288)">
        <g transform="translate(0 0)">
          <path d="M1128.7,43.157s26.8.759,38.948,0a244.353,244.353,0,0,0,24.673-3.037,261.909,261.909,0,0,1,48.587-2.657c25.812,1.139,61.492-.759,61.492-.759s24.293,1.518,42.513,1.518,57.317,4.935,57.317,4.935h46.309L1344.532,24.178s-18.22-6.832-31.505-7.592-37.372-1.139-37.372-1.139l-53.348-1.9-39.1-1.9L1128.5,8.235V-22S1285.7,1.4,1296.7-.5s36.06-1.139,53.9-1.518,19.359-1.139,33.4-2.657,55.039,13.285,77.435,16.7,104.006,12.906,122.985,14.045,113.444.38,113.444.38V49.049s-68.653-5.133-89.909-4.374-67.566,4.374-67.566,4.374-35.3,8.532-59.974,10.81-75.917-1.518-96.034-4.175S1264.44,49.627,1242.8,49.049s-51.244,4.736-51.244,4.736L1128.7,60.557Z" transform="translate(-1128.363 22)" fill="#b8c1ce" opacity="0.3"/>
          <path d="M1490.066-22s70.223,16.57,93,18.468,30.367-1.518,54.28-.38,32.644,0,50.485,1.9,53.141,6.453,53.141,6.453l43.98,4.175V-22Z" transform="translate(-1215.441 22)" fill="#b8c1ce" opacity="0.3"/>
          <path d="M1128.5,112.546s18.028,8.006,21.141,8.006,17.793-4.448,30.247-8.006,29.357-5.783,29.357-5.783S1224.366,92.53,1229.7,92.53s20.46,11.12,22.685,12.454,8.451,2.224,8.451,2.224l6.672-1.335s16.9,3.113,25.354,2.669,14.679-1.335,16.012-1.335,10.676.445,10.676.445l36.918-17.348h11.12s10.231-3.558,11.565-3.558,18.237,13.752,18.237,13.752h15.791l7.338,1.816,7.117,6.672,12.009,2.669,22.24,4.893s27.133,1.335,40.031-3.558a200.694,200.694,0,0,1,20.016-6.672l9.786-1.335,7.562-3.253,9.341,2.363,15.568,4s31.581,13.789,33.8,12.009,28.467-6.227,28.467-6.227l18.682-6.227,12.9-4.147,23.13,5.48,16.7,3.559V242.428H1128.5Z" transform="translate(-1128.363 -4.19)" fill="url(#b)"/>
          <path d="M1564.77,160.469s14.552,3.48,17.716,0-3.8-5.061-3.8-5.061.632-4.429-.95-6.011a31.287,31.287,0,0,1-3.7-5.695s8.2,6.011,9.27,6.643-3.92,3.48,0,4.746,7.717,5.061,10.88,5.378,8.541,2.144,9.807,1.546,15.5-2.5,15.5-2.5-9.49,4.745-9.49,7.908,4.112,6.011,7.908,9.807l12.655,12.655s-18.032-8.226-24.675-13.287-10.123-9.174-16.767-9.174S1564.77,160.469,1564.77,160.469Z" transform="translate(-1233.432 -17.907)" fill="url(#c)"/>
          <path d="M1128.656,161.842s18.39,4.312,25.475,5.193,30.367,0,30.367,0l38.927,5.959,53.691,12.636,58.2-23.788,41.5-8.6,26.317-11.135,29.5,1.518,29.718,11.641,26.318,11.772,33.4,6.448,47.068,15.689,36.946,3.543s13.159-10.122,21.256-12.653,28.342-8.1,28.342-8.1l42.142-38.465V278.248H1128.32Z" transform="translate(-1128.32 -15.45)" fill="#4b6db1"/>
          <path d="M1759.4,188.342s-12.7,21.26-19.4,21.945-18.662,12.344-18.662,12.344l-15.218,4.036-22.268,3.509s-25.679-4.116-40.513-10.975-16.748-17.144-32.539-17.144-16.749-3.429-29.19-.686-29.19,3.428-29.19,3.428-20.577,4.115-33.975-4.115-18.743-17.9-35.013-18.59-21.844-9.6-36.44,0-44.538,25.812-44.538,25.812l-4.118,17.466-14.356,10.973V300.02H1759.4Z" transform="translate(-1189.893 -26.088)" fill="url(#d)"/>
          <path d="M1128.5,230.716s14.447-5.912,26.486-11.826,40.935-18.584,40.935-18.584,36.118-26.185,50.566-26.185,34.313,8.447,34.313,8.447,22.874,5.912,28.293,5.912,3.612,6.758,18.059,6.758,19.263-2.534,27.089,1.689,19.263,5.49,19.263,5.49l21.069,19.85s12.642,12.67,18.661,16.05,4.214,10.136,4.214,10.136-45.75,18.583-73.441,18.583H1128.5Z" transform="translate(-1128.363 -25.233)" fill="url(#e)"/>
          <path d="M1128.763,274.1s66.614-26.045,82.5-27.547,21.009-8.014,45.092-1.5,62.514,18.531,73.787,18.03,24.6-7.012,47.654-11.52,30.745-11.52,52.266-5.509,34.68,15.526,46.548,15.526,13.4-3,24.677,0,19.472,3.507,28.7,4.508,18.959,2.5,31.257,4.508,42.53-20.535,59.952-19.533,32.282,11.52,42.018,15.025,29.532,24.929,29.532,24.929L1642.2,329.2,1154.384,332.7Z" transform="translate(-1128.427 -41.631)" fill="url(#f)"/>
          <path d="M1191.9,310.253s26.994-4.835,42.3-4.835,37.469,2.015,57.211-4.029,22.965-5.641,41.9-3.223,42,6.118,42,6.118,27.7,4.759,42.207,5.969,33.843,0,33.843,0,33.44-6.044,49.152-4.432,22.562,10.878,40.692,14.1,29.008,5.641,37.872,4.835,21.756-8.461,37.065-12.49,29.411-11.684,66.88,2.82,13.3,22.965,13.3,22.965-113.212,50.361-202.251,55.2-193.387-1.612-193.387-1.612l-92.261-22.965Z" transform="translate(-1143.633 -54.709)" fill="url(#g)"/>
          <path d="M1128.5,269.485a54.631,54.631,0,0,1,8.988,0c5.471.391,11.463,12.9,12.9,13.287a3.354,3.354,0,0,1,2.475,2.6c.26,1.173,3.908,8.728,5.732,9.64s2.214.13,3.126,1.172,2.084,1.824,2.084.651,1.824-7.295,3.648-4.56,1.954,8.989,3.517,8.467,3.647-3.258,5.991-3.322,4.039-.585,4.429-.976,3.257-2.735,5.341-3.256,2.605-2.345,5.08-2.866,7.426.651,7.946,1.824,1.954,4.3,3.647,4.82,1.824,3.126,3.387,4.95,7.816,4.819,11.593,7.816,5.992,5.471,7.164,5.341,1.043-1.824,1.043-1.824l.781-1.694h1.954l.391,1.563v1.959l-.521,1.168,1.954,1.694s3.647,4.3,6.773,4.559,2.476-1.3,5.211,0,3,1.042,6.513,1.433,5.862-1.694,9.118-1.563,8.207,1.4,10.942,1.612,4.95-.179,6.643.6,2.475,1.563,5.08,3.256,9.509,2.345,14.068,5.211,15.5,11.463,19.41,12.765,24.359,9.249,28.006,9.509,3.257-1.172,6.644,0,18.758,7.164,28.137,6.773,32.174.688,41.163.018,12.114-2.233,16.543-4.056,17.325-3.907,22.535-4.559,8.6-2.866,13.808-2.345,15.5,4.82,20.061,6.9,21.623,6.578,28.853,5.211,8.6-5.08,16.8-6.643,19.539,1.758,25.6.39,13.287-6.839,13.287-6.839,6.252-2.149,7.62-3.907,8.207-7.425,8.207-7.425,8.011-2.735,14.459-2.735,12.505-4.689,12.505-4.689,17.39-.782,25.206-5.862,13.678-9.143,13.678-9.143,25.6-15.867,29.113-20.166,10.747-6.643,10.747-6.643v138.13H1128.5Z" transform="translate(-1128.363 -48.158)" fill="#102866"/>
          <path d="M1191.9,146.833s9.426,8.1,13.475,10.123,13.159,7.085,13.159,7.085l16.779,11.64s-23.169-5.566-30.1-11.64a51.2,51.2,0,0,0-13.317-8.6Z" transform="translate(-1143.633 -18.661)" fill="url(#h)"/>
        </g>
        <path d="M1289.55,244.193a169.02,169.02,0,0,0,31.467,12.253c18.852,4.935,32.17,9.774,43.177,11.8s38.686,9.078,38.56,8.7-24.04-7.56-28.848-9.363c-4.482-1.681-7.664-2.471-5.357-4.018-11.639.283-49.6-11.579-73.473-18.033C1293.11,245,1291.28,244.561,1289.55,244.193Z" transform="translate(-1167.15 -42.108)" fill="url(#i)"/>
        <path d="M1489.641,324.168c-9.3-3.606-24.1-11.957-25.812-13.279h0q-.729-.052-1.445-.111c-14.5-1.209-42.206-5.969-42.206-5.969s-23.061-3.7-42-6.118c0,0,75.59,14.279,80.145,16.462S1489.641,324.168,1489.641,324.168Z" transform="translate(-1188.495 -55.233)" fill="url(#j)"/>
      </g>
      <rect width="569" height="300" transform="translate(854 1679.871)" fill="#54ccff" style="mix-blend-mode:color;isolation:isolate"/>
    </g>
    <g transform="translate(-1181.438 -1244.113)">
      <g transform="translate(1195.003 1563.113)">
        <path d="M816.49,769.252c-.654,2.8-5.961,7.308-9.2,10.564.183-10.824-1.848-22.144-.856-32.54-.688,6.374-.669,12.83-1.111,19.335-1.833-1.809-4.392-3.623-6.038-5.888,0,6.418,2.766,14.192,4.233,20.191-3.949-3.18-6.889-8.025-11.594-10.536,1.978,7.539,7.212,14.99,8.866,22.159-5.821-1.717-10.372-8.044-15.274-10.5,1.087,8.351,9.044,16.838,15.216,22.154.385-3.493,1.438-.674,2.949-1.679l-1.833,2.689c9.121.173,19.459-17.386,20.888-24.776-3.916,4.253-9.429,7.87-14.317,11.031C809.384,784.319,815.239,776.862,816.49,769.252Z" transform="translate(-785.518 -747.276)" fill="#542d4a"/>
        <path d="M795.1,747.276a1.72,1.72,0,0,0-1.736,1.7l-3.825,66.028c-5.186,1.7,4.6-1.049,5.561-1.049s3.575,1.7,3.575.76l-1.819-65.739A1.728,1.728,0,0,0,795.1,747.276Z" transform="translate(-775.939 -747.276)" fill="#542d4a"/>
      </g>
      <path d="M806.786,760.207h-4.57c-9.1,0-17.4,18.858-17.4,27.758v174.6A16.306,16.306,0,0,0,801.3,978.684H812.28a16.3,16.3,0,0,0,16.477-16.116v-174.6C828.757,779.065,815.893,760.207,806.786,760.207Z" transform="translate(406.825 865.114)" fill="#484d6b"/>
      <path d="M922.917,781.635h-60.4S829.093,892.659,819.5,924.9c-11.1,37.279-56.748,145.055-56.748,145.055l264.507-4.484s-44.567-98.049-54.92-133.86C963.015,899.365,922.917,781.635,922.917,781.635Z" transform="translate(322.729 946.772)" fill="#484d6b"/>
      <path d="M826.924,779.378H786.658a1.79,1.79,0,1,0,0,3.579h40.266a1.79,1.79,0,1,0,0-3.579Z" transform="translate(406.825 938.171)" fill="#666d89"/>
      <path d="M826.467,776.4H787.115a2.238,2.238,0,1,0,0,4.474h39.352a2.238,2.238,0,1,0,0-4.474Z" transform="translate(406.825 926.822)" fill="#666d89"/>
      <path d="M825.548,773.421H788.029a3.137,3.137,0,1,0,0,6.273h37.519a3.137,3.137,0,1,0,0-6.273Z" transform="translate(406.825 915.47)" fill="#666d89"/>
      <path d="M826.467,770.258H787.115a2.238,2.238,0,1,0,0,4.474h39.352a2.238,2.238,0,1,0,0-4.474Z" transform="translate(406.825 903.416)" fill="#666d89"/>
      <path d="M826.467,767.466H787.115a2.24,2.24,0,1,0,0,4.479h39.352a2.24,2.24,0,1,0,0-4.479Z" transform="translate(406.825 892.777)" fill="#666d89"/>
      <path d="M825.281,764.811H787.839a2.805,2.805,0,1,0,0,5.61h37.442a2.805,2.805,0,1,0,0-5.61Z" transform="translate(407.438 882.659)" fill="#666d89"/>
      <path d="M818.851,762.636H788.071a2.233,2.233,0,1,0,0,4.464h30.779a2.233,2.233,0,1,0,0-4.464Z" transform="translate(410.525 874.37)" fill="#666d89"/>
      <path d="M955.479,823.386H771.635a1.145,1.145,0,1,0,0,2.29H955.479a1.145,1.145,0,1,0,0-2.29Z" transform="translate(352.144 1105.876)" fill="#666d89"/>
      <path d="M940.128,819.134H773.217a1.073,1.073,0,1,0,0,2.146h166.91a1.073,1.073,0,1,0,0-2.146Z" transform="translate(358.413 1089.672)" fill="#666d89"/>
      <path d="M927.147,814.387H776.738a2.82,2.82,0,1,0,0,5.638H927.147a2.82,2.82,0,1,0,0-5.638Z" transform="translate(365.043 1071.583)" fill="#666d89"/>
      <path d="M910.468,809.16H778.7a3.128,3.128,0,1,0,0,6.254H910.468a3.128,3.128,0,1,0,0-6.254Z" transform="translate(371.335 1051.663)" fill="#666d89"/>
      <path d="M898.69,804.108H780.729a3.64,3.64,0,1,0,0,7.279H898.69a3.64,3.64,0,1,0,0-7.279Z" transform="translate(377.101 1032.411)" fill="#666d89"/>
      <path d="M884.041,799.151h-102.9a2.579,2.579,0,1,0,0,5.157h102.9a2.579,2.579,0,1,0,0-5.157Z" transform="translate(382.768 1013.521)" fill="#666d89"/>
      <path d="M871.769,794.223H781.923a1.9,1.9,0,1,0,0,3.8h89.846a1.9,1.9,0,1,0,0-3.8Z" transform="translate(388.415 994.742)" fill="#666d89"/>
      <path d="M858.1,790.052H783.823a2.531,2.531,0,1,0,0,5.061H858.1a2.531,2.531,0,1,0,0-5.061Z" transform="translate(393.198 978.847)" fill="#666d89"/>
      <path d="M845.777,786.123H783.693a1.235,1.235,0,1,0,0,2.468h62.083a1.234,1.234,0,1,0,0-2.468Z" transform="translate(397.69 963.874)" fill="#666d89"/>
      <path d="M839.695,782.914H787.055a3.583,3.583,0,1,0,0,7.163h52.639a3.583,3.583,0,1,0,0-7.163Z" transform="translate(401.372 951.646)" fill="#666d89"/>
      <path d="M878.357,781.635H862.708S829.3,892.659,819.694,924.9c-11.1,37.279-56.743,145.055-56.743,145.055l84.179-1.429c1.28-7.269,2.762-14.461,4.542-21.726,7.245-29.509,15.284-58.807,22.437-88.34,3.656-15.11,7.26-30.395,8.722-45.89,1.458-15.476.943-31.049.135-46.549C881.518,837.883,878.79,809.807,878.357,781.635Z" transform="translate(323.487 946.772)" fill="#484d6b" opacity="0.5" style="mix-blend-mode:multiply;isolation:isolate"/>
      <path d="M812.713,781.635h-15.64c-.429,28.172-3.161,56.248-4.619,84.386-.8,15.5-1.323,31.073.14,46.549,1.467,15.5,5.065,30.78,8.722,45.89,7.154,29.534,15.193,58.831,22.438,88.34,1.775,7.264,3.262,14.456,4.551,21.726l96.586,7.577S871.5,963.069,860.4,925.79C850.809,893.553,812.713,781.635,812.713,781.635Z" transform="translate(432.929 946.772)" fill="#484d6b" opacity="0.5" style="mix-blend-mode:multiply;isolation:isolate"/>
      <g transform="translate(1056.197 1943.189)">
        <path d="M794.188,826.281,756.665,934.622l321.24-3.58L1039.47,826.281Z" transform="translate(-756.665 -826.281)" fill="#666d89"/>
        <path d="M1010.519,828.787H767.96a4.268,4.268,0,1,0,0,8.534h242.56a4.268,4.268,0,1,0,0-8.534Z" transform="translate(-730.253 -816.731)" fill="#484d6b"/>
        <path d="M1026.562,833.642H765.789a3.787,3.787,0,1,0,0,7.572h260.773a3.787,3.787,0,1,0,0-7.572Z" transform="translate(-736.654 -798.229)" fill="#484d6b"/>
        <path d="M1037.184,837.54H763.542a2.914,2.914,0,1,0,0,5.826h273.643a2.914,2.914,0,1,0,0-5.826Z" transform="translate(-741.807 -783.375)" fill="#484d6b"/>
        <path d="M1048.737,841.567H762.312a3.075,3.075,0,1,0,0,6.148h286.424a3.075,3.075,0,1,0,0-6.148Z" transform="translate(-747.115 -768.029)" fill="#484d6b"/>
        <path d="M1061.413,845.9H763a5.223,5.223,0,1,0,0,10.445h298.413a5.223,5.223,0,1,0,0-10.445Z" transform="translate(-752.839 -751.509)" fill="#484d6b"/>
      </g>
      <path d="M756.665,934.622l105.078-1.174,23.485-107.167h-91.04Z" transform="translate(299.532 1116.908)" fill="#484d6b" opacity="0.4" style="mix-blend-mode:multiply;isolation:isolate"/>
      <path d="M795.665,826.281l25.618,105.965,108,2.377L890.848,826.281Z" transform="translate(448.155 1116.908)" fill="#484d6b" opacity="0.4" style="mix-blend-mode:multiply;isolation:isolate"/>
      <path d="M861.336,823.946l-96.871,11.233h245.282l-98.072-11.233Z" transform="translate(329.256 1108.01)" fill="#be8735"/>
      <rect width="21.592" height="45.294" transform="translate(1203.022 1940.501)" fill="#b8c1d8"/>
      <rect width="13.812" height="30.03" transform="translate(1207.237 1937.574)" fill="#be8735"/>
      <g transform="translate(1167.98 1962.141)">
        <g transform="translate(13.047)">
          <rect width="42.414" height="55.216" transform="translate(10.542 31.298)" fill="#8491af"/>
          <path d="M791.451,836.566c-3.959,0-7.173,2.68-7.173,5.971v51.49c0,3.3,3.213,5.985,7.173,5.985s7.163-2.69,7.163-5.985v-51.49C798.614,839.246,795.41,836.566,791.451,836.566Z" transform="translate(-776.268 -806.039)" fill="#b8c1d8"/>
          <path d="M799.3,836.566c-3.964,0-7.168,2.68-7.168,5.971v51.49c0,3.3,3.2,5.985,7.168,5.985s7.168-2.69,7.168-5.985v-51.49C806.467,839.246,803.253,836.566,799.3,836.566Z" transform="translate(-746.342 -806.039)" fill="#b8c1d8"/>
          <path d="M783.839,864.107l60.314,1.983L812.1,830.221Z" transform="translate(-777.94 -830.221)" fill="#484d6b"/>
          <path d="M829.213,835.137H786.96a2.246,2.246,0,0,0,0,4.479h42.253a2.246,2.246,0,0,0,0-4.479Z" transform="translate(-773.932 -811.484)" fill="#292f4c"/>
          <path d="M818.741,833.744h-31.2a1.551,1.551,0,0,0,0,3.093h31.2a1.552,1.552,0,0,0,0-3.093Z" transform="translate(-769.306 -816.793)" fill="#292f4c"/>
          <path d="M807.034,832.414H788.927a1.9,1.9,0,0,0,0,3.786h18.108a1.9,1.9,0,0,0,0-3.786Z" transform="translate(-765.19 -821.861)" fill="#292f4c"/>
          <path d="M801.591,831.356H789.636c-.828,0-1.5.452-1.5,1s.673.986,1.5.986h11.955c.818,0,1.491-.443,1.491-.986S802.409,831.356,801.591,831.356Z" transform="translate(-761.57 -825.893)" fill="#292f4c"/>
          <path d="M853.433,837.084H784.321a1.448,1.448,0,1,0,0,2.848h69.112a1.449,1.449,0,1,0,0-2.848Z" transform="translate(-782.613 -804.065)" fill="#292f4c"/>
          <rect width="14.945" height="42.278" transform="translate(26.566 39.045)" fill="#292f4c"/>
        </g>
        <rect width="23.589" height="52.317" transform="translate(73.172 36.499)" fill="#a3adc4"/>
        <rect width="14.038" height="43.955" transform="translate(76.305 40.445)" fill="#484d6b"/>
        <rect width="23.589" height="52.308" transform="translate(0 35.672)" fill="#a3adc4"/>
        <rect width="14.028" height="43.964" transform="translate(3.133 39.609)" fill="#484d6b"/>
        <path d="M785.769,853.351l37.773-1.231L804.42,833.511Z" transform="translate(-757.539 -817.679)" fill="#292f4c"/>
      </g>
    </g>
    <g transform="translate(-716.001 -1038.826)">
      <path d="M743.543,878.593H809.77l-35.465-52.058S746.555,878.657,743.543,878.593Z" transform="translate(153.231 963.561)" fill="#131c42"/>
      <g transform="translate(882.368 1732.895)">
        <path d="M751.632,807.417h-3.28c-2.253,2.018-5.612,6.17-5.612,8.913v28.964a5.076,5.076,0,0,0,5.183,4.968h4.747a5.076,5.076,0,0,0,5.183-4.968V816.33C757.854,813.587,755.1,809.435,751.632,807.417Z" transform="translate(-730.216 -795.034)" fill="#828faf"/>
        <path d="M750.612,806.159c-2.333,0-7.872,10.491-7.872,11.862s5.54-6.895,7.872-6.895,4.22-1.116,4.22-2.485S752.943,806.159,750.612,806.159Z" transform="translate(-730.216 -796.725)" fill="#828faf"/>
        <path d="M747.335,802.135a32.133,32.133,0,0,0-1.953,4.733c-.551,1.719.591,3.148.087,5.151a4.9,4.9,0,0,0,2.131.033l.216.206c-.075-1.153.94-1.421,1.135-2.265.267-1.174-.038-1.3-.492-2.495A22.474,22.474,0,0,1,747.335,802.135Z" transform="translate(-726.871 -802.135)" fill="#542d4a"/>
        <path d="M745.657,813.972c-1.247,2.78-1.526,6.184-1.681,9.293-.164,3.348,0,6.745,0,10.1,0,2.377-1.146,7.72,1.688,8.355a32.014,32.014,0,0,1-.4-7.971c.157-3.355-.038-6.951.274-10.324.249-2.661.134-6.5,1.184-8.993.663-1.573,1.128-1.908,1.144-3.842.009-1.214-.286-3.99,1.3-4.089l-.431-.213C746.5,807.035,746.49,812.113,745.657,813.972Z" transform="translate(-728.862 -796.554)" fill="#484d6b" opacity="0.4" style="mix-blend-mode:multiply;isolation:isolate"/>
        <path d="M749.2,815.956c-.056-.246-.53-.513-.614-.924-.082-.389.464-.544.4-.846-.31-1.451-.738-2.243-1.034-3.446-.345-1.423.145-2.984-1.081-4.082v-.647c-1.482,1.018-.474,7.239-.012,8.594a23.717,23.717,0,0,1,.875,8.815A107.167,107.167,0,0,1,746.27,834.6c-.214,1.421-1.008,3.948-.481,5.371.6,1.606,1.861,1.346,3.638,1.254a82.689,82.689,0,0,1,.04-18.647c.143-1.512.8-3.4.427-4.956C749.753,817.032,749.32,816.481,749.2,815.956Z" transform="translate(-726.357 -796.924)" fill="#484d6b" opacity="0.4" style="mix-blend-mode:multiply;isolation:isolate"/>
        <path d="M750.76,820.5c-.3-2.7.054-5.908-1.618-8.1-1.09-1.425-.565-1.77-.68-3.469a2.655,2.655,0,0,0-2.161-2.581v.148c.1,1.078,1.062,2.119,1.3,3.294a28.1,28.1,0,0,0,.434,3.58c.417,1.158,1.348,1.449,1.587,2.867a72.665,72.665,0,0,1,.71,8.486,50.822,50.822,0,0,1-.424,9.816,40.785,40.785,0,0,0-.694,5.05c0,1.758,1.146,1.287,2.684,1.411,0-.469-.089-.806-.117-1.278C751.423,833.347,751.47,826.851,750.76,820.5Z" transform="translate(-725.429 -796.473)" fill="#484d6b" opacity="0.4" style="mix-blend-mode:multiply;isolation:isolate"/>
        <path d="M746.467,831.694,737.4,868.42h41.029L768.06,831.694Z" transform="translate(-737.398 -762.398)" fill="#484d6b"/>
        <rect width="21.809" height="19.86" transform="translate(9.069 49.435)" fill="#828faf"/>
        <path d="M766.224,833.318H741.309a1.1,1.1,0,1,0,0,2.2h24.915a1.1,1.1,0,1,0,0-2.2Z" transform="translate(-733.685 -760.215)" fill="#b8c1d8"/>
        <path d="M768.92,835.225h-28.3a1.172,1.172,0,1,0,0,2.333h28.3a1.172,1.172,0,1,0,0-2.333Z" transform="translate(-734.798 -757.651)" fill="#b8c1d8"/>
        <rect width="6.911" height="14.068" transform="translate(16.627 55.228)" fill="#484d6b"/>
        <rect width="3.889" height="12.621" transform="translate(18.137 56.674)" fill="#484d6b" style="mix-blend-mode:multiply;isolation:isolate"/>
        <path d="M765.148,822.34H742.385a2.13,2.13,0,1,0,0,4.255h22.763a2.13,2.13,0,1,0,0-4.255Z" transform="translate(-733.685 -774.973)" fill="#484d6b"/>
        <path d="M761.955,820.542H743.306a2.109,2.109,0,1,0,0,4.215h18.649a2.109,2.109,0,1,0,0-4.215Z" transform="translate(-732.409 -777.39)" fill="#542d4a"/>
        <path d="M771.817,838.931h-31.8a1.629,1.629,0,1,0,0,3.256h31.8a1.629,1.629,0,1,0,0-3.256Z" transform="translate(-736.16 -752.669)" fill="#542d4a"/>
        <path d="M775.51,842.071H739.234a1.759,1.759,0,1,0,0,3.514H775.51a1.759,1.759,0,1,0,0-3.514Z" transform="translate(-737.398 -748.448)" fill="#b8c1d8"/>
        <path d="M776.234,889.039c-10.038-8.908-19.38-18.815-22.756-31.88-2.014-7.8-1.358-15.939-1.172-23.9.18-7.933.293-15.955-.957-23.823a8.154,8.154,0,0,0-1.428,3.9V835.2h-1.627a2.1,2.1,0,1,0,0,4.206h-2.2a2.133,2.133,0,1,0,0,4.262h.37v17.674l-.942,3.807h-.5a1.093,1.093,0,1,0-.035,2.185l-.565,2.281h-1.2a1.172,1.172,0,1,0,0,2.333h.626l-1.573,6.353h-1.022a1.631,1.631,0,1,0,0,3.259h.223l-1.015,4.1h-1.226a1.761,1.761,0,1,0,0,3.519h.354l-2.189,8.883h41.028l-2.518-8.93A1.959,1.959,0,0,0,776.234,889.039Z" transform="translate(-737.398 -792.319)" fill="#b8c1d8" style="mix-blend-mode:multiply;isolation:isolate"/>
      </g>
      <g transform="translate(841 1674.62)">
        <path d="M741.8,785.629h-5.08c-3.491,3.193-8.7,9.762-8.7,14.1v45.813a7.941,7.941,0,0,0,8.029,7.854h7.359a7.942,7.942,0,0,0,8.029-7.854V799.73C751.444,795.391,747.18,788.822,741.8,785.629Z" transform="translate(-708.628 -766.049)" fill="#b8c1d8"/>
        <path d="M736.978,783.641c-3.613,0-6.538,1.756-6.538,3.929s2.926,3.924,6.538,3.924,6.541-1.758,6.541-3.924S740.59,783.641,736.978,783.641Z" transform="translate(-705.385 -768.722)" fill="#b8c1d8"/>
        <path d="M735.149,777.277a51.387,51.387,0,0,0-3.029,7.485c-.856,2.713.917,4.977.134,8.144a7.475,7.475,0,0,0,3.3.054l.335.326c-.117-1.826,1.454-2.241,1.754-3.582.417-1.859-.054-2.051-.76-3.945A36.131,36.131,0,0,1,735.149,777.277Z" transform="translate(-703.447 -777.277)" fill="#542d4a"/>
        <path d="M732.545,796c-1.929,4.4-2.363,9.785-2.6,14.7-.255,5.3,0,10.671,0,15.976,0,3.76-1.775,12.2,2.616,13.215a51.768,51.768,0,0,1-.626-12.613c.244-5.3-.061-10.988.427-16.324.385-4.21.2-10.282,1.833-14.225,1.027-2.495,1.747-3.017,1.772-6.079.016-1.92-.443-6.313,2.007-6.466l-.668-.34C733.855,785.024,733.836,793.055,732.545,796Z" transform="translate(-706.529 -768.452)" fill="#484d6b" opacity="0.4" style="mix-blend-mode:multiply;isolation:isolate"/>
        <path d="M738.04,799.138c-.089-.4-.823-.811-.954-1.46-.124-.621.715-.867.617-1.343-.481-2.293-1.144-3.545-1.6-5.448-.537-2.25.223-4.724-1.678-6.459v-1.02c-2.3,1.606-.729,11.45-.016,13.6,1.463,4.4,1.568,8.941,1.353,13.94-.253,5.884-1.4,11.822-2.265,17.671-.333,2.246-1.564,6.248-.745,8.5.921,2.534,2.881,2.122,5.636,1.986-1.263-9.624-.858-19.667.059-29.5.225-2.389,1.24-5.378.664-7.837C738.891,800.835,738.223,799.965,738.04,799.138Z" transform="translate(-702.647 -769.036)" fill="#484d6b" opacity="0.4" style="mix-blend-mode:multiply;isolation:isolate"/>
        <path d="M740.453,806.319c-.467-4.276.082-9.345-2.511-12.814-1.686-2.255-.875-2.8-1.05-5.488a4.158,4.158,0,0,0-3.348-4.077v.225c.155,1.711,1.646,3.355,2.007,5.211.326,1.662.12,4.105.67,5.664.647,1.829,2.089,2.3,2.457,4.532a117.3,117.3,0,0,1,1.1,13.428,82.311,82.311,0,0,1-.656,15.522,65,65,0,0,0-1.074,7.99c-.009,2.781,1.772,2.033,4.156,2.232-.009-.75-.136-1.278-.178-2.016C741.48,826.642,741.552,816.367,740.453,806.319Z" transform="translate(-701.211 -768.32)" fill="#484d6b" opacity="0.4" style="mix-blend-mode:multiply;isolation:isolate"/>
        <path d="M733.8,824.028l-14.049,58.1h63.553l-16.055-58.1Z" transform="translate(-719.752 -714.428)" fill="#484d6b"/>
        <rect width="33.783" height="31.414" transform="translate(14.049 78.186)" fill="#b8c1d8"/>
        <path d="M764.4,826.6h-38.6a1.735,1.735,0,1,0,0,3.47h38.6a1.735,1.735,0,1,0,0-3.47Z" transform="translate(-713.997 -710.975)" fill="#b8c1d8"/>
        <path d="M768.582,829.613H724.748a1.85,1.85,0,1,0,0,3.688h43.834a1.85,1.85,0,1,0,0-3.688Z" transform="translate(-715.724 -706.92)" fill="#b8c1d8"/>
        <rect width="10.704" height="22.253" transform="translate(25.757 87.347)" fill="#484d6b"/>
        <rect width="6.021" height="19.96" transform="translate(28.096 89.64)" fill="#484d6b" style="mix-blend-mode:multiply;isolation:isolate"/>
        <path d="M762.736,809.232H727.474a3.37,3.37,0,1,0,0,6.738h35.261a3.37,3.37,0,1,0,0-6.738Z" transform="translate(-713.997 -734.319)" fill="#484d6b"/>
        <path d="M757.789,806.392H728.905a3.33,3.33,0,1,0,0,6.658h28.884a3.33,3.33,0,1,0,0-6.658Z" transform="translate(-712.023 -738.137)" fill="#542d4a"/>
        <path d="M773.072,835.474H723.808a2.576,2.576,0,1,0,0,5.15h49.264a2.576,2.576,0,1,0,0-5.15Z" transform="translate(-717.835 -699.041)" fill="#542d4a"/>
        <path d="M778.792,840.441h-56.2a2.782,2.782,0,1,0,0,5.563h56.2a2.782,2.782,0,1,0,0-5.563Z" transform="translate(-719.752 -692.364)" fill="#b8c1d8"/>
        <path d="M779.912,914.728c-15.545-14.085-30.026-29.761-35.249-50.424-3.12-12.343-2.105-25.213-1.819-37.8.284-12.547.457-25.241-1.479-37.68A13.069,13.069,0,0,0,739.151,795v34.579h-2.518a3.33,3.33,0,1,0,0,6.658h-3.4a3.367,3.367,0,1,0,0,6.733h.572V870.92l-1.456,6.02h-.785a1.734,1.734,0,1,0-.054,3.467l-.872,3.6h-1.859a1.853,1.853,0,1,0,0,3.694h.968l-2.433,10.055h-1.585a2.574,2.574,0,1,0,0,5.146h.34l-1.571,6.5h-1.9a2.78,2.78,0,1,0,0,5.559h.556l-3.4,14.054H783.3l-3.9-14.125A3.112,3.112,0,0,0,779.912,914.728Z" transform="translate(-719.752 -761.752)" fill="#b8c1d8" style="mix-blend-mode:multiply;isolation:isolate"/>
      </g>
    </g>
    <g transform="translate(-874.398 5.712)">
      <path d="M797.853,720.858l-2.065,2.018c3.288-6.767-6.908-9.805-11.729-6.626-3.982-7.762-10.265-14.446-20.837-11.06-6.669,2.148-13.227,13.415-10.851,19.56a41.7,41.7,0,0,1-2.8,3.447c-7.487-3.349-21.6,2.857-15.929,12.12-4.655-.474-14.652,4.116-9.65,9.523a14.465,14.465,0,0,0-1.942,1.2c-4.7-.814-7.212,3.139-4.2,6.742-5.552-.988-8.312,2.181-7.415,7.476-12.645-3.418-19.6,16.323-2.242,14.847-2.416-.191-4.489.85-5.158,3.36-1.262,4.76,1.819,3.787,4,6.228,4.868,5.425,10.026,5.389,18.605,5.852,15.111.825,29.76,4.789,44.795,4.753,23.712-.054,59.14-10.464,57.038-39.482C826.242,743.847,816.443,723.683,797.853,720.858Z" transform="translate(66.482)" fill="#839742"/>
      <path d="M797.849,713.154l-2.065,2.015c2.586-5.313-3.147-8.33-8.062-7.842.108,3.99,3.8,10.1,4.785,12.562,1.27,3.168-1.913,6.311-4.977,6.391a17.851,17.851,0,0,0-6.2,1.161c-2.611,1.052-2.051.644-.474,2.336,3.82,4.109-.217,9.031-4.637,8.312a2.794,2.794,0,0,1-.394.127,32.075,32.075,0,0,0-8.713,4.051c-.77,3.751-1.168,7.57-2.134,11.27a5.234,5.234,0,0,1-6.344,3.53c-10.677-2.5-22.4-4.427-32.82-.394-6.742,2.6-14.67,4.5-20.24.68-8.9,1.769-12.117,15.26,1.031,15.111a4.3,4.3,0,0,0-3.573,3.3c-1.262,4.763,1.819,3.787,4,6.228,4.865,5.425,10.022,5.389,18.6,5.852,15.108.821,29.763,4.782,44.795,4.753,23.712-.062,59.143-10.464,57.038-39.482C826.237,736.132,816.443,715.968,797.849,713.154Z" transform="translate(66.482 7.82)" fill="#839742" opacity="0.7" style="mix-blend-mode:multiply;isolation:isolate"/>
      <path d="M860.817,742c.456-4.235-3.906-4.89-6.865-2.738-1.884-7.23-17.889.268-21.987,2.944l-3.436,2.018c3.678-4.26-3.946-4.539-7.386-3.577.51-5.986-2.76-10.3-9.563-9.158,2.463-5.223-6.442-10.315-11.23-8.88-4.047,1.2-8.93,10.37-8.4,14.146-5.085,1.432-7.538-6.384-11.744-2.709-4.622-4.134-12.5-2.022-13.024,4.695a6.19,6.19,0,0,0-5.986,2.593c.669-4.34-1.5-6.626-5.729-7.219-6.058-.861-5.357,3.885-9.534,4.746-4.753.969-2.232-2.156-5.61-4.058-6.21-3.49-8.753.177-13.48,3.6-5.49,3.975-9.386,5.472-15.979,7.017s-15.878,1.881-21.365,5.726c6.919,1.534,14.413-.394,21.553-.705,7.342-.325,14.724.579,22.038,1.215,16.106,1.385,31.612-3.8,47.218-2.6,5.331,11.281,45.815,4.423,55.91,5.241a426.691,426.691,0,0,0,63.122.564c-5.194-5.2-14.656-5.834-21.741-6.015C883.288,742.258,863.728,736.76,860.817,742Z" transform="translate(44.754 47.314)" fill="#b3d105"/>
      <path d="M813.167,730.212v8.3C818,735.847,816.914,731.7,813.167,730.212Z" transform="translate(368.374 67.841)" fill="#9aaf45"/>
      <path d="M824.482,734.76a63.284,63.284,0,0,0,6.731,1.016A15.9,15.9,0,0,0,824.482,734.76Z" transform="translate(397.984 79.66)" fill="#9aaf45"/>
      <path d="M1235.418,758.526c10.706-6.807-10.388-19.235-13.3-10.341.054-7.48,1.088-17.755-10.1-15.918,7.65-5.2-16.417-14.128-16.826-.821-4.988-.329-6.518,6.272-2.886,8.771-3.465-2.586-10.33-1.555-10.771,3.443v6.51c3.747,1.49,4.829,5.635,0,8.3v-8.3a8.269,8.269,0,0,0-3.367-.55c6.543-11.961-14.829-17.466-16-8.08-4.275-.2-9.248-.456-10.25,4.669a3.448,3.448,0,0,0-.054-1.595,6.044,6.044,0,0,0-6.655,1.512c-2.669-4.955-15.112-1.823-18.54.854-3.61-7.668-17.147-4.413-20.685,1.219-.192-6.022-6.131-6.185-10.493-4.112-6.246-6.011-15.383-1.345-20.1,2.872.687-9.248-10.615.221-13.419,1.342-2.506-5.982-16.894-2.188-20.663.676-.611-4.546-7.965-3.125-11.042-.839-1.356-2.507-2.7-1.367-4.916-2.456-2.007-.984-2.683-2.734-4.807-3.892-3.32-1.8-12.431-5.91-11.129,1.779-3.816-1.186-10.688-3.389-12.265,1.892-3.429-3.855-8.908-3.129-13.682-3.248-.246-.687-.268-1.183-.5-1.82a7.331,7.331,0,0,0-6.471,1.65c-2.51-2.029-10.666-5.925-13.914-5.161-3.541.835-4.21,3.809-6.716,6.192-4.868-3.859-22.472-5.3-21.293,4.395-5.194-.785-21.549-6.221-22.189,2.821-9.187.517-15.542-4.022-23.966-2.734-5.686.865-18.565-4.847-17.99,3.414-5.523,1.194-4.5-3.57-8.159-5.3-4.308-2.032-6.5.629-9.1,1.215-10.069,2.25-10.221-7.364-20.887-6.311-6.1.6-9.321,5.823-14.044,6.489-1.638.232-1.819-1.624-3.429-1.548-1.183.072-5.621.771-6.257.691-7.129-.839-11.6-6.608-18.392.763-.094-.394-.181-.781-.253-1.172-5.208-.21-6.727.25-11.766-1.313-3.989-1.222-6.2-2.1-10.757.29.492-6.319-6.951-9.621-12.312-11.14a8.229,8.229,0,0,1-.865,1.754c.5-9.48-30.287-21.622-28.953-3.266-5.158-.221-6.912,5.111-4.112,8.72-2.351,1.678-2.568.492-2.785,4.116-6.022-4.633-18.558-4.47-19.842,4.594-.282,1.964,1.837,4.886,1.573,6.116-.351,1.609-1.617,1.5-2.308,2.958-1.306,2.767-4.206,5.534-5.584,8.478-5.183.021-19.151-3.2-19.795,4.716,16.739,6.655,38.248-.2,55.718,1.6,23.4,2.416,46.817,3.233,70.211-.828,4.329-.752,10.2-2.785,14.518-2.709,5.726.109,5.711,2.373,10.312,4.781,16.2,8.5,37.6,1.928,54.673,1.982,15.542.058,32.292.228,47.812-1.349,4.159-.423,5.693-.467,8.843.192,3.823.8,6.2,2.42,10.395,2.507,2.637.054,4.727-.376,6.981-.177,1.548.126,3.006,1.552,4.76,1.537,3.02-.033,4.612-2.134,6.8-2.235,3.686-.148,6.373,1.812,10.214,2.235,6.177.666,10.934-4.163,16.052-3.62,4.344.474,8.651,4.344,14.16,4.271,5.433-.069,9.874-2.489,15.234-2.7,11.52-.423,21,3.139,32.451-.387,5.071,7.273,25.716,3.667,30.928-3.038,7.263,8.17,38.078,1.978,46.828.868,6.547-.832,14.377,1.15,22.388.387,7.552-.727,13.437,3.4,21.618,1.526,2.807-.64,5.479-2.734,8.243-3.2,2.615-.452,4.228.622,7.458.492,4.767-.174,8.862-1.5,13.788-1.356,6.333.184,19.057,4.134,25.221,1.222,5.454-2.568,4.344-4.948,1.2-6.261a63.284,63.284,0,0,1-6.731-1.016,15.9,15.9,0,0,1,6.731,1.016c5.418.535,11.9.481,13.48-2.293C1245.336,760.562,1239.205,757.824,1235.418,758.526Z" transform="translate(0 47.882)" fill="#b3d105"/>
      <path d="M872,728.925c.629-.022,1.251-.036,1.881-.029l-.423-.408A12.9,12.9,0,0,0,872,728.925Z" transform="translate(522.343 63.327)" fill="#9aaf45"/>
      <path d="M1023.733,761.2c-5.49-1.758-13.773-3.534-19.647-1.884l.423.408c-.629-.007-1.251.007-1.881.029a12.9,12.9,0,0,1,1.457-.437l-1.649-1.613c.112-1.874,1.143-2.893-.785-4.695,10.814-5.313-1.121-17.061-8.7-18.326,16.46-14.164-26.183-29.413-24.294-5.364-8.988.246-5.465,11.4-4.854,16.178-3.327-1.219-7.964-3.6-9.454,1.2-4.583-3.089-13.129-1.342-15.227,4.051-1.769-3.667-7.82-3.045-10.883-.673.463-6.792-9.44-3.7-13.075-1.356.481-7.57-11.722-5.867-16.109-3.321-2.391,1.385-2.814,3.653-4.764,4.944-2.456,1.642-5.6.553-7.881,3.939-.474-2.988-7.812-1.132-9.906,1.823-2-5.979-12.486-8.955-15.882-1.949a1.3,1.3,0,0,0,.047-1.038c-6.308-1.186-16.7,5.6-17.979,11.881-3.4.365-1.483,1.667-3.443,2.846-3.284,1.982-7.9,2.355-11.552,4.3-7.071,3.758-8.243,10.38,1.11,9.751-2.235.394-3.816,1.8-5.349,3.4,8.5,7.039,35.955,3.451,45.963,2.583,26.461-2.286,53.045-3.244,79.7-3.244,19.318,0,38.505,4.55,57.487,2.2,6.529-.807,13.393,2.5,19.961,1.176,4.177-.843,13.856-7.983,7.031-11.972C1047.507,775.087,1027.694,762.464,1023.733,761.2Z" transform="translate(391.718 32.501)" fill="#b3d105"/>
    </g>
  </g>
  <g transform="matrix(1, 0, 0, 1, 30.920366, -300.448151)">
    <g transform="translate(198 425.842)">
      <g transform="translate(69.747 362.527)">
        <g transform="translate(0 2.192)">
          <path d="M-25.03,70.252a10.223,10.223,0,0,1,.441,4.843c-.3,2.1-1.379,4.021-4,6.339-5,4.427-8.56,6.344-7.47,7.718s22.738-8.3,22.023-10.477c-.624-1.881-3.4-3.758-5.36-7.82S-25.03,70.252-25.03,70.252Z" transform="translate(36.251 -68.879)" fill="#b9ceea"/>
          <path d="M-35.3,83.8c1.481.456,5.563-.208,9.767-3.291,6.04-4.437,6.08-8.54,6.08-8.54l1.313-2.277c1.734,2.627,3.605,4.189,4.1,5.695.715,2.175-20.928,11.851-22.023,10.477C-36.5,85.307-36.155,84.653-35.3,83.8Z" transform="translate(36.256 -65.587)" fill="#9cb0d8"/>
        </g>
        <path d="M-27.188,75.45a1.906,1.906,0,0,1-1.43,2.013c-1.369.517-4.184-1.263-5.4-.608a5.832,5.832,0,0,0-.7-2.607l-.791-3.235,5.3-2.566A29.782,29.782,0,0,0-27.188,75.45Z" transform="translate(45.676 -68.447)" fill="#ed9558"/>
      </g>
      <g transform="translate(15.345 369.722)">
        <g transform="translate(0 1.452)">
          <path d="M-5.377,70.155a10.2,10.2,0,0,1-2.794,3.971c-1.587,1.41-3.656,2.175-7.15,2.252-6.679.147-10.634-.695-10.69,1.06S-3.3,85.81-2.44,83.69c.751-1.841-.157-5.066.974-9.432S-5.377,70.155-5.377,70.155Z" transform="translate(26.011 -70.152)" fill="#b9ceea"/>
          <path d="M-25.908,72.468c.025-.72.735-.994,1.993-1.085.4,1.151,3.038,2.911,9.447,3.834C-5.091,76.556-4.26,72.565-4.26,72.565l2.541-1.192c-.451,3.3,0,5.822-.619,7.348C-3.195,80.841-25.959,74.223-25.908,72.468Z" transform="translate(25.908 -65.183)" fill="#9cb0d8"/>
        </g>
        <path d="M-20.179,78.639a1.906,1.906,0,0,1-2.388.614c-1.379-.492-2.373-3.671-3.732-3.96a5.818,5.818,0,0,0,1.151-2.444l1.491-2.982,5.7,1.481A29.731,29.731,0,0,0-20.179,78.639Z" transform="translate(44.13 -69.866)" fill="#ffb476"/>
      </g>
      <path d="M-22.8,86.44l3.834,1.182c3.925-19.828,26.983-63.154,8.251-62.414C-21.367,25.623-23.674,32.464-22.8,86.44Z" transform="translate(28.086 118.013)" fill="#ed9558"/>
      <path d="M-11.233,14.383c-6.131,3.753-7.257,17.632-9.285,35.152C-21.7,59.8-23.262,71.326-24.235,80.661c-.685,6.608,3.342,11.841,7.1,12.728C-1.913,96.99-1.426,72.522.876,53.273,3.584,30.646-1.411,8.364-11.233,14.383Z" transform="translate(29.834 69.928)" fill="#f7e8f0"/>
      <path d="M-6.708,74.587-5.07,87.559c-2.383,3.311-5.69,4.914-10.426,3.793-3.758-.887-7.784-6.121-7.1-12.728.969-9.336,2.53-20.862,3.717-31.126,1.821-15.71,2.941-28.428,7.566-33.611C-24.664,57.508-6.708,74.587-6.708,74.587Z" transform="translate(28.194 71.965)" fill="#efdaea"/>
      <path d="M.628,32.759s-12.561,1.471-21.983-6.283l-1.962,13.347s7.262,7.069,21.2,5.887Z" transform="translate(25.766 123.215)" fill="#fcf0f7"/>
      <path d="M-14.682,37.275c-.289,1.374-4.315,9.62-4.8,11.384-1.085,3.895-.147,8.976.781,8.636,1.08-.39.294-4.711,1.668-7.581.5-1.035,1.988-3.535,3.22-3.3.877.172,1.1,1.75.9,2.733s-.923,3.742-.112,3.925c.771.177,1.481-2.2,2.069-4.544,1-3.991-.183-8.347.106-10.076C-11.6,37.412-13.1,37.29-14.682,37.275Z" transform="translate(19.971 167.178)" fill="#ed9558"/>
      <path d="M-11.6,33.577l1.572,29.676,7.064,3.21-5.5,67.348S5.326,150.038,11.685,164.6C17.06,176.91,29.18,220.262,29.18,220.262l-5.558,2.672C6.259,188.958-25.2,145.4-28.4,133.811c-4.32-15.639-6.755-101.836-6.755-101.836Z" transform="translate(57.225 145.602)" fill="#ed9558"/>
      <path d="M-35.512,50.953l20.71-1.466,2.028,1.349-.953,11.684S.056,78.747,6.415,93.306C11.79,105.618,23.91,148.97,23.91,148.97l-.015.01a23.566,23.566,0,0,0,1.846,3.656c-8.038-5.492-12.789-40.664-21.116-58.1-8.915-18.687-28.555-26.5-28.555-26.5l-8.879-3.154a20.8,20.8,0,0,1-.857-2.363A85.174,85.174,0,0,1-35.512,50.953Z" transform="translate(62.495 216.893)" fill="#d87239"/>
      <path d="M-26,124.81c-1.131-38.7-2.9-92.835-2.9-92.835h26.3l1.567,29.676,7.069,3.21L3.67,124.389C-2.025,125.885-11.852,127.178-26,124.81Z" transform="translate(48.612 145.602)" fill="#4d4d84"/>
      <path d="M-28.688,106.572c-.066-2.211-.132-4.478-.2-6.78,24.1-6.968,20.274-46.952,20.274-46.952l4.539-16.384.365,6.957,7.069,3.21L.977,106.151C-4.718,107.647-14.545,108.94-28.688,106.572Z" transform="translate(51.305 163.84)" fill="#434377"/>
      <path d="M-28.444,58.637l.1-7.439A64.6,64.6,0,0,0,1.181,49.256l1.2,7.546S-10.295,61.284-28.444,58.637Z" transform="translate(50.011 215.953)" fill="#5c5c99"/>
      <path d="M-3.118,56.462s-12.429.411-29.179-5.005C-32.3,51.456-18.626,47.643-3.118,56.462Z" transform="translate(75.051 221.572)" fill="#5c5c99"/>
      <g transform="translate(34.326 176.989)">
        <path d="M-26.334,161.834-15.568,66.3l-7.064-4.173-1.506-28.474,38.91-1.79S16.044,52.934,14.1,64.7C10.73,85.023-2.3,134.283-2.3,134.283c-1.263,12.6-2.495,28.342-4.863,39.544s-21.78,55.446-21.78,55.446l-5.776-1.739c4.336-30.213,6.75-53.215,8.555-66.354C-26.223,161.078-26.278,160.977-26.334,161.834Z" transform="translate(34.722 -31.859)" fill="#ffb476"/>
        <path d="M-11.06,98.129c7.8-36.359-13.58-41.506-13.58-41.506h0l.659-5.867c5.385-.157,15.249-.441,22.424-.609-1.516,5.9-2.52,9.686-2.52,9.686C-5.34,72.429-6.572,88.174-8.94,99.376c-1.993,9.4-15.938,41.968-20.385,52.236l.025.01a29.731,29.731,0,0,0-2.226,7.292C-33.935,145.7-17.931,130.122-11.06,98.129Z" transform="translate(36.496 42.592)" fill="#ed9558"/>
      </g>
      <path d="M-34.018,123.328l5.177-51.9-6.207-1.313L-34,32.212H7.737s1.273,21.075-.68,32.845C4.405,81.1-2.385,114.54-5.925,127.932A59.481,59.481,0,0,0-34.018,123.328Z" transform="translate(77.735 146.567)" fill="#5c5c99"/>
      <path d="M-5.924,122.477a59.48,59.48,0,0,0-28.093-4.6l.837-8.367c36.993.142,40.969-56.435,4.341-43.535l-6.207-1.313.73-26.491,3.976-2.125,38.362-2.49c.213,7.191.284,18.514-.963,26.05C4.405,75.641-2.385,109.085-5.924,122.477Z" transform="translate(77.735 152.022)" fill="#4d4d84"/>
      <path d="M34.47,79.052c.71-22.8,5.2-40.071,2.728-57.916,0,0-14.706-10.309-39.108-9.326A72.725,72.725,0,0,0-33.5,20.76c-4.772,17.414-1.247,33.535.03,57.7.8,15.152,1.79,23.083-.8,55.457,0,0,6.76,13.443,21.151,17.86l4.305-13.925,3.93,14.807a167.724,167.724,0,0,0,33.955-12.241l2.069-12.394,1.927,10.294c.644-.355,1.288-.7,1.922-1.065C34.47,96.78,33.846,98.976,34.47,79.052Z" transform="translate(52.402 63.241)" fill="#f7e8f0"/>
      <path d="M-9.611,97.327l-4.305,13.925c-14.392-4.417-21.151-17.86-21.151-17.86,2.586-32.373,1.6-40.3.8-55.457-.309-5.847-.751-11.2-1.171-16.237a253.289,253.289,0,0,0,70.127,1.364c-.456,4.9-.847,10.015-1.014,15.467-.624,19.924,0,17.728.522,58.2-.634.365-1.278.71-1.922,1.06L30.343,87.494l-2.069,12.4A167.723,167.723,0,0,1-5.681,112.134Z" transform="translate(53.202 103.764)" fill="#efdaea"/>
      <path d="M-27.512,127.864c.177-6.968.254-16.653.335-27.6.137-17.906-.177-38.2.492-52.48.69-14.549,2.541-33.2,2.556-33.393l.938.1c-.015.183-1.861,18.819-2.551,33.342-.669,14.26-.355,34.544-.492,52.444-.086,11.826-.167,22.236-.375,29.285l-.659-2.48Z" transform="translate(70.859 74.013)" fill="#dbb9d1"/>
      <path d="M-14.27.1C.436,4.615-14.8,44.574-25.426,43.459-36.167,42.333-39.666-6.8-14.27.1Z" transform="translate(86.497 13.124)" fill="#822d0f"/>
      <path d="M4.189,27.111a2.372,2.372,0,0,1,2.373,2.368V49.312A2.372,2.372,0,0,1,4.189,51.68H-28.732A2.368,2.368,0,0,1-31.1,49.312V29.479a2.368,2.368,0,0,1,2.368-2.368Z" transform="translate(59.3 125.8)" fill="#cca2c1"/>
      <path d="M-6,4.741S-11.15,28.96-6.226,41.719c-7.439,2.88-21.927,6.856-24.483-.041,0,0,1.126-3.986.177-14.8Z" transform="translate(69.883 34.732)" fill="#ed9558"/>
      <path d="M-31.552,13.672s1.024,8.864,13.393,9S1.425,12.82,1.425,12.82A88.427,88.427,0,0,0-31.552,13.672Z" transform="translate(66.73 62.997)" fill="#ed9558"/>
      <path d="M-25.617,12.767l2.714,5.869,2.126-5.954,2.667,6.056L-22.883,23.3l-5.47-4.962Z" transform="translate(70.041 67.059)" fill="#dbb9d1"/>
      <path d="M-31.552,26.242-7.906,4.9l.72.01c-.786,4.062-4.173,23.251-.487,34.858,3.1.314,4.924.68,4.924.68a26.468,26.468,0,0,1-4.833,4.716A62.552,62.552,0,0,1-31.2,35.6,82.336,82.336,0,0,0-31.552,26.242Z" transform="translate(70.903 35.371)" fill="#d87239"/>
      <path d="M-27.37,34.265c.117-13.889-6.694-14.635-5.152-22.1,3.631-17.566,50.913-22.409,51.359-1.04C19.1,23.585-27.37,34.265-27.37,34.265Z" transform="translate(55.387 3.043)" fill="#822d0f"/>
      <path d="M3.239,31.636C1.662,43.979.871,43.679-9.935,51.631c-2.317,1.7-9.315,1.653-11.151.538s-1.891-2.972-4.285-7.216c-2.708-4.8-4.062-9.716-4.194-12.429-.177-3.626.238-6.07.183-8.641-.112-4.949-1-9.376-.73-15.025C-29.849,3.284-23.145-.23-14.743,0,4.492.54,4.309,8.588,3.239,31.636Z" transform="translate(57.486 15.398)" fill="#ffb476"/>
      <path d="M-20.644,48.137C-5.756,38.852-7.09,5.622-13.013.789c12.044,2.373,9.7,13.758,7.647,30.193C-6.628,39.932-8.028,42.412-19,49.248c-2.348,1.466-9.062.9-10.74-.314a3.122,3.122,0,0,1-.644-.649C-27.886,49.146-22.663,49.395-20.644,48.137Z" transform="translate(65.944 18.643)" fill="#ed9558"/>
      <path d="M-23.3,3.648A9.162,9.162,0,0,1-21.054,6.99c2.632,8.18-4.691,8.818-4.275,10.8.614,2.9,6.329,1.952,6.329,1.952-.644,1.957-6.9,1.379-7.449-1.557-.644-3.464,6.7-3.139,4.726-10.882A23.253,23.253,0,0,0-23.3,3.648Z" transform="translate(61.485 30.282)" fill="#ed9558"/>
      <path d="M3.408,7.319s4.239,8.58-4.686,4.741c0,0-2.982-8.291-17.054-8.18-10.923.091-12.059,7.642-12.059,7.642S-26.136-13.2,3.408,7.319Z" transform="translate(57.85 12.067)" fill="#822d0f"/>
      <g transform="translate(32.771 54.328)">
        <path d="M-27.658,8.323c.071.177.609.1.781.02a.365.365,0,0,0,.177-.461.326.326,0,0,0-.436-.183C-27.3,7.78-27.729,8.145-27.658,8.323Z" transform="translate(42.351 -7.67)" fill="#562824"/>
        <path d="M-23.86,8.471c-.106.162-.614-.025-.761-.137a.361.361,0,0,1-.071-.487.321.321,0,0,1,.461-.086C-24.084,7.872-23.749,8.314-23.86,8.471Z" transform="translate(24.755 -7.56)" fill="#562824"/>
        <path d="M-13.013,7.761l-14.539.284s2.378,4.554,7.028,4.564S-13.013,7.761-13.013,7.761Z" transform="translate(28.112 -7.301)" fill="#9a6335"/>
        <path d="M-13.013,7.761l-14.539.284s2.378,4.554,7.028,4.564S-13.013,7.761-13.013,7.761Z" transform="translate(28.112 -7.301)" fill="#562824"/>
        <path d="M-15.566,7.848l-11.775.213s2.277,3.94,6.171,3.545A7.5,7.5,0,0,0-15.566,7.848Z" transform="translate(29.595 -6.947)" fill="#f7eee2"/>
        <path d="M-15.566,7.848l-11.775.213.664.923s1.268-.786,5.132-.776a20.9,20.9,0,0,1,5.421.487S-15.723,8.1-15.566,7.848Z" transform="translate(29.595 -6.947)" fill="#d5b698"/>
      </g>
      <path d="M-19.522,19.953l-2.033,3.377-3.022.264S-22.59,7.7-30.6.967C-30.6.967-16.637-3.5-19.522,19.953Z" transform="translate(82.469 17.984)" fill="#822d0f"/>
      <g transform="translate(59.761 37.702)">
        <path d="M-31.865,9.875a4.944,4.944,0,0,0,5.4,4.549,5.109,5.109,0,0,0,4.63-5.461A4.952,4.952,0,0,0-27.24,4.413,5.1,5.1,0,0,0-31.865,9.875Z" transform="translate(31.881 -4.392)" fill="#ed9558"/>
        <path d="M-30.761,9.977A2.4,2.4,0,0,0-28.718,7.3a2.326,2.326,0,0,0-2.561-2,2.775,2.775,0,0,1,1.09-.406A2.746,2.746,0,0,1-27.06,7.259a2.837,2.837,0,0,1-2.409,3.164,2.757,2.757,0,0,1-1.968-.482A2.3,2.3,0,0,0-30.761,9.977Z" transform="translate(34.839 -2.456)" fill="#d1652f"/>
      </g>
      <path d="M-16.429,8.494c-.532.908-2.911-1.055-6.5-2.1s-6.455-.548-6.222-2.074c.269-1.79,3.636-2.191,7.216-1.126C-17.3,4.569-15.815,7.444-16.429,8.494Z" transform="translate(72.321 26.06)" fill="#822d0f"/>
      <path d="M-25.046,8.058c.522.877,1.871-.294,4.422-1.364s4.965-1.166,4.584-2.652c-.441-1.739-2.865-1.694-5.411-.6C-24.747,4.843-25.65,7.043-25.046,8.058Z" transform="translate(52.049 26.294)" fill="#822d0f"/>
      <path d="M-32.5,8.908C-35.852,2.975-22.069-2.517-19.909,1.565-17.465,6.179-29.017,15.054-32.5,8.908Z" transform="translate(95.168 16.057)" fill="#933914"/>
      <g transform="translate(28.581 36.117)">
        <g transform="translate(16.414)">
          <path d="M-28.158,7.754c-1.968-2.211.69-3.763,3.144-3.671,2.85.106,5.248,2.018,5.588,3.083l-.5.3S-27.772,8.267-28.158,7.754Z" transform="translate(28.842 -4.079)" fill="#562824"/>
          <path d="M-28.705,7.1c-.254-.8.629-2.7,3.114-2.819,2.541-.117,5.091,1.836,5.071,2.591C-20.536,7.575-26.474,11.176-28.705,7.1Z" transform="translate(29.455 -3.286)" fill="#f7eee2"/>
          <path d="M-22.637,6.8A2.707,2.707,0,0,0-24.178,4.41a4.065,4.065,0,0,0-1.3-.248,3.282,3.282,0,0,0-1.5.451,3.115,3.115,0,0,0-.33.248,2.973,2.973,0,0,0-.319.3,2.914,2.914,0,0,0-.72,1.947,2.714,2.714,0,0,0,.776,1.841,4.076,4.076,0,0,0,3.433.436A2.95,2.95,0,0,0-22.637,6.8Z" transform="translate(29.518 -3.752)" fill="#562824"/>
        </g>
        <g transform="translate(0 0.325)">
          <path d="M-24.751,7.61c-1.856-2.084.634-3.55,2.951-3.464a5.4,5.4,0,0,1,4.772,2.941l-.467.284S-24.386,8.1-24.751,7.61Z" transform="translate(25.399 -4.143)" fill="#562824"/>
          <path d="M-25.268,7.049c-.243-.756.593-2.53,2.936-2.723s4.29,1.826,4.27,2.536C-18.078,7.526-23.164,10.9-25.268,7.049Z" transform="translate(25.977 -3.45)" fill="#f7eee2"/>
          <path d="M-19.657,6.643a2.613,2.613,0,0,0-.73-1.734,3.606,3.606,0,0,0-2.221-.685,3.034,3.034,0,0,0-1.2.4,2.768,2.768,0,0,0-1.242,2.317,2.561,2.561,0,0,0,1.531,2.292,3.975,3.975,0,0,0,2.368-.086A2.811,2.811,0,0,0-19.657,6.643Z" transform="translate(26.248 -3.85)" fill="#562824"/>
        </g>
      </g>
      <path d="M-.762,7.735c.005-12.49-29.706-12.672-31.3-6.592C-34.915,12.009-.762,14.383-.762,7.735Z" transform="translate(72.375 4.188)" fill="#933914"/>
      <path d="M-1.7,54.805l-1.765,7.216a64.851,64.851,0,0,0-29.179-5.005l.522-7.627S-18.776,47.99-1.7,54.805Z" transform="translate(75.399 216.012)" fill="#7f7fbf"/>
      <path d="M-31.617,22.465-26.038,35.1l13.644-16.736-5.683-7.433Z" transform="translate(80.881 59.925)" fill="#dbb9d1"/>
      <path d="M-17.412,20.2l-5.323,12.824-4.141-15.991,4.229-5.527Z" transform="translate(61.854 62.273)" fill="#dbb9d1"/>
      <g transform="translate(27.773 74.909)">
        <rect width="10.599" height="4.318" transform="translate(15.927 74.096)" fill="#2c2c35"/>
        <rect width="33.023" height="22.376" rx="0.467" transform="translate(5.08 77.531)" fill="#2c2c35"/>
        <rect width="31.576" height="22.376" rx="0.45" transform="translate(1.369 77.531)" fill="#3a3947"/>
        <g transform="translate(4.059 75.47)">
          <rect width="3.239" height="2.061" transform="translate(26.792)" fill="#3a3947"/>
          <rect width="3.239" height="2.061" transform="translate(0)" fill="#3a3947"/>
        </g>
        <path d="M-29.265,48.583c.02-.167,2.343-16.562,3.245-26.952l-1.516-.137c-.9,10.355-3.215,26.709-3.235,26.876Z" transform="translate(62.441 28.024)" fill="#3a3947"/>
        <path d="M-29.054,11.729c1.08,22.672-3.362,49.493-2.693,51.826a3.5,3.5,0,0,0,2.556,2.632A2.966,2.966,0,0,0-25.946,64.6c.9-1.658,5.527-43.251,1.947-51.7Z" transform="translate(64.38 -11.729)" fill="#3a3947"/>
        <path d="M-22.958,46.89l1.511-.177c-.015-.132-1.587-13.519-1.881-24.807l-1.521.041C-24.55,33.3-22.973,46.758-22.958,46.89Z" transform="translate(27.837 29.698)" fill="#3a3947"/>
        <path d="M-14.672,12.272c-6.6,19.63-4.949,46.81-4.757,49.351a2.821,2.821,0,0,1-2.246,3.266c-1.445.37-2.819-.588-3.377-2.292-1.111-3.408-1.871-35.8,4.975-49.255C-20.078,13.342-16.914,11.486-14.672,12.272Z" transform="translate(25.779 -10.309)" fill="#3a3947"/>
        <rect width="10.599" height="4.318" transform="translate(12.492 74.096)" fill="#3a3947"/>
        <path d="M-28.347,37.1h15.362l4.671-7.057H-23.675Z" transform="translate(32.44 62.811)" fill="#2c2c35"/>
        <path d="M-26.646,29.8c.086-.086.208-.112.3-.193l-.106-1.648h4.584a.678.678,0,0,1,.1,0h.03v.005a7.454,7.454,0,0,1,4.914,2.2,6.965,6.965,0,0,1,.365,9.828,6.231,6.231,0,0,1-3.7,1.668l.02.183h-5.431l-.117-1.805a6.939,6.939,0,0,1-.6-.411A6.965,6.965,0,0,1-26.646,29.8Z" transform="translate(39.523 54.338)" fill="#2c2c35"/>
        <path d="M-14.936,29.534a6.481,6.481,0,0,1-1.821,4.042,7.424,7.424,0,0,1-3.676,1.851h-5.431l-.117-1.805a6.936,6.936,0,0,1-.6-.411A7.381,7.381,0,0,1-28.5,29.534Z" transform="translate(39.821 60.755)" fill="#24242d"/>
        <path d="M-25.7,29.853a7.56,7.56,0,0,0,.4,10.669,7.554,7.554,0,0,0,10.664.39,7.559,7.559,0,0,0-.4-10.664A7.559,7.559,0,0,0-25.7,29.853Z" transform="translate(33.58 53.849)" fill="#353542"/>
        <path d="M-25.789,29.77a6.329,6.329,0,0,0,.335,8.94,6.333,6.333,0,0,0,8.94.33,6.333,6.333,0,0,0-.335-8.94A6.333,6.333,0,0,0-25.789,29.77Z" transform="translate(34.558 54.83)" fill="#24242d"/>
        <path d="M-24.473,27.863a2.136,2.136,0,0,0,.117,3.017,2.132,2.132,0,0,0,3.017.112,2.141,2.141,0,0,0-.112-3.017A2.147,2.147,0,0,0-24.473,27.863Z" transform="translate(28.141 51.635)" fill="#2c2c35"/>
        <path d="M-25.341,27.554a.978.978,0,0,0,.051,1.379.98.98,0,0,0,1.384.051.978.978,0,0,0-.051-1.379A.984.984,0,0,0-25.341,27.554Z" transform="translate(33.851 51.635)" fill="#2c2c35"/>
        <path d="M-19.868,29.971a5.967,5.967,0,0,1,1.5,6.2,5.755,5.755,0,0,1-7.165-.9,5.969,5.969,0,0,1-1.5-6.2A5.755,5.755,0,0,1-19.868,29.971Z" transform="translate(37.172 55.364)" fill="#24242d" style="mix-blend-mode:screen;isolation:isolate"/>
        <path d="M-22.031,40.895a7.559,7.559,0,0,0-.4-10.664,8.105,8.105,0,0,0-5.294-2.388,8.049,8.049,0,0,1,5.685,2.388,7.559,7.559,0,0,1,.4,10.664,6.975,6.975,0,0,1-5.37,2A6.952,6.952,0,0,0-22.031,40.895Z" transform="translate(40.577 53.867)" fill="#504f63"/>
        <rect width="7.23" height="2.456" transform="translate(14.177 75.027)" fill="#24242d" style="mix-blend-mode:screen;isolation:isolate"/>
        <rect width="4.637" height="22.376" rx="0.45" transform="translate(28.383 77.531)" fill="#24242d" opacity="0.3" style="mix-blend-mode:screen;isolation:isolate"/>
        <path d="M-27.835,47.023V29.386A2.368,2.368,0,0,0-30.2,27.018h.588a2.368,2.368,0,0,1,2.368,2.368V47.023A2.372,2.372,0,0,1-29.615,49.4H-30.2A2.372,2.372,0,0,0-27.835,47.023Z" transform="translate(60.788 50.513)" fill="#504f63"/>
        <path d="M-27.216,27.018h.076a2.15,2.15,0,0,1,.7.142,2.254,2.254,0,0,0-1.582,2.14V47.114a2.259,2.259,0,0,0,1.582,2.14,2.292,2.292,0,0,1-.7.142h-.076A2.285,2.285,0,0,1-29.5,47.114V29.3A2.282,2.282,0,0,1-27.216,27.018Z" transform="translate(56.406 50.513)" fill="#2c2c35"/>
        <path d="M-25.789,29.77a6.333,6.333,0,0,1,8.94.33,6.333,6.333,0,0,1,.335,8.94,6.333,6.333,0,0,1-8.94-.33A6.329,6.329,0,0,1-25.789,29.77Zm.619,8.651a5.919,5.919,0,0,0,8.347.309,5.909,5.909,0,0,0-.314-8.342,5.913,5.913,0,0,0-8.342-.309A5.913,5.913,0,0,0-25.17,38.421Z" transform="translate(34.558 54.83)" fill="#24242d" opacity="0.2" style="mix-blend-mode:multiply;isolation:isolate"/>
        <path d="M-25.439,25.921a2.966,2.966,0,0,1-3.245,1.587,3.5,3.5,0,0,1-2.556-2.632,16.327,16.327,0,0,1,.091-3.646l6.42.776A25.245,25.245,0,0,1-25.439,25.921Z" transform="translate(63.874 26.95)" fill="#2c2c35"/>
        <path d="M-18.926,21.169c.071,1.77.147,3,.183,3.443a2.821,2.821,0,0,1-2.246,3.266c-1.445.37-2.819-.588-3.377-2.292a21.277,21.277,0,0,1-.477-3.844Z" transform="translate(25.094 26.701)" fill="#2c2c35"/>
      </g>
      <path d="M-31.617,21.943l5.579,12.632L-12.394,17.84l-5.683-7.433Z" transform="translate(80.881 57.798)" fill="#fcf0f7"/>
      <path d="M-17.412,19.679-22.734,32.5l-4.141-15.991,4.229-5.528Z" transform="translate(61.854 60.146)" fill="#fcf0f7"/>
      <path d="M-25.054,87.49l-4.539.832c-1.673-20.142-19.133-65.872-.6-63.038C-19.659,26.9-18.127,33.951-25.054,87.49Z" transform="translate(124.978 117.85)" fill="#ffb476"/>
      <path d="M-30.807,71.8c-1.247-10.431-5.791-26.263-7.84-39.224l16.785-3.829c-.02,2.388-.127,5.1-.325,8.159,0,0-10.923,1.633-8.281,35.72Z" transform="translate(125.995 132.452)" fill="#ed9558"/>
      <path d="M-27.426,14.1C-16.842,19.773-11.264,68.789-10.5,83.642c.259,5.015-3.428,6.8-6.511,7.718-5.624,1.673-11.258-.593-13.24-5.588-2.7-6.826-4.919-21.506-7.044-33.433C-41.295,29.91-37.578,8.657-27.426,14.1Z" transform="translate(115.778 69.32)" fill="#f7e8f0"/>
      <g transform="translate(90.853 203.683)">
        <path d="M-32.275,37.4a11.686,11.686,0,0,0-2.15,3.646c-.654,1.77-1.09,4.189-1.815,6.455a9.181,9.181,0,0,0-.69,2.429c.188.274,1.481.051,2.267-1.912a26.645,26.645,0,0,1,2.14-4.026Z" transform="translate(36.95 -36.013)" fill="#ffb476"/>
        <path d="M-32.244,37.878A38.4,38.4,0,0,1-30.064,49.09c.015,5.319-.928,6.805-1.491,6.77s-.279-1-.177-2.794c.081-1.481.33-3,.071-2.972s-.6,3.073-.629,3.6-.345,4.163-1.247,4.219c-.862.046-.614-2.551-.472-3.96,0,0,.177-3.5-.086-3.453s-.243,3.195-.259,3.722-.025,4.412-.857,4.539-1.075-.751-.974-4.077c0,0,.238-4.021-.025-3.95-.74.071.177,6.876-1.111,7.11-.654.117-.74-1.42-.751-3.433-.01-2.064.177-5.527-.041-7.287-.7-5.7,1.435-8.6,1.435-8.6S-34.324,35.865-32.244,37.878Z" transform="translate(41.352 -37.123)" fill="#ffb476"/>
      </g>
      <path d="M-38.875,76.741S-9.29,71.817-31.643,13.85c9,11.146,13.788,53.636,14.488,67.3.259,5.015-3.428,6.8-6.511,7.718-5.624,1.673-11.258-.593-13.24-5.588a52.388,52.388,0,0,1-1.968-6.537Z" transform="translate(122.43 71.815)" fill="#efdaea"/>
      <path d="M-16.976,26.716a28.032,28.032,0,0,1-22.373,3.261l1.755,14.138s9.777,3.337,22.328-2.83Z" transform="translate(122.96 124.192)" fill="#fcf0f7"/>
      <path d="M-20.236,62.541c-.2-13.646-.172-24.153.172-32.2C-6.509,34.458-20.216,62.505-20.236,62.541Z" transform="translate(25.479 138.966)" fill="#ffb476"/>
    </g>
    <g transform="translate(267.38 434.556)">
      <path d="M-45.437,1.973s8.484-2.566,11.5,7.094c4.894,15.664-14.361,26.106-12.4,40.791,0,0-7.759-2.388-9.468-20.887S-45.437,1.973-45.437,1.973Z" transform="translate(121.001 13.492)" fill="#aa4805"/>
      <path d="M-8.562,103.666C5.454,95.324,1.763,63.214-.747,48.148c-2.693-16.141-10.482-32.541-29.4-34.5-29.853-3.1-28.246,31.8-25.37,54.742S-31.9,117.55-8.562,103.666Z" transform="translate(91.317 61.481)" fill="#4d4d84"/>
      <path d="M-54.176,64.853A161.878,161.878,0,0,1-55.6,43.793c15.127,2.581,33.215-1.537,39.371-29.473a28.465,28.465,0,0,1,5.9,4.944c.005,4.8,1.151,13.469-1.724,21.552-4.939,13.9-9.037,19.838-9.432,25.725C-21.823,71.648-8.426,85.568-3.948,97.4-27.878,113.326-51.24,88.281-54.176,64.853Z" transform="translate(89.979 65.015)" fill="#434375"/>
      <path d="M-1.429,36.186c-1.136,8.377-3.879,15.588-9.513,18.94-21.476,12.779-40.715-8.413-45.893-29.752C-43.062,54.9-12.205,54.711-1.429,36.186Z" transform="translate(93.698 110.02)" fill="#434375"/>
      <path d="M-36.839,23.992C-38.3,40.5-43.051,55.234-43.355,87.035l3.834,1.176s11.694-32.13,14.792-62.673Z" transform="translate(48.641 104.39)" fill="#ed9558"/>
      <path d="M-55.158,38.33s8.717,73.195,13.063,80.259,34.747,59.838,46.146,85.157l3.57-1.531s-9.817-51-14.219-59.838-19.7-26.151-19.7-26.151l3.357-69.8Z" transform="translate(76.143 162.76)" fill="#ed9558"/>
      <path d="M-30.751,105.754c0-49.452-23.225-52.094-23.24-52.094-.416-3.063-.8-6-1.166-8.768,10.188-1.126,27.85-3.129,28.266-3.55a8.007,8.007,0,0,1,1.156,1.866l-2.926,60.771s15.3,17.318,19.7,26.151S5.258,189.968,5.258,189.968C-.28,182.747-6.9,137.5-10.873,130.505S-30.751,105.754-30.751,105.754Z" transform="translate(78.507 175.007)" fill="#d87239"/>
      <path d="M-17.57,82.05l-27.5-.233s-6.856-32.312-2.191-48.8l32.5-1.176Z" transform="translate(66.695 136.327)" fill="#2c79bf"/>
      <path d="M-27.493,45.979l8.884-11.065s.1,1.207.254,3.149L-20.12,69.524l-27.5-.233s-.461-2.175-1.06-5.654C-29.207,62.886-27.493,45.979-27.493,45.979Z" transform="translate(69.245 148.853)" fill="#246eb2"/>
      <path d="M-11.122,40.376l-.259,10.659A123.707,123.707,0,0,1-48.754,52.46l-1.471-11.045S-34.4,43.718-11.122,40.376Z" transform="translate(69.872 171.089)" fill="#428ad1"/>
      <path d="M-19.323,49.831s-15.213.629-34.468-7.617C-53.791,42.215-35.459,40.8-19.323,49.831Z" transform="translate(96.156 178.246)" fill="#428ad1"/>
      <path d="M-22.895,52.745s-8.7,53.469-11.9,74.666-19.985,85.5-19.985,85.5l3.6,1.43s24.371-42.414,27.17-51.836,2.8-32.15,2.8-32.15S7.8,68.917,11.877,36.163Z" transform="translate(69.975 153.938)" fill="#ffb476"/>
      <path d="M-53.547,196.357c2.13-10.051,21.207-42.307,24.635-52.591,3.529-10.6,2.748-31.4,2.748-31.4C-1.432,60.936-28.009,52.1-28.009,52.1c.74-4.579,1.379-8.545,1.866-11.526L3.309,44.694c-9.8,31.608-26.826,67.7-26.826,67.7s-.005,22.728-2.8,32.15-27.17,51.836-27.17,51.836Z" transform="translate(72.286 171.903)" fill="#ed9558"/>
      <path d="M-13.641,33.722c5.167,20.314-5.289,50.888-5.289,50.888l-33.139-6.831L-50.5,60.73l-4.133-1.516-.609-27.551Z" transform="translate(96.382 135.618)" fill="#428ad1"/>
      <path d="M-55.047,35.923c.157-.745.3-1.506.5-2.2l21.729-.786-.025-1.273,41.6,2.059c.188.735.314,1.511.461,2.267C-12.506,40.213-32.958,39.777-55.047,35.923Z" transform="translate(73.989 135.618)" fill="#2c79bf"/>
      <path d="M-55.238,75.983l.355-3.895c43.961,2.028,33.94-39.868,33.94-39.868l4.168-.117c5.066,20.314-5.325,50.71-5.325,50.71Z" transform="translate(99.55 137.414)" fill="#2c79bf"/>
      <path d="M-29.164,13.548c-6.866,2.16-10.827,17.9-12.561,33.565-2.145,19.4-5.3,29.442.487,30.974,9.9,2.622,8.235-9.721,13.149-32.49S-29.164,13.548-29.164,13.548Z" transform="translate(56.047 61.872)" fill="#ed9558"/>
      <path d="M-57.385,14.97c4.691-4.442,13,10.634,22.683,27.3,9.021,15.527,15.076,29.138,12.515,32.779-4.539,4.341-15.036-8.337-24.7-23.332C-56.68,36.532-63.678,20.933-57.385,14.97Z" transform="translate(128.817 64.456)" fill="#ed9558"/>
      <path d="M2.926,21.417C-23.585,5.3-46.75,16.681-46.75,16.681s-9.594,22.967-8.027,29.64S-44,63.79-44,71.25s-5.411,20.9-10.193,39.351c21.871,4.087,41.8,4.584,63.271,0C7.424,98.73-9.61,78.7-9.219,72.817s4-12.191,8.945-26.09C4.123,34.358,2.926,21.417,2.926,21.417Z" transform="translate(73.633 58.739)" fill="#ffc440"/>
      <path d="M-44.037,66.611c0-7.459-9.346-18.256-10.913-24.929,15.766,6.7,45.178,11.111,52.576-27.764,1.739.847,3.494,1.78,5.264,2.86,0,0,1.2,12.941-3.2,25.309-4.944,13.9-8.55,20.2-8.945,26.09s16.643,25.908,18.3,37.784c-21.471,4.584-41.4,4.087-63.271,0C-49.448,87.514-44.037,74.065-44.037,66.611Z" transform="translate(73.669 63.378)" fill="#ffaf2e"/>
      <path d="M-36.036,17.339s-14.675,12.094-9.478,43.6c0,0-1.765,4.711-3.139,7.85,0,0-15.249-33.758,6.592-55.015A19.929,19.929,0,0,1-36.036,17.339Z" transform="translate(113.066 62.772)" fill="#5c5c99"/>
      <path d="M-45.558,60.934s-1.765,4.711-3.139,7.85c0,0-6.273-14-4.949-29.635,5.233-5.1,9.417-13.139,11.542-25.38a19.929,19.929,0,0,1,6.024,3.57S-50.756,29.433-45.558,60.934Z" transform="translate(113.111 62.772)" fill="#4d4d84"/>
      <path d="M-22.124,59.475C-13.072,48.5-51.084,26.26-57.474,18.623c-1.871-1.775-2.388,3.519-2.388,3.519s9.8,19.244,21.6,31.542C-32.266,59.932-23.818,61.534-22.124,59.475Z" transform="translate(128.358 81.051)" fill="#ed9558"/>
      <path d="M-33.345,24.606s-7.155-6.293-8.895-6.841a23.943,23.943,0,0,0-5.882-.974c-1.232.041-4.265.142-4.478.847-.238.8,1.866.9,4.239,1.166,0,0,4.757.634,4.726,1.04s-5.634-.538-5.69,1.1c-.046,1.324,5.122.908,5.081,1.384s-4.67-.664-4.787.837c-.086,1.09,4.341,1.389,4.341,1.389s-2.1-.269-2.191.857c-.066.816,2.449,1.08,2.449,1.08s5.928,2.429,9.447,2.343Z" transform="translate(104.229 75.069)" fill="#ed9558"/>
      <path d="M-14.415,16.745S-21.215,34.8-41.342,32.9c-17.226-1.618-8.134-18.19-8.134-18.19S-35.161,9.2-14.415,16.745Z" transform="translate(81.527 58.71)" fill="#ed9558"/>
      <path d="M-32.969,13.214a9.247,9.247,0,0,0-6.6,3.91C-43.572,24.7-44.754,38.2-44.754,38.2S-39.84,20.8-32.969,13.214Z" transform="translate(63.975 60.512)" fill="#5c5c99"/>
      <path d="M-45,4.695l5.208.986,1.163-2.938Z" transform="translate(70.887 17.885)" fill="#75210e"/>
      <path d="M-45.323,7.791a16.236,16.236,0,0,1,1.3-5.842,30.639,30.639,0,0,0-.1,5.877Z" transform="translate(77.911 14.652)" fill="#ed9558"/>
      <path d="M-54.179,31.869s4.919-15.462,3.8-22.13C-48.215-4.982-11.415-7.087-4.711,16.255c7.13,24.833-17.023,39.366-21.324,39.381S-54.179,31.869-54.179,31.869Z" transform="translate(82.203 1.325)" fill="#ba5604"/>
      <path d="M-28.423,7.232s-5.822,18.438-2.186,31.374l-13.185,1.973-6.937-1.344A54,54,0,0,0-47.7,20.427C-47.814,12.511-28.423,7.232-28.423,7.232Z" transform="translate(89.733 36.159)" fill="#ed9558"/>
      <path d="M-50.282,18.123c-.051-3.895,4.61-7.14,9.361-9.442L-31.8,7.8c-1.364,5.345-3.818,17.176-1.8,26.745A68.265,68.265,0,0,1-25.2,36.992a28.742,28.742,0,0,1-6.542,9.371A47.665,47.665,0,0,1-51.874,32.032,55.567,55.567,0,0,0-50.282,18.123Z" transform="translate(92.312 38.464)" fill="#d87239"/>
      <path d="M-40.7,54.2c-1.927-.406-4.447-4.209-6.131-6.222-3.575-4.275-6.749-9.366-3-19.478,0,0-4.863-27.383,17.434-27.627S-9.109,22.667-15.9,38.524-38.865,54.589-40.7,54.2Z" transform="translate(77.478 10.278)" fill="#ffb476"/>
      <path d="M-50.67,8.17s2.241-3.443,14.1-2.394,17.982,6.045,17.982,6.045l1.308-3.372s-13.048-4.954-19.067-5.38S-49.975,4.894-49.975,4.894-50.513,7-50.67,8.17Z" transform="translate(78.283 18.989)" fill="#ed9558"/>
      <path d="M-37.406.98c15.142,4.173,11.8,51.151-14.1,52.7.076.025.157.076.228.091,1.831.385,18,.177,24.792-15.68C-20.317,23.7-20.616,4.266-37.406.98Z" transform="translate(88.062 10.707)" fill="#ed9558"/>
      <path d="M-43.349,4.574s3.9,4.244,2.606,9.483a8.375,8.375,0,0,1-5.933,6.232s.781,3.864,4.27,4.077-2.444-3.707-2.444-3.707,4.97-2.6,5.756-6.41C-37.978,8.839-43.349,4.574-43.349,4.574Z" transform="translate(79.689 25.339)" fill="#ed9558"/>
      <path d="M-50.055,5.341c-.137.578,1.866.532,5.5,1.526,3.311.908,5.68,2.3,5.852,1.729s-1.44-2.566-5.309-3.682C-47.758,3.835-49.786,4.22-50.055,5.341Z" transform="translate(96.613 24.121)" fill="#ba5604"/>
      <path d="M-45.7,7.511c.152.68.593-.264,3.7-1.06,2.5-.639,5.243-.69,5.223-1.166-.061-1.435-3.088-1.318-5.365-.548C-45.256,5.791-45.8,7.059-45.7,7.511Z" transform="translate(72.62 23.716)" fill="#ba5604"/>
      <g transform="translate(31.111 51.632)">
        <path d="M-47.819,9.645c.051.167.588.142.766.086a.334.334,0,0,0,.213-.416.317.317,0,0,0-.411-.2C-47.424,9.168-47.875,9.472-47.819,9.645Z" transform="translate(62.288 -7.895)" fill="#93271c"/>
        <path d="M-44.1,9.628c-.122.137-.6-.081-.74-.2a.317.317,0,0,1-.03-.456.329.329,0,0,1,.461-.041C-44.267,9.05-43.978,9.491-44.1,9.628Z" transform="translate(44.948 -8.857)" fill="#93271c"/>
        <path d="M-33.359,9.991-47.71,8.972s1.952,4.432,6.531,4.853S-33.359,9.991-33.359,9.991Z" transform="translate(48.244 -8.389)" fill="#9a6335"/>
        <path d="M-33.359,9.991-47.71,8.972s1.952,4.432,6.531,4.853S-33.359,9.991-33.359,9.991Z" transform="translate(48.244 -8.389)" fill="#93271c"/>
        <path d="M-35.876,9.916l-11.618-.847s1.907,3.859,5.776,3.834A7.393,7.393,0,0,0-35.876,9.916Z" transform="translate(49.666 -7.994)" fill="#f4e6e1"/>
        <path d="M-35.876,9.916l-11.618-.847.578.913s1.313-.614,5.122-.264a21.608,21.608,0,0,1,5.294.933S-36.049,10.134-35.876,9.916Z" transform="translate(49.666 -7.994)" fill="#d5b698"/>
      </g>
      <path d="M-25.816,5.682c14.757,8.966,7.018,28.24,7.018,28.24s-2.52,1.679-3.489,1.425c-1.466-.385-.477-1.648-.127-7.779-.325-11.7-10.1-12.678-22.982-16.78-7.353-2.343-6.354-8.682-6.354-8.682S-43.23-4.5-25.816,5.682Z" transform="translate(83.48 6.715)" fill="#ba5604"/>
      <path d="M-51.157,19.169s16.177-6.258,38.91,4.493c0,0,4.934-20.573-16.217-23.575C-50.985-3.113-51.284,19-51.157,19.169Z" transform="translate(75.291 5.784)" fill="#ba5604"/>
      <g transform="translate(58.897 41.001)">
        <path d="M-42.7,11.687A4.837,4.837,0,0,1-47.769,16.1,4.552,4.552,0,0,1-52.1,11.18a4.837,4.837,0,0,1,5.071-4.412A4.552,4.552,0,0,1-42.7,11.687Z" transform="translate(52.114 -6.761)" fill="#ed9558"/>
        <path d="M-49.743,7.088a3.066,3.066,0,0,0-1.831.543,2.587,2.587,0,0,1,.816-.117,2.524,2.524,0,0,1,2.4,2.733A2.684,2.684,0,0,1-51.168,12.7a2.518,2.518,0,0,1-.619-.157,2.957,2.957,0,0,0,1.567.6,3.137,3.137,0,0,0,3.286-2.865A2.955,2.955,0,0,0-49.743,7.088Z" transform="translate(54.697 -5.443)" fill="#d87239"/>
      </g>
      <path d="M-49.156,14.217s10.928-3.159,25.887,1.861c0,0,2.8-15.066-9.873-16.014C-48.248-1.062-49.156,14.217-49.156,14.217Z" transform="translate(76.333 6.735)" fill="#ce6f09"/>
      <path d="M-48.564,16.177l3.19,1.445S-43.463,6.745-50.8.634C-50.8.634-46.977,9.858-48.564,16.177Z" transform="translate(106.791 9.299)" fill="#ce6f09"/>
      <path d="M-48.2,9.178A19.122,19.122,0,0,0-46.172,2.15,46.939,46.939,0,0,1-46.253,9.7Z" transform="translate(94.551 15.471)" fill="#ed9558"/>
      <path d="M-49.907,8.81a59.925,59.925,0,0,0,1.379-5.964,36.976,36.976,0,0,1,.254,6.471Z" transform="translate(105.37 18.304)" fill="#ed9558"/>
      <path d="M-52.1,3.672C-43.49-3.9-20.178-2.515-19.575,8.19c.238,4.2-3.083,8.185-4.2,8.347C-23.779,16.537-28.617-.973-52.1,3.672Z" transform="translate(87.822 2.235)" fill="#ce6f09"/>
      <g transform="translate(26.878 33.983)">
        <g transform="translate(17.911 1.063)">
          <path d="M-49.2,6.461s.279,2.307,4.518,2.155c3.646-.127,4.853-2.084,3.773-1.81S-49.2,6.461-49.2,6.461Z" transform="translate(49.261 -2.025)" fill="#562824"/>
          <path d="M-49.6,8.755l8.737,1.09,2.039-.132C-40.2,6.407-48.542,2.847-49.6,8.755Z" transform="translate(49.597 -5.586)" fill="#562824"/>
          <path d="M-49.1,7.892c.269-1.318,1.339-2.47,4.184-1.957,2.885.522,4.828,2.728,4.184,3.707C-42.159,11.8-49.943,11.964-49.1,7.892Z" transform="translate(49.192 -4.673)" fill="#f4e6e1"/>
          <path d="M-48.69,9.578a2.549,2.549,0,0,1-.091-.71A3.164,3.164,0,0,1-45.45,5.886a3.168,3.168,0,0,1,2.987,3.332A2.95,2.95,0,0,1-42.9,10.6C-44.659,11.342-47.808,10.921-48.69,9.578Z" transform="translate(49.111 -4.386)" fill="#562824"/>
        </g>
        <path d="M-38.714,6.666s-.071,2.409-4.239,1.653c-2.53-.456-3.235-2.47-2.191-2.084S-38.714,6.666-38.714,6.666Z" transform="translate(47.183 -2.08)" fill="#562824"/>
        <path d="M-36.995,8.649l-6.993-.243L-45.646,8C-43.957,4.486-37.75,4.309-36.995,8.649Z" transform="translate(45.646 -5.377)" fill="#562824"/>
        <path d="M-38.436,7.883c-.167-1.339-1.552-2.546-4.239-2.246-2.794.3-3.281,2.277-2.8,3.144C-44.1,11.251-37.944,11.793-38.436,7.883Z" transform="translate(47.016 -4.504)" fill="#f4e6e1"/>
        <path d="M-42.357,5.66A2.978,2.978,0,0,1-39.548,8.8a2.857,2.857,0,0,1-.38,1.222c-1.1.958-4.508.5-5.467-.832a2.422,2.422,0,0,1-.1-.72A2.971,2.971,0,0,1-42.357,5.66Z" transform="translate(47.423 -4.243)" fill="#562824"/>
      </g>
      <path d="M-17.084,48.381l-2.789,10.208s-18.641-6.831-34.468-7.617l1.3-10.989S-29.316,42.493-17.084,48.381Z" transform="translate(96.706 169.489)" fill="#6ab3ef"/>
      <path d="M-35.212,36.424c-.284,1.374-4.31,9.615-4.8,11.384-1.08,3.895-.142,8.971.786,8.636,1.08-.4.294-4.711,1.668-7.581.5-1.04,1.983-3.54,3.215-3.3.882.172,1.105,1.755.908,2.733s-.928,3.742-.112,3.93c.771.172,1.481-2.2,2.069-4.544.994-3.991-.188-8.352.1-10.081C-32.129,36.556-33.625,36.434-35.212,36.424Z" transform="translate(40.498 155)" fill="#ed9558"/>
      <g transform="translate(1.069 366.851)">
        <path d="M-24.661,72.448c-1.176,3.722-.725,5.918-1.369,7.059-1.2,2.115-17.257-5.421-16.273-6.8s11.07,4.047,14.042-1.694Z" transform="translate(42.387 -71.018)" fill="#ffb476"/>
        <path d="M-25.5,78.867c-.664,3.048-17.982-5.5-16.552-7.216,1.182-1.425,5.284,1.567,9.574,3.5C-28.94,76.757-25.294,77.959-25.5,78.867Z" transform="translate(42.133 -69.957)" fill="#4d4d84"/>
        <path d="M-40.507,71.478a16.489,16.489,0,0,0,4.016.091,7.89,7.89,0,0,1-.558,3.027L-40.9,73.02A14.189,14.189,0,0,0-40.507,71.478Z" transform="translate(46.9 -69.145)" fill="#4d4d84"/>
      </g>
      <g transform="translate(70.423 364.722)">
        <path d="M-40.458,71.262c2.033.786-3.25,7.515-4.838,8.737S-55.6,81.141-55.6,79.7s3.585-1.253,3.585-1.253S-42.567,70.451-40.458,71.262Z" transform="translate(55.605 -68.129)" fill="#4d4d84"/>
        <path d="M-42.587,70.851c.751,3.545-2,9.087-3.57,10.461s-9.026,1.08-9.026,0c0-.958,1.668-1.176,1.668-1.176a28.016,28.016,0,0,0,7.358-7.754C-44.595,69.679-42.587,70.851-42.587,70.851Z" transform="translate(55.929 -70.598)" fill="#ed9558"/>
        <path d="M-46.747,72.708s-4.209.233-5.492-1.131l-2.794,2.429a15.377,15.377,0,0,0,7.11,1.425Z" transform="translate(59.455 -66.613)" fill="#4d4d84"/>
      </g>
      <path d="M-58.1,18.358c4.386,5.076,21.973,16.273,31.08,26.466,2.039,2.465,2.784,5.365,1.983,7.439-1.77,4.564-9.706.284-12.809-2.652C-45.8,42.106-59.225,20.782-59.225,20.782Z" transform="translate(129.116 81.453)" fill="#ffb476"/>
      <path d="M-51.4,17.05c2.4,1.389,8.22,6.5,8.22,6.5.421.948,0,1.79-.994,2.561h0s-7.186-.614-8.164-2.084C-53.125,22.846-52.274,18.749-51.4,17.05Z" transform="translate(114.065 76.129)" fill="#ffb476"/>
      <path d="M-37.409,27.561c1.2-1.09,2.845-1.511,5.066-.137,5.005,3.1-.7,33.611-9.625,43.89C-41.45,51.572-39.194,38.788-37.409,27.561Z" transform="translate(47.354 114.832)" fill="#ffb476"/>
    </g>
  </g>
</svg>