<svg xmlns="http://www.w3.org/2000/svg" width="21.235" height="25.054" viewBox="0 0 21.235 25.054">
  <g id="Raggruppa_2747" data-name="Raggruppa 2747" transform="translate(-6963 -858)">
    <path id="Tracciato_7300" data-name="Tracciato 7300" d="M6.213,24.379l.434-2.758L5.68,21.6H1.061L4.271,1.247a.262.262,0,0,1,.261-.223h7.788c2.585,0,4.37.538,5.3,1.6a3.648,3.648,0,0,1,.849,1.592,5.746,5.746,0,0,1,.006,2.2l-.01.064v.561l.437.247a3.064,3.064,0,0,1,.884.674A3.139,3.139,0,0,1,20.5,9.566a6.806,6.806,0,0,1-.1,2.335,8.221,8.221,0,0,1-.956,2.643A5.436,5.436,0,0,1,17.93,16.2a6.147,6.147,0,0,1-2.041.921,10.177,10.177,0,0,1-2.551.295h-.606a1.823,1.823,0,0,0-1.8,1.538l-.046.248-.767,4.861-.035.179a.154.154,0,0,1-.048.1.129.129,0,0,1-.08.029H6.213Z" transform="translate(6962.82 857.826)" fill="#253b80"/>
    <path id="Tracciato_7301" data-name="Tracciato 7301" d="M20.186,7.667q-.035.223-.08.457c-1.027,5.273-4.541,7.094-9.028,7.094H8.793a1.11,1.11,0,0,0-1.1.94l-1.17,7.419L6.2,25.68a.584.584,0,0,0,.577.676h4.052a.975.975,0,0,0,.963-.822l.04-.206.763-4.842.049-.266A.975.975,0,0,1,13.6,19.4h.606c3.926,0,7-1.594,7.9-6.207.375-1.927.181-3.536-.812-4.668a3.875,3.875,0,0,0-1.109-.855Z" transform="translate(6961.95 856.698)" fill="#179bd7"/>
    <path id="Tracciato_7302" data-name="Tracciato 7302" d="M19.42,7.076a8.1,8.1,0,0,0-1-.222,12.689,12.689,0,0,0-2.014-.147H10.3a.973.973,0,0,0-.962.824l-1.3,8.224-.037.24a1.109,1.109,0,0,1,1.1-.94h2.285c4.487,0,8-1.822,9.028-7.094.031-.156.056-.308.08-.457a5.475,5.475,0,0,0-.844-.356q-.114-.038-.23-.072Z" transform="translate(6961.641 856.862)" fill="#222d65"/>
    <path id="Tracciato_7303" data-name="Tracciato 7303" d="M7.982,6.392a.971.971,0,0,1,.962-.823h6.1a12.69,12.69,0,0,1,2.014.147,8.1,8.1,0,0,1,1.23.293,5.557,5.557,0,0,1,.844.356A4.98,4.98,0,0,0,18.08,1.889C16.919.566,14.822,0,12.14,0H4.352a1.113,1.113,0,0,0-1.1.941L.008,21.5a.669.669,0,0,0,.66.774H5.476l1.207-7.659,1.3-8.224Z" transform="translate(6963 858)" fill="#253b80"/>
  </g>
</svg>
