<svg xmlns="http://www.w3.org/2000/svg" xmlns:xlink="http://www.w3.org/1999/xlink" width="146.775" height="246.225" viewBox="0 0 146.775 246.225"><defs><filter id="a" x="0" y="0" width="146.775" height="246.225" filterUnits="userSpaceOnUse"><feOffset dx="-5" input="SourceAlpha"/><feGaussianBlur stdDeviation="7" result="b"/><feFlood flood-opacity="0.388"/><feComposite operator="in" in2="b"/><feComposite in="SourceGraphic"/></filter></defs><g transform="translate(-228.765 -162.069)"><g transform="matrix(1, 0, 0, 1, 228.76, 162.07)" filter="url(#a)"><path d="M435.648,296.647,425.885,256a3.305,3.305,0,0,0-.447-1.017,4.086,4.086,0,0,0-.449-.565c-.094-.1-.18-.215-.283-.309a4.311,4.311,0,0,0-.517-.4c-.07-.048-.129-.113-.2-.156l-.03.022a3.546,3.546,0,0,0-1.746-.544H411.445l-7.852-33.072h0l-.374-1.563a4.294,4.294,0,0,0-3.948-3.183H394v0l.616,0c-.2-1.1-2.094-4.106-2.376-5.078-.067-.788-.143-1.534-.218-2.282h0l0-.005q-.246-2.442-.535-4.626l-.005-.032a156.122,156.122,0,0,0-3.329-17.241c-.457-1.913-.893-3.719-1.278-5.506-.253-1.179-.484-2.352-.684-3.541l-.032.005c-.479-2.583-1.292-5.939-2.1-10.218-1.319-6.964-3.482-13.891-6.359-16.472l-.011-.135c-.164-.1-.323-.172-.484-.266h0l-.04-.022a3.8,3.8,0,0,0-.692-.379c-.452-.253-.91-.527-1.359-.748a18.451,18.451,0,0,0-1.23-8.867,15.006,15.006,0,0,0-1.157-2.306c.261.027.506.035.762.054l.215.013c.508.032,1.006.057,1.488.065.1,0,.188,0,.285,0,.452,0,.893,0,1.321-.016.116,0,.226-.011.342-.016.393-.019.778-.043,1.144-.078.135-.013.261-.032.39-.046.331-.038.657-.078.963-.126.153-.027.291-.056.439-.086.261-.048.522-.1.762-.156.167-.04.312-.089.468-.132.194-.057.393-.11.568-.172s.3-.124.452-.186.283-.11.4-.172a3.834,3.834,0,0,0,.409-.256c.075-.051.169-.1.234-.151a1.979,1.979,0,0,0,.417-.441,1.731,1.731,0,0,0,.213-.565c.016-.089.013-.2.022-.3a3.052,3.052,0,0,0,.032-.457c-.005-.145-.032-.318-.048-.476s-.024-.28-.051-.436c-.038-.213-.1-.447-.156-.678-.032-.126-.054-.242-.092-.374-.083-.285-.191-.592-.3-.9-.032-.089-.056-.175-.091-.266-.137-.363-.3-.743-.476-1.13-.019-.046-.035-.089-.056-.132-.2-.433-.422-.877-.665-1.332l-.008-.016a31.033,31.033,0,0,0-2.1-3.383c-.221-.309-.466-.619-.7-.928l.027.016s-.28-7.368-1.216-9.712a4.815,4.815,0,0,0-.616-1.025l-.008-.013a22.991,22.991,0,0,0-4.41-4.2h0c-2.667-2-5.923-3.705-8.633-3.668-2.349.035-9.453,4.532-9.453,4.532l.2.116c-4.881-.643-8.972-.151-10.936.915a2.714,2.714,0,0,0-1.092.958,1.952,1.952,0,0,0-.145.428h0c-.659,2.357,1.8,8.3,6.991,13.794a4,4,0,0,0,1.3,3.157,9.007,9.007,0,0,0,.059,5.807,14.031,14.031,0,0,0-.422,4.042,7.657,7.657,0,0,0,1.771,3.646,8.1,8.1,0,0,1-.874-4.244c.075-.476.188-1.141.317-1.886a15.352,15.352,0,0,0,1.168,1.58c.9,1.068,2.231,3.087,3.253,3.3a9.232,9.232,0,0,0,2.548-.116c-.03.234-.065.46-.1.684s-.065.449-.1.657c-.067.39-.137.753-.212,1.1-.124.6-.25,1.141-.374,1.6a22.791,22.791,0,0,0-4.163.858l0,.005c-.11.03-.218.062-.323.091l.008-.008-.164.019-.03,0a4.8,4.8,0,0,0-2.807,1.2c-.04.035-.073.081-.11.116a4.825,4.825,0,0,0-.441.46,15.992,15.992,0,0,0-1.569,1.835,13.337,13.337,0,0,0-1.725.928,3.159,3.159,0,0,0-.487.49h0l-.013.016a39.5,39.5,0,0,0-2.325,3.251l-.04.062c-.121.18-.223.339-.315.479l-.067.1-.172.272-.092.14.008.019c-.1.191-.221.433-.347.713-.078.175-.162.374-.245.576-.046.108-.089.213-.137.328-2.01,4.957-5.325,16.821-3.654,22.421l.005.038.008-.005a4.083,4.083,0,0,0,1.846,2.527c.011.011.016.04.027.051a1.794,1.794,0,0,0,.239.1c.094.04.167.116.266.148a1.411,1.411,0,0,0,.186,0c-.07,1.346-.137,2.586-.218,3.652-4.427,4.349-8.676,17.2-7.683,19.811a4.265,4.265,0,0,0,2.169,2.077h0l.011.005a10.682,10.682,0,0,0,1.693.678h0a14.173,14.173,0,0,0,1.9.439l.016.005a28.471,28.471,0,0,0,6.106.527c.29,3.993.853,7.774,1.281,10.258h0c-.318-.038-.5-.062-.5-.062l.778,5.861c.492.062.977.108,1.461.153l0,.005h0c1.555,11.741,3.942,28.142,5.4,30.513.116.188.291.479.474.786-1.967,11.956-10.479,44.587-10.479,44.587a2.559,2.559,0,0,1-1.978,1.343l.005-.057a8.752,8.752,0,0,1-2.131-.048l-.019.081c-.713-.11-1.38-.272-1.948-.393-.64-.253-1.133-.326-1.381-.027-.759.912,8.428,5.447,8.783,3.829.019-.083-.043-.172-.137-.266.315-.616.1-1.765.716-3.7,0,0,.2-.353.557-.977s.869-1.523,1.486-2.618c.309-.546.646-1.144,1-1.779,3.921-6.983,10.352-18.7,11.375-22.133a34.68,34.68,0,0,0,.982-5.974c5.8,10.28,13.428,24.205,17.182,32.539a10.835,10.835,0,0,1-1.3,1.73c-.016-.016-.043-.027-.059-.043l-1.483,1.289.2.094c-.463.412-.912.78-1.27,1.044,0,0-.861.118-.88.613-.229.1-.4.242-.4.466,0,.767,4.626.8,5.468.159s3.649-4.219,2.567-4.637a1.646,1.646,0,0,0-1.014.231,4.462,4.462,0,0,0,.059-1.76s-5.21-27.066-7.546-31.754c-2-4.012-8.226-11.313-9.978-13.331,2.153-4.725,7.209-16.149,11.208-27.653a26.216,26.216,0,0,0,2.637.091l1.477-5.417c-.21-.1-.441-.194-.665-.293a77.052,77.052,0,0,0,2.885-14.418,36.385,36.385,0,0,0-.25-9.491h0c-.091-.522-.186-1.047-.312-1.55h-.016a20.777,20.777,0,0,0-1.763-5.352c-2.244-4.962-5.842-10.476-6.733-13.431l.048-.011a3.819,3.819,0,0,1-.213-1.257,11.092,11.092,0,0,1,.366-2.051l-.054.011c.035-.137.059-.264.1-.4.748-2.6,2.317-5.869,4.284-11.4l.04-.121c.213.912.452,1.854.751,2.863,1.523,5.132,2.322,9.268,3.148,12.193,2.46,13.3,7.979,26.894,9.76,31.078v0l.008.024c.353.826.57,1.316.57,1.316s-.019,2.807.167,4.359a2.46,2.46,0,0,0-1.771.756,2.433,2.433,0,0,0-1.305,2.947l8.329,35.082-7.023,5.3.027.013c-.027.027-.056.048-.083.078a2.1,2.1,0,0,0-.423.745l0,0a2.489,2.489,0,0,0-.113.971v0h0a2.6,2.6,0,0,0,.019.5l9.76,40.647a4,4,0,0,0,3.676,2.968h.562a1.876,1.876,0,1,0,3.455,0h17.376a1.883,1.883,0,1,0,3.4-.089,2.251,2.251,0,0,0,1.058-.447l.019.062,7.672-5.778-.062-.013A2.328,2.328,0,0,0,435.648,296.647ZM344.94,158.2c.011-.094.008-.188.022-.285.027-.008.059-.022.086-.032C345.015,157.994,344.975,158.1,344.94,158.2Zm-.67,23.264c1.978-2.147,4.141-6.456,6.138-11.377a19.692,19.692,0,0,1,2.207,5.247l-.054-.011a6.206,6.206,0,0,1,.164,1.2,10.205,10.205,0,0,1-.283,2.072l.051.011a53.839,53.839,0,0,1-2.1,6.528l-6.324-.027C344.13,183.989,344.195,182.762,344.27,181.467Zm45.483,37.962a2.112,2.112,0,0,1,.371-1.873,2.227,2.227,0,0,1,.533-.113.648.648,0,0,0,.423.536c.03.013.038.065.075.065s.038-.04.062-.048.032.013.054.005.024-.062.043-.089.07-.032.091-.073a.836.836,0,0,0,.307.361.29.29,0,0,0,.223.1.315.315,0,0,0,.14-.056h0l0,0a.491.491,0,0,0,.188-.213.914.914,0,0,0,.3.334c.022.019.051.019.073.032a.612.612,0,0,0,.089.035c.024.005.04.027.067.027a.289.289,0,0,0,.145-.059h.011l.005-.005a.8.8,0,0,0,.28-.436.719.719,0,0,0,.215.24.3.3,0,0,0,.223.1c.31,0,.533-.466.684-.939h3.832a3.5,3.5,0,0,1,3.216,2.594l7.782,33.072H397.837c-.062,0-.108.027-.167.03l-7.791-33.1h0Z" transform="translate(-306.62 -83.62)" fill="#b76127" stroke="#fff" stroke-width="2"/></g><g transform="translate(255.791 184.069)"><path d="M198.538,135.189h18.4v24.456s-19.895,1.146-23.667-.067C190.392,158.649,198.538,135.189,198.538,135.189Z" transform="translate(-187.378 -55.616)" fill="#a55021"/><path d="M201.853,135.241c-5.255-1.51-12.257,17.911-11.014,21.194s9.79,4.386,11.943,2.433S207.577,136.886,201.853,135.241Z" transform="translate(-190.694 -55.668)" fill="#a55021"/><path d="M199.231,156.288c-1.876,4.583-7.677,2.225-7.677,2.225h0a12.4,12.4,0,0,0,3.609,1.122c3.832,1.2,23.638.062,23.638.062V135.241l-19.445-.083-.492,3.38C199.261,143.67,200.553,153.061,199.231,156.288Z" transform="translate(-189.24 -55.668)" fill="#994317"/><path d="M235.016,132.861c-1.593,2.505-14.316,3.794-25.532-2.68s-16.673-17.96-15.088-20.774,14.316-3.794,25.532,2.683S236.609,130.353,235.016,132.861Z" transform="translate(-184.891 -102.886)" fill="#eab998"/><path d="M198.3,109.471s-1.843,4.007-1.319,6.509,1.938,5.134,1.854,7.567-1.647,7.223-1.335,9.305a7.641,7.641,0,0,0,1.771,3.646,8.1,8.1,0,0,1-.875-4.244c.312-1.978,1.259-7.123,1.493-8.5S198.3,109.471,198.3,109.471Z" transform="translate(-180.22 -99.105)" fill="#822d0f"/><path d="M210.347,109.286c4.731,6.184,6.432,12.995,5.116,15.107-1.281,2.051-7.642,3.953-15.04,3.162,10.8,5.492,22.427,4.225,23.944,1.838C225.909,126.968,220.831,115.874,210.347,109.286Z" transform="translate(-174.242 -99.417)" fill="#e29d7f"/><path d="M207.44,118.339s1.932.91,3.5,4.814,3.221,12.443-3.878,16.891c0,0-7.911-13.084-2.9-20.887S207.44,118.339,207.44,118.339Z" transform="translate(-170.722 -88.972)" fill="#75250c"/><path d="M211.73,144.93a37.557,37.557,0,0,0,.242,4.879c.272,1.321,2.71,0,2.71,0l-2.088-5.2Z" transform="translate(-155.123 -39.685)" fill="#d87239"/><path d="M212.1,149.456l-.052-3.437,2.969.365-.521,2.708Z" transform="translate(-154.577 -37.302)" fill="#d87239"/><path d="M212.739,146.846s.048,1.483-.455,1.483c-.536,0-.3-1.483-.3-1.483Z" transform="translate(-154.781 -35.904)" fill="#d87239"/><path d="M213.208,146.774s.059,1.938-.573,1.938c-.678,0-.385-1.938-.385-1.938Z" transform="translate(-154.351 -36.026)" fill="#d87239"/><path d="M213.59,146.774s.065,2.094-.614,2.094c-.727,0-.412-2.094-.412-2.094Z" transform="translate(-153.826 -36.026)" fill="#d87239"/><path d="M214.193,146.774s-.277,1.938-.912,1.938c-.676,0-.382-1.938-.382-1.938Z" transform="translate(-153.253 -36.026)" fill="#d87239"/><path d="M214.206,132.108c1.456,8.708,4.577,16.391,6.052,33.234l-1.981.729s-7.516-16.714-10.419-32.814Z" transform="translate(-161.67 -60.826)" fill="#ed9558"/><path d="M195.724,145.99s4.626,38.842,6.932,42.59,18.439,31.754,24.488,45.19l1.894-.813s-5.21-27.066-7.546-31.754-10.454-13.877-10.454-13.877l1.781-37.041Z" transform="translate(-182.188 -37.352)" fill="#ed9558"/><path d="M210.076,181.582l1.55-32.195-15.333,2.936h0s13.2,1.354,12.37,30.233c0,0,9.165,9.042,11.353,14.822s5.963,27.954,8.06,29.835c0,0-5.21-27.066-7.546-31.754S210.076,181.582,210.076,181.582Z" transform="translate(-181.226 -31.607)" fill="#d87239"/><path d="M211.714,166.143l-14.59-.124s-3.638-17.147-1.16-25.9l17.244-.624Z" transform="translate(-183.246 -48.331)" fill="#eab998"/><path d="M196.2,157.329l14.59.124-1.72-11.69-3.348-1.127s-2.056,9.373-10.072,9.763C195.956,156.2,196.2,157.329,196.2,157.329Z" transform="translate(-182.319 -39.641)" fill="#e29d7f"/><path d="M216.21,148.036l-.137,5.659a65.7,65.7,0,0,1-19.833.753l-.78-5.861A79.888,79.888,0,0,0,216.21,148.036Z" transform="translate(-182.635 -33.892)" fill="#f2d9bd"/><path d="M218.231,153.879s-8.073.334-18.291-4.042C199.94,149.837,209.668,149.089,218.231,153.879Z" transform="translate(-175.059 -30.919)" fill="#f2d9bd"/><path d="M211.5,152.623s-4.615,28.374-6.316,39.622-10.605,45.373-10.605,45.373l1.911.759s12.933-22.507,14.418-27.507,1.488-17.061,1.488-17.061,15.392-32.6,17.556-49.985Z" transform="translate(-184.12 -41.016)" fill="#ffb476"/><path d="M211.2,185.607s8.872-18.8,14.09-35.459c-5.538-1.733-12.642-2.742-16.184,1.676h0s12.86,4.876.42,33.95c0,0,1.249,11.092-1.251,17.031s-12.255,23.624-12.981,27.37c0,0,12.933-22.507,14.418-27.507S211.2,185.607,211.2,185.607Z" transform="translate(-182.919 -32.815)" fill="#ed9558"/><path d="M221.773,140.416c2.742,10.78-2.807,27-2.807,27l-17.586-3.625.834-9.047-2.193-.8-.323-14.62Z" transform="translate(-175.467 -48.625)" fill="#f2d9bd"/><path d="M220.716,139.744l-.506-.024c-.355.057-.6.1-.6.1,2.556,22.435-15.742,21.614-19.1,21.278l-.186,2.021,17.586,3.625S223.458,150.524,220.716,139.744Z" transform="translate(-174.41 -47.954)" fill="#eab998"/><path d="M229.542,141.966c-.094-.522-.186-1.047-.315-1.55l-22.074-1.093.013.675-11.528.417c-.137.482-.248,1-.347,1.52A91.183,91.183,0,0,0,229.542,141.966Z" transform="translate(-182.921 -48.625)" fill="#eab998"/><path d="M207.091,121.83c3.724.958,6.469,9.19,8.035,17.446,1.935,10.223,4.02,15.46,1.023,16.428-5.132,1.658-4.76-4.927-8.3-16.862S207.091,121.83,207.091,121.83Z" transform="translate(-164.727 -78.206)" fill="#ed9558"/><path d="M205.587,121.381c-2.92-1.795-5.589,6.943-8.8,16.654-2.99,9.047-4.65,16.776-2.922,18.387,2.831,1.76,6.9-5.971,10.28-14.814C207.573,132.656,209.508,123.792,205.587,121.381Z" transform="translate(-186.511 -79.363)" fill="#ed9558"/><path d="M226.73,125.023c-14.071-8.555-26.361-2.513-26.361-2.513s-5.094,12.187-4.26,15.729,5.718,9.27,5.718,13.229-3.872,11.092-6.407,20.882c11.6,2.169,22.179,2.433,33.573,0-.877-6.3-8.918-16.924-8.708-20.051s2.123-6.469,4.744-13.845A35.48,35.48,0,0,0,226.73,125.023Z" transform="translate(-182.703 -80.559)" fill="#29b9cc"/><path d="M225.029,135.74a35.48,35.48,0,0,0,1.7-13.431c-.161-.1-.323-.172-.484-.266-3,21.84-27.981,15.134-30.136,13.482.834,3.541,5.718,9.27,5.718,13.229s-3.872,11.092-6.407,20.882c11.6,2.169,22.179,2.433,33.573,0-.877-6.3-8.918-16.926-8.708-20.051S222.408,143.116,225.029,135.74Z" transform="translate(-182.703 -77.846)" fill="#1f9dbf"/><path d="M195.406,151.278c-6.52-2.042-.108-23.091,2.018-26.945.915.334,1.432,1.94,1.432,1.94-.794,6.717,1.453,13.084,1.51,17.373C200.549,148.657,196.76,151.7,195.406,151.278Z" transform="translate(-187.546 -73.973)" fill="#ed9558"/><path d="M197.89,124.7a1.472,1.472,0,0,0-.527-.366c-1.523,2.758-6.084,16.512-4.405,24.127,3.4-.662,1.523-18.864,5.492-22.637C199.4,124.441,197.89,124.7,197.89,124.7Z" transform="translate(-187.484 -73.973)" fill="#ffb476"/><path d="M217.647,122.547s-3.606,9.58-14.289,8.574c-9.139-.858-4.2-9.612-4.2-9.612A28.232,28.232,0,0,1,217.647,122.547Z" transform="translate(-178.636 -80.578)" fill="#ed9558"/><path d="M197.483,123.95s2.61-8.2,2.018-11.743c1.149-7.812,20.678-8.929,24.235,3.458,3.784,13.178-9.034,20.893-11.316,20.9S197.483,123.95,197.483,123.95Z" transform="translate(-179.214 -104.407)" fill="#822d0f"/><path d="M211.487,114.892s-3.089,9.784-1.16,16.649l-7,1.047-3.679-.71a28.68,28.68,0,0,0,1.607-9.984C201.2,117.693,211.487,114.892,211.487,114.892Z" transform="translate(-175.551 -89.938)" fill="#ed9558"/><path d="M210.9,114.892s-10.29,2.8-10.231,7a29.791,29.791,0,0,1-.681,6.7,32.642,32.642,0,0,0,11.55,7.209,14.729,14.729,0,0,0,2.438-3.9,26.813,26.813,0,0,0-4.48-1.418C208.125,123.721,210.9,114.892,210.9,114.892Z" transform="translate(-174.97 -89.938)" fill="#d87239"/><path d="M202.819,136.837c-1.023-.215-2.36-2.236-3.253-3.3-1.9-2.268-3.582-4.97-1.593-10.336,0,0-2.578-14.531,9.254-14.66s12.354,11.563,8.748,19.978A13.608,13.608,0,0,1,202.819,136.837Z" transform="translate(-179.9 -100.688)" fill="#ffb476"/><path d="M206.65,108.64c8.035,2.215,6.262,27.144-7.484,27.967.04.013.081.04.121.051a13.608,13.608,0,0,0,13.156-8.323C215.718,120.7,215.557,110.384,206.65,108.64Z" transform="translate(-176.368 -100.51)" fill="#ed9558"/><path d="M200.232,112.234a5.991,5.991,0,0,1,1.383,5.032,4.44,4.44,0,0,1-3.148,3.307s.414,2.051,2.268,2.164-1.3-1.967-1.3-1.967,2.637-1.38,3.054-3.4C203.085,114.5,200.232,112.234,200.232,112.234Z" transform="translate(-177.55 -94.432)" fill="#ed9558"/><path d="M201.141,112.5c-.075.307.99.283,2.917.81,1.757.482,3.011,1.222,3.1.918s-.762-1.362-2.817-1.954C202.36,111.7,201.284,111.906,201.141,112.5Z" transform="translate(-173.034 -94.938)" fill="#822d0f"/><path d="M197.27,113.605c.083.361.318-.14,1.964-.562,1.327-.339,2.782-.366,2.772-.619-.032-.762-1.641-.7-2.85-.291C197.5,112.693,197.216,113.368,197.27,113.605Z" transform="translate(-179.585 -95.107)" fill="#822d0f"/><g transform="translate(19.91 29.328)"><path d="M200.946,117.046c.03.089.315.075.406.046a.177.177,0,0,0,.116-.221.17.17,0,0,0-.221-.108C201.156,116.793,200.919,116.954,200.946,117.046Z" transform="translate(-193.271 -116.119)" fill="#93271c"/><path d="M198.543,116.925c-.062.073-.32-.043-.393-.1a.17.17,0,0,1-.013-.242.177.177,0,0,1,.245-.022C198.454,116.619,198.608,116.853,198.543,116.925Z" transform="translate(-198.093 -116.517)" fill="#93271c"/><path d="M205.811,117.173l-7.613-.541a4.552,4.552,0,0,0,3.463,2.575C204.091,119.428,205.811,117.173,205.811,117.173Z" transform="translate(-197.915 -116.324)" fill="#9a6335"/><path d="M205.811,117.173l-7.613-.541a4.552,4.552,0,0,0,3.463,2.575C204.091,119.428,205.811,117.173,205.811,117.173Z" transform="translate(-197.915 -116.324)" fill="#93271c"/><path d="M204.686,117.178l-6.165-.449a3.724,3.724,0,0,0,3.065,2.034A3.929,3.929,0,0,0,204.686,117.178Z" transform="translate(-197.368 -116.16)" fill="#f4e6e1"/><path d="M204.686,117.178l-6.165-.449.3.487a6,6,0,0,1,2.721-.143,11.467,11.467,0,0,1,2.809.5S204.595,117.294,204.686,117.178Z" transform="translate(-197.368 -116.16)" fill="#d5b698"/></g><path d="M211.991,110.675c7.831,4.758,3.724,14.986,3.724,14.986s-1.335.891-1.851.756c-.775-.2-.25-.875-.067-4.128-.169-6.208-5.358-6.727-12.2-8.9-3.9-1.243-3.372-4.607-3.372-4.607S202.753,105.272,211.991,110.675Z" transform="translate(-177.993 -102.168)" fill="#822d0f"/><g transform="translate(17.663 19.961)"><g transform="translate(9.505 0.564)"><path d="M200.8,114.121s.148,1.224,2.395,1.146c1.935-.07,2.578-1.109,2-.963A38.537,38.537,0,0,1,200.8,114.121Z" transform="translate(-200.768 -111.767)" fill="#562824"/><path d="M200.79,114.928l4.637.579,1.082-.07C205.776,113.682,201.347,111.793,200.79,114.928Z" transform="translate(-200.79 -113.246)" fill="#562824"/><path d="M200.828,114.575c.145-.7.71-1.311,2.223-1.039,1.531.277,2.562,1.448,2.22,1.967C204.512,116.65,200.381,116.736,200.828,114.575Z" transform="translate(-200.782 -112.867)" fill="#f4e6e1"/><path d="M200.9,115.5a1.324,1.324,0,0,1-.048-.374,1.678,1.678,0,1,1,3.35.183,1.563,1.563,0,0,1-.229.732C203.044,116.439,201.372,116.216,200.9,115.5Z" transform="translate(-200.681 -112.747)" fill="#562824"/></g><path d="M201.228,114.1s-.038,1.278-2.252.877c-1.343-.242-1.714-1.311-1.16-1.106A22.656,22.656,0,0,0,201.228,114.1Z" transform="translate(-196.734 -111.667)" fill="#562824"/><path d="M201.849,114.773l-3.711-.129-.88-.215C198.151,112.564,201.445,112.47,201.849,114.773Z" transform="translate(-197.258 -113.037)" fill="#562824"/><path d="M201.352,114.467c-.089-.71-.823-1.351-2.25-1.192-1.483.161-1.744,1.208-1.485,1.668C198.346,116.254,201.613,116.542,201.352,114.467Z" transform="translate(-196.799 -112.674)" fill="#f4e6e1"/><path d="M199.3,113.318a1.584,1.584,0,0,1,1.491,1.666,1.483,1.483,0,0,1-.2.649,2.6,2.6,0,0,1-2.9-.441,1.38,1.38,0,0,1-.051-.382A1.58,1.58,0,0,1,199.3,113.318Z" transform="translate(-196.616 -112.566)" fill="#562824"/></g><path d="M219.711,152.1l-1.48,5.417s-9.892-3.625-18.291-4.042l.692-5.831S213.22,148.975,219.711,152.1Z" transform="translate(-175.059 -34.556)" fill="#f2f2db"/><g transform="translate(2.967 196.601)"><path d="M201.189,179.437c-.622,1.975-.385,3.14-.727,3.746-.635,1.122-9.157-2.877-8.635-3.606s5.874,2.147,7.451-.9Z" transform="translate(-191.783 -178.678)" fill="#ffb476"/><path d="M200.627,182.965c-.355,1.617-9.545-2.917-8.786-3.829.627-.756,2.8.832,5.081,1.859C198.8,181.846,200.732,182.484,200.627,182.965Z" transform="translate(-191.796 -178.237)" fill="#4d4d84"/><path d="M193.189,179.138a8.834,8.834,0,0,0,2.131.051,4.2,4.2,0,0,1-.3,1.607l-2.045-.84A6.952,6.952,0,0,0,193.189,179.138Z" transform="translate(-189.797 -177.9)" fill="#4d4d84"/></g><g transform="translate(39.77 195.472)"><path d="M213.511,178.9c1.079.417-1.725,3.988-2.567,4.637s-5.471.608-5.471-.159,1.9-.665,1.9-.665S212.392,178.465,213.511,178.9Z" transform="translate(-205.473 -177.233)" fill="#4d4d84"/><path d="M212.3,178.392c.4,1.881-1.06,4.822-1.894,5.552s-4.79.573-4.79,0c0-.506.885-.624.885-.624a14.869,14.869,0,0,0,3.9-4.115C211.239,177.771,212.3,178.392,212.3,178.392Z" transform="translate(-205.224 -178.258)" fill="#ed9558"/><path d="M210.742,179.837s-2.234.124-2.914-.6l-1.483,1.289a8.16,8.16,0,0,0,3.773.756Z" transform="translate(-203.998 -176.603)" fill="#4d4d84"/></g><g transform="translate(53.606 109.594)"><path d="M219.816,181.247a1.874,1.874,0,1,1-1.873-1.873A1.875,1.875,0,0,1,219.816,181.247Z" transform="translate(-201.394 -90.493)" fill="#262420"/><path d="M227.559,181.247a1.876,1.876,0,1,1-1.876-1.873A1.875,1.875,0,0,1,227.559,181.247Z" transform="translate(-188.304 -90.493)" fill="#262420"/><path d="M258.127,204.014l-9.763-40.647a3.99,3.99,0,0,0-3.673-2.968H220.318a2.318,2.318,0,0,0-1.491.546l-.022-.062-7.672,5.8,8.713,4.228,7.971,33.107a3.993,3.993,0,0,0,3.673,2.968h16.765l1.6,5.151,7.675-5.777-.065-.014A2.317,2.317,0,0,0,258.127,204.014Z" transform="translate(-209.736 -122.58)" fill="#ba030f"/><path d="M240.743,203.309l-9.763-40.647a3.821,3.821,0,0,0-1.136-1.846l-8.431,6.367,4.8,39.095h4.658l1.6,5.15,7.675-5.777-.065-.013A2.317,2.317,0,0,0,240.743,203.309Z" transform="translate(-192.353 -121.875)" fill="#b5000c"/><path d="M248.78,209.073H224.408a4,4,0,0,1-3.673-2.968l-9.763-40.647a2.27,2.27,0,0,1,2.263-2.968h24.372a4,4,0,0,1,3.676,2.968l9.76,40.647A2.269,2.269,0,0,1,248.78,209.073Z" transform="translate(-210.152 -119.046)" fill="#c10914"/><path d="M229.975,163.692H213.568c-.56,0-.4-.455.35-1.014l.63-.471a5.094,5.094,0,0,1,2.382-1.014h16.4c.56,0,.4.455-.35,1.014l-.63.471A5.1,5.1,0,0,1,229.975,163.692Z" transform="translate(-206.188 -121.239)" fill="#262420"/><path d="M212.67,150.564a1.979,1.979,0,0,1,1.973-2.594h7.174a3.494,3.494,0,0,1,3.213,2.594l8.635,36.689.721.53.708-.53-8.958-37.725a4.291,4.291,0,0,0-3.945-3.183h-8.8a2.43,2.43,0,0,0-2.422,3.183l8.958,37.725.673.53.708-.53Z" transform="translate(-210.171 -146.345)" fill="#5c5c99"/><path d="M212.405,150.759a1.981,1.981,0,0,1,1.975-2.594h7.171a3.5,3.5,0,0,1,3.216,2.594L233.4,187.45h1.426l-8.956-37.725a4.294,4.294,0,0,0-3.945-3.183h-8.8a2.43,2.43,0,0,0-2.422,3.183l8.958,37.725h1.378Z" transform="translate(-210.614 -146.012)" fill="#808bbf"/><path d="M211.343,151.092h1.45l-.124-.527a1.979,1.979,0,0,1,1.973-2.594h7.174a3.494,3.494,0,0,1,3.213,2.594l.126.527h1.354l-.374-1.563a4.291,4.291,0,0,0-3.945-3.183h-8.8a2.43,2.43,0,0,0-2.422,3.183Z" transform="translate(-210.171 -146.345)" fill="#262420"/><path d="M210.952,150.759h1.453a1.981,1.981,0,0,1,1.975-2.594h7.171a3.5,3.5,0,0,1,3.216,2.594h1.354l-.247-1.033a4.294,4.294,0,0,0-3.945-3.183h-8.8a2.43,2.43,0,0,0-2.422,3.183Z" transform="translate(-210.614 -146.012)" fill="#322f28"/><path d="M230.73,162.022a4.235,4.235,0,0,0-1.45-1.429l-7.981,6.028,1.265,2.072L230.9,162.4A3.641,3.641,0,0,0,230.73,162.022Z" transform="translate(-192.549 -122.252)" fill="#c90e20"/><path d="M251.006,206.1l-9.76-40.647a4,4,0,0,0-3.676-2.968H213.2a2.2,2.2,0,0,0-2.282,2.47,2.146,2.146,0,0,1,2-1.206h23.71a3.887,3.887,0,0,1,3.576,2.887l9.5,39.544a2.207,2.207,0,0,1-2.2,2.887h1.246A2.269,2.269,0,0,0,251.006,206.1Z" transform="translate(-210.115 -119.046)" fill="#dd192c"/></g><path d="M213.462,144.458c.283.971,2.177,3.983,2.376,5.078l-1.16,0c-.223-.167-.447-.334-.654-.307a.344.344,0,0,0-.331.309c-.056.283-.231.732-.589.53-1.246-.7-1-4.117-1.227-5.024C212.23,144.466,212.622,144.506,213.462,144.458Z" transform="translate(-154.874 -39.942)" fill="#ed9558"/><path d="M212.876,147.033c.49-.272,1.176,1.025.692,1.246C212.973,148.551,212.524,147.23,212.876,147.033Z" transform="translate(-153.395 -35.65)" fill="#ed9558"/><path d="M212.229,147.033c.49-.272,1.176,1.025.692,1.246C212.326,148.551,211.874,147.23,212.229,147.033Z" transform="translate(-154.491 -35.65)" fill="#ed9558"/><path d="M211.965,147.052c.387-.215.931.762.546.936C212.041,148.2,211.685,147.208,211.965,147.052Z" transform="translate(-154.892 -35.607)" fill="#ed9558"/><path d="M212.541,147.052c.525-.293,1.259,1.117.74,1.354C212.644,148.7,212.162,147.262,212.541,147.052Z" transform="translate(-153.978 -35.623)" fill="#ed9558"/><path d="M213.251,146.592s-.022,2.678-.772,2.024a8.3,8.3,0,0,1-.339-2.416Z" transform="translate(-154.429 -36.998)" fill="#ed9558"/><path d="M212.491,145.426a4.608,4.608,0,0,0-.977-1.195l.713,1.558Z" transform="translate(-155.488 -40.326)" fill="#d87239"/><path d="M205.974,120.862a5.144,5.144,0,0,0-3,1.222c-8.993,8.016-8.668,29.421-9.37,38.718,0,0,.377,5.229,2.46.7C196.688,151.811,196.874,131.381,205.974,120.862Z" transform="translate(-185.773 -79.843)" fill="#a55021"/><path d="M203.429,113.5l3.815,2.517-.525.454-3.555-1.875Z" transform="translate(-169.606 -92.292)" fill="#322f28"/><g transform="translate(34.652 23.686)"><path d="M208.571,117.035a2.567,2.567,0,0,1-2.691,2.341,2.416,2.416,0,0,1-2.3-2.61,2.569,2.569,0,0,1,2.691-2.341A2.418,2.418,0,0,1,208.571,117.035Z" transform="translate(-203.571 -114.421)" fill="#ed9558"/><path d="M205.23,114.746a1.641,1.641,0,0,0-.974.288,1.372,1.372,0,0,1,.433-.062,1.34,1.34,0,0,1,1.278,1.45,1.424,1.424,0,0,1-1.493,1.3,1.337,1.337,0,0,1-.328-.083,1.569,1.569,0,0,0,.829.32,1.667,1.667,0,0,0,1.747-1.52A1.568,1.568,0,0,0,205.23,114.746Z" transform="translate(-202.599 -113.873)" fill="#d87239"/></g><path d="M200.215,107.962s-3.646-.538-2.715,10.019c0,0,.638-4.478,3.245-6.491Z" transform="translate(-179.443 -101.664)" fill="#822d0f"/><path d="M222.413,127.094s-2.387-8.431-10.2-12.6a18.057,18.057,0,0,0-14.5-1.4s-2.486-6.6,3.91-5.67a36.882,36.882,0,0,1,13.046,4.507,36.393,36.393,0,0,1,10.064,8.681C227.42,126.37,222.413,127.094,222.413,127.094Z" transform="translate(-179.631 -102.724)" fill="#eab998"/><path d="M212.325,114.823a36.4,36.4,0,0,1,10.611,9.4l.027.016s-.28-7.368-1.219-9.712-8.358-8.985-13.67-8.907c-2.349.035-9.451,4.532-9.451,4.532l.2.116A36.827,36.827,0,0,1,212.325,114.823Z" transform="translate(-177.288 -105.619)" fill="#f2d9bd"/><path d="M211.806,115.81q-.8-.884-1.679-1.752c-.293-.288-.584-.576-.891-.858-.388-.355-.791-.705-1.2-1.049-.334-.283-.684-.554-1.033-.826q-.944-.739-1.967-1.426c-.3-.2-.605-.4-.912-.595a27.6,27.6,0,0,1,5.328,11.278,20.388,20.388,0,0,1,1.316,3.178s4.946-.721,2.357-6.394c-.188-.234-.374-.466-.57-.7C212.314,116.38,212.059,116.1,211.806,115.81Z" transform="translate(-167.986 -99.389)" fill="#e29d7f"/><path d="M219.851,112.09c-11.216-6.477-23.947-5.495-25.532-2.683a2.069,2.069,0,0,0-.148.431c2.069-2.656,14.424-3.442,25.368,2.877,10.624,6.133,16.076,17.018,15.271,20.285.038-.048.1-.091.129-.137C236.532,130.353,231.07,118.564,219.851,112.09Z" transform="translate(-184.815 -102.886)" fill="#ffebd7"/><path d="M206.043,106.982a38.031,38.031,0,0,1-1.114,7.688,37.022,37.022,0,0,1,7.341,7.247l.027.016s-.28-7.368-1.219-9.712C210.62,111.072,208.6,108.9,206.043,106.982Z" transform="translate(-166.623 -103.314)" fill="#eab998"/><g transform="translate(16.334 19.373)"><path d="M200.288,113.066s-.654,4.938,3.765,5.2a3.8,3.8,0,0,0,4.166-4.731C207.794,113.077,200.288,113.066,200.288,113.066Z" transform="translate(-190.862 -112.399)" fill="#322f28"/><path d="M204,113.356s-.005,4.976-3.9,4.739-3.5-4.758-3.087-5.164S204,113.356,204,113.356Z" transform="translate(-196.764 -112.818)" fill="#322f28"/><path d="M199.092,113.752l3.512.207.048-.755L199.14,113Z" transform="translate(-192.827 -112.514)" fill="#322f28"/><path d="M200.47,113.189s-.573,4.316,3.288,4.542A3.324,3.324,0,0,0,207.4,113.6C207.028,113.2,200.47,113.189,200.47,113.189Z" transform="translate(-190.548 -112.191)" fill="#322f28" opacity="0.2" style="mix-blend-mode:screen;isolation:isolate"/><path d="M203.256,113.414s-.005,4.351-3.41,4.144-3.06-4.16-2.7-4.515S203.256,113.414,203.256,113.414Z" transform="translate(-196.488 -112.605)" fill="#322f28" opacity="0.2" style="mix-blend-mode:screen;isolation:isolate"/><path d="M200.453,113.189s6.558.008,6.929.409a3.306,3.306,0,0,1-2.782,4.069l-4.15-4.462Z" transform="translate(-190.531 -112.191)" fill="#322f28" opacity="0.4" style="mix-blend-mode:screen;isolation:isolate"/><path d="M197.013,113.043c.361-.358,6.111.371,6.111.371s-.024,3.124-2.121,3.94l-4-4.292Z" transform="translate(-196.356 -112.605)" fill="#322f28" opacity="0.4" style="mix-blend-mode:screen;isolation:isolate"/></g><path d="M204.2,120.956c-8.993,10.185-9.227,31.027-9.93,41.756a7.727,7.727,0,0,0,.667-1.214c.624-9.688.81-30.117,9.911-40.637C204.848,120.862,204.579,120.884,204.2,120.956Z" transform="translate(-184.647 -79.843)" fill="#994317"/><path d="M194.353,128.457s2.707-4.273,3.512-4.811a12.679,12.679,0,0,1,2.85-1.37c.635-.164,2.2-.565,2.406-.237.242.371-.815.735-1.983,1.227,0,0-2.33,1.028-2.252,1.232s2.791-1.114,3.062-.288c.221.67-2.473,1.227-2.384,1.464s2.282-1.036,2.565-.288c.207.544-2,1.354-2,1.354s1.031-.449,1.243.11c.156.406-1.084.915-1.084.915a16.861,16.861,0,0,1-4.464,2.6Z" transform="translate(-184.507 -78.065)" fill="#ed9558"/><path d="M194.353,127.061a1.648,1.648,0,0,0,1.119,1.459c1.074-.339,3.883-1.991,3.883-2.438,0-.484-.756-3.011-1.978-3.342C196.3,124,194.353,127.061,194.353,127.061Z" transform="translate(-184.507 -76.669)" fill="#ffb476"/><path d="M213.017,133.9a2.261,2.261,0,0,0-2.941-.361c-4.9,3.342,7.957,27.531,8.092,27.784C216.844,148.238,214.527,140.938,213.017,133.9Z" transform="translate(-159.8 -59.085)" fill="#ffb476"/><path d="M216.73,134.823a3.833,3.833,0,0,1-.215-1.257,11.151,11.151,0,0,1,.369-2.051,48.31,48.31,0,0,1-19.09.019,6.2,6.2,0,0,1,.164,1.2,10.19,10.19,0,0,1-.28,2.072C205.775,137.1,214.252,135.418,216.73,134.823Z" transform="translate(-178.884 -61.827)" fill="#29b9cc"/><path d="M208.077,135.463a5.882,5.882,0,0,0-.094-3.528c-.71.048-1.375.062-2.042.078a9.848,9.848,0,0,0-1.448,1.127.97.97,0,0,0-.9-.274.994.994,0,0,0-.568.385,11.541,11.541,0,0,0-1.625-1.329c-.657-.046-1.286-.094-1.854-.156a5.426,5.426,0,0,0-.309,3.5A38.493,38.493,0,0,0,208.077,135.463Z" transform="translate(-176.496 -61.404)" fill="#1f9dbf"/><g transform="translate(22.069 69.81)"><path d="M202.262,132.863a1,1,0,1,1-1.2-.759A1,1,0,0,1,202.262,132.863Z" transform="translate(-196.558 -130.685)" fill="#31cddd"/><path d="M204.353,131.735c-1.125-.713-3.517,1.66-3.517,1.66l-.03.934s2.355,2.36,3.348,1.857S205.039,132.171,204.353,131.735Z" transform="translate(-195.664 -131.492)" fill="#31cddd"/><path d="M199.425,136.082c1.128.713,3.52-1.66,3.52-1.66l.027-.934s-2.352-2.36-3.345-1.857S198.738,135.646,199.425,136.082Z" transform="translate(-198.895 -131.561)" fill="#31cddd"/></g><path d="M192.912,152.908c-4.674-2.112,1.119-15.312,3.323-15.293S197.462,154.964,192.912,152.908Z" transform="translate(-189.944 -51.514)" fill="#b76127"/></g></g></svg>