<svg xmlns="http://www.w3.org/2000/svg" xmlns:xlink="http://www.w3.org/1999/xlink" width="277" height="277" viewBox="0 0 277 277"><defs><linearGradient id="b" x1="0.5" y1="-0.073" x2="0.5" y2="0.305" gradientUnits="objectBoundingBox"><stop offset="0" stop-color="#fff"/><stop offset="0.999" stop-color="#fff" stop-opacity="0"/></linearGradient><linearGradient id="c" y1="0.029" y2="0.425" xlink:href="#b"/><linearGradient id="d" y1="0.04" y2="0.83" xlink:href="#b"/><linearGradient id="e" x1="0.363" y1="0.873" x2="0.675" y2="0.025" gradientUnits="objectBoundingBox"><stop offset="0" stop-color="#e087be"/><stop offset="0.999" stop-color="#e087be" stop-opacity="0"/></linearGradient><clipPath id="f"><path d="M102.378,583.439s54.147,1.419,90.245,36.178,101.2,39.724,127.631,31.211,64.9-11.319,96.691-2.128c76.063,21.99,110.226-85.832,168.885-71.645v242.6S538.773,777.8,474.314,801.212c-73.067,26.535-108.938-4.255-154.7-6.383-38.346-1.783-97.647,28.557-126.342,12.768-37.387-20.571-90.889,5.676-90.889,5.676Z" transform="translate(-102.378 -575.763)" fill="none"/></clipPath><linearGradient id="g" y1="0.582" y2="0.185" xlink:href="#b"/><linearGradient id="h" x1="0.5" y1="0.729" x2="0.5" y2="0.395" xlink:href="#e"/><linearGradient id="i" x1="0" y1="0.5" x2="1" y2="0.5" xlink:href="#b"/><linearGradient id="m" x1="0.5" y1="0.606" x2="0.5" y2="0.284" gradientUnits="objectBoundingBox"><stop offset="0"/><stop offset="0.999" stop-opacity="0"/></linearGradient><linearGradient id="n" x1="0.5" y1="0.968" x2="0.5" y2="0.346" xlink:href="#e"/><linearGradient id="o" x1="0.5" y1="1.124" x2="0.5" y2="0.266" xlink:href="#e"/><linearGradient id="p" x1="0.5" y1="1.049" x2="0.5" y2="0.669" xlink:href="#e"/><linearGradient id="q" x1="0.712" y1="-0.291" x2="0.453" y2="0.693" xlink:href="#b"/><linearGradient id="r" y1="-1.52" y2="0.757" xlink:href="#b"/><linearGradient id="s" y1="-1.659" y2="2.293" xlink:href="#b"/><linearGradient id="t" x1="1.044" y1="-0.738" x2="0.381" y2="0.816" xlink:href="#b"/><linearGradient id="u" y1="-0.213" y2="0.443" xlink:href="#b"/><linearGradient id="v" y1="-0.23" y2="0.29" xlink:href="#b"/><linearGradient id="w" y1="-0.316" y2="0.479" xlink:href="#b"/><radialGradient id="x" cx="0.5" cy="0.5" r="14.747" gradientTransform="translate(0.494 12.889) scale(0.032 0.085)" xlink:href="#m"/><linearGradient id="y" y1="1.459" y2="0.39" xlink:href="#m"/><linearGradient id="z" y1="1.612" y2="0.632" xlink:href="#m"/><linearGradient id="aa" x1="0.5" y1="-0.022" x2="0.5" y2="0.436" xlink:href="#e"/><linearGradient id="ab" x1="0.5" y1="-0.297" x2="0.5" y2="0.556" xlink:href="#e"/><linearGradient id="ac" y1="1.252" y2="-0.264" xlink:href="#b"/><linearGradient id="ad" y1="1.118" y2="-0.333" xlink:href="#b"/><linearGradient id="ae" y1="1.161" y2="-0.289" xlink:href="#b"/><linearGradient id="af" y1="1.118" y2="-0.266" xlink:href="#b"/><linearGradient id="ag" y1="1.247" y2="-0.159" xlink:href="#b"/><linearGradient id="ah" y1="1.079" y2="0.066" xlink:href="#b"/><linearGradient id="ai" y1="1.946" y2="0.067" xlink:href="#m"/><linearGradient id="aj" x1="0.5" y1="1.32" x2="0.5" y2="0.77" xlink:href="#e"/></defs><g clip-path="url(#a)"><g transform="translate(-222.694 -143.475)"><rect width="660.16" height="440.107" fill="#e0edfc"/><path d="M660.16,539.6V841.97H0V539.689s49.961-27.612,88.356-22.312,241.724,88.436,314.782,78.045S560.7,510.406,560.7,510.406,616.386,504.974,660.16,539.6Z" transform="translate(0 -401.864)" fill="url(#b)"/><path d="M660.16,668.721V831.086H0V663.712c24.3.758,72.063.731,110.907-8.669,54.573-13.2,167.461-43.579,230.616-34.328S480.6,649.762,493.8,647.121s36.344-40.824,55.137-38.9C560.907,609.448,607.329,649.118,660.16,668.721Z" transform="translate(0 -390.979)" fill="url(#c)"/><path d="M660.16,795.594V843.83H0V785.621c24.54-8.881,68.3-25.156,88.356-35.393,28.713-14.664,259.328-50.753,346.469-28.748S571.8,756.028,571.8,756.028,616.36,787.012,660.16,795.594Z" transform="translate(0 -403.723)" fill="url(#d)"/><g transform="translate(90.114 188.664)"><path d="M140.7,619.072s47.7-27.718,113.45-7.735,68.328,40.61,110.872,41.9,110.227-70.261,160.506-56.08S552.6,753.794,552.6,753.794s-36.1,67.683-144.391,38.031c-83.442-22.848-141.812,20.628-188.868,1.29S91.069,642.278,140.7,619.072Z" transform="translate(-105.11 -578.103)" fill="#e0edfc"/><g transform="translate(119.821 42.01)"><path d="M297.808,653.143a29.652,29.652,0,1,1-29.652-29.652A29.652,29.652,0,0,1,297.808,653.143Z" transform="translate(-238.505 -623.491)" fill="#fff"/><path d="M297.808,653.143a29.652,29.652,0,1,1-29.652-29.652A29.652,29.652,0,0,1,297.808,653.143Z" transform="translate(-238.505 -623.491)" fill="url(#e)"/></g><g clip-path="url(#f)"><rect width="563.382" height="287.492" transform="translate(-43.188 -16.875)" fill="#bdcfff"/><rect width="563.382" height="287.492" transform="translate(-43.188 -16.875)" fill="url(#g)"/><rect width="563.382" height="287.492" transform="translate(-43.188 -16.875)" fill="url(#h)"/><path d="M98.473,727.038s37.648-11.437,42.544-13.321c5.586-2.149,17.189-8.165,20.627-7.735s18.049,9.024,23.205,11.173,19.339,1.288,25.355,3.867,33.948,9.454,33.948,9.454l11.6,2.149s84.228,1.718,97.55,1.289S393.7,719.3,393.7,719.3s24.495-15.04,29.221-14.181,10.744,1.29,10.744,1.29,16.33-16.76,20.2-17.62,7.3-3.868,11.173-2.148,20.2,15.9,22.346,17.19,12.033,8.164,14.181,8.594,24.5,10.745,26.214,11.173,13.752,2.579,15.041,2.579S557,721.88,557,721.88H572.47l6.875,7.306,3.438,5.156-471.848,4.3Z" transform="translate(-101.91 -588.983)" fill="#bdcfff" opacity="0.4"/><path d="M531.522,730.138s19.339-9.025,22.347-11.6,13.321-12.892,18.477-12.463,21.918-16.33,25.355-18.909,15.9-15.039,18.478-14.611,8.165,5.587,8.165,5.587l6.016-.86,6.874.43,28.794,55.864Z" transform="translate(-153.784 -587.356)" fill="#bdcfff" opacity="0.4"/><path d="M533.946,732.306S500.12,719.7,495.888,718.07c-4.828-1.857-14.855-7.057-17.826-6.686s-15.6,7.8-20.056,9.657-16.713,1.114-21.913,3.343-29.339,8.17-29.339,8.17l-10.028,1.857s-72.793,1.485-84.306,1.114S277.509,722.9,277.509,722.9s-21.17-13-25.255-12.255-9.285,1.113-9.285,1.113-14.112-14.485-17.456-15.227-6.313-3.342-9.656-1.857-17.456,13.742-19.312,14.856-10.4,7.057-12.256,7.427-21.171,9.285-22.656,9.657-11.884,2.228-13,2.228-12.256-3.714-12.256-3.714h-13.37l-5.942,6.314L114.1,735.9l407.79,3.714Z" transform="translate(-103.782 -589.953)" fill="#bdcfff" opacity="0.4"/><rect width="563.382" height="128.276" transform="translate(-43.188 142.342)" fill="#7ea0ff"/><g transform="translate(14.18 144.502)" opacity="0.5"><path d="M283.779,739.93c-4.72,2.155-11.751,1.737-16.944,1.719-9.38-.03-18.77.768-28.167.86-8.807.087-17.453.378-26.2.763-7.605.336-16.511-1.1-23.537,2.161,6.666,1.921,14.678.165,21.648.515,6.214.313,12.319,1.131,18.605.869,11.757-.492,22.727,1.279,34.511,1.279-3.256-.1-11.91-.384-15.116,1.612,7.521,2.4,17.558.582,25.385.2,6.166-.3,18.714,2.283,23.931-1.9-1.216-6.5-13.372-6.152-18.411-4.64" transform="translate(-126.926 -739.93)" fill="url(#i)"/><path d="M118.488,750.045c9.068,3.935,21.852.6,31.769,1.623,4.435.458,8.876.76,13.387.954,3.8.162,12.707,1.369,15.443-.787-3.79-1.052-8.044-.367-12.02-.5a59.825,59.825,0,0,1-18.921-3.688c5.046,1.339,16.178-1.086,21.873-2.4-6.268-5.133-22.536-2.915-30.695-2.936-5.566-.016-15.679-1.836-16.109,5.156" transform="translate(-118.488 -740.16)" fill="url(#i)"/><path d="M512.559,753.491c4.322,2.317,11.234-.026,15.964-.344,4.359-.294,8.678-.469,13.034-.515,9.914-.1,23.2,1.617,32.784-1.3a119.737,119.737,0,0,0-14.888-.848c-3.8-.01-9.646-1.456-13.171,0,5.626,1.954,18.763-.1,23.4-3.784-10.668-2.645-24.282-.181-35.2.786-7.65.677-17.96-1.141-24.925,1.279" transform="translate(-165.332 -740.599)" fill="url(#i)"/><path d="M650.4,748.681c-10.653-1.446-22.167,1.479-32.983,2.053-8.689.461-17.479.1-26.191.1,3.592-.108,5.113.8,8.8-.323a88.962,88.962,0,0,1,11.578-2.254c-3.842-.43-8.932.085-12.616-1.29,7.148-3.208,19.886-1.288,27.768-1.289,3.668,0,24.943-3.281,23.215,3.008" transform="translate(-175.116 -740.515)" fill="url(#i)"/></g><rect width="563.382" height="109.582" transform="translate(-43.188 161.035)" fill="#1a2d6d"/><rect width="563.382" height="109.582" transform="translate(-43.188 161.035)" fill="url(#m)" style="mix-blend-mode:multiply;isolation:isolate"/><path d="M594.5,810.684s5.587-36.957,10.743-37.387,9.025-2.149,10.744-1.719,4.727-12.462,7.3-19.338,8.6-10.743,11.173-9.883,10.313,12.461,10.313,12.461V824Z" transform="translate(-161.328 -595.705)"/><path d="M594.5,810.684s5.587-36.957,10.743-37.387,9.025-2.149,10.744-1.719,4.727-12.462,7.3-19.338,8.6-10.743,11.173-9.883,10.313,12.461,10.313,12.461V824Z" transform="translate(-161.328 -595.705)" fill="url(#n)"/><path d="M210.462,823.391s-2.149-30.512-6.875-31.372-9.884-2.148-9.884-2.148-.86-14.612-4.728-16.331-15.471.43-17.619,7.306-13.322,29.221-13.322,29.221Z" transform="translate(-109.045 -599.387)"/><path d="M210.462,823.391s-2.149-30.512-6.875-31.372-9.884-2.148-9.884-2.148-.86-14.612-4.728-16.331-15.471.43-17.619,7.306-13.322,29.221-13.322,29.221Z" transform="translate(-109.045 -599.387)" fill="url(#o)"/><path d="M102.378,812.824V684.762l8.594,8.166s-3.008,26.643,3.438,30.081,12.033,24.065,12.033,24.065-.859,19.767,5.157,21.487c0,0,9.453,2.577,12.032,19.768s3.437,24.495,3.437,24.495Z" transform="translate(-102.378 -588.82)"/><path d="M102.378,812.824V684.762l8.594,8.166s-3.008,26.643,3.438,30.081,12.033,24.065,12.033,24.065-.859,19.767,5.157,21.487c0,0,9.453,2.577,12.032,19.768s3.437,24.495,3.437,24.495Z" transform="translate(-102.378 -588.82)" fill="url(#p)"/><path d="M593.068,799.579s-3.867-22.239-13.215-32.552c0,0,2.257,23.527,8.38,32.552Z" transform="translate(-159.573 -598.674)"/><path d="M587.426,803.607s-12.788-18.6-25.583-24.076c0,0,11.86,20.443,21.189,26.092Z" transform="translate(-157.416 -600.172)"/><path d="M186.627,770.339s-2.96-17.022-10.115-24.916c0,0,1.727,18.009,6.414,24.916Z" transform="translate(-111.258 -596.086)"/><path d="M188.177,772.305s3.376-12.228,1.1-19.714c0,0-4.5,12.5-3.56,18.554Z" transform="translate(-112.346 -596.945)"/><path d="M184.14,771.958s-9.789-14.237-19.583-18.428c0,0,9.079,15.648,16.219,19.972Z" transform="translate(-109.826 -597.058)"/><path d="M618.135,808.536c-3.008-8.594,3.438-21.057,7.736-27.074s7.734-14.181,7.3-27.073a48.277,48.277,0,0,1,1.153-12.061c-2.645-.694-8.5,3.149-11.037,9.912-2.578,6.876-5.586,19.768-7.3,19.338s-5.588,1.289-10.744,1.719S594.5,810.686,594.5,810.686l30.233,8.009C621.568,815.06,619.118,811.341,618.135,808.536Z" transform="translate(-161.328 -595.706)" fill="url(#q)"/><g transform="translate(69.816 173.59)"><path d="M205.465,812.53a20.015,20.015,0,0,0-1.022,10.4l11.55,2.936s-2.149-30.512-6.875-31.372c-1.451-.264-2.94-.568-4.31-.863C206.283,796.98,208.867,804.745,205.465,812.53Z" transform="translate(-184.391 -775.451)" fill="url(#r)"/><path d="M187.513,789.01c1.719,5.156,7.3.863,9.024.862,0,0-.86-14.612-4.728-16.331-2.051-.912-6.277-.735-10.115.657C183.809,779.331,186.521,786.031,187.513,789.01Z" transform="translate(-181.695 -772.977)" fill="url(#s)"/></g><path d="M115.461,727.455c-1.507-.8-2.5-2.876-3.129-5.577-.572,4.222-2.818,22.851.981,30.071,4.3,8.165,8.165,24.5,7.735,33.089-.348,6.949-1.256,25.414-1.592,32.233H148.12s-.859-7.306-3.437-24.495-12.032-19.768-12.032-19.768c-6.016-1.72-5.157-21.487-5.157-21.487S121.907,730.892,115.461,727.455Z" transform="translate(-103.429 -593.266)" fill="url(#t)"/></g><g transform="translate(299.072 23.513)"><path d="M470.532,736.167l5.78.385s0-34.29-.577-45.654-5.2-49.894-5.587-51.628a5.071,5.071,0,0,1,.063-2.825l1.477,1.862-.32,3.274,1.348-2.44-.128,3.4,1.54-1.991-.514,3.275,2.055-1.734-.32,3.339,1.8-1.67.13,3.148s1.54-1.8,1.54-1.413-.322,3.467-.322,3.467,1.863-1.863,1.863-1.541.064,2.954.064,2.954,1.478-3.981,1.605-2.826.834,5.587.834,5.587a49.062,49.062,0,0,0-.77-6.742c-.514-1.863-3.6-6.871-3.6-6.871l-1.862-2.825-1.412-2.825s-1.349-1.35-1.157-1.285,2.7,2.055,2.7,2.055l-1.927-4.56,6.165,8.8-3.66-8.284,1.669,4.174,1.028-1.606-.129,2.119,1.285-.77.063,2.7.9-1.541.513,2.184,1.734-2.5.128,3.853,1.926-3.4s-.385,3.274-.449,3.66a33.365,33.365,0,0,0,1.99-3.274s.129,3.4.129,3.916,1.926-2.376,1.926-2.376l.321,2.761,1.863-2.375,2.054,2.247s-.578-1.927-5.393-5.587-7.513-5.845-9.761-7.129a8.669,8.669,0,0,1-2.569-1.8,5.326,5.326,0,0,1,2.377-.963c1.027,0,.9-1.478.9-1.478l1.926,1.863-.385-1.349,1.091.964v-1.606l1.478,1.734.449-1.156,2.119,2.246-.256-1.862,2.76,2.247-.128-1.733,2.118,2.054-.256-1.606,2.505,1.349a7.123,7.123,0,0,0-5.523-4.238,18.632,18.632,0,0,0-8.027.128V621.8l1.735-.9-.515-1.157s2.505.194,2.312.129a18.678,18.678,0,0,1-2.505-2.054c.257.065,5.972.45,5.78.45s-2.826-1.221-2.119-1.028,4.944,1.027,4.752.963-2.377-1.22-1.478-.963,4.624.963,3.853.578-3.916-1.156-1.6-.9,2.7.578,2.311.257-1.605-.835-.578-.578,2.377.128,1.991.064,1.348-.193,1.348-.193a13,13,0,0,0-3.981-1.349,33.826,33.826,0,0,0-5.136.45,29.548,29.548,0,0,0-6.229,2.954,5.427,5.427,0,0,1-2.761,1.348l-.642-.77,1.156-3.018-1.156-.385,2.246-.9-1.155-.514s2.953-.963,2.5-1.027a20.194,20.194,0,0,1-2.568-.835,12.121,12.121,0,0,0,2.375-.963s-2.054-.577-1.67-.513a17.354,17.354,0,0,0,2.891-.9l-2.248-1.413,1.863-.513s-1.027-1.092-.385-.964a18.893,18.893,0,0,0,3.209-.257s-1.8-1.026-1.476-.963a7.185,7.185,0,0,0,1.862-.9s-2.634-.643-3.467-.257-4.174.77-5.265,3.017-2.89,4.881-3.147,5.908a2.66,2.66,0,0,1-1.22,1.541,10.682,10.682,0,0,1-.321-1.22c0-.193-.064-2.184-.064-2.184a10.283,10.283,0,0,1-.257-1.669,8.861,8.861,0,0,0-.449-1.67,17.661,17.661,0,0,1-1.091-2.634,19.183,19.183,0,0,0-1.285-2.568l-1.668-.834-1.8,1.348-.063,1.735,1.989-.451-1.348,1.028.963.256-1.283,1.349.963.192s-1.156,1.028-.9,1.092,1.284.257,1.22.449-.32,1.478-.32,1.478l1.091-.065-1.54,1.606.835.643s-.195,1.155.128,1.219-.128.386-.321.835a2.132,2.132,0,0,0,.257,1.477c.129.193-.514.643-.771.129s.708-.064-1.926-3.531a37.449,37.449,0,0,0-5.908-6.036s-3.017-.192-2.632-.128.257,1.091.577,1.284,2.247,1.926,1.8,1.862-2.055-.772-1.284-.321a16.318,16.318,0,0,1,2.632,1.733c-.256,0-1.991-.192-1.669,0s1.862,1.734,1.862,1.734l-.32.193a22.121,22.121,0,0,1,2.183,1.221h-1.091l1.67,1.862-.643.193,1.478,1.477s-.706,0-.257.385,1.219,1.221,1.219,1.221l-.514.834s-5.907-3.917-8.733-4.816-5.522-1.028-7.962.449a30.344,30.344,0,0,0-2.891,1.862l5.588-.9-1.413,1.091,2.568-.643s-.962,1.091-.577,1.091a13.1,13.1,0,0,0,1.927-.514s-.322.9.128.9a12.064,12.064,0,0,0,2.248-.834l-.708,1.156,2.634-.321-.064,1.027s1.734-.385,1.67-.193-.835.964-.45,1.028a11.678,11.678,0,0,0,1.8-.128l-.193.642,1.284-.128-.193.77,1.863-.257-.386.963s-4.3-1.092-7.128-.578a43.533,43.533,0,0,0-6.356,1.862,24.051,24.051,0,0,0-1.992,1.606c-.256.321-1.091,1.284-1.091,1.284l2.119-.707v.643l2.826-.963s-1.413,1.027-.964,1.027,5.331-1.863,5.331-1.863l-1.22.963,3.082-.577-.257.835,2.054-.386s-6.613.32-7.9,1.669a21.062,21.062,0,0,1-3.468,2.7l-.834,1.028,1.991-.385.257.643,2.119-1.8a8.173,8.173,0,0,0-.129,1.413c.064.192,2.311-1.22,2.311-1.22l-.193.642,3.275-2.311a14.233,14.233,0,0,1-.064,1.541c-.064.193.9-.577,1.22-.643s-.256,1.414.578.771,2.89-1.8,2.89-1.8l.063.707h3.275s-5.009,2.953-6.808,4.3a30.46,30.46,0,0,0-4.623,4.175c-.128.385-1.221,1.861-1.54,2.375s-2.376,4.688-2.376,4.688l-.45,1.22,3.082-1.863.514,1.156,1.348-3.66,1.156,1.991,1.349-3.211.834.642.257-3.21s.642.578.707,0,1.669-1.991,1.669-1.991.834.065,1.157.065a8.016,8.016,0,0,0,1.669-.835l1.927.257s-4.752,1.092-5.523,2.5-.063,3.661-.063,3.661,3.211-3.147,3.211-2.441a5.507,5.507,0,0,1-.129,1.22l1.606-1.22.963-.321,1.67-1.54a10.815,10.815,0,0,0-2.055,4.88,36.673,36.673,0,0,0-.385,6.55c.064.257,1.156,2.825,1.156,2.825l-.642-4.816a23.024,23.024,0,0,0,1.412,2.825c.065-.193-.577-4.3-.385-4.3s.77,1.22.77,1.22l.129-4.624s1.54,3.147,1.413,2.825a25.364,25.364,0,0,1,.064-3.211s.9,1.733,1.091,1.027.578-3.467.578-3.467l.643,1.22L467,636.573l1.733,1.606s1.414,12.073,1.606,15.283,1.861,32.812,2.245,41.1-.769,23.437-.769,28.895A89.269,89.269,0,0,1,470.532,736.167Z" transform="translate(-442.15 -602.476)" fill="#182b71"/><path d="M470.532,736.167l5.78.385s0-34.29-.577-45.654-5.2-49.894-5.587-51.628a5.071,5.071,0,0,1,.063-2.825l1.477,1.862-.32,3.274,1.348-2.44-.128,3.4,1.54-1.991-.514,3.275,2.055-1.734-.32,3.339,1.8-1.67.13,3.148s1.54-1.8,1.54-1.413-.322,3.467-.322,3.467,1.863-1.863,1.863-1.541.064,2.954.064,2.954,1.478-3.981,1.605-2.826.834,5.587.834,5.587a49.062,49.062,0,0,0-.77-6.742c-.514-1.863-3.6-6.871-3.6-6.871l-1.862-2.825-1.412-2.825s-1.349-1.35-1.157-1.285,2.7,2.055,2.7,2.055l-1.927-4.56,6.165,8.8-3.66-8.284,1.669,4.174,1.028-1.606-.129,2.119,1.285-.77.063,2.7.9-1.541.513,2.184,1.734-2.5.128,3.853,1.926-3.4s-.385,3.274-.449,3.66a33.365,33.365,0,0,0,1.99-3.274s.129,3.4.129,3.916,1.926-2.376,1.926-2.376l.321,2.761,1.863-2.375,2.054,2.247s-.578-1.927-5.393-5.587-7.513-5.845-9.761-7.129a8.669,8.669,0,0,1-2.569-1.8,5.326,5.326,0,0,1,2.377-.963c1.027,0,.9-1.478.9-1.478l1.926,1.863-.385-1.349,1.091.964v-1.606l1.478,1.734.449-1.156,2.119,2.246-.256-1.862,2.76,2.247-.128-1.733,2.118,2.054-.256-1.606,2.505,1.349a7.123,7.123,0,0,0-5.523-4.238,18.632,18.632,0,0,0-8.027.128V621.8l1.735-.9-.515-1.157s2.505.194,2.312.129a18.678,18.678,0,0,1-2.505-2.054c.257.065,5.972.45,5.78.45s-2.826-1.221-2.119-1.028,4.944,1.027,4.752.963-2.377-1.22-1.478-.963,4.624.963,3.853.578-3.916-1.156-1.6-.9,2.7.578,2.311.257-1.605-.835-.578-.578,2.377.128,1.991.064,1.348-.193,1.348-.193a13,13,0,0,0-3.981-1.349,33.826,33.826,0,0,0-5.136.45,29.548,29.548,0,0,0-6.229,2.954,5.427,5.427,0,0,1-2.761,1.348l-.642-.77,1.156-3.018-1.156-.385,2.246-.9-1.155-.514s2.953-.963,2.5-1.027a20.194,20.194,0,0,1-2.568-.835,12.121,12.121,0,0,0,2.375-.963s-2.054-.577-1.67-.513a17.354,17.354,0,0,0,2.891-.9l-2.248-1.413,1.863-.513s-1.027-1.092-.385-.964a18.893,18.893,0,0,0,3.209-.257s-1.8-1.026-1.476-.963a7.185,7.185,0,0,0,1.862-.9s-2.634-.643-3.467-.257-4.174.77-5.265,3.017-2.89,4.881-3.147,5.908a2.66,2.66,0,0,1-1.22,1.541,10.682,10.682,0,0,1-.321-1.22c0-.193-.064-2.184-.064-2.184a10.283,10.283,0,0,1-.257-1.669,8.861,8.861,0,0,0-.449-1.67,17.661,17.661,0,0,1-1.091-2.634,19.183,19.183,0,0,0-1.285-2.568l-1.668-.834-1.8,1.348-.063,1.735,1.989-.451-1.348,1.028.963.256-1.283,1.349.963.192s-1.156,1.028-.9,1.092,1.284.257,1.22.449-.32,1.478-.32,1.478l1.091-.065-1.54,1.606.835.643s-.195,1.155.128,1.219-.128.386-.321.835a2.132,2.132,0,0,0,.257,1.477c.129.193-.514.643-.771.129s.708-.064-1.926-3.531a37.449,37.449,0,0,0-5.908-6.036s-3.017-.192-2.632-.128.257,1.091.577,1.284,2.247,1.926,1.8,1.862-2.055-.772-1.284-.321a16.318,16.318,0,0,1,2.632,1.733c-.256,0-1.991-.192-1.669,0s1.862,1.734,1.862,1.734l-.32.193a22.121,22.121,0,0,1,2.183,1.221h-1.091l1.67,1.862-.643.193,1.478,1.477s-.706,0-.257.385,1.219,1.221,1.219,1.221l-.514.834s-5.907-3.917-8.733-4.816-5.522-1.028-7.962.449a30.344,30.344,0,0,0-2.891,1.862l5.588-.9-1.413,1.091,2.568-.643s-.962,1.091-.577,1.091a13.1,13.1,0,0,0,1.927-.514s-.322.9.128.9a12.064,12.064,0,0,0,2.248-.834l-.708,1.156,2.634-.321-.064,1.027s1.734-.385,1.67-.193-.835.964-.45,1.028a11.678,11.678,0,0,0,1.8-.128l-.193.642,1.284-.128-.193.77,1.863-.257-.386.963s-4.3-1.092-7.128-.578a43.533,43.533,0,0,0-6.356,1.862,24.051,24.051,0,0,0-1.992,1.606c-.256.321-1.091,1.284-1.091,1.284l2.119-.707v.643l2.826-.963s-1.413,1.027-.964,1.027,5.331-1.863,5.331-1.863l-1.22.963,3.082-.577-.257.835,2.054-.386s-6.613.32-7.9,1.669a21.062,21.062,0,0,1-3.468,2.7l-.834,1.028,1.991-.385.257.643,2.119-1.8a8.173,8.173,0,0,0-.129,1.413c.064.192,2.311-1.22,2.311-1.22l-.193.642,3.275-2.311a14.233,14.233,0,0,1-.064,1.541c-.064.193.9-.577,1.22-.643s-.256,1.414.578.771,2.89-1.8,2.89-1.8l.063.707h3.275s-5.009,2.953-6.808,4.3a30.46,30.46,0,0,0-4.623,4.175c-.128.385-1.221,1.861-1.54,2.375s-2.376,4.688-2.376,4.688l-.45,1.22,3.082-1.863.514,1.156,1.348-3.66,1.156,1.991,1.349-3.211.834.642.257-3.21s.642.578.707,0,1.669-1.991,1.669-1.991.834.065,1.157.065a8.016,8.016,0,0,0,1.669-.835l1.927.257s-4.752,1.092-5.523,2.5-.063,3.661-.063,3.661,3.211-3.147,3.211-2.441a5.507,5.507,0,0,1-.129,1.22l1.606-1.22.963-.321,1.67-1.54a10.815,10.815,0,0,0-2.055,4.88,36.673,36.673,0,0,0-.385,6.55c.064.257,1.156,2.825,1.156,2.825l-.642-4.816a23.024,23.024,0,0,0,1.412,2.825c.065-.193-.577-4.3-.385-4.3s.77,1.22.77,1.22l.129-4.624s1.54,3.147,1.413,2.825a25.364,25.364,0,0,1,.064-3.211s.9,1.733,1.091,1.027.578-3.467.578-3.467l.643,1.22L467,636.573l1.733,1.606s1.414,12.073,1.606,15.283,1.861,32.812,2.245,41.1-.769,23.437-.769,28.895A89.269,89.269,0,0,1,470.532,736.167Z" transform="translate(-442.15 -602.476)" fill="url(#u)"/></g><g transform="translate(416.453 44.296)"><path d="M606.394,742.837l-5.742.769s-.794-17.23-.974-28.608,1.87-50.131,2.139-51.885a5.073,5.073,0,0,0-.253-2.816l-1.349,1.957.538,3.245-1.508-2.345.355,3.388-1.67-1.884.731,3.233L596.5,666.3l.543,3.31-1.9-1.547.081,3.148s-1.657-1.692-1.631-1.306.551,3.438.551,3.438-1.982-1.735-1.961-1.414.133,2.952.133,2.952-1.739-3.875-1.79-2.713-.46,5.63-.46,5.63a49.046,49.046,0,0,1,.319-6.779c.389-1.892,3.131-7.095,3.131-7.095l1.67-2.943,1.223-2.913s1.255-1.437,1.068-1.359-2.554,2.23-2.554,2.23l1.619-4.677-5.567,9.188,3.1-8.509-1.388,4.276-1.133-1.534.269,2.106-1.333-.684.117,2.7-1-1.478-.367,2.214-1.9-2.384.129,3.853-2.149-3.268s.6,3.242.692,3.622a33.475,33.475,0,0,1-2.2-3.135s.1,3.4.131,3.917-2.08-2.243-2.08-2.243l-.137,2.776-2.016-2.246-1.9,2.38s.449-1.961,5.01-5.934,7.107-6.331,9.264-7.762a8.682,8.682,0,0,0,2.443-1.965,5.328,5.328,0,0,0-2.436-.8c-1.025.07-.995-1.414-.995-1.414l-1.8,1.987.295-1.371-1.025,1.033-.107-1.6-1.358,1.828-.526-1.123-1.964,2.383.131-1.874-2.605,2.425.014-1.738-1.978,2.192.15-1.619-2.41,1.512a7.124,7.124,0,0,1,5.228-4.6,18.641,18.641,0,0,1,8.017-.407l-.043-.64-1.79-.782.436-1.187s-2.486.359-2.3.282a18.707,18.707,0,0,0,2.363-2.217c-.253.082-5.929.847-5.737.834s2.738-1.407,2.046-1.167-4.865,1.354-4.677,1.277,2.29-1.376,1.41-1.06-4.549,1.269-3.805.834,3.832-1.414,1.541-1-2.653.756-2.289.41,1.547-.94.539-.615-2.363.285-1.982.2-1.358-.1-1.358-.1a13.007,13.007,0,0,1,3.883-1.61,33.678,33.678,0,0,1,5.155.107,29.5,29.5,0,0,1,6.412,2.532,5.424,5.424,0,0,0,2.844,1.161l.59-.811-1.355-2.935,1.128-.461-2.3-.748,1.119-.589s-3.012-.764-2.568-.858a20.067,20.067,0,0,0,2.507-1,12.085,12.085,0,0,1-2.435-.8s2.012-.713,1.632-.623a17.338,17.338,0,0,1-2.943-.706l2.149-1.558-1.893-.389s.952-1.157.32-.987a18.918,18.918,0,0,1-3.219-.042s1.724-1.145,1.408-1.06a7.2,7.2,0,0,1-1.916-.773s2.585-.816,3.442-.487,4.215.489,5.455,2.66,3.208,4.677,3.532,5.685a2.66,2.66,0,0,0,1.32,1.457,10.769,10.769,0,0,0,.239-1.238c-.012-.192-.081-2.183-.081-2.183a10.14,10.14,0,0,0,.144-1.682,8.884,8.884,0,0,1,.338-1.7,17.614,17.614,0,0,0,.914-2.7,19.223,19.223,0,0,1,1.111-2.648l1.61-.944,1.884,1.225.18,1.726-2.016-.317,1.415.937-.944.32,1.37,1.26-.948.256s1.222.949.97,1.03-1.264.342-1.187.529.418,1.452.418,1.452l-1.093.008,1.644,1.5-.79.7s.271,1.14-.047,1.225.153.378.376.812a2.128,2.128,0,0,1-.158,1.49c-.115.2.555.607.777.077s-.709-.017,1.687-3.652a37.475,37.475,0,0,1,5.493-6.416s3-.393,2.619-.3-.185,1.106-.491,1.319-2.114,2.072-1.67,1.978,2-.906,1.26-.406a16.292,16.292,0,0,0-2.511,1.906c.255-.018,1.973-.325,1.666-.111s-1.743,1.854-1.743,1.854l.333.17a22.168,22.168,0,0,0-2.1,1.363l1.09-.072-1.542,1.969.654.149-1.377,1.572s.7-.047.282.368-1.135,1.3-1.135,1.3l.568.8s5.633-4.3,8.393-5.386,5.441-1.393,7.975-.081a30.163,30.163,0,0,1,3.007,1.665l-5.635-.525,1.484,1-2.606-.47s1.033,1.025.649,1.051a13.088,13.088,0,0,1-1.955-.386s.38.877-.069.907a12.119,12.119,0,0,1-2.3-.683l.782,1.106-2.649-.145.132,1.02s-1.754-.269-1.678-.081.9.906.517,1a11.547,11.547,0,0,1-1.8-.009l.236.628-1.291-.042.245.756-1.876-.133.448.936s4.22-1.376,7.073-1.051a43.586,43.586,0,0,1,6.467,1.435,24.116,24.116,0,0,1,2.094,1.47c.277.3,1.173,1.208,1.173,1.208l-2.161-.564.043.642-2.884-.773s1.479.93,1.029.96-5.442-1.5-5.442-1.5l1.283.879-3.114-.371.312.816-2.076-.247s6.62-.121,7.991,1.139a21.045,21.045,0,0,0,3.64,2.46l.9.97-2.012-.252-.213.658-2.234-1.653a8.309,8.309,0,0,1,.222,1.4c-.052.2-2.388-1.063-2.388-1.063l.234.628-3.421-2.089a14.1,14.1,0,0,0,.166,1.533c.077.188-.936-.516-1.26-.559s.35,1.392-.526.807-3-1.6-3-1.6l-.017.709-3.267.217s5.195,2.614,7.078,3.839a30.5,30.5,0,0,1,4.891,3.857c.153.376,1.342,1.776,1.7,2.268s2.682,4.519,2.682,4.519l.529,1.187-3.2-1.653-.436,1.187-1.589-3.562-1.02,2.064-1.559-3.114-.791.7-.47-3.186s-.6.62-.705.047-1.8-1.877-1.8-1.877-.827.122-1.149.143a7.965,7.965,0,0,1-1.721-.723l-1.9.385s4.813.774,5.676,2.131.307,3.648.307,3.648-3.413-2.926-3.367-2.221a5.54,5.54,0,0,0,.21,1.209l-1.683-1.11-.982-.257-1.769-1.426a10.8,10.8,0,0,1,2.376,4.732,36.584,36.584,0,0,1,.82,6.51c-.047.26-.965,2.9-.965,2.9l.32-4.847a23.056,23.056,0,0,1-1.223,2.913c-.078-.188.291-4.331.1-4.318s-.687,1.268-.687,1.268l-.437-4.6s-1.327,3.243-1.221,2.914a25.4,25.4,0,0,0-.278-3.2s-.782,1.789-1.02,1.1-.808-3.422-.808-3.422l-.56,1.261-.166-3.464-1.624,1.716s-.606,12.141-.585,15.357.327,32.864.493,41.154.842,6.351,1.205,11.8A89.224,89.224,0,0,0,606.394,742.837Z" transform="translate(-575.506 -626.088)" fill="#182b71"/><path d="M606.394,742.837l-5.742.769s-.794-17.23-.974-28.608,1.87-50.131,2.139-51.885a5.073,5.073,0,0,0-.253-2.816l-1.349,1.957.538,3.245-1.508-2.345.355,3.388-1.67-1.884.731,3.233L596.5,666.3l.543,3.31-1.9-1.547.081,3.148s-1.657-1.692-1.631-1.306.551,3.438.551,3.438-1.982-1.735-1.961-1.414.133,2.952.133,2.952-1.739-3.875-1.79-2.713-.46,5.63-.46,5.63a49.046,49.046,0,0,1,.319-6.779c.389-1.892,3.131-7.095,3.131-7.095l1.67-2.943,1.223-2.913s1.255-1.437,1.068-1.359-2.554,2.23-2.554,2.23l1.619-4.677-5.567,9.188,3.1-8.509-1.388,4.276-1.133-1.534.269,2.106-1.333-.684.117,2.7-1-1.478-.367,2.214-1.9-2.384.129,3.853-2.149-3.268s.6,3.242.692,3.622a33.475,33.475,0,0,1-2.2-3.135s.1,3.4.131,3.917-2.08-2.243-2.08-2.243l-.137,2.776-2.016-2.246-1.9,2.38s.449-1.961,5.01-5.934,7.107-6.331,9.264-7.762a8.682,8.682,0,0,0,2.443-1.965,5.328,5.328,0,0,0-2.436-.8c-1.025.07-.995-1.414-.995-1.414l-1.8,1.987.295-1.371-1.025,1.033-.107-1.6-1.358,1.828-.526-1.123-1.964,2.383.131-1.874-2.605,2.425.014-1.738-1.978,2.192.15-1.619-2.41,1.512a7.124,7.124,0,0,1,5.228-4.6,18.641,18.641,0,0,1,8.017-.407l-.043-.64-1.79-.782.436-1.187s-2.486.359-2.3.282a18.707,18.707,0,0,0,2.363-2.217c-.253.082-5.929.847-5.737.834s2.738-1.407,2.046-1.167-4.865,1.354-4.677,1.277,2.29-1.376,1.41-1.06-4.549,1.269-3.805.834,3.832-1.414,1.541-1-2.653.756-2.289.41,1.547-.94.539-.615-2.363.285-1.982.2-1.358-.1-1.358-.1a13.007,13.007,0,0,1,3.883-1.61,33.678,33.678,0,0,1,5.155.107,29.5,29.5,0,0,1,6.412,2.532,5.424,5.424,0,0,0,2.844,1.161l.59-.811-1.355-2.935,1.128-.461-2.3-.748,1.119-.589s-3.012-.764-2.568-.858a20.067,20.067,0,0,0,2.507-1,12.085,12.085,0,0,1-2.435-.8s2.012-.713,1.632-.623a17.338,17.338,0,0,1-2.943-.706l2.149-1.558-1.893-.389s.952-1.157.32-.987a18.918,18.918,0,0,1-3.219-.042s1.724-1.145,1.408-1.06a7.2,7.2,0,0,1-1.916-.773s2.585-.816,3.442-.487,4.215.489,5.455,2.66,3.208,4.677,3.532,5.685a2.66,2.66,0,0,0,1.32,1.457,10.769,10.769,0,0,0,.239-1.238c-.012-.192-.081-2.183-.081-2.183a10.14,10.14,0,0,0,.144-1.682,8.884,8.884,0,0,1,.338-1.7,17.614,17.614,0,0,0,.914-2.7,19.223,19.223,0,0,1,1.111-2.648l1.61-.944,1.884,1.225.18,1.726-2.016-.317,1.415.937-.944.32,1.37,1.26-.948.256s1.222.949.97,1.03-1.264.342-1.187.529.418,1.452.418,1.452l-1.093.008,1.644,1.5-.79.7s.271,1.14-.047,1.225.153.378.376.812a2.128,2.128,0,0,1-.158,1.49c-.115.2.555.607.777.077s-.709-.017,1.687-3.652a37.475,37.475,0,0,1,5.493-6.416s3-.393,2.619-.3-.185,1.106-.491,1.319-2.114,2.072-1.67,1.978,2-.906,1.26-.406a16.292,16.292,0,0,0-2.511,1.906c.255-.018,1.973-.325,1.666-.111s-1.743,1.854-1.743,1.854l.333.17a22.168,22.168,0,0,0-2.1,1.363l1.09-.072-1.542,1.969.654.149-1.377,1.572s.7-.047.282.368-1.135,1.3-1.135,1.3l.568.8s5.633-4.3,8.393-5.386,5.441-1.393,7.975-.081a30.163,30.163,0,0,1,3.007,1.665l-5.635-.525,1.484,1-2.606-.47s1.033,1.025.649,1.051a13.088,13.088,0,0,1-1.955-.386s.38.877-.069.907a12.119,12.119,0,0,1-2.3-.683l.782,1.106-2.649-.145.132,1.02s-1.754-.269-1.678-.081.9.906.517,1a11.547,11.547,0,0,1-1.8-.009l.236.628-1.291-.042.245.756-1.876-.133.448.936s4.22-1.376,7.073-1.051a43.586,43.586,0,0,1,6.467,1.435,24.116,24.116,0,0,1,2.094,1.47c.277.3,1.173,1.208,1.173,1.208l-2.161-.564.043.642-2.884-.773s1.479.93,1.029.96-5.442-1.5-5.442-1.5l1.283.879-3.114-.371.312.816-2.076-.247s6.62-.121,7.991,1.139a21.045,21.045,0,0,0,3.64,2.46l.9.97-2.012-.252-.213.658-2.234-1.653a8.309,8.309,0,0,1,.222,1.4c-.052.2-2.388-1.063-2.388-1.063l.234.628-3.421-2.089a14.1,14.1,0,0,0,.166,1.533c.077.188-.936-.516-1.26-.559s.35,1.392-.526.807-3-1.6-3-1.6l-.017.709-3.267.217s5.195,2.614,7.078,3.839a30.5,30.5,0,0,1,4.891,3.857c.153.376,1.342,1.776,1.7,2.268s2.682,4.519,2.682,4.519l.529,1.187-3.2-1.653-.436,1.187-1.589-3.562-1.02,2.064-1.559-3.114-.791.7-.47-3.186s-.6.62-.705.047-1.8-1.877-1.8-1.877-.827.122-1.149.143a7.965,7.965,0,0,1-1.721-.723l-1.9.385s4.813.774,5.676,2.131.307,3.648.307,3.648-3.413-2.926-3.367-2.221a5.54,5.54,0,0,0,.21,1.209l-1.683-1.11-.982-.257-1.769-1.426a10.8,10.8,0,0,1,2.376,4.732,36.584,36.584,0,0,1,.82,6.51c-.047.26-.965,2.9-.965,2.9l.32-4.847a23.056,23.056,0,0,1-1.223,2.913c-.078-.188.291-4.331.1-4.318s-.687,1.268-.687,1.268l-.437-4.6s-1.327,3.243-1.221,2.914a25.4,25.4,0,0,0-.278-3.2s-.782,1.789-1.02,1.1-.808-3.422-.808-3.422l-.56,1.261-.166-3.464-1.624,1.716s-.606,12.141-.585,15.357.327,32.864.493,41.154.842,6.351,1.205,11.8A89.224,89.224,0,0,0,606.394,742.837Z" transform="translate(-575.506 -626.088)" fill="url(#v)"/></g><g transform="translate(72.497 28.67)"><path d="M213.662,741.356h5.371s-.13-33.235-.709-44.6-5.2-49.894-5.587-51.628a5.079,5.079,0,0,1,.064-2.826l1.477,1.863-.321,3.274,1.348-2.44-.128,3.4,1.54-1.991-.514,3.275,2.055-1.734-.321,3.339,1.8-1.67.129,3.147s1.54-1.8,1.54-1.413-.321,3.467-.321,3.467,1.863-1.863,1.863-1.54.064,2.953.064,2.953,1.477-3.981,1.606-2.825.834,5.586.834,5.586a49.064,49.064,0,0,0-.77-6.742c-.514-1.863-3.6-6.871-3.6-6.871l-1.863-2.825-1.412-2.825s-1.348-1.349-1.156-1.285,2.7,2.055,2.7,2.055l-1.926-4.559,6.165,8.8-3.661-8.284,1.67,4.174,1.028-1.605-.129,2.119,1.285-.77.063,2.7.9-1.541.513,2.184,1.735-2.5.128,3.853,1.926-3.4s-.385,3.275-.45,3.661a33.365,33.365,0,0,0,1.991-3.275s.129,3.4.129,3.917,1.926-2.376,1.926-2.376l.32,2.761,1.863-2.376,2.054,2.247s-.577-1.926-5.393-5.587-7.513-5.845-9.761-7.128a8.669,8.669,0,0,1-2.568-1.8,5.326,5.326,0,0,1,2.376-.963c1.027,0,.9-1.478.9-1.478l1.927,1.863-.386-1.349,1.092.964V629.14l1.477,1.734.45-1.156,2.119,2.247-.257-1.862,2.761,2.247-.129-1.734,2.119,2.055-.257-1.606,2.505,1.349a7.119,7.119,0,0,0-5.522-4.238,18.632,18.632,0,0,0-8.027.128v-.642l1.734-.9-.514-1.156s2.5.193,2.312.129a18.749,18.749,0,0,1-2.505-2.055c.257.065,5.972.45,5.779.45s-2.826-1.22-2.119-1.027,4.944,1.026,4.751.963-2.377-1.221-1.477-.963,4.624.963,3.853.578-3.917-1.155-1.6-.9,2.7.577,2.311.256-1.605-.834-.578-.578,2.376.128,1.99.064,1.348-.193,1.348-.193a13,13,0,0,0-3.981-1.349,33.949,33.949,0,0,0-5.137.45,29.561,29.561,0,0,0-6.228,2.954,5.429,5.429,0,0,1-2.761,1.349l-.643-.77,1.156-3.018-1.156-.386,2.247-.9-1.156-.514s2.954-.962,2.5-1.027a19.949,19.949,0,0,1-2.568-.835,12.052,12.052,0,0,0,2.376-.963s-2.054-.577-1.67-.513a17.268,17.268,0,0,0,2.89-.9l-2.247-1.413,1.863-.514s-1.027-1.092-.386-.964a18.826,18.826,0,0,0,3.21-.256s-1.8-1.027-1.476-.963a7.219,7.219,0,0,0,1.861-.9s-2.633-.642-3.467-.256-4.173.769-5.265,3.017-2.889,4.881-3.146,5.908a2.657,2.657,0,0,1-1.22,1.54,10.663,10.663,0,0,1-.321-1.219c0-.193-.064-2.184-.064-2.184a10.2,10.2,0,0,1-.257-1.669,8.86,8.86,0,0,0-.45-1.67A17.653,17.653,0,0,1,211,611.737a19.3,19.3,0,0,0-1.285-2.568l-1.669-.834-1.8,1.348-.064,1.734,1.99-.45-1.348,1.028.964.256L206.51,613.6l.963.193s-1.156,1.028-.9,1.092,1.284.256,1.221.449-.321,1.477-.321,1.477l1.091-.065-1.541,1.606.835.642s-.194,1.155.128,1.22-.128.386-.32.835a2.129,2.129,0,0,0,.256,1.476c.129.193-.513.643-.77.129s.707-.065-1.926-3.532a37.461,37.461,0,0,0-5.908-6.036s-3.017-.193-2.633-.128.257,1.091.578,1.284,2.246,1.926,1.8,1.862-2.054-.771-1.284-.321a16.37,16.37,0,0,1,2.633,1.734c-.256,0-1.991-.193-1.67,0s1.863,1.734,1.863,1.734l-.321.193a22.148,22.148,0,0,1,2.184,1.22h-1.091l1.669,1.862-.643.193,1.478,1.477s-.706,0-.257.385,1.22,1.22,1.22,1.22l-.514.835s-5.907-3.917-8.733-4.817-5.522-1.028-7.962.45a30.275,30.275,0,0,0-2.89,1.862l5.587-.9-1.413,1.092,2.568-.643s-.963,1.092-.577,1.092a13.079,13.079,0,0,0,1.926-.514s-.322.9.128.9a12.059,12.059,0,0,0,2.247-.833l-.707,1.156,2.634-.322-.064,1.027s1.733-.385,1.669-.192-.834.964-.449,1.027a11.555,11.555,0,0,0,1.8-.129l-.193.643,1.285-.129-.194.771,1.863-.258-.385.963s-4.3-1.092-7.128-.578a43.594,43.594,0,0,0-6.356,1.862,24.107,24.107,0,0,0-1.992,1.605c-.257.321-1.091,1.285-1.091,1.285l2.119-.707v.643l2.825-.963s-1.414,1.027-.963,1.027,5.33-1.863,5.33-1.863l-1.22.963,3.083-.578-.257.836,2.054-.386s-6.613.32-7.9,1.669a21.066,21.066,0,0,1-3.467,2.7l-.834,1.027,1.99-.385.257.642,2.119-1.8a8.183,8.183,0,0,0-.128,1.413c.063.192,2.311-1.22,2.311-1.22l-.193.642L196.3,634.4a14.026,14.026,0,0,1-.065,1.541c-.063.194.9-.577,1.22-.642s-.256,1.414.579.771,2.889-1.8,2.889-1.8l.063.708h3.275s-5.009,2.953-6.807,4.3a30.38,30.38,0,0,0-4.623,4.174c-.129.385-1.221,1.862-1.541,2.376s-2.376,4.688-2.376,4.688l-.45,1.22,3.083-1.863.513,1.157,1.348-3.66,1.156,1.991,1.348-3.211.835.642.257-3.21s.642.578.706,0,1.67-1.991,1.67-1.991.834.064,1.156.064a7.993,7.993,0,0,0,1.669-.835l1.927.258s-4.751,1.092-5.522,2.5-.064,3.66-.064,3.66,3.212-3.147,3.212-2.44a5.5,5.5,0,0,1-.129,1.219l1.6-1.219.964-.321,1.67-1.541a10.8,10.8,0,0,0-2.055,4.881,36.524,36.524,0,0,0-.386,6.55c.065.256,1.156,2.825,1.156,2.825l-.642-4.816a23.026,23.026,0,0,0,1.413,2.825c.064-.193-.578-4.3-.386-4.3s.771,1.221.771,1.221l.129-4.624s1.54,3.147,1.412,2.825a25.521,25.521,0,0,1,.065-3.211s.9,1.733,1.091,1.027.577-3.467.577-3.467l.643,1.22-.065-3.467,1.733,1.606s1.414,12.073,1.606,15.281,1.862,32.813,2.246,41.1-.769,23.437-.769,28.895S213.662,741.356,213.662,741.356Z" transform="translate(-184.741 -608.335)" fill="#182b71"/><path d="M213.662,741.356h5.371s-.13-33.235-.709-44.6-5.2-49.894-5.587-51.628a5.079,5.079,0,0,1,.064-2.826l1.477,1.863-.321,3.274,1.348-2.44-.128,3.4,1.54-1.991-.514,3.275,2.055-1.734-.321,3.339,1.8-1.67.129,3.147s1.54-1.8,1.54-1.413-.321,3.467-.321,3.467,1.863-1.863,1.863-1.54.064,2.953.064,2.953,1.477-3.981,1.606-2.825.834,5.586.834,5.586a49.064,49.064,0,0,0-.77-6.742c-.514-1.863-3.6-6.871-3.6-6.871l-1.863-2.825-1.412-2.825s-1.348-1.349-1.156-1.285,2.7,2.055,2.7,2.055l-1.926-4.559,6.165,8.8-3.661-8.284,1.67,4.174,1.028-1.605-.129,2.119,1.285-.77.063,2.7.9-1.541.513,2.184,1.735-2.5.128,3.853,1.926-3.4s-.385,3.275-.45,3.661a33.365,33.365,0,0,0,1.991-3.275s.129,3.4.129,3.917,1.926-2.376,1.926-2.376l.32,2.761,1.863-2.376,2.054,2.247s-.577-1.926-5.393-5.587-7.513-5.845-9.761-7.128a8.669,8.669,0,0,1-2.568-1.8,5.326,5.326,0,0,1,2.376-.963c1.027,0,.9-1.478.9-1.478l1.927,1.863-.386-1.349,1.092.964V629.14l1.477,1.734.45-1.156,2.119,2.247-.257-1.862,2.761,2.247-.129-1.734,2.119,2.055-.257-1.606,2.505,1.349a7.119,7.119,0,0,0-5.522-4.238,18.632,18.632,0,0,0-8.027.128v-.642l1.734-.9-.514-1.156s2.5.193,2.312.129a18.749,18.749,0,0,1-2.505-2.055c.257.065,5.972.45,5.779.45s-2.826-1.22-2.119-1.027,4.944,1.026,4.751.963-2.377-1.221-1.477-.963,4.624.963,3.853.578-3.917-1.155-1.6-.9,2.7.577,2.311.256-1.605-.834-.578-.578,2.376.128,1.99.064,1.348-.193,1.348-.193a13,13,0,0,0-3.981-1.349,33.949,33.949,0,0,0-5.137.45,29.561,29.561,0,0,0-6.228,2.954,5.429,5.429,0,0,1-2.761,1.349l-.643-.77,1.156-3.018-1.156-.386,2.247-.9-1.156-.514s2.954-.962,2.5-1.027a19.949,19.949,0,0,1-2.568-.835,12.052,12.052,0,0,0,2.376-.963s-2.054-.577-1.67-.513a17.268,17.268,0,0,0,2.89-.9l-2.247-1.413,1.863-.514s-1.027-1.092-.386-.964a18.826,18.826,0,0,0,3.21-.256s-1.8-1.027-1.476-.963a7.219,7.219,0,0,0,1.861-.9s-2.633-.642-3.467-.256-4.173.769-5.265,3.017-2.889,4.881-3.146,5.908a2.657,2.657,0,0,1-1.22,1.54,10.663,10.663,0,0,1-.321-1.219c0-.193-.064-2.184-.064-2.184a10.2,10.2,0,0,1-.257-1.669,8.86,8.86,0,0,0-.45-1.67A17.653,17.653,0,0,1,211,611.737a19.3,19.3,0,0,0-1.285-2.568l-1.669-.834-1.8,1.348-.064,1.734,1.99-.45-1.348,1.028.964.256L206.51,613.6l.963.193s-1.156,1.028-.9,1.092,1.284.256,1.221.449-.321,1.477-.321,1.477l1.091-.065-1.541,1.606.835.642s-.194,1.155.128,1.22-.128.386-.32.835a2.129,2.129,0,0,0,.256,1.476c.129.193-.513.643-.77.129s.707-.065-1.926-3.532a37.461,37.461,0,0,0-5.908-6.036s-3.017-.193-2.633-.128.257,1.091.578,1.284,2.246,1.926,1.8,1.862-2.054-.771-1.284-.321a16.37,16.37,0,0,1,2.633,1.734c-.256,0-1.991-.193-1.67,0s1.863,1.734,1.863,1.734l-.321.193a22.148,22.148,0,0,1,2.184,1.22h-1.091l1.669,1.862-.643.193,1.478,1.477s-.706,0-.257.385,1.22,1.22,1.22,1.22l-.514.835s-5.907-3.917-8.733-4.817-5.522-1.028-7.962.45a30.275,30.275,0,0,0-2.89,1.862l5.587-.9-1.413,1.092,2.568-.643s-.963,1.092-.577,1.092a13.079,13.079,0,0,0,1.926-.514s-.322.9.128.9a12.059,12.059,0,0,0,2.247-.833l-.707,1.156,2.634-.322-.064,1.027s1.733-.385,1.669-.192-.834.964-.449,1.027a11.555,11.555,0,0,0,1.8-.129l-.193.643,1.285-.129-.194.771,1.863-.258-.385.963s-4.3-1.092-7.128-.578a43.594,43.594,0,0,0-6.356,1.862,24.107,24.107,0,0,0-1.992,1.605c-.257.321-1.091,1.285-1.091,1.285l2.119-.707v.643l2.825-.963s-1.414,1.027-.963,1.027,5.33-1.863,5.33-1.863l-1.22.963,3.083-.578-.257.836,2.054-.386s-6.613.32-7.9,1.669a21.066,21.066,0,0,1-3.467,2.7l-.834,1.027,1.99-.385.257.642,2.119-1.8a8.183,8.183,0,0,0-.128,1.413c.063.192,2.311-1.22,2.311-1.22l-.193.642L196.3,634.4a14.026,14.026,0,0,1-.065,1.541c-.063.194.9-.577,1.22-.642s-.256,1.414.579.771,2.889-1.8,2.889-1.8l.063.708h3.275s-5.009,2.953-6.807,4.3a30.38,30.38,0,0,0-4.623,4.174c-.129.385-1.221,1.862-1.541,2.376s-2.376,4.688-2.376,4.688l-.45,1.22,3.083-1.863.513,1.157,1.348-3.66,1.156,1.991,1.348-3.211.835.642.257-3.21s.642.578.706,0,1.67-1.991,1.67-1.991.834.064,1.156.064a7.993,7.993,0,0,0,1.669-.835l1.927.258s-4.751,1.092-5.522,2.5-.064,3.66-.064,3.66,3.212-3.147,3.212-2.44a5.5,5.5,0,0,1-.129,1.219l1.6-1.219.964-.321,1.67-1.541a10.8,10.8,0,0,0-2.055,4.881,36.524,36.524,0,0,0-.386,6.55c.065.256,1.156,2.825,1.156,2.825l-.642-4.816a23.026,23.026,0,0,0,1.413,2.825c.064-.193-.578-4.3-.386-4.3s.771,1.221.771,1.221l.129-4.624s1.54,3.147,1.412,2.825a25.521,25.521,0,0,1,.065-3.211s.9,1.733,1.091,1.027.577-3.467.577-3.467l.643,1.22-.065-3.467,1.733,1.606s1.414,12.073,1.606,15.281,1.862,32.813,2.246,41.1-.769,23.437-.769,28.895S213.662,741.356,213.662,741.356Z" transform="translate(-184.741 -608.335)" fill="url(#w)"/></g><g transform="translate(120.714 72.318)"><path d="M478.022,786.761c0,2.137-53.39,3.869-119.251,3.869S239.52,788.9,239.52,786.761s53.391-3.868,119.251-3.868S478.022,784.625,478.022,786.761Z" transform="translate(-239.52 -672.893)" opacity="0.9" fill="url(#x)" style="mix-blend-mode:multiply;isolation:isolate"/><g transform="translate(15.68 18.766)"><path d="M424.91,766.073A7.583,7.583,0,0,0,431,769.75c4.134.114,32.164-.115,32.164-.115h5.515s5.973-1.033,6.549-5.515-6.435-16.2-25.159-13.9S425.485,755.5,424.91,766.073Z" transform="translate(-277.407 -687.71)" fill="#1a2d6d"/><path d="M286.308,764.229s8.731,0,13.9-.574,29.753,1.953,32.51.919-6.433-22.631-26.881-21.366S286.422,756.992,286.308,764.229Z" transform="translate(-260.805 -686.898)" fill="#1a2d6d"/><path d="M424.91,766.073A7.583,7.583,0,0,0,431,769.75c4.134.114,32.164-.115,32.164-.115h5.515s5.973-1.033,6.549-5.515-6.435-16.2-25.159-13.9S425.485,755.5,424.91,766.073Z" transform="translate(-277.407 -687.71)" fill="url(#y)"/><path d="M286.308,764.229s8.731,0,13.9-.574,29.753,1.953,32.51.919-6.433-22.631-26.881-21.366S286.422,756.992,286.308,764.229Z" transform="translate(-260.805 -686.898)" fill="url(#z)"/><path d="M467.554,768.907a16.428,16.428,0,1,1-16.428-16.427A16.428,16.428,0,0,1,467.554,768.907Z" transform="translate(-278.58 -688.016)"/><path d="M467.554,768.907a16.428,16.428,0,1,1-16.428-16.427A16.428,16.428,0,0,1,467.554,768.907Z" transform="translate(-278.58 -688.016)" fill="url(#aa)"/><path d="M461.4,769.877a9.3,9.3,0,1,1-9.3-9.3A9.3,9.3,0,0,1,461.4,769.877Z" transform="translate(-279.549 -688.985)" fill="#fff"/><path d="M460.408,770.033a8.156,8.156,0,1,1-8.157-8.156A8.156,8.156,0,0,1,460.408,770.033Z" transform="translate(-279.706 -689.141)" fill="#ced5dd"/><path d="M469.81,739.8c0,12.294-1.841,19.072-1.841,19.072H455.335a60.637,60.637,0,0,1-4.023-6.433,7.06,7.06,0,0,0-5.056-3.791s-25.5.232-29.866.114a5.1,5.1,0,0,0-5.287,3.677l-4.362,8.04-78.232.921-2.875-1.492a75.415,75.415,0,0,0-5.628-11.26c-3.79-6.317-12.519-6.089-20.333-4.939s-10.683,12.177-11.373,14.358-5.514,1.723-13.44,1.841-7.582-4.253-8.385-6.2-.921-20.564-.921-20.564l0-.011c.121-.417,4.032-13.823,4.934-16.876a19.8,19.8,0,0,1,3.678-6.2l12.52-19.3,175.419-.92c4.193,4.883,6.434,24.469,6.434,24.469s.034.366.093,1.034C468.931,718.672,469.81,729.559,469.81,739.8Z" transform="translate(-258.319 -680.511)" fill="#dbac00"/><path d="M468.638,715.336l-120.256,1.15s-52.843.345-65.249,2.412c-12.214,2.039-17.414,13.866-17.573,14.234.121-.417,4.032-13.823,4.934-16.876a19.8,19.8,0,0,1,3.678-6.2l12.52-19.3,175.419-.92c4.193,4.883,6.434,24.469,6.434,24.469S468.579,714.668,468.638,715.336Z" transform="translate(-258.319 -680.511)" fill="#eff6ff"/><path d="M284.35,690.518l49.972-.43,95.893-.518,32.137-.172,2.756-.087a20.362,20.362,0,0,0-6.835-4.939c-4.365-1.954-17.4-2.814-21.137-2.872s-11.546-.057-11.546-.057l-42.791.344-44.917.46s-1.378-3.274-3.446-2.987-2.872.919-3.619.919-27.111,2.124-28.835,2.355-10.97,1.035-14.186,3.677S284.35,690.518,284.35,690.518Z" transform="translate(-260.57 -679.243)" fill="#eff6ff"/><path d="M330.088,686.815c0,1,.05,1.81-.948,1.81H306.911a1.81,1.81,0,0,1-1.809-1.81h0c0-1,4.285-1.809,5.284-1.809H329.14c1,0,.948.809.948,1.809Z" transform="translate(-263.056 -679.933)" fill="#ced5dd"/><path d="M365.214,686.815c0,1-.233,1.81-1.158,1.81h-20.6c-.927,0-1.16-.811-1.16-1.81h0c0-1,.233-1.809,1.16-1.809h20.6c.925,0,1.158.809,1.158,1.809Z" transform="translate(-267.511 -679.933)" fill="#ced5dd"/><path d="M400.724,686.815c0,1-.32,1.81-1.246,1.81h-20.6c-.926,0-1.246-.811-1.246-1.81h0c0-1,.32-1.809,1.246-1.809h20.6c.926,0,1.246.809,1.246,1.809Z" transform="translate(-271.744 -679.933)" fill="#ced5dd"/><path d="M435.679,686.619c0,1-.234,1.81-1.159,1.81h-20.6c-.927,0-1.246-.81-1.246-1.81h0c0-1,.32-1.809,1.246-1.809h20.6c.925,0,1.159.811,1.159,1.809Z" transform="translate(-275.942 -679.91)" fill="#ced5dd"/><path d="M286.4,764.695s.258,5.428-3.964,6.291-13.785-.689-15.681-.6-6.117-1.033-6.289-3.532,1.292-4.221,3.79-4.221,1.723,1.464,6.549,1.635,12.752,0,12.752,0S286.4,763.834,286.4,764.695Z" transform="translate(-257.707 -689.231)" fill="#bdcfff"/><path d="M257.334,754.337l.948,14.043s2.5.864,3.532-.085,1.982-5.514,1.12-6.892a62.253,62.253,0,0,1-2.757-7.323S258.368,753.389,257.334,754.337Z" transform="translate(-257.334 -688.178)" fill="#bdcfff"/><path d="M269,743.591c0,3.236-1.093,5.86-2.441,5.86s-2.441-2.624-2.441-5.86,1.091-5.859,2.441-5.859S269,740.356,269,743.591Z" transform="translate(-258.147 -686.249)" fill="#eff6ff"/><path d="M267.317,743.564c0,2.551-.862,4.618-1.924,4.618s-1.924-2.068-1.924-4.618.861-4.618,1.924-4.618S267.317,741.014,267.317,743.564Z" transform="translate(-258.069 -686.394)" fill="#dbac00"/><path d="M272.6,732.559c-.5,1.689-1.57,2.861-2.4,2.617s-1.1-1.811-.607-3.5,1.571-2.862,2.4-2.619S273.1,730.869,272.6,732.559Z" transform="translate(-258.773 -685.206)" fill="#eff6ff"/><path d="M271.6,732.228c-.39,1.332-1.238,2.256-1.892,2.063s-.87-1.428-.479-2.759,1.238-2.256,1.893-2.064S271.992,730.9,271.6,732.228Z" transform="translate(-258.736 -685.256)" fill="#df82be"/><path d="M260.8,755.545a1.167,1.167,0,0,0-.345,1.321,1.042,1.042,0,0,0,1.148.574s2.987-.688,4.193.8a6.957,6.957,0,0,1,1.321,3.964c.058.631.115,1.493.115,1.493a1.245,1.245,0,0,0,2.01-.343s-.115-3.963-1.608-6.032S260.8,755.545,260.8,755.545Z" transform="translate(-257.696 -688.381)" fill="#bdcfff"/><path d="M259.945,754.346s1.551-2.642,6.088-2.011l-.115,1.437s-3.791,0-4.939,1.839Z" transform="translate(-257.647 -687.987)" fill="#bdcfff"/><path d="M273.8,757.671h11.374a4.094,4.094,0,0,0,3.7-1.9c1.378-2.153,2.757-11.889,16.284-11.718s22.283.346,22.283.346l.031-26.021-30.413.258s-16.456-.085-21.022,3.1C276.045,721.745,271.823,747.419,273.8,757.671Z" transform="translate(-259.244 -683.931)" fill="none" stroke="#dbac00" stroke-miterlimit="10" stroke-width="0.689"/><path d="M273.876,757.671H285.25a4.094,4.094,0,0,0,3.7-1.9c1.378-2.153,2.757-11.889,16.284-11.718s22.283.346,22.283.346l.031-26.021" transform="translate(-259.316 -683.931)" fill="none" stroke="#000" stroke-miterlimit="10" stroke-width="0.689"/><path d="M322.387,729.357h6.95s1.034-.975,1.953-.518a1.35,1.35,0,0,1,.4,2.069,2.867,2.867,0,0,1-2.469.056c-.46-.4-5.744-.4-5.744-.4S322.042,730.622,322.387,729.357Z" transform="translate(-265.12 -685.169)" fill="#ced5dd"/><path d="M335.9,765.384s.919,1.609,1.838,1.724H408.5s2.068-.574,2.3-1.839Z" transform="translate(-266.745 -689.548)"/><path d="M326.211,768.907a16.428,16.428,0,1,1-16.427-16.427A16.427,16.427,0,0,1,326.211,768.907Z" transform="translate(-261.649 -688.016)"/><path d="M326.211,768.907a16.428,16.428,0,1,1-16.427-16.427A16.427,16.427,0,0,1,326.211,768.907Z" transform="translate(-261.649 -688.016)" fill="url(#ab)"/><path d="M320.057,769.877a9.305,9.305,0,1,1-9.3-9.3A9.305,9.305,0,0,1,320.057,769.877Z" transform="translate(-262.618 -688.985)" fill="#fff"/><path d="M319.065,770.033a8.156,8.156,0,1,1-8.156-8.156A8.156,8.156,0,0,1,319.065,770.033Z" transform="translate(-262.775 -689.141)" fill="#ced5dd"/><path d="M275.371,702.427c1.033-.085.948,1.121,1.12,2.585s1.207,8.271,1.207,8.271-.862.862-1.378-.517a19.993,19.993,0,0,1-1.466-5.945A16.217,16.217,0,0,1,275.371,702.427Z" transform="translate(-259.432 -682.019)"/><path d="M275.882,721.878a3.121,3.121,0,0,1-1.809-3.187,20.79,20.79,0,0,1,1.636-6.375l.518,1.121a10.125,10.125,0,0,0-1.466,5c.173,2.327,1.379,2.586,1.379,2.586Z" transform="translate(-259.339 -683.204)" fill="#bdcfff"/><path d="M327.979,713.356H283.349a2.651,2.651,0,0,1-2.24-2.068,3.071,3.071,0,0,1,1.033-3.016l7.755-13.01s-.258-1.378,3.188-1.206,31.189-.345,31.189-.345,3.619-.6,3.7,3.016S327.979,713.356,327.979,713.356Z" transform="translate(-260.172 -680.971)" fill="#dbac00"/><path d="M326.762,712.32H284.817a1.68,1.68,0,0,1-2.1-1.334,2.889,2.889,0,0,1,.97-2.838l7.288-11.617s-.243-1.3,3-1.134c.952.049,3.875.037,7.536,0,1.8-.018,3.777-.042,5.785-.066l2.443-.037c2.014-.03,4-.061,5.8-.091,4.42-.072,7.749-.133,7.749-.133s3.4-.565,3.487,2.837S326.762,712.32,326.762,712.32Z" transform="translate(-260.365 -681.134)" fill="#df82be"/><path d="M326.762,712.32H284.817a1.68,1.68,0,0,1-2.1-1.334,2.889,2.889,0,0,1,.97-2.838l7.288-11.617s-.243-1.3,3-1.134c.952.049,3.875.037,7.536,0,1.8-.018,3.777-.042,5.785-.066l2.443-.037c2.014-.03,4-.061,5.8-.091,4.42-.072,7.749-.133,7.749-.133s3.4-.565,3.487,2.837S326.762,712.32,326.762,712.32Z" transform="translate(-260.365 -681.134)" fill="url(#ac)"/><g transform="translate(34.189 14.069)"><path d="M308.909,695.371l-6.973,16.989h-5.76l6.948-16.923C304.925,695.419,306.9,695.395,308.909,695.371Z" transform="translate(-296.176 -695.243)" fill="#eff6ff"/><path d="M318.263,695.226l-7.028,17.117h-5.76l6.991-17.026C314.48,695.287,316.462,695.256,318.263,695.226Z" transform="translate(-297.29 -695.226)" fill="#eff6ff"/></g><path d="M501.048,755.357l-1.551,9.219,1.723,6.289,2.929-.258v-14.13s-.345-1.207-.948-1.292A11.17,11.17,0,0,0,501.048,755.357Z" transform="translate(-286.342 -688.338)" fill="#bdcfff"/><g transform="translate(72.343 12.234)"><path d="M5.127,0h17.2a5.128,5.128,0,0,1,5.128,5.128V15.276A5.129,5.129,0,0,1,22.33,20.4H5.129A5.129,5.129,0,0,1,0,15.276V5.127A5.127,5.127,0,0,1,5.127,0Z" fill="#dbac00"/><path d="M4.7,0h15.76a4.7,4.7,0,0,1,4.7,4.7V14a4.7,4.7,0,0,1-4.7,4.7H4.7A4.7,4.7,0,0,1,0,14V4.7A4.7,4.7,0,0,1,4.7,0Z" transform="translate(1.15 0.855)" fill="#1a2d6d"/><path d="M366.845,698.244v10.43a4.136,4.136,0,0,1-4.136,4.134H349.353a4.268,4.268,0,0,1-.65-.824,4.66,4.66,0,0,1-.727-2.528V697.464a4.733,4.733,0,0,1,1.377-3.354h13.356a3.936,3.936,0,0,1,1.414.254A4.131,4.131,0,0,1,366.845,698.244Z" transform="translate(-340.535 -693.257)" fill="#df82be"/><path d="M366.845,698.244v10.43a4.136,4.136,0,0,1-4.136,4.134H349.353a4.268,4.268,0,0,1-.65-.824,4.66,4.66,0,0,1-.727-2.528V697.464a4.733,4.733,0,0,1,1.377-3.354h13.356a3.936,3.936,0,0,1,1.414.254A4.131,4.131,0,0,1,366.845,698.244Z" transform="translate(-340.535 -693.257)" fill="url(#ad)"/><g transform="translate(8.168 0.853)"><path d="M361.9,694.11l-7.675,18.7h-4.772a4.268,4.268,0,0,1-.65-.824l7.337-17.875Z" transform="translate(-348.802 -694.11)" fill="#eff6ff"/><path d="M368.012,698.279V701.8l-4.536,11.041h-5.76l7.573-18.444A4.131,4.131,0,0,1,368.012,698.279Z" transform="translate(-349.87 -694.145)" fill="#eff6ff"/></g></g><g transform="translate(106.297 12.234)"><path d="M5.127,0h17.2a5.128,5.128,0,0,1,5.128,5.128V15.276A5.129,5.129,0,0,1,22.329,20.4H5.129A5.129,5.129,0,0,1,0,15.276V5.127A5.127,5.127,0,0,1,5.127,0Z" fill="#dbac00"/><path d="M4.7,0H20.46a4.7,4.7,0,0,1,4.7,4.7V14a4.7,4.7,0,0,1-4.7,4.7H4.7A4.7,4.7,0,0,1,0,14V4.7A4.7,4.7,0,0,1,4.7,0Z" transform="translate(1.149 0.855)" fill="#1a2d6d"/><path d="M405.42,698.244v10.43a4.136,4.136,0,0,1-4.137,4.134H387.927a4.3,4.3,0,0,1-.649-.824,4.66,4.66,0,0,1-.728-2.528V697.464a4.74,4.74,0,0,1,1.377-3.354h13.356a3.941,3.941,0,0,1,1.415.254A4.133,4.133,0,0,1,405.42,698.244Z" transform="translate(-379.11 -693.257)" fill="#df82be"/><path d="M405.42,698.244v10.43a4.136,4.136,0,0,1-4.137,4.134H387.927a4.3,4.3,0,0,1-.649-.824,4.66,4.66,0,0,1-.728-2.528V697.464a4.74,4.74,0,0,1,1.377-3.354h13.356a3.941,3.941,0,0,1,1.415.254A4.133,4.133,0,0,1,405.42,698.244Z" transform="translate(-379.11 -693.257)" fill="url(#ae)"/><g transform="translate(8.168 0.853)"><path d="M400.474,694.11l-7.676,18.7h-4.772a4.3,4.3,0,0,1-.649-.824l7.337-17.875Z" transform="translate(-387.377 -694.11)" fill="#eff6ff"/><path d="M406.587,698.279V701.8l-4.537,11.041h-5.76l7.574-18.444A4.133,4.133,0,0,1,406.587,698.279Z" transform="translate(-388.445 -694.145)" fill="#eff6ff"/></g></g><g transform="translate(138.431 12.234)"><path d="M5.127,0h17.2a5.13,5.13,0,0,1,5.13,5.13V15.276A5.129,5.129,0,0,1,22.33,20.4H5.128A5.128,5.128,0,0,1,0,15.277V5.127A5.127,5.127,0,0,1,5.127,0Z" fill="#dbac00"/><path d="M4.7,0H20.46a4.7,4.7,0,0,1,4.7,4.7V14a4.7,4.7,0,0,1-4.7,4.7H4.7A4.7,4.7,0,0,1,0,14V4.7A4.7,4.7,0,0,1,4.7,0Z" transform="translate(1.15 0.855)" fill="#1a2d6d"/><path d="M441.928,698.244v10.43a4.122,4.122,0,0,1-3.608,4.092,3.051,3.051,0,0,1-.528.042H424.435a.534.534,0,0,1-.055-.06,4.713,4.713,0,0,1-1.321-3.292V697.464a4.74,4.74,0,0,1,1.376-3.354h13.357a4.084,4.084,0,0,1,2.171.619A4.134,4.134,0,0,1,441.928,698.244Z" transform="translate(-415.617 -693.257)" fill="#df82be"/><path d="M441.928,698.244v10.43a4.122,4.122,0,0,1-3.608,4.092,3.051,3.051,0,0,1-.528.042H424.435a.534.534,0,0,1-.055-.06,4.713,4.713,0,0,1-1.321-3.292V697.464a4.74,4.74,0,0,1,1.376-3.354h13.357a4.084,4.084,0,0,1,2.171.619A4.134,4.134,0,0,1,441.928,698.244Z" transform="translate(-415.617 -693.257)" fill="url(#af)"/><g transform="translate(8.763 0.853)"><path d="M437.972,694.11l-7.675,18.7h-5.682a.534.534,0,0,1-.055-.06l7.652-18.638Z" transform="translate(-424.56 -694.11)" fill="#eff6ff"/><path d="M443.219,698.329v5.737l-3.608,8.784a3.051,3.051,0,0,1-.528.042h-5.25l7.422-18.08A4.134,4.134,0,0,1,443.219,698.329Z" transform="translate(-425.671 -694.194)" fill="#eff6ff"/></g></g><g transform="translate(171.577 12.234)"><path d="M5.129,0h17.2a5.128,5.128,0,0,1,5.128,5.128V15.276A5.129,5.129,0,0,1,22.33,20.4H5.129A5.129,5.129,0,0,1,0,15.276V5.129A5.129,5.129,0,0,1,5.129,0Z" fill="#dbac00"/><path d="M4.7,0H20.459a4.7,4.7,0,0,1,4.7,4.7V14a4.7,4.7,0,0,1-4.7,4.7H4.7A4.7,4.7,0,0,1,0,14V4.7A4.7,4.7,0,0,1,4.7,0Z" transform="translate(1.15 0.855)" fill="#1a2d6d"/><path d="M479.582,698.247v10.425a4.134,4.134,0,0,1-4.135,4.136H462.089a4.744,4.744,0,0,1-1.376-3.349v-12a4.733,4.733,0,0,1,1.376-3.35h13.358A4.134,4.134,0,0,1,479.582,698.247Z" transform="translate(-453.274 -693.258)" fill="#df82be"/><path d="M479.582,698.247v10.425a4.134,4.134,0,0,1-4.135,4.136H462.089a4.744,4.744,0,0,1-1.376-3.349v-12a4.733,4.733,0,0,1,1.376-3.35h13.358A4.134,4.134,0,0,1,479.582,698.247Z" transform="translate(-453.274 -693.258)" fill="url(#ag)"/></g><path d="M482.758,768.966c0,1.983.518,3.361,3.533,3.619a97.6,97.6,0,0,0,9.821-.172s2.845,0,3.533-1.034a21.217,21.217,0,0,0,1.379-2.584s.43-3.532-1.207-3.877a28.305,28.305,0,0,0-3.877-.431s-2.412,1.378-3.963,1.293-6.808.085-6.808.085A3.144,3.144,0,0,0,482.758,768.966Z" transform="translate(-284.337 -689.454)" fill="#bdcfff"/><path d="M494.858,766.321c.637.574,1.205.172,1.981-.863s4.566-5.254,4.566-5.254,1.81-1.378.948-2.414-2.5,1.035-2.5,1.035l-4.48,5.685S494,765.545,494.858,766.321Z" transform="translate(-285.752 -688.617)" fill="#bdcfff"/><g transform="translate(177.83 39.823)"><path d="M459.365,740.929h15.8s-.632.862-1.32.8-13.1,0-13.1,0S459.537,741.388,459.365,740.929Z" transform="translate(-459.365 -726.455)" fill="#1a2d6d"/><path d="M459.365,738.188h15.8s-.632.864-1.32.805-13.1,0-13.1,0S459.537,738.647,459.365,738.188Z" transform="translate(-459.365 -726.126)" fill="#1a2d6d"/><path d="M459.365,735.448h15.8s-.632.862-1.32.8-13.1,0-13.1,0S459.537,735.907,459.365,735.448Z" transform="translate(-459.365 -725.798)" fill="#1a2d6d"/><path d="M459.365,732.707h15.8s-.632.863-1.32.8-13.1,0-13.1,0S459.537,733.167,459.365,732.707Z" transform="translate(-459.365 -725.47)" fill="#1a2d6d"/><path d="M459.365,729.965h15.8s-.632.863-1.32.806-13.1,0-13.1,0S459.537,730.426,459.365,729.965Z" transform="translate(-459.365 -725.141)" fill="#1a2d6d"/><path d="M459.365,727.226h15.8s-.632.862-1.32.8-13.1,0-13.1,0S459.537,727.685,459.365,727.226Z" transform="translate(-459.365 -724.813)" fill="#1a2d6d"/><path d="M459.365,724.485h15.8s-.632.863-1.32.8-13.1,0-13.1,0S459.537,724.944,459.365,724.485Z" transform="translate(-459.365 -724.485)" fill="#1a2d6d"/></g><line y1="1.276" x2="141.757" transform="translate(68.237 33.177)" fill="none" stroke="#dbac00" stroke-miterlimit="10" stroke-width="0.689"/><line x1="176.843" transform="translate(27.491 10.944)" fill="none" stroke="#dbac00" stroke-miterlimit="10" stroke-width="0.689"/><rect width="25.668" height="1.82" transform="translate(172.401 23.272)" fill="#ced5dd"/><rect width="25.668" height="1.819" transform="translate(172.401 26.709)" fill="#ced5dd"/></g><g transform="translate(105.118)"><path d="M444.844,678.384c0,.849-.322,1.536-.718,1.536h-16.5c-.4,0-.718-.687-.718-1.536V668.057c0-.848.321-1.535.718-1.535h16.5c.4,0,.718.687.718,1.535Z" transform="translate(-367.084 -658.953)" fill="#d181b3"/><path d="M444.844,678.384c0,.849-.322,1.536-.718,1.536h-16.5c-.4,0-.718-.687-.718-1.536V668.057c0-.848.321-1.535.718-1.535h16.5c.4,0,.718.687.718,1.535Z" transform="translate(-367.084 -658.953)" fill="url(#ah)"/><path d="M419.846,661.8v15.225a2.266,2.266,0,0,1-2.267,2.261h-52.01a2.262,2.262,0,0,1-2.261-2.261V661.8a2.267,2.267,0,0,1,2.261-2.267h52.01A2.272,2.272,0,0,1,419.846,661.8Z" transform="translate(-359.466 -658.116)" fill="#7ea0ff"/><path d="M419.846,661.8v12.69H363.307V661.8a2.267,2.267,0,0,1,2.261-2.267h52.01A2.272,2.272,0,0,1,419.846,661.8Z" transform="translate(-359.466 -658.116)" fill="url(#ai)" style="mix-blend-mode:multiply;isolation:isolate"/><line x2="55.985" transform="translate(3.839 13.946)" fill="none" stroke="#fafbfc" stroke-miterlimit="10" stroke-width="0.689"/><rect width="4.244" height="3.234" transform="translate(0 9.499)" fill="#1a2d6d"/><g transform="translate(29.508)"><rect width="6.669" height="21.221" fill="#ced5dd"/><rect width="6.669" height="21.221" fill="url(#aj)"/></g><g transform="translate(65.988 6.387)"><rect width="4.243" height="14.713" fill="#ced5dd"/><rect width="4.243" height="14.713" fill="url(#aj)"/></g><g transform="translate(13.658 9.701)"><rect width="2.628" height="4.952" transform="translate(0.792)" fill="#ced5dd"/><path d="M1.931,0h.481a1.93,1.93,0,0,1,1.93,1.93v1.5A1.931,1.931,0,0,1,2.41,5.356H1.93A1.93,1.93,0,0,1,0,3.426v-1.5A1.931,1.931,0,0,1,1.931,0Z" transform="translate(0 2.628)" fill="#dbac00"/></g><g transform="translate(49.228 9.701)"><rect width="2.628" height="4.952" transform="translate(0.792)" fill="#ced5dd"/><path d="M1.931,0h.48A1.931,1.931,0,0,1,4.342,1.931v1.5A1.929,1.929,0,0,1,2.412,5.356H1.93A1.93,1.93,0,0,1,0,3.426v-1.5A1.931,1.931,0,0,1,1.931,0Z" transform="translate(0 2.628)" fill="#dbac00"/></g></g></g><g transform="translate(22.261 62.614)"><path d="M168.554,668.151a.549.549,0,1,1-.549-.549A.549.549,0,0,1,168.554,668.151Z" transform="translate(-132.435 -649.378)" fill="#fff"/><path d="M167.532,678.927a1.1,1.1,0,1,1-1.1-1.1A1.1,1.1,0,0,1,167.532,678.927Z" transform="translate(-132.181 -650.603)" fill="#fff"/><path d="M182.767,667.212a.11.11,0,1,1-.109-.109A.109.109,0,0,1,182.767,667.212Z" transform="translate(-134.243 -649.318)" fill="#fff"/><path d="M187.917,685a1.811,1.811,0,1,1-1.811-1.811A1.811,1.811,0,0,1,187.917,685Z" transform="translate(-134.452 -651.246)" fill="#fff"/><path d="M170.81,704.7a1.427,1.427,0,1,1-1.427-1.427A1.427,1.427,0,0,1,170.81,704.7Z" transform="translate(-132.495 -653.651)" fill="#fff"/><path d="M204.236,673.27a1.427,1.427,0,1,1-1.428-1.428A1.428,1.428,0,0,1,204.236,673.27Z" transform="translate(-136.499 -649.886)" fill="#fff"/><path d="M206.062,686.156a1.592,1.592,0,1,1-1.592-1.592A1.592,1.592,0,0,1,206.062,686.156Z" transform="translate(-136.678 -651.41)" fill="#fff"/><path d="M207.583,710.3a1.043,1.043,0,1,1-1.043-1.044A1.043,1.043,0,0,1,207.583,710.3Z" transform="translate(-136.992 -654.368)" fill="#fff"/><path d="M220.769,658.587a.714.714,0,1,1-.714-.714A.714.714,0,0,1,220.769,658.587Z" transform="translate(-138.65 -648.213)" fill="#fff"/><path d="M160.717,650.575a.933.933,0,1,1-.933-.933A.934.934,0,0,1,160.717,650.575Z" transform="translate(-131.404 -647.227)" fill="#fff"/><path d="M265.093,692.59a.549.549,0,1,1-.763.141A.549.549,0,0,1,265.093,692.59Z" transform="translate(-144.028 -652.36)" fill="#fff"/><path d="M273.418,699.449a1.1,1.1,0,1,1-1.527.283A1.1,1.1,0,0,1,273.418,699.449Z" transform="translate(-144.922 -653.17)" fill="#fff"/><path d="M246.192,689.011a.933.933,0,1,1-1.3.239A.933.933,0,0,1,246.192,689.011Z" transform="translate(-141.691 -651.923)" fill="#fff"/><path d="M128.767,659.42a.549.549,0,1,1-.548-.549A.548.548,0,0,1,128.767,659.42Z" transform="translate(-127.669 -648.332)" fill="#fff"/><path d="M142.777,686.007a2.69,2.69,0,1,1-2.689-2.69A2.69,2.69,0,0,1,142.777,686.007Z" transform="translate(-128.834 -651.261)" fill="#fff"/><path d="M195.915,648.654a1.757,1.757,0,1,1-1.758-1.756A1.758,1.758,0,0,1,195.915,648.654Z" transform="translate(-135.423 -646.898)" fill="#fff"/></g><g transform="translate(327.083 29.651)"><path d="M584.028,693.808a.549.549,0,1,1,.713.308A.55.55,0,0,1,584.028,693.808Z" transform="translate(-487.152 -619.465)" fill="#fff"/><path d="M580.852,683.292a1.1,1.1,0,1,1,1.424.618A1.1,1.1,0,0,1,580.852,683.292Z" transform="translate(-486.767 -618.115)" fill="#fff"/><path d="M571.288,699.99a.11.11,0,1,1,.143.062A.11.11,0,0,1,571.288,699.99Z" transform="translate(-485.629 -620.277)" fill="#fff"/><path d="M559.438,684.968a1.811,1.811,0,1,1,2.348,1.02A1.811,1.811,0,0,1,559.438,684.968Z" transform="translate(-484.196 -618.199)" fill="#fff"/><path d="M568.242,660.449a1.427,1.427,0,1,1,1.851.8A1.427,1.427,0,0,1,568.242,660.449Z" transform="translate(-485.254 -615.325)" fill="#fff"/><path d="M548.683,701.953a1.427,1.427,0,1,1,1.852.8A1.427,1.427,0,0,1,548.683,701.953Z" transform="translate(-482.911 -620.297)" fill="#fff"/><path d="M542.2,690.6a1.592,1.592,0,1,1,2.064.9A1.593,1.593,0,0,1,542.2,690.6Z" transform="translate(-482.133 -618.91)" fill="#fff"/><path d="M532.1,668.815a1.043,1.043,0,1,1,1.353.588A1.046,1.046,0,0,1,532.1,668.815Z" transform="translate(-480.927 -616.39)" fill="#fff"/><path d="M538.915,721.832a.714.714,0,1,1,.926.4A.714.714,0,0,1,538.915,721.832Z" transform="translate(-481.747 -622.795)" fill="#fff"/><path d="M597.649,707.2a.933.933,0,1,1,1.21.526A.931.931,0,0,1,597.649,707.2Z" transform="translate(-488.78 -621.006)" fill="#fff"/><path d="M485.255,706.5a.549.549,0,1,1,.658-.412A.548.548,0,0,1,485.255,706.5Z" transform="translate(-475.274 -620.946)" fill="#fff"/><path d="M474.823,703.061a1.1,1.1,0,1,1,1.317-.822A1.1,1.1,0,0,1,474.823,703.061Z" transform="translate(-473.973 -620.403)" fill="#fff"/><path d="M504.032,702.815a.933.933,0,1,1,1.119-.7A.933.933,0,0,1,504.032,702.815Z" transform="translate(-477.487 -620.413)" fill="#fff"/><path d="M624.243,687.327a.549.549,0,1,1,.712.31A.548.548,0,0,1,624.243,687.327Z" transform="translate(-491.969 -618.689)" fill="#fff"/><path d="M606.278,613.128a2.69,2.69,0,1,1,3.49,1.514A2.692,2.692,0,0,1,606.278,613.128Z" transform="translate(-489.799 -609.45)" fill="#fff"/><path d="M565.355,721.727a1.756,1.756,0,1,1,2.279.989A1.756,1.756,0,0,1,565.355,721.727Z" transform="translate(-484.905 -622.612)" fill="#fff"/></g></g></g></g></svg>