<svg xmlns="http://www.w3.org/2000/svg" width="17.514" height="18.31" viewBox="0 0 17.514 18.31">
  <g id="translate" transform="translate(0)">
    <g id="Raggruppa_2817" data-name="Raggruppa 2817" transform="translate(6.77 0)">
      <g id="Raggruppa_2815" data-name="Raggruppa 2815" transform="translate(0 0)">
        <g id="Raggruppa_2814" data-name="Raggruppa 2814">
          <path id="Unione_15" data-name="Unione 15" d="M2.9,11.067H0v-5.7A5.38,5.38,0,0,1,5.374,0h5.371V11.067H7.432l-1.523.761L2.9,13.332Z" fill="#2d2d2d"/>
        </g>
      </g>
      <g id="Raggruppa_2816" data-name="Raggruppa 2816" transform="translate(2.999 2.981)">
        <path id="Unione_17" data-name="Unione 17" d="M2.91,5.041A5.1,5.1,0,0,1,.4,5.659H0V4.586H.4A4.261,4.261,0,0,0,1.97,4.3a3.6,3.6,0,0,1-.938-2.123H.068V1.1h2.3V0H3.447V1.1H5.753V2.179H4.788A3.592,3.592,0,0,1,3.851,4.3a4.254,4.254,0,0,0,1.571.284V5.659A5.1,5.1,0,0,1,2.91,5.041Zm0-1.319a2.483,2.483,0,0,0,.8-1.543H2.115A2.475,2.475,0,0,0,2.91,3.722Z" fill="#fffbf5"/>
      </g>
    </g>
    <g id="Raggruppa_2821" data-name="Raggruppa 2821" transform="translate(0 4.978)">
      <g id="Raggruppa_2819" data-name="Raggruppa 2819" transform="translate(0 0)">
        <g id="Raggruppa_2818" data-name="Raggruppa 2818">
          <path id="Unione_14" data-name="Unione 14" d="M4.836,11.828v0l-1.523-.761H0V0H4.835V0h.536a5.378,5.378,0,0,1,5.373,5.373v5.693h-2.9v2.266Z" fill="#36c6ff"/>
        </g>
      </g>
      <g id="Raggruppa_2820" data-name="Raggruppa 2820" transform="translate(2.531 2.956)">
        <path id="Unione_16" data-name="Unione 16" d="M3.168,4.1H2.305v0H1.445L1,5.256,0,4.874,1.856,0H2.3V0l.463,0L4.609,4.876l-1,.38ZM2.3,1.843,1.854,3.023H2.3v0h.457L2.311,1.829l-.006.014v0Z" fill="#fffbf5"/>
      </g>
    </g>
  </g>
</svg>
